<?xml version="1.0" encoding="UTF-8" standalone="no"?>
<!-- Created with Inkscape (http://www.inkscape.org/) -->

<svg
   xmlns:dc="http://purl.org/dc/elements/1.1/"
   xmlns:cc="http://creativecommons.org/ns#"
   xmlns:rdf="http://www.w3.org/1999/02/22-rdf-syntax-ns#"
   xmlns:svg="http://www.w3.org/2000/svg"
   xmlns="http://www.w3.org/2000/svg"
   xmlns:sodipodi="http://sodipodi.sourceforge.net/DTD/sodipodi-0.dtd"
   xmlns:inkscape="http://www.inkscape.org/namespaces/inkscape"
   width="100mm"
   height="40mm"
   viewBox="0 0 100 40"
   version="1.1"
   id="svg8"
   inkscape:version="0.92.3 (2405546, 2018-03-11)"
   sodipodi:docname="Logo-Title.svg">
  <title
     id="title852">Suru++ Telinkrin</title>
  <defs
     id="defs2" />
  <sodipodi:namedview
     id="base"
     pagecolor="#ffffff"
     bordercolor="#666666"
     borderopacity="1.0"
     inkscape:pageopacity="0.0"
     inkscape:pageshadow="2"
     inkscape:zoom="0.35"
     inkscape:cx="181.89276"
     inkscape:cy="-344.44628"
     inkscape:document-units="mm"
     inkscape:current-layer="layer1"
     showgrid="false"
     fit-margin-top="0"
     fit-margin-left="0"
     fit-margin-right="0"
     fit-margin-bottom="0"
     inkscape:window-width="1920"
     inkscape:window-height="998"
     inkscape:window-x="0"
     inkscape:window-y="0"
     inkscape:window-maximized="1" />
  <metadata
     id="metadata5">
    <rdf:RDF>
      <cc:Work
         rdf:about="">
        <dc:format>image/svg+xml</dc:format>
        <dc:type
           rdf:resource="http://purl.org/dc/dcmitype/StillImage" />
        <dc:title>Suru++ Telinkrin</dc:title>
        <cc:license
           rdf:resource="http://creativecommons.org/licenses/by/4.0/" />
        <dc:date>21 May 2018</dc:date>
        <dc:creator>
          <cc:Agent>
            <dc:title>Gustavo Costa</dc:title>
          </cc:Agent>
        </dc:creator>
        <dc:rights>
          <cc:Agent>
            <dc:title>GLGPL3</dc:title>
          </cc:Agent>
        </dc:rights>
      </cc:Work>
      <cc:License
         rdf:about="http://creativecommons.org/licenses/by/4.0/">
        <cc:permits
           rdf:resource="http://creativecommons.org/ns#Reproduction" />
        <cc:permits
           rdf:resource="http://creativecommons.org/ns#Distribution" />
        <cc:requires
           rdf:resource="http://creativecommons.org/ns#Notice" />
        <cc:requires
           rdf:resource="http://creativecommons.org/ns#Attribution" />
        <cc:permits
           rdf:resource="http://creativecommons.org/ns#DerivativeWorks" />
      </cc:License>
    </rdf:RDF>
  </metadata>
  <g
     inkscape:label="Layer 1"
     inkscape:groupmode="layer"
     id="layer1"
     transform="translate(-57.707539,-17.698589)">
    <g
       aria-label="Suru++
Telinkrin"
       style="font-style:normal;font-weight:normal;font-size:10.58333302px;line-height:1.25;font-family:sans-serif;letter-spacing:0px;word-spacing:0px;fill:#000000;fill-opacity:1;stroke:#000000;stroke-width:0.26458332;stroke-miterlimit:4;stroke-dasharray:none;stroke-opacity:1"
       id="text817"
       transform="translate(4.1172835,-3.154508)">
      <path
         d="m 77.985602,36.39963 q -1.405467,0 -2.4892,-0.778933 -1.083734,-0.795867 -1.524,-2.048933 l 1.608666,-0.592667 q 0.3556,0.8128 1.016,1.303867 0.677334,0.491066 1.507067,0.491066 0.8636,0 1.354666,-0.4572 0.508,-0.4572 0.508,-1.3208 0,-0.762 -0.643466,-1.303866 -0.643467,-0.5588 -1.761067,-1.049867 -0.7112,-0.3048 -1.151466,-0.5588 -0.440267,-0.254 -0.982134,-0.677333 -0.541866,-0.423333 -0.8128,-0.982133 -0.254,-0.5588 -0.254,-1.27 0,-1.27 0.948267,-2.1336 0.9652,-0.880533 2.54,-0.880533 1.253066,0 2.150533,0.643466 0.9144,0.643467 1.202267,1.659467 l -1.5748,0.524933 q -0.237067,-0.524933 -0.728134,-0.8636 -0.474133,-0.3556 -1.134533,-0.3556 -0.728133,0 -1.185333,0.389467 -0.4572,0.372533 -0.4572,1.016 0,0.338666 0.1524,0.6096 0.169333,0.270933 0.524933,0.524933 0.3556,0.237067 0.643467,0.389467 0.287867,0.135466 0.846666,0.389466 0.03387,0.01693 0.0508,0.03387 0.01693,0 0.0508,0.01693 0.03387,0 0.0508,0.01693 0.677334,0.321733 1.151467,0.6096 0.474133,0.270933 1.016,0.728133 0.541867,0.4572 0.829733,1.083733 0.287867,0.626533 0.287867,1.388533 0,1.591734 -1.0668,2.523067 -1.0668,0.931333 -2.675466,0.931333 z"
         style="font-style:normal;font-variant:normal;font-weight:600;font-stretch:normal;font-size:16.93333244px;font-family:'Overpass Mono';-inkscape-font-specification:'Overpass Mono Semi-Bold';text-align:center;text-anchor:middle;stroke:#000000;stroke-width:0.26458332;stroke-miterlimit:4;stroke-dasharray:none;stroke-opacity:1"
         id="path821"
         inkscape:connector-curvature="0" />
      <path
         d="m 87.911709,36.39963 q -3.251199,0 -3.251199,-3.793066 v -5.063067 h 1.710266 v 4.944533 q 0,1.202267 0.508,1.761067 0.524933,0.541867 1.3716,0.541867 2.015067,0 2.015067,-2.269067 v -4.9784 h 1.710266 v 8.652933 h -1.710266 v -0.846666 q -0.8128,1.049866 -2.353734,1.049866 z"
         style="font-style:normal;font-variant:normal;font-weight:600;font-stretch:normal;font-size:16.93333244px;font-family:'Overpass Mono';-inkscape-font-specification:'Overpass Mono Semi-Bold';text-align:center;text-anchor:middle;stroke:#000000;stroke-width:0.26458332;stroke-miterlimit:4;stroke-dasharray:none;stroke-opacity:1"
         id="path823"
         inkscape:connector-curvature="0" />
      <path
         d="m 100.92048,27.340297 q 1.20226,0 1.96426,0.440267 v 3.0988 h -1.65946 v -1.913467 q -0.11854,-0.01693 -0.3556,-0.01693 -1.30387,0 -2.133603,0.643467 -0.8128,0.643466 -0.8128,1.845733 v 3.2512 h 2.472263 v 1.507066 h -6.011329 v -1.507066 h 1.811866 V 29.033634 H 94.384211 V 27.5435 h 3.420533 v 1.4224 q 0.4064,-0.745066 1.27,-1.185333 0.880533,-0.440267 1.845736,-0.440267 z"
         style="font-style:normal;font-variant:normal;font-weight:600;font-stretch:normal;font-size:16.93333244px;font-family:'Overpass Mono';-inkscape-font-specification:'Overpass Mono Semi-Bold';text-align:center;text-anchor:middle;stroke:#000000;stroke-width:0.26458332;stroke-miterlimit:4;stroke-dasharray:none;stroke-opacity:1"
         id="path825"
         inkscape:connector-curvature="0" />
      <path
         d="m 108.74764,36.39963 q -3.2512,0 -3.2512,-3.793066 v -5.063067 h 1.71027 v 4.944533 q 0,1.202267 0.508,1.761067 0.52493,0.541867 1.3716,0.541867 2.01507,0 2.01507,-2.269067 v -4.9784 h 1.71026 v 8.652933 h -1.71026 v -0.846666 q -0.8128,1.049866 -2.35374,1.049866 z"
         style="font-style:normal;font-variant:normal;font-weight:600;font-stretch:normal;font-size:16.93333244px;font-family:'Overpass Mono';-inkscape-font-specification:'Overpass Mono Semi-Bold';text-align:center;text-anchor:middle;stroke:#000000;stroke-width:0.26458332;stroke-miterlimit:4;stroke-dasharray:none;stroke-opacity:1"
         id="path827"
         inkscape:connector-curvature="0" />
      <path
         d="m 120.41868,31.21803 v 3.1496 h -1.71027 v -3.1496 h -3.11573 v -1.642533 h 3.11573 v -3.166533 h 1.71027 v 3.166533 h 3.13267 v 1.642533 z"
         style="font-style:normal;font-variant:normal;font-weight:600;font-stretch:normal;font-size:16.93333244px;font-family:'Overpass Mono';-inkscape-font-specification:'Overpass Mono Semi-Bold';text-align:center;text-anchor:middle;stroke:#000000;stroke-width:0.26458332;stroke-miterlimit:4;stroke-dasharray:none;stroke-opacity:1"
         id="path829"
         inkscape:connector-curvature="0" />
      <path
         d="m 130.83665,31.21803 v 3.1496 h -1.71027 v -3.1496 h -3.11573 v -1.642533 h 3.11573 v -3.166533 h 1.71027 v 3.166533 h 3.13266 v 1.642533 z"
         style="font-style:normal;font-variant:normal;font-weight:600;font-stretch:normal;font-size:16.93333244px;font-family:'Overpass Mono';-inkscape-font-specification:'Overpass Mono Semi-Bold';text-align:center;text-anchor:middle;stroke:#000000;stroke-width:0.26458332;stroke-miterlimit:4;stroke-dasharray:none;stroke-opacity:1"
         id="path831"
         inkscape:connector-curvature="0" />
      <path
         d="M 61.277297,57.363096 V 47.16923 h -3.437466 v -1.659467 h 8.602133 v 1.659467 h -3.437467 v 10.193866 z"
         style="font-style:normal;font-variant:normal;font-weight:600;font-stretch:normal;font-size:16.93333244px;font-family:'Overpass Mono';-inkscape-font-specification:'Overpass Mono Semi-Bold';text-align:center;text-anchor:middle;stroke:#000000;stroke-width:0.26458332;stroke-miterlimit:4;stroke-dasharray:none;stroke-opacity:1"
         id="path833"
         inkscape:connector-curvature="0" />
      <path
         d="m 76.452738,52.638696 q 0,0.643467 -0.0508,1.0668 h -5.960533 q 0.186267,1.083733 0.778933,1.710267 0.6096,0.626533 1.5748,0.626533 1.134534,0 1.964267,-0.778933 l 0.999067,1.083733 q -1.2192,1.2192 -2.980267,1.2192 -1.8796,0 -2.963333,-1.253067 -1.083733,-1.27 -1.083733,-3.285066 0,-2.116667 1.083733,-3.318934 1.100666,-1.202266 2.963333,-1.202266 1.608667,0 2.6416,1.049867 1.032933,1.049866 1.032933,3.081866 z m -6.0452,-0.4064 h 4.3688 q -0.0508,-1.151467 -0.626533,-1.693333 -0.575733,-0.541867 -1.3716,-0.541867 -1.049867,0 -1.642533,0.592667 -0.592667,0.575733 -0.728134,1.642533 z"
         style="font-style:normal;font-variant:normal;font-weight:600;font-stretch:normal;font-size:16.93333244px;font-family:'Overpass Mono';-inkscape-font-specification:'Overpass Mono Semi-Bold';text-align:center;text-anchor:middle;stroke:#000000;stroke-width:0.26458332;stroke-miterlimit:4;stroke-dasharray:none;stroke-opacity:1"
         id="path835"
         inkscape:connector-curvature="0" />
      <path
         d="m 83.889646,55.856029 h 2.472267 v 1.507067 h -6.6548 v -1.507067 h 2.4892 V 46.627363 H 80.14738 L 79.368446,45.13723 h 4.5212 z"
         style="font-style:normal;font-variant:normal;font-weight:600;font-stretch:normal;font-size:16.93333244px;font-family:'Overpass Mono';-inkscape-font-specification:'Overpass Mono Semi-Bold';text-align:center;text-anchor:middle;stroke:#000000;stroke-width:0.26458332;stroke-miterlimit:4;stroke-dasharray:none;stroke-opacity:1"
         id="path837"
         inkscape:connector-curvature="0" />
      <path
         d="m 94.324546,47.01683 q -0.287866,0.287866 -0.728133,0.287866 -0.440267,0 -0.745067,-0.3048 -0.287866,-0.3048 -0.287866,-0.728133 0,-0.423333 0.287866,-0.728133 0.3048,-0.3048 0.745067,-0.3048 0.440267,0 0.728133,0.3048 0.3048,0.287866 0.3048,0.728133 0,0.440267 -0.3048,0.745067 z m 0.118534,8.839199 h 2.3876 v 1.507067 h -6.468533 v -1.507067 h 2.387599 v -5.655733 h -2.387599 v -1.490133 h 4.080933 z"
         style="font-style:normal;font-variant:normal;font-weight:600;font-stretch:normal;font-size:16.93333244px;font-family:'Overpass Mono';-inkscape-font-specification:'Overpass Mono Semi-Bold';text-align:center;text-anchor:middle;stroke:#000000;stroke-width:0.26458332;stroke-miterlimit:4;stroke-dasharray:none;stroke-opacity:1"
         id="path839"
         inkscape:connector-curvature="0" />
      <path
         d="m 104.36919,48.506963 q 3.2004,0 3.2004,3.725333 v 5.1308 h -1.69333 v -5.012267 q 0,-2.252133 -1.89654,-2.252133 -2.01506,0 -2.01506,2.218267 v 5.046133 h -1.69334 v -8.652933 h 1.5748 v 1.049866 q 0.32174,-0.558799 0.99907,-0.897466 0.67733,-0.3556 1.524,-0.3556 z"
         style="font-style:normal;font-variant:normal;font-weight:600;font-stretch:normal;font-size:16.93333244px;font-family:'Overpass Mono';-inkscape-font-specification:'Overpass Mono Semi-Bold';text-align:center;text-anchor:middle;stroke:#000000;stroke-width:0.26458332;stroke-miterlimit:4;stroke-dasharray:none;stroke-opacity:1"
         id="path841"
         inkscape:connector-curvature="0" />
      <path
         d="m 116.44583,57.363096 -2.55693,-5.012267 -1.43934,1.4224 v 3.589867 h -1.69333 v -11.43 l 1.69333,-0.795866 v 6.722533 l 3.0988,-3.1496 h 1.99814 l -2.4384,2.421466 3.2004,6.231467 z"
         style="font-style:normal;font-variant:normal;font-weight:600;font-stretch:normal;font-size:16.93333244px;font-family:'Overpass Mono';-inkscape-font-specification:'Overpass Mono Semi-Bold';text-align:center;text-anchor:middle;stroke:#000000;stroke-width:0.26458332;stroke-miterlimit:4;stroke-dasharray:none;stroke-opacity:1"
         id="path843"
         inkscape:connector-curvature="0" />
      <path
         d="m 126.99847,48.506963 q 1.20227,0 1.96427,0.440267 v 3.098799 h -1.65947 v -1.913466 q -0.11853,-0.01693 -0.3556,-0.01693 -1.30387,0 -2.1336,0.643467 -0.8128,0.643467 -0.8128,1.845733 v 3.2512 h 2.47227 V 57.3631 h -6.01134 v -1.507067 h 1.81187 V 50.2003 h -1.81187 v -1.490133 h 3.42054 v 1.4224 q 0.4064,-0.745067 1.27,-1.185333 0.88053,-0.440267 1.84573,-0.440267 z"
         style="font-style:normal;font-variant:normal;font-weight:600;font-stretch:normal;font-size:16.93333244px;font-family:'Overpass Mono';-inkscape-font-specification:'Overpass Mono Semi-Bold';text-align:center;text-anchor:middle;stroke:#000000;stroke-width:0.26458332;stroke-miterlimit:4;stroke-dasharray:none;stroke-opacity:1"
         id="path845"
         inkscape:connector-curvature="0" />
      <path
         d="m 136.09564,47.01683 q -0.28787,0.287866 -0.72814,0.287866 -0.44026,0 -0.74506,-0.3048 -0.28787,-0.3048 -0.28787,-0.728133 0,-0.423333 0.28787,-0.728133 0.3048,-0.3048 0.74506,-0.3048 0.44027,0 0.72814,0.3048 0.3048,0.287866 0.3048,0.728133 0,0.440267 -0.3048,0.745067 z m 0.11853,8.839199 h 2.3876 v 1.507067 h -6.46853 v -1.507067 h 2.3876 v -5.655733 h -2.3876 v -1.490133 h 4.08093 z"
         style="font-style:normal;font-variant:normal;font-weight:600;font-stretch:normal;font-size:16.93333244px;font-family:'Overpass Mono';-inkscape-font-specification:'Overpass Mono Semi-Bold';text-align:center;text-anchor:middle;stroke:#000000;stroke-width:0.26458332;stroke-miterlimit:4;stroke-dasharray:none;stroke-opacity:1"
         id="path847"
         inkscape:connector-curvature="0" />
      <path
         d="m 146.14028,48.506963 q 3.2004,0 3.2004,3.725333 v 5.1308 h -1.69333 v -5.012267 q 0,-2.252133 -1.89654,-2.252133 -2.01506,0 -2.01506,2.218267 v 5.046133 h -1.69334 v -8.652933 h 1.5748 v 1.049866 q 0.32174,-0.558799 0.99907,-0.897466 0.67733,-0.3556 1.524,-0.3556 z"
         style="font-style:normal;font-variant:normal;font-weight:600;font-stretch:normal;font-size:16.93333244px;font-family:'Overpass Mono';-inkscape-font-specification:'Overpass Mono Semi-Bold';text-align:center;text-anchor:middle;stroke:#000000;stroke-width:0.26458332;stroke-miterlimit:4;stroke-dasharray:none;stroke-opacity:1"
         id="path849"
         inkscape:connector-curvature="0" />
    </g>
  </g>
</svg>
