<?xml version="1.0" encoding="UTF-8" standalone="no"?>
<!-- Generator: Gravit.io -->

<svg
   xmlns:dc="http://purl.org/dc/elements/1.1/"
   xmlns:cc="http://creativecommons.org/ns#"
   xmlns:rdf="http://www.w3.org/1999/02/22-rdf-syntax-ns#"
   xmlns:svg="http://www.w3.org/2000/svg"
   xmlns="http://www.w3.org/2000/svg"
   xmlns:sodipodi="http://sodipodi.sourceforge.net/DTD/sodipodi-0.dtd"
   xmlns:inkscape="http://www.inkscape.org/namespaces/inkscape"
   style="isolation:isolate"
   viewBox="0 0 256 256"
   width="256"
   height="256"
   version="1.1"
   id="svg87"
   sodipodi:docname="abricotine.svg"
   inkscape:version="0.92.2pre0 (973e216, 2017-07-25)">
  <metadata
     id="metadata91">
    <rdf:RDF>
      <cc:Work
         rdf:about="">
        <dc:format>image/svg+xml</dc:format>
        <dc:type
           rdf:resource="http://purl.org/dc/dcmitype/StillImage" />
      </cc:Work>
    </rdf:RDF>
  </metadata>
  <sodipodi:namedview
     pagecolor="#ffffff"
     bordercolor="#666666"
     borderopacity="1"
     objecttolerance="10"
     gridtolerance="10"
     guidetolerance="10"
     inkscape:pageopacity="0"
     inkscape:pageshadow="2"
     inkscape:window-width="1920"
     inkscape:window-height="960"
     id="namedview89"
     showgrid="false"
     inkscape:zoom="0.921875"
     inkscape:cx="128"
     inkscape:cy="128"
     inkscape:window-x="0"
     inkscape:window-y="27"
     inkscape:window-maximized="1"
     inkscape:current-layer="g63" />
  <defs
     id="defs5">
    <clipPath
       id="_clipPath_oVbchQGA8AQGyyEoD6Ms7GsPgLxRcEFK">
      <rect
         width="256"
         height="256"
         id="rect2" />
    </clipPath>
  </defs>
  <g
     clip-path="url(#_clipPath_oVbchQGA8AQGyyEoD6Ms7GsPgLxRcEFK)"
     id="g85">
    <g
       id="icon">
      <g
         id="drop shadow">
        <defs
           id="defs12">
          <filter
             id="W2Bw7Sqfa122LaMPmdeQg9mvlymsCiXC"
             x="-2"
             y="-2"
             width="4"
             height="4">
            <feGaussianBlur
               stdDeviation="2.32"
               id="feGaussianBlur9" />
          </filter>
        </defs>
        <g
           id="g16"
           style="opacity:0.2;filter:url(#W2Bw7Sqfa122LaMPmdeQg9mvlymsCiXC)">
          <path
             d="m 165.685,15.849 c 74.056,0 84.64,10.558 84.64,84.545 v 59.251 c 0,73.987 -10.584,84.544 -84.64,84.544 h -75.37 c -74.056,0 -84.64,-10.557 -84.64,-84.544 v -59.251 c 0,-73.987 10.584,-84.545 84.64,-84.545 z"
             id="path14"
             inkscape:connector-curvature="0"
             style="fill:#000000" />
        </g>
        <defs
           id="defs21">
          <filter
             id="Drb2TzAXrsw3AkdrDdXLtOhfplT4X8G5"
             x="-2"
             y="-2"
             width="4"
             height="4">
            <feGaussianBlur
               stdDeviation="1.16"
               id="feGaussianBlur18" />
          </filter>
        </defs>
        <g
           id="g25"
           style="opacity:0.1;filter:url(#Drb2TzAXrsw3AkdrDdXLtOhfplT4X8G5)">
          <path
             d="m 165.685,14.83 c 74.056,0 84.64,10.557 84.64,84.544 v 59.252 c 0,73.986 -10.584,84.544 -84.64,84.544 h -75.37 c -74.056,0 -84.64,-10.558 -84.64,-84.544 V 99.374 c 0,-73.987 10.584,-84.544 84.64,-84.544 z"
             id="path23"
             inkscape:connector-curvature="0"
             style="fill:#000000" />
        </g>
      </g>
      <path
         d="m 165.685,13.83 c 74.056,0 84.64,10.557 84.64,84.544 v 59.252 c 0,73.986 -10.584,84.544 -84.64,84.544 h -75.37 c -74.056,0 -84.64,-10.558 -84.64,-84.544 V 98.374 c 0,-73.987 10.584,-84.544 84.64,-84.544 z"
         id="path28"
         inkscape:connector-curvature="0"
         style="fill:#ffffff" />
      <clipPath
         id="_clipPath_jrqvFa4x9PbvkGup0bHURCaCk0vo8jKR">
        <path
           d="m 165.685,13.83 c 74.056,0 84.64,10.557 84.64,84.544 v 59.252 c 0,73.986 -10.584,84.544 -84.64,84.544 h -75.37 c -74.056,0 -84.64,-10.558 -84.64,-84.544 V 98.374 c 0,-73.987 10.584,-84.544 84.64,-84.544 z"
           id="path30"
           inkscape:connector-curvature="0"
           style="fill:#ffffff" />
      </clipPath>
      <g
         clip-path="url(#_clipPath_jrqvFa4x9PbvkGup0bHURCaCk0vo8jKR)"
         id="g63">
        <path
           d="m 165.685,13.83 c 74.056,0 84.64,10.557 84.64,84.544 v 59.252 c 0,73.986 -10.584,84.544 -84.64,84.544 h -75.37 c -74.056,0 -84.64,-10.558 -84.64,-84.544 V 98.374 c 0,-73.987 10.584,-84.544 84.64,-84.544 z"
           id="path33"
           inkscape:connector-curvature="0"
           style="fill:#68a2b4;fill-opacity:1" />
        <path
           d="m 2,247 v -0.361 c 1.638,0 3.248,0.124 4.821,0.361 z m 24.952,0 C 20.063,241.612 11.403,238.388 2,238.388 v -1.341 c 10.316,0 19.767,3.752 27.078,9.953 H 26.952 M 2.237,227.215 v 1.342 c 15.528,0 29.429,7.092 38.64,18.205 H 42.59 C 33.144,234.866 18.571,227.215 2.237,227.215 m 255.762,19.547 v -0.361 c -1.638,0 -3.248,0.124 -4.821,0.361 z m -24.952,0 c 6.889,-5.388 15.549,-8.612 24.952,-8.612 v -1.341 c -10.316,0 -19.767,3.752 -27.078,9.953 h 2.126 m -15.401,0 h 1.712 c 9.21,-11.113 23.112,-18.205 38.641,-18.205 v -1.342 c -16.336,0 -30.908,7.651 -40.353,19.547 m -92.349,0 h 9.642 c -1.574,-0.237 -3.183,-0.361 -4.821,-0.361 -1.638,0 -3.248,0.124 -4.821,0.361 z m -22.257,0 h 2.126 c 6.889,-5.388 15.549,-8.612 24.952,-8.612 9.403,0 18.062,3.224 24.951,8.612 h 2.126 c -7.311,-6.201 -16.762,-9.953 -27.077,-9.953 -10.316,0 -19.767,3.752 -27.078,9.953 m 27.078,-19.547 c -16.336,0 -30.908,7.651 -40.353,19.547 h 1.712 c 9.21,-11.113 23.112,-18.205 38.641,-18.205 15.528,0 29.429,7.092 38.64,18.205 h 1.713 c -9.446,-11.896 -24.019,-19.547 -40.353,-19.547 m 63.94,15.996 c -1.958,0 -3.552,1.593 -3.552,3.551 h 1.343 c 0,-1.219 0.991,-2.21 2.209,-2.21 1.218,0 2.209,0.991 2.209,2.21 h 1.343 c 0,-1.958 -1.594,-3.551 -3.552,-3.551 z m -127.881,0 c -1.958,0 -3.552,1.593 -3.552,3.551 h 1.343 c 0,-1.219 0.991,-2.21 2.209,-2.21 1.218,0 2.209,0.991 2.209,2.21 h 1.343 c 0,-1.958 -1.594,-3.551 -3.552,-3.551 z m 146.062,-10.047 c 1.949,-1.956 4.031,-3.778 6.216,-5.475 -5.677,-7.246 -14.499,-11.916 -24.397,-11.916 -9.898,0 -18.72,4.67 -24.397,11.916 2.184,1.697 4.266,3.519 6.216,5.475 4.152,-5.536 10.745,-9.139 18.181,-9.139 7.437,0 14.03,3.603 18.181,9.139 z m -0.937,0.984 c -3.898,-5.312 -10.165,-8.782 -17.244,-8.782 -7.078,0 -13.347,3.47 -17.243,8.782 1.992,2.086 3.848,4.3 5.55,6.637 2.18,-4.248 6.599,-7.167 11.693,-7.167 5.095,0 9.512,2.919 11.694,7.167 1.701,-2.337 3.557,-4.551 5.55,-6.637 z m -42.701,-7.28 c 5.924,-7.563 15.128,-12.437 25.457,-12.437 10.328,0 19.534,4.874 25.458,12.437 2.211,-1.646 4.536,-3.144 6.95,-4.499 -7.413,-9.825 -19.18,-16.189 -32.408,-16.189 -13.228,0 -24.995,6.364 -32.409,16.189 2.416,1.355 4.741,2.853 6.952,4.499 z m -8.14,-5.157 c 7.652,-10.235 19.864,-16.872 33.597,-16.872 13.733,0 25.945,6.637 33.597,16.872 2.461,-1.314 5.017,-2.474 7.654,-3.466 -9.067,-13.074 -24.172,-21.658 -41.251,-21.658 -17.079,0 -32.185,8.584 -41.25,21.658 2.637,0.992 5.192,2.152 7.653,3.466 z m -8.964,-3.938 c 9.285,-13.589 24.897,-22.528 42.561,-22.528 17.665,0 33.276,8.939 42.56,22.528 3.853,-1.356 7.869,-2.36 12.014,-2.965 -11.001,-18.716 -31.338,-31.315 -54.574,-31.315 -23.236,0 -43.573,12.599 -54.574,31.315 4.146,0.605 8.161,1.609 12.013,2.965 z m -13.454,-3.149 c 0.899,-1.561 1.858,-3.086 2.881,-4.563 -1.828,-4.157 -5.98,-7.071 -10.806,-7.071 -4.826,0 -8.979,2.914 -10.806,7.071 1.023,1.477 1.981,3.002 2.881,4.563 1.464,-0.179 2.939,-0.326 4.431,-0.405 0.276,-1.686 1.732,-2.979 3.494,-2.979 1.762,0 3.217,1.293 3.494,2.979 1.492,0.079 2.966,0.226 4.431,0.405 z m -5.815,-0.449 c -0.269,-0.918 -1.108,-1.593 -2.11,-1.593 -1.003,0 -1.842,0.675 -2.111,1.593 0.703,-0.021 1.402,-0.053 2.111,-0.053 0.707,0 1.408,0.029 2.11,0.053 z m -11.477,0.633 C 109.75,196.092 89.413,183.493 66.177,183.493 c -23.236,0 -43.573,12.599 -54.574,31.315 4.146,0.605 8.161,1.609 12.013,2.965 9.285,-13.589 24.897,-22.528 42.561,-22.528 17.665,0 33.276,8.939 42.56,22.528 3.853,-1.356 7.869,-2.36 12.014,-2.965 z m -13.323,3.437 c -9.067,-13.074 -24.172,-21.658 -41.251,-21.658 -17.079,0 -32.185,8.584 -41.25,21.658 2.637,0.992 5.192,2.152 7.653,3.466 7.652,-10.235 19.864,-16.872 33.597,-16.872 13.734,0 25.945,6.637 33.597,16.872 2.461,-1.314 5.017,-2.474 7.654,-3.466 z m -8.843,4.124 c -7.413,-9.825 -19.18,-16.189 -32.408,-16.189 -13.228,0 -24.995,6.364 -32.409,16.189 2.416,1.355 4.741,2.853 6.952,4.499 5.924,-7.563 15.128,-12.437 25.457,-12.437 10.328,0 19.534,4.874 25.458,12.437 2.211,-1.646 4.536,-3.144 6.95,-4.499 z m -8.011,5.32 c -5.677,-7.246 -14.499,-11.916 -24.397,-11.916 -9.898,0 -18.72,4.67 -24.397,11.916 2.184,1.697 4.266,3.519 6.217,5.475 4.151,-5.536 10.744,-9.139 18.18,-9.139 7.437,0 14.03,3.603 18.181,9.139 1.949,-1.956 4.031,-3.778 6.216,-5.475 z m -7.153,6.459 c -3.898,-5.312 -10.165,-8.782 -17.244,-8.782 -7.078,0 -13.347,3.47 -17.243,8.782 1.992,2.086 3.848,4.3 5.55,6.637 2.18,-4.248 6.599,-7.167 11.693,-7.167 5.095,0 9.512,2.919 11.694,7.167 1.701,-2.337 3.557,-4.551 5.55,-6.637 z M 66.177,180.612 c -1.002,0 -1.841,0.675 -2.111,1.593 0.703,-0.022 1.403,-0.054 2.111,-0.054 0.708,0 1.408,0.029 2.11,0.054 -0.268,-0.918 -1.107,-1.593 -2.11,-1.593 z m -7.924,2.042 c 1.464,-0.179 2.938,-0.326 4.431,-0.405 0.276,-1.686 1.731,-2.979 3.493,-2.979 1.763,0 3.218,1.293 3.494,2.979 1.492,0.079 2.967,0.226 4.431,0.405 0.899,-1.561 1.858,-3.086 2.881,-4.563 -1.827,-4.157 -5.979,-7.072 -10.806,-7.072 -4.826,0 -8.978,2.915 -10.806,7.072 1.023,1.477 1.981,3.002 2.882,4.563 z m -3.769,-5.81 c 2.18,-4.248 6.599,-7.166 11.693,-7.166 5.095,0 9.512,2.918 11.694,7.166 1.701,-2.336 3.557,-4.551 5.55,-6.637 -3.898,-5.312 -10.165,-8.781 -17.244,-8.781 -7.078,0 -13.347,3.469 -17.243,8.781 1.992,2.086 3.848,4.301 5.55,6.637 z m -6.487,-7.62 c 4.151,-5.536 10.744,-9.14 18.18,-9.14 7.437,0 14.03,3.604 18.181,9.14 1.949,-1.957 4.031,-3.779 6.216,-5.476 -5.677,-7.246 -14.499,-11.916 -24.397,-11.916 -9.898,0 -18.72,4.67 -24.397,11.916 2.184,1.697 4.266,3.519 6.217,5.476 z m -7.277,-6.297 c 5.924,-7.563 15.128,-12.436 25.457,-12.436 10.328,0 19.534,4.873 25.458,12.436 2.211,-1.646 4.536,-3.143 6.95,-4.499 -7.413,-9.825 -19.18,-16.188 -32.408,-16.188 -13.228,0 -24.995,6.363 -32.409,16.188 2.416,1.356 4.741,2.853 6.952,4.499 z m -8.14,-5.156 c 7.652,-10.236 19.864,-16.873 33.597,-16.873 13.734,0 25.945,6.637 33.597,16.873 2.461,-1.315 5.017,-2.475 7.654,-3.467 -9.067,-13.073 -24.172,-21.658 -41.251,-21.658 -17.079,0 -32.185,8.585 -41.25,21.658 2.637,0.992 5.192,2.152 7.653,3.467 z m -8.964,-3.939 c 9.285,-13.588 24.897,-22.527 42.561,-22.527 17.665,0 33.276,8.939 42.56,22.527 3.853,-1.355 7.869,-2.359 12.014,-2.964 -11.001,-18.717 -31.338,-31.316 -54.574,-31.316 -23.236,0 -43.573,12.599 -54.574,31.316 4.146,0.605 8.161,1.609 12.013,2.964 z m 42.561,-37.161 c -1.002,0 -1.841,0.675 -2.111,1.594 0.703,-0.023 1.403,-0.054 2.111,-0.054 0.708,0 1.408,0.031 2.11,0.054 -0.268,-0.919 -1.107,-1.594 -2.11,-1.594 z m -7.924,2.042 c 1.464,-0.179 2.938,-0.326 4.431,-0.405 0.276,-1.685 1.731,-2.978 3.493,-2.978 1.763,0 3.218,1.293 3.494,2.978 1.492,0.079 2.967,0.226 4.431,0.405 0.899,-1.561 1.858,-3.085 2.881,-4.562 -1.827,-4.158 -5.979,-7.072 -10.806,-7.072 -4.826,0 -8.978,2.914 -10.806,7.072 1.023,1.477 1.981,3.001 2.882,4.562 z m -3.769,-5.809 c 2.18,-4.248 6.599,-7.167 11.693,-7.167 5.095,0 9.512,2.919 11.694,7.167 1.701,-2.337 3.557,-4.551 5.55,-6.637 -3.898,-5.312 -10.165,-8.782 -17.244,-8.782 -7.078,0 -13.347,3.47 -17.243,8.782 1.992,2.086 3.848,4.3 5.55,6.637 z m -6.487,-7.621 c 4.151,-5.536 10.744,-9.139 18.18,-9.139 7.437,0 14.03,3.603 18.181,9.139 1.949,-1.956 4.031,-3.778 6.216,-5.475 -5.677,-7.246 -14.499,-11.916 -24.397,-11.916 -9.898,0 -18.72,4.67 -24.397,11.916 2.184,1.697 4.266,3.519 6.217,5.475 z M 40.72,98.987 C 46.644,91.424 55.848,86.55 66.177,86.55 c 10.328,0 19.534,4.874 25.458,12.437 2.211,-1.646 4.536,-3.144 6.95,-4.499 -7.413,-9.825 -19.18,-16.189 -32.408,-16.189 -13.228,0 -24.995,6.364 -32.409,16.189 2.416,1.355 4.741,2.853 6.952,4.499 z M 32.58,93.83 c 7.652,-10.235 19.864,-16.872 33.597,-16.872 13.734,0 25.945,6.637 33.597,16.872 2.461,-1.314 5.017,-2.474 7.654,-3.466 C 98.361,77.29 83.256,68.706 66.177,68.706 c -17.079,0 -32.185,8.584 -41.25,21.658 2.637,0.992 5.192,2.152 7.653,3.466 z m -8.964,-3.938 c 9.285,-13.589 24.897,-22.528 42.561,-22.528 17.665,0 33.276,8.939 42.56,22.528 3.853,-1.356 7.869,-2.36 12.014,-2.965 C 109.75,68.211 89.413,55.612 66.177,55.612 c -23.236,0 -43.573,12.599 -54.574,31.315 4.146,0.605 8.161,1.609 12.013,2.965 z M 66.177,52.731 c -1.002,0 -1.841,0.675 -2.111,1.593 0.703,-0.023 1.403,-0.054 2.111,-0.054 0.708,0 1.408,0.031 2.11,0.054 -0.268,-0.918 -1.107,-1.593 -2.11,-1.593 z m -7.924,2.042 c 1.464,-0.179 2.938,-0.326 4.431,-0.405 0.276,-1.686 1.731,-2.979 3.493,-2.979 1.763,0 3.218,1.293 3.494,2.979 1.492,0.079 2.967,0.226 4.431,0.405 0.899,-1.561 1.858,-3.086 2.881,-4.563 -1.827,-4.157 -5.979,-7.072 -10.806,-7.072 -4.826,0 -8.978,2.915 -10.806,7.072 1.023,1.477 1.981,3.002 2.882,4.563 z m -3.769,-5.81 c 2.18,-4.248 6.599,-7.166 11.693,-7.166 5.095,0 9.512,2.918 11.694,7.166 1.701,-2.336 3.557,-4.551 5.55,-6.637 -3.898,-5.312 -10.165,-8.781 -17.244,-8.781 -7.078,0 -13.347,3.469 -17.243,8.781 1.992,2.086 3.848,4.301 5.55,6.637 z m -6.487,-7.62 c 4.151,-5.536 10.744,-9.14 18.18,-9.14 7.437,0 14.03,3.604 18.181,9.14 1.949,-1.957 4.031,-3.779 6.216,-5.476 -5.677,-7.246 -14.499,-11.916 -24.397,-11.916 -9.898,0 -18.72,4.67 -24.397,11.916 2.184,1.697 4.266,3.519 6.217,5.476 z M 40.72,35.046 C 46.644,27.483 55.848,22.61 66.177,22.61 c 10.328,0 19.534,4.873 25.458,12.436 2.211,-1.646 4.536,-3.143 6.95,-4.499 -7.413,-9.825 -19.18,-16.188 -32.408,-16.188 -13.228,0 -24.995,6.363 -32.409,16.188 2.416,1.356 4.741,2.853 6.952,4.499 z M 32.58,29.89 c 7.652,-10.236 19.864,-16.873 33.597,-16.873 13.734,0 25.945,6.637 33.597,16.873 2.461,-1.315 5.017,-2.475 7.654,-3.467 C 98.361,13.35 83.256,4.765 66.177,4.765 c -17.079,0 -32.185,8.585 -41.25,21.658 2.637,0.992 5.192,2.152 7.653,3.467 z M 23.616,25.951 C 32.901,12.363 48.513,3.424 66.177,3.424 c 17.665,0 33.276,8.939 42.56,22.527 3.853,-1.355 7.869,-2.359 12.014,-2.964 C 109.75,4.27 89.413,-8.329 66.177,-8.329 c -23.236,0 -43.573,12.599 -54.574,31.316 4.146,0.605 8.161,1.609 12.013,2.964 z M 105.721,3.897 c 2.184,1.697 4.266,3.519 6.216,5.476 4.151,-5.536 10.745,-9.14 18.181,-9.14 7.436,0 14.03,3.604 18.181,9.14 1.949,-1.957 4.03,-3.779 6.216,-5.476 -5.678,-7.246 -14.499,-11.916 -24.397,-11.916 -9.898,0 -18.721,4.67 -24.397,11.916 z m 33.763,19.09 c 4.146,0.605 8.161,1.609 12.013,2.964 9.285,-13.588 24.897,-22.527 42.561,-22.527 17.665,0 33.276,8.939 42.56,22.527 3.853,-1.355 7.869,-2.359 12.014,-2.964 C 237.631,4.27 217.294,-8.329 194.058,-8.329 c -23.236,0 -43.573,12.599 -54.574,31.316 z m 95.825,3.436 C 226.242,13.35 211.137,4.765 194.058,4.765 c -17.079,0 -32.185,8.585 -41.25,21.658 2.637,0.992 5.192,2.152 7.653,3.467 7.652,-10.236 19.864,-16.873 33.597,-16.873 13.733,0 25.945,6.637 33.597,16.873 2.461,-1.315 5.017,-2.475 7.654,-3.467 z m -8.843,4.124 c -7.413,-9.825 -19.18,-16.188 -32.408,-16.188 -13.228,0 -24.995,6.363 -32.409,16.188 2.416,1.356 4.741,2.853 6.952,4.499 5.924,-7.563 15.128,-12.436 25.457,-12.436 10.328,0 19.534,4.873 25.458,12.436 2.211,-1.646 4.536,-3.143 6.95,-4.499 z m -8.011,5.32 c -5.677,-7.246 -14.499,-11.916 -24.397,-11.916 -9.898,0 -18.72,4.67 -24.397,11.916 2.184,1.697 4.266,3.519 6.216,5.476 4.152,-5.536 10.745,-9.14 18.181,-9.14 7.437,0 14.03,3.604 18.181,9.14 1.949,-1.957 4.031,-3.779 6.216,-5.476 z m -7.153,6.459 c -3.898,-5.312 -10.165,-8.781 -17.244,-8.781 -7.078,0 -13.347,3.469 -17.243,8.781 1.992,2.086 3.848,4.301 5.55,6.637 2.18,-4.248 6.599,-7.166 11.693,-7.166 5.095,0 9.512,2.918 11.694,7.166 1.701,-2.336 3.557,-4.551 5.55,-6.637 z m -6.438,7.884 c -1.827,-4.157 -5.979,-7.072 -10.806,-7.072 -4.826,0 -8.978,2.915 -10.806,7.072 1.023,1.477 1.981,3.002 2.882,4.563 1.464,-0.179 2.938,-0.326 4.431,-0.405 0.276,-1.686 1.731,-2.979 3.493,-2.979 1.763,0 3.218,1.293 3.494,2.979 1.492,0.079 2.967,0.226 4.431,0.405 0.899,-1.561 1.858,-3.086 2.881,-4.563 z m -10.806,4.06 c 0.708,0 1.408,0.031 2.11,0.054 -0.268,-0.918 -1.107,-1.593 -2.11,-1.593 -1.002,0 -1.841,0.675 -2.111,1.593 0.703,-0.023 1.403,-0.054 2.111,-0.054 z m 0,1.342 c -23.236,0 -43.573,12.599 -54.574,31.315 4.146,0.605 8.161,1.609 12.013,2.965 9.285,-13.589 24.897,-22.528 42.561,-22.528 17.665,0 33.276,8.939 42.56,22.528 3.853,-1.356 7.869,-2.36 12.014,-2.965 C 237.631,68.211 217.294,55.612 194.058,55.612 Z m 41.251,34.752 C 226.242,77.29 211.137,68.706 194.058,68.706 c -17.079,0 -32.185,8.584 -41.25,21.658 2.637,0.992 5.192,2.152 7.653,3.466 7.652,-10.235 19.864,-16.872 33.597,-16.872 13.733,0 25.945,6.637 33.597,16.872 2.461,-1.314 5.017,-2.474 7.654,-3.466 z m -8.843,4.124 c -7.413,-9.825 -19.18,-16.189 -32.408,-16.189 -13.228,0 -24.995,6.364 -32.409,16.189 2.416,1.355 4.741,2.853 6.952,4.499 5.924,-7.563 15.128,-12.437 25.457,-12.437 10.328,0 19.534,4.874 25.458,12.437 2.211,-1.646 4.536,-3.144 6.95,-4.499 z m -8.011,5.32 c -5.677,-7.246 -14.499,-11.916 -24.397,-11.916 -9.898,0 -18.72,4.67 -24.397,11.916 2.184,1.697 4.266,3.519 6.216,5.475 4.152,-5.536 10.745,-9.139 18.181,-9.139 7.437,0 14.03,3.603 18.181,9.139 1.949,-1.956 4.031,-3.778 6.216,-5.475 z m -7.153,6.459 c -3.898,-5.312 -10.165,-8.782 -17.244,-8.782 -7.078,0 -13.347,3.47 -17.243,8.782 1.992,2.086 3.848,4.3 5.55,6.637 2.18,-4.248 6.599,-7.167 11.693,-7.167 5.095,0 9.512,2.919 11.694,7.167 1.701,-2.337 3.557,-4.551 5.55,-6.637 z m -6.438,7.884 c -1.827,-4.158 -5.979,-7.072 -10.806,-7.072 -4.826,0 -8.978,2.914 -10.806,7.072 1.023,1.477 1.981,3.001 2.882,4.562 1.464,-0.179 2.938,-0.326 4.431,-0.405 0.276,-1.685 1.731,-2.978 3.493,-2.978 1.763,0 3.218,1.293 3.494,2.978 1.492,0.079 2.967,0.226 4.431,0.405 0.899,-1.561 1.858,-3.085 2.881,-4.562 z m -10.806,4.06 c 0.708,0 1.408,0.031 2.11,0.054 -0.268,-0.919 -1.107,-1.594 -2.11,-1.594 -1.002,0 -1.841,0.675 -2.111,1.594 0.703,-0.023 1.403,-0.054 2.111,-0.054 z m 0,1.341 c -23.236,0 -43.573,12.599 -54.574,31.316 4.146,0.605 8.161,1.609 12.013,2.964 9.285,-13.588 24.897,-22.527 42.561,-22.527 17.665,0 33.276,8.939 42.56,22.527 3.853,-1.355 7.869,-2.359 12.014,-2.964 -11.001,-18.717 -31.338,-31.316 -54.574,-31.316 z m 41.251,34.752 c -9.067,-13.073 -24.172,-21.658 -41.251,-21.658 -17.079,0 -32.185,8.585 -41.25,21.658 2.637,0.992 5.192,2.152 7.653,3.467 7.652,-10.236 19.864,-16.873 33.597,-16.873 13.733,0 25.945,6.637 33.597,16.873 2.461,-1.315 5.017,-2.475 7.654,-3.467 z m -8.843,4.124 c -7.413,-9.825 -19.18,-16.188 -32.408,-16.188 -13.228,0 -24.995,6.363 -32.409,16.188 2.416,1.356 4.741,2.853 6.952,4.499 5.924,-7.563 15.128,-12.436 25.457,-12.436 10.328,0 19.534,4.873 25.458,12.436 2.211,-1.646 4.536,-3.143 6.95,-4.499 z m -8.011,5.32 c -5.677,-7.246 -14.499,-11.916 -24.397,-11.916 -9.898,0 -18.72,4.67 -24.397,11.916 2.184,1.697 4.266,3.519 6.216,5.476 4.152,-5.536 10.745,-9.14 18.181,-9.14 7.437,0 14.03,3.604 18.181,9.14 1.949,-1.957 4.031,-3.779 6.216,-5.476 z m -7.153,6.459 c -3.898,-5.312 -10.165,-8.781 -17.244,-8.781 -7.078,0 -13.347,3.469 -17.243,8.781 1.992,2.086 3.848,4.301 5.55,6.637 2.18,-4.248 6.599,-7.166 11.693,-7.166 5.095,0 9.512,2.918 11.694,7.166 1.701,-2.336 3.557,-4.551 5.55,-6.637 z m -81.184,-21.566 c -1.003,0 -1.842,0.676 -2.111,1.594 0.703,-0.023 1.402,-0.054 2.111,-0.054 0.707,0 1.408,0.031 2.11,0.054 -0.269,-0.918 -1.108,-1.594 -2.11,-1.594 z m -10.806,-2.52 c 1.023,1.477 1.981,3.001 2.881,4.563 1.464,-0.179 2.939,-0.326 4.431,-0.406 0.276,-1.685 1.732,-2.978 3.494,-2.978 1.762,0 3.217,1.293 3.494,2.978 1.492,0.08 2.966,0.227 4.431,0.406 0.899,-1.562 1.858,-3.086 2.881,-4.563 -1.828,-4.157 -5.98,-7.072 -10.806,-7.072 -4.826,0 -8.979,2.915 -10.806,7.072 z m -6.438,-7.884 c 1.993,2.086 3.848,4.301 5.55,6.637 2.181,-4.248 6.599,-7.166 11.694,-7.166 5.095,0 9.512,2.918 11.693,7.166 1.701,-2.336 3.558,-4.551 5.55,-6.637 -3.898,-5.312 -10.165,-8.782 -17.243,-8.782 -7.078,0 -13.347,3.47 -17.244,8.782 z m -7.153,-6.459 c 2.184,1.697 4.266,3.519 6.216,5.476 4.151,-5.536 10.745,-9.14 18.181,-9.14 7.436,0 14.03,3.604 18.181,9.14 1.949,-1.957 4.03,-3.779 6.216,-5.476 -5.678,-7.246 -14.499,-11.916 -24.397,-11.916 -9.898,0 -18.721,4.67 -24.397,11.916 z m -8.012,-5.32 c 2.416,1.355 4.741,2.853 6.952,4.499 5.923,-7.563 15.128,-12.437 25.457,-12.437 10.328,0 19.534,4.874 25.457,12.437 2.211,-1.646 4.536,-3.144 6.95,-4.499 -7.413,-9.825 -19.179,-16.189 -32.407,-16.189 -13.228,0 -24.996,6.364 -32.409,16.189 z m -8.842,-4.124 c 2.637,0.992 5.192,2.152 7.654,3.467 7.651,-10.236 19.864,-16.873 33.597,-16.873 13.733,0 25.944,6.637 33.597,16.873 2.46,-1.315 5.017,-2.475 7.653,-3.467 -9.066,-13.073 -24.172,-21.658 -41.25,-21.658 -17.08,0 -32.185,8.585 -41.251,21.658 z m -13.324,-3.436 c 4.146,0.605 8.162,1.608 12.013,2.964 9.286,-13.589 24.898,-22.528 42.562,-22.528 17.664,0 33.276,8.939 42.56,22.528 3.853,-1.356 7.868,-2.359 12.013,-2.964 -11,-18.717 -31.337,-31.316 -54.573,-31.316 -23.236,0 -43.573,12.599 -54.575,31.316 z m 54.575,-34.197 c -1.003,0 -1.842,0.675 -2.111,1.593 0.703,-0.023 1.402,-0.053 2.111,-0.053 0.707,0 1.408,0.03 2.11,0.053 -0.269,-0.918 -1.108,-1.593 -2.11,-1.593 z M 119.312,82.18 c 1.023,1.477 1.981,3.002 2.881,4.563 1.464,-0.179 2.939,-0.326 4.431,-0.405 0.276,-1.686 1.732,-2.978 3.494,-2.978 1.762,0 3.217,1.292 3.494,2.978 1.492,0.079 2.966,0.226 4.431,0.405 0.899,-1.561 1.858,-3.086 2.881,-4.563 -1.828,-4.157 -5.98,-7.071 -10.806,-7.071 -4.826,0 -8.979,2.914 -10.806,7.071 z m -6.438,-7.883 c 1.993,2.085 3.848,4.3 5.55,6.637 2.181,-4.249 6.599,-7.167 11.694,-7.167 5.095,0 9.512,2.918 11.693,7.167 1.701,-2.337 3.558,-4.552 5.55,-6.637 -3.898,-5.313 -10.165,-8.782 -17.243,-8.782 -7.078,0 -13.347,3.469 -17.244,8.782 z m -7.153,-6.46 c 2.184,1.697 4.266,3.52 6.216,5.476 4.151,-5.536 10.745,-9.139 18.181,-9.139 7.436,0 14.03,3.603 18.181,9.139 1.949,-1.956 4.03,-3.779 6.216,-5.476 -5.678,-7.245 -14.499,-11.916 -24.397,-11.916 -9.898,0 -18.721,4.671 -24.397,11.916 z m -8.012,-5.32 c 2.416,1.356 4.741,2.853 6.952,4.499 5.923,-7.563 15.128,-12.436 25.457,-12.436 10.328,0 19.534,4.873 25.457,12.436 2.211,-1.646 4.536,-3.143 6.95,-4.499 -7.413,-9.825 -19.179,-16.188 -32.407,-16.188 -13.228,0 -24.996,6.363 -32.409,16.188 z m -8.842,-4.124 c 2.637,0.993 5.192,2.153 7.654,3.467 7.651,-10.235 19.864,-16.872 33.597,-16.872 13.733,0 25.944,6.637 33.597,16.872 2.46,-1.314 5.017,-2.474 7.653,-3.467 -9.066,-13.073 -24.172,-21.658 -41.25,-21.658 -17.08,0 -32.185,8.585 -41.251,21.658 z M 75.543,54.957 c 4.146,0.605 8.162,1.609 12.013,2.964 9.286,-13.588 24.898,-22.527 42.562,-22.527 17.664,0 33.276,8.939 42.56,22.527 3.853,-1.355 7.868,-2.359 12.013,-2.964 -11,-18.717 -31.337,-31.315 -54.573,-31.315 -23.236,0 -43.573,12.598 -54.575,31.315 z M 130.118,20.76 c -1.003,0 -1.842,0.676 -2.111,1.594 0.703,-0.023 1.402,-0.054 2.111,-0.054 0.707,0 1.408,0.031 2.11,0.054 -0.269,-0.918 -1.108,-1.594 -2.11,-1.594 z m 0,-10.933 c 5.095,0 9.512,2.918 11.693,7.166 1.701,-2.336 3.558,-4.551 5.55,-6.637 -3.898,-5.312 -10.165,-8.781 -17.243,-8.781 -7.078,0 -13.347,3.469 -17.244,8.781 1.993,2.086 3.848,4.301 5.55,6.637 2.181,-4.248 6.599,-7.166 11.694,-7.166 z m -10.806,8.413 c 1.023,1.477 1.981,3.001 2.881,4.563 1.464,-0.179 2.939,-0.326 4.431,-0.406 0.276,-1.685 1.732,-2.978 3.494,-2.978 1.762,0 3.217,1.293 3.494,2.978 1.492,0.08 2.966,0.227 4.431,0.406 0.899,-1.562 1.858,-3.086 2.881,-4.563 -1.828,-4.157 -5.98,-7.072 -10.806,-7.072 -4.826,0 -8.979,2.915 -10.806,7.072 z m 53.366,167.562 c 3.853,-1.355 7.868,-2.359 12.013,-2.964 -11,-18.717 -31.337,-31.315 -54.573,-31.315 -23.236,0 -43.573,12.598 -54.575,31.315 4.146,0.605 8.162,1.609 12.013,2.964 9.286,-13.588 24.898,-22.527 42.562,-22.527 17.664,0 33.276,8.939 42.56,22.527 z m -8.963,3.939 c 2.46,-1.314 5.017,-2.474 7.653,-3.467 -9.066,-13.073 -24.172,-21.658 -41.25,-21.658 -17.08,0 -32.185,8.585 -41.251,21.658 2.637,0.993 5.192,2.153 7.654,3.467 7.651,-10.235 19.864,-16.872 33.597,-16.872 13.733,0 25.944,6.637 33.597,16.872 z m -8.14,5.156 c 2.211,-1.646 4.536,-3.143 6.95,-4.499 -7.413,-9.825 -19.179,-16.188 -32.407,-16.188 -13.228,0 -24.996,6.363 -32.409,16.188 2.416,1.356 4.741,2.853 6.952,4.499 5.923,-7.563 15.128,-12.436 25.457,-12.436 10.328,0 19.534,4.873 25.457,12.436 z m -25.457,-1.501 c -7.078,0 -13.347,3.469 -17.244,8.782 1.993,2.085 3.848,4.3 5.55,6.637 2.181,-4.249 6.599,-7.167 11.694,-7.167 5.095,0 9.512,2.918 11.693,7.167 1.701,-2.337 3.558,-4.552 5.55,-6.637 -3.898,-5.313 -10.165,-8.782 -17.243,-8.782 z m 18.181,7.798 c 1.949,-1.956 4.03,-3.779 6.216,-5.476 -5.678,-7.245 -14.499,-11.916 -24.397,-11.916 -9.898,0 -18.721,4.671 -24.397,11.916 2.184,1.697 4.266,3.52 6.216,5.476 4.151,-5.536 10.745,-9.14 18.181,-9.14 7.436,0 14.03,3.604 18.181,9.14 z m 45.759,-20.582 c -1.002,0 -1.841,0.675 -2.111,1.593 0.703,-0.022 1.403,-0.054 2.111,-0.054 0.708,0 1.408,0.029 2.11,0.054 -0.268,-0.918 -1.107,-1.593 -2.11,-1.593 z m 10.806,-2.521 c -1.827,-4.157 -5.979,-7.072 -10.806,-7.072 -4.826,0 -8.978,2.915 -10.806,7.072 1.023,1.477 1.981,3.002 2.882,4.563 1.464,-0.179 2.938,-0.326 4.431,-0.405 0.276,-1.686 1.731,-2.979 3.493,-2.979 1.763,0 3.218,1.293 3.494,2.979 1.492,0.079 2.967,0.226 4.431,0.405 0.899,-1.561 1.858,-3.086 2.881,-4.563 z m -1.429,68.671 h -1.541 c 0.925,-1.62 1.911,-3.201 2.97,-4.73 -1.827,-4.158 -5.979,-7.072 -10.806,-7.072 -4.826,0 -8.978,2.914 -10.806,7.072 1.059,1.529 2.045,3.11 2.971,4.73 h -1.541 c -11.004,-18.708 -31.336,-31.299 -54.564,-31.299 -23.23,0 -43.562,12.591 -54.564,31.299 h -1.541 c 0.926,-1.62 1.911,-3.201 2.97,-4.73 -1.827,-4.158 -5.979,-7.072 -10.806,-7.072 -4.826,0 -8.978,2.914 -10.806,7.072 1.059,1.529 2.045,3.11 2.971,4.73 H 56.801 C 45.797,228.054 25.465,215.463 2.237,215.463 v -1.341 c 0.707,0 1.408,0.029 2.11,0.053 -0.269,-0.918 -1.108,-1.593 -2.11,-1.593 v -1.342 c 1.762,0 3.217,1.293 3.494,2.979 1.492,0.079 2.966,0.226 4.431,0.405 0.899,-1.561 1.858,-3.086 2.881,-4.563 -1.828,-4.157 -5.98,-7.071 -10.806,-7.071 v -1.342 c 5.095,0 9.512,2.918 11.693,7.167 1.701,-2.337 3.558,-4.552 5.55,-6.638 -3.897,-5.312 -10.165,-8.781 -17.243,-8.781 v -1.342 c 7.436,0 14.03,3.604 18.181,9.14 1.949,-1.957 4.031,-3.779 6.216,-5.476 -5.678,-7.246 -14.499,-11.916 -24.397,-11.916 v -1.341 c 10.328,0 19.534,4.873 25.457,12.436 2.211,-1.646 4.536,-3.143 6.95,-4.499 C 27.231,180.573 15.465,174.21 2.237,174.21 v -1.342 c 13.733,0 25.944,6.637 33.597,16.873 2.46,-1.315 5.017,-2.474 7.653,-3.467 -9.066,-13.073 -24.17,-21.658 -41.25,-21.658 v -1.341 c 17.664,0 33.276,8.939 42.56,22.527 3.853,-1.355 7.868,-2.359 12.013,-2.964 -11,-18.717 -31.337,-31.315 -54.573,-31.315 v -1.342 c 0.707,0 1.408,0.031 2.11,0.054 -0.269,-0.918 -1.108,-1.594 -2.11,-1.594 V 147.3 c 1.762,0 3.217,1.293 3.494,2.978 1.492,0.08 2.966,0.227 4.431,0.406 0.899,-1.562 1.858,-3.086 2.881,-4.563 -1.828,-4.158 -5.98,-7.072 -10.806,-7.072 v -1.341 c 5.095,0 9.512,2.918 11.693,7.166 1.701,-2.336 3.558,-4.551 5.55,-6.637 -3.897,-5.312 -10.165,-8.782 -17.243,-8.782 v -1.341 c 7.436,0 14.03,3.604 18.181,9.14 1.949,-1.957 4.031,-3.779 6.216,-5.476 -5.678,-7.246 -14.499,-11.916 -24.397,-11.916 v -1.342 c 10.328,0 19.534,4.874 25.457,12.437 2.211,-1.646 4.536,-3.144 6.95,-4.499 -7.413,-9.825 -19.179,-16.189 -32.407,-16.189 v -1.341 c 13.733,0 25.944,6.637 33.597,16.873 2.46,-1.315 5.017,-2.475 7.653,-3.467 -9.066,-13.074 -24.17,-21.658 -41.25,-21.658 v -1.342 c 17.664,0 33.276,8.939 42.56,22.528 3.853,-1.356 7.868,-2.359 12.013,-2.964 C 45.81,100.181 25.473,87.582 2.237,87.582 v -1.341 c 0.707,0 1.408,0.03 2.11,0.053 C 4.078,85.376 3.239,84.701 2.237,84.701 V 83.36 c 1.762,0 3.217,1.292 3.494,2.978 1.492,0.079 2.966,0.226 4.431,0.405 0.899,-1.561 1.858,-3.086 2.881,-4.563 -1.828,-4.157 -5.98,-7.071 -10.806,-7.071 v -1.342 c 5.095,0 9.512,2.918 11.693,7.167 1.701,-2.337 3.558,-4.552 5.55,-6.637 C 15.583,68.984 9.315,65.515 2.237,65.515 v -1.341 c 7.436,0 14.03,3.603 18.181,9.139 1.949,-1.956 4.031,-3.779 6.216,-5.476 C 20.956,60.592 12.135,55.921 2.237,55.921 V 54.58 c 10.328,0 19.534,4.873 25.457,12.436 2.211,-1.646 4.536,-3.143 6.95,-4.499 C 27.231,52.692 15.465,46.329 2.237,46.329 v -1.341 c 13.733,0 25.944,6.637 33.597,16.872 2.46,-1.314 5.017,-2.474 7.653,-3.467 C 34.421,45.32 19.317,36.735 2.237,36.735 v -1.341 c 17.664,0 33.276,8.939 42.56,22.527 C 48.65,56.566 52.665,55.562 56.81,54.957 45.81,36.24 25.473,23.642 2.237,23.642 V 22.3 c 0.707,0 1.408,0.031 2.11,0.054 -0.269,-0.918 -1.108,-1.593 -2.11,-1.593 v -1.342 c 1.762,0 3.217,1.293 3.494,2.978 1.492,0.08 2.966,0.227 4.431,0.406 0.899,-1.562 1.858,-3.086 2.881,-4.563 C 11.215,14.083 7.063,11.168 2.237,11.168 V 9.827 c 5.095,0 9.512,2.918 11.693,7.166 1.701,-2.336 3.558,-4.551 5.55,-6.637 C 15.583,5.044 9.315,1.575 2.237,1.575 V 0.233 c 7.436,0 14.03,3.604 18.181,9.14 C 22.367,7.416 24.449,5.594 26.634,3.897 20.956,-3.349 12.135,-8.019 2.237,-8.019 V -9 h 4.74 c 8.377,1.239 15.718,5.693 20.717,12.076 2.211,-1.646 4.536,-3.143 6.95,-4.499 C 32.5,-4.266 29.981,-6.807 27.177,-9 h 2.149 c 2.419,2.054 4.605,4.375 6.508,6.92 2.46,-1.315 5.017,-2.475 7.653,-3.467 C 42.659,-6.742 41.764,-7.884 40.839,-9 h 1.743 c 0.769,0.969 1.515,1.957 2.215,2.981 3.853,-1.356 7.868,-2.359 12.013,-2.964 L 56.799,-9 h 18.754 l -0.011,0.017 c 4.146,0.605 8.161,1.608 12.013,2.964 0.7,-1.024 1.446,-2.012 2.216,-2.981 h 1.743 c -0.926,1.116 -1.821,2.258 -2.648,3.453 2.637,0.992 5.192,2.152 7.654,3.467 1.902,-2.545 4.087,-4.866 6.506,-6.92 h 2.15 c -2.805,2.193 -5.324,4.734 -7.468,7.577 2.415,1.356 4.74,2.853 6.951,4.499 C 109.658,-3.307 117,-7.761 125.376,-9 h 9.48 c 8.377,1.239 15.719,5.693 20.718,12.076 2.211,-1.646 4.536,-3.143 6.95,-4.499 -2.145,-2.843 -4.664,-5.384 -7.467,-7.577 h 2.149 c 2.419,2.054 4.604,4.375 6.507,6.92 2.461,-1.315 5.017,-2.475 7.654,-3.467 -0.829,-1.195 -1.724,-2.337 -2.648,-3.453 h 1.743 c 0.768,0.969 1.515,1.957 2.215,2.981 3.853,-1.356 7.868,-2.359 12.013,-2.964 L 184.679,-9 h 18.754 l -0.011,0.017 c 4.146,0.605 8.161,1.608 12.013,2.964 0.699,-1.024 1.446,-2.012 2.216,-2.981 h 1.743 c -0.926,1.116 -1.821,2.258 -2.649,3.453 2.637,0.992 5.192,2.152 7.654,3.467 1.903,-2.545 4.087,-4.866 6.507,-6.92 h 2.149 c -2.804,2.193 -5.323,4.734 -7.468,7.577 2.416,1.356 4.741,2.853 6.952,4.499 4.999,-6.383 12.34,-10.837 20.717,-12.076 h 4.74 v 0.981 c -9.898,0 -18.72,4.67 -24.397,11.916 2.184,1.697 4.266,3.519 6.216,5.476 4.151,-5.536 10.745,-9.14 18.181,-9.14 v 1.342 c -7.078,0 -13.347,3.469 -17.243,8.781 1.992,2.086 3.848,4.301 5.55,6.637 2.18,-4.248 6.598,-7.166 11.693,-7.166 v 1.341 c -4.826,0 -8.978,2.915 -10.806,7.072 1.023,1.477 1.981,3.001 2.881,4.563 1.465,-0.179 2.939,-0.326 4.431,-0.406 0.277,-1.685 1.732,-2.978 3.494,-2.978 v 1.342 c -1.003,0 -1.841,0.675 -2.111,1.593 0.703,-0.023 1.403,-0.054 2.111,-0.054 v 1.342 c -23.236,0 -43.573,12.598 -54.574,31.315 4.146,0.605 8.161,1.609 12.013,2.964 9.285,-13.588 24.897,-22.527 42.561,-22.527 v 1.341 c -17.08,0 -32.185,8.585 -41.25,21.658 2.636,0.993 5.192,2.153 7.653,3.467 7.651,-10.235 19.864,-16.872 33.597,-16.872 v 1.341 c -13.228,0 -24.996,6.363 -32.409,16.188 2.416,1.356 4.741,2.853 6.952,4.499 5.923,-7.563 15.128,-12.436 25.457,-12.436 v 1.341 c -9.898,0 -18.72,4.671 -24.397,11.916 2.184,1.697 4.266,3.52 6.216,5.476 4.151,-5.536 10.745,-9.139 18.181,-9.139 v 1.341 c -7.078,0 -13.347,3.469 -17.243,8.782 1.992,2.085 3.848,4.3 5.55,6.637 2.18,-4.249 6.598,-7.167 11.693,-7.167 v 1.342 c -4.826,0 -8.978,2.914 -10.806,7.071 1.023,1.477 1.981,3.002 2.881,4.563 1.465,-0.179 2.939,-0.326 4.431,-0.405 0.277,-1.686 1.732,-2.978 3.494,-2.978 v 1.341 c -1.003,0 -1.841,0.675 -2.111,1.593 0.703,-0.023 1.403,-0.053 2.111,-0.053 v 1.341 c -23.236,0 -43.573,12.599 -54.574,31.316 4.146,0.604 8.161,1.608 12.013,2.964 9.285,-13.589 24.897,-22.528 42.561,-22.528 v 1.342 c -17.08,0 -32.185,8.585 -41.25,21.658 2.636,0.992 5.192,2.152 7.653,3.467 7.651,-10.236 19.864,-16.873 33.597,-16.873 v 1.341 c -13.228,0 -24.996,6.364 -32.409,16.189 2.416,1.355 4.741,2.853 6.952,4.499 5.923,-7.563 15.128,-12.437 25.457,-12.437 v 1.342 c -9.898,0 -18.72,4.67 -24.397,11.916 2.184,1.697 4.266,3.519 6.216,5.476 4.151,-5.536 10.745,-9.14 18.181,-9.14 v 1.341 c -7.078,0 -13.347,3.47 -17.243,8.782 1.992,2.086 3.848,4.301 5.55,6.637 2.18,-4.248 6.598,-7.166 11.693,-7.166 v 1.341 c -4.826,0 -8.978,2.915 -10.806,7.072 1.023,1.477 1.981,3.001 2.881,4.563 1.465,-0.179 2.939,-0.326 4.431,-0.406 0.277,-1.685 1.732,-2.978 3.494,-2.978 v 1.341 c -1.003,0 -1.841,0.676 -2.111,1.594 0.703,-0.023 1.403,-0.054 2.111,-0.054 v 1.342 c -23.236,0 -43.573,12.598 -54.574,31.315 4.146,0.605 8.161,1.609 12.013,2.964 9.285,-13.588 24.897,-22.527 42.561,-22.527 v 1.341 c -17.08,0 -32.185,8.585 -41.25,21.658 2.636,0.993 5.192,2.152 7.653,3.467 7.651,-10.235 19.864,-16.873 33.597,-16.873 v 1.342 c -13.228,0 -24.996,6.363 -32.409,16.188 2.416,1.356 4.741,2.853 6.952,4.499 5.923,-7.563 15.128,-12.436 25.457,-12.436 v 1.341 c -9.898,0 -18.72,4.671 -24.397,11.916 2.184,1.697 4.266,3.52 6.216,5.476 4.151,-5.536 10.745,-9.14 18.181,-9.14 v 1.342 c -7.078,0 -13.347,3.469 -17.243,8.782 1.992,2.085 3.848,4.3 5.55,6.637 2.18,-4.249 6.598,-7.167 11.693,-7.167 v 1.342 c -4.826,0 -8.978,2.914 -10.806,7.071 1.023,1.477 1.981,3.002 2.881,4.563 1.465,-0.179 2.939,-0.326 4.431,-0.405 0.277,-1.686 1.732,-2.979 3.494,-2.979 v 1.342 c -1.003,0 -1.841,0.675 -2.111,1.593 0.703,-0.021 1.403,-0.053 2.111,-0.053 v 1.341 c -23.229,0 -43.561,12.591 -54.564,31.299"
           id="path35"
           inkscape:connector-curvature="0"
           style="fill:#ffffff;fill-opacity:0.6;fill-rule:evenodd" />
        <g
           id="abricotine">
          <g
             id="g39"
             style="opacity:0.1">
            <path
               d="m 152.095,53.46 -21.197,10.599 v 30.957 l -41.494,24.53 -32.695,-18.393 v 23.319 l 12.441,7.049 -23.04,13.62 21.197,13.248 23.826,-14.407 39.765,22.532 v 35.325 l 21.197,-13.248 V 178.52 l 31.795,18.02 V 172.693 L 152.095,154.808 V 107.126 L 183.89,87.905 165.343,74.657 152.095,82.492 Z m -21.197,66.479 v 22.946 l -19.655,-11.053 z"
               id="path37"
               inkscape:connector-curvature="0"
               style="fill:#000000" />
          </g>
          <path
             d="m 130.898,58.76 21.197,-10.599 v 135.13 l -21.197,13.249 z"
             id="path41"
             inkscape:connector-curvature="0"
             style="fill:#f9f9f9" />
          <path
             d="M 56.709,119.171 V 95.854 l 127.181,71.54 v 23.846 z"
             id="path43"
             inkscape:connector-curvature="0"
             style="fill:#f9f9f9" />
          <path
             d="M 165.343,69.358 183.89,82.606 67.307,153.086 46.11,139.838 Z"
             id="path45"
             inkscape:connector-curvature="0"
             style="fill:#f9f9f9" />
        </g>
        <g
           id="g50"
           style="opacity:0.1">
          <path
             d="M 90.316,243.149 C 16.26,243.149 5.677,232.592 5.677,158.605 V 128.98 h 244.648 v 29.625 c 0,73.987 -10.584,84.544 -84.639,84.544 z"
             id="path48"
             inkscape:connector-curvature="0"
             style="fill:#ffffff" />
        </g>
        <g
           id="g54"
           style="opacity:0.1">
          <path
             d="m 128.001,14.811 v 228.338 h 37.685 c 74.055,0 84.639,-10.557 84.639,-84.544 V 99.354 c 0,-73.986 -10.584,-84.543 -84.639,-84.543 z"
             id="path52"
             inkscape:connector-curvature="0"
             style="fill:#ffffff" />
        </g>
        <linearGradient
           id="_lgradient_42"
           x1="0.26701412"
           y1="-0.0036349304"
           x2="0.88128036"
           y2="0.99323541">
          <stop
             offset="0%"
             stop-opacity="0"
             style="stop-color:rgb(40,133,30)"
             id="stop56" />
          <stop
             offset="98.26086956521739%"
             stop-opacity="0.2"
             style="stop-color:rgb(255,255,255)"
             id="stop58" />
        </linearGradient>
        <path
           d="m 165.685,13.83 c 74.056,0 84.64,10.557 84.64,84.544 v 59.252 c 0,73.986 -10.584,84.544 -84.64,84.544 h -75.37 c -74.056,0 -84.64,-10.558 -84.64,-84.544 V 98.374 c 0,-73.987 10.584,-84.544 84.64,-84.544 z"
           id="path61"
           inkscape:connector-curvature="0"
           style="fill:url(#_lgradient_42)" />
      </g>
      <g
         id="highlight">
        <clipPath
           id="_clipPath_Gxqdp6qRs4ciD2gj7nHuyqhVSIyYA4W4">
          <path
             d="m 165.685,13.811 c 74.056,0 84.64,10.557 84.64,84.544 v 59.251 c 0,73.987 -10.584,84.545 -84.64,84.545 h -75.37 c -74.056,0 -84.64,-10.558 -84.64,-84.545 V 98.355 c 0,-73.987 10.584,-84.544 84.64,-84.544 z"
             id="path65"
             inkscape:connector-curvature="0"
             style="fill:#ffffff" />
        </clipPath>
        <g
           clip-path="url(#_clipPath_Gxqdp6qRs4ciD2gj7nHuyqhVSIyYA4W4)"
           id="g81">
          <g
             id="g79"
             style="opacity:0.4">
            <linearGradient
               id="_lgradient_43"
               x1="0.51666665"
               y1="0"
               x2="0.51666665"
               y2="1">
              <stop
                 offset="0%"
                 stop-opacity="1"
                 style="stop-color:rgb(255,255,255)"
                 id="stop68" />
              <stop
                 offset="12.5%"
                 stop-opacity="0.09803922"
                 style="stop-color:rgb(255,255,255)"
                 id="stop70" />
              <stop
                 offset="92.500001%"
                 stop-opacity="0.09803922"
                 style="stop-color:rgb(0,0,0)"
                 id="stop72" />
              <stop
                 offset="100%"
                 stop-opacity="0.49803922"
                 style="stop-color:rgb(0,0,0)"
                 id="stop74" />
            </linearGradient>
            <path
               d="m 165.685,13.811 c 74.056,0 84.64,10.557 84.64,84.544 v 59.251 c 0,73.987 -10.584,84.545 -84.64,84.545 h -75.37 c -74.056,0 -84.64,-10.558 -84.64,-84.545 V 98.355 c 0,-73.987 10.584,-84.544 84.64,-84.544 z"
               stroke-miterlimit="4"
               id="path77"
               inkscape:connector-curvature="0"
               style="vector-effect:non-scaling-stroke;fill:none;stroke:url(#_lgradient_43);stroke-width:4;stroke-linecap:round;stroke-linejoin:round;stroke-miterlimit:4" />
          </g>
        </g>
      </g>
    </g>
  </g>
</svg>
