<?xml version="1.0" encoding="UTF-8" standalone="no"?>
<!-- Created with Inkscape (http://www.inkscape.org/) -->

<svg
   xmlns:dc="http://purl.org/dc/elements/1.1/"
   xmlns:cc="http://creativecommons.org/ns#"
   xmlns:rdf="http://www.w3.org/1999/02/22-rdf-syntax-ns#"
   xmlns:svg="http://www.w3.org/2000/svg"
   xmlns="http://www.w3.org/2000/svg"
   xmlns:xlink="http://www.w3.org/1999/xlink"
   xmlns:sodipodi="http://sodipodi.sourceforge.net/DTD/sodipodi-0.dtd"
   xmlns:inkscape="http://www.inkscape.org/namespaces/inkscape"
   width="256"
   height="256"
   viewBox="0 0 67.733332 67.733335"
   version="1.1"
   id="svg1488"
   inkscape:version="0.92.2 2405546, 2018-03-11"
   sodipodi:docname="alchemy.svg">
  <defs
     id="defs1482">
    <clipPath
       clipPathUnits="userSpaceOnUse"
       id="clipPath1025">
      <path
         id="path1027"
         d="M 111.94141,84 C 99.359506,84.145 90.1531,83.713998 82.625,87.867188 c -3.7641,2.0768 -6.751838,5.574737 -8.398438,9.960937 C 72.580062,102.21433 72,107.4241 72,114 v 42 h 160 v -26 c 0,-6.5759 -0.57996,-11.78566 -2.22656,-16.17188 -0.205,-0.5455 -0.47919,-1.03993 -0.74219,-1.54296 -0.1,-0.1848 -0.17844,-0.38051 -0.27344,-0.56641 -1.727,-3.38752 -4.25471,-6.14522 -7.38281,-7.87109 C 213.8463,99.694146 204.64049,100.1454 192.05859,100 H 192 151.66797 L 135.45312,84 h -23.49218 z"
         style="color:#000000;font-style:normal;font-variant:normal;font-weight:normal;font-stretch:normal;font-size:medium;line-height:normal;font-family:sans-serif;font-variant-ligatures:none;font-variant-position:normal;font-variant-caps:normal;font-variant-numeric:normal;font-variant-alternates:normal;font-feature-settings:normal;text-indent:0;text-align:start;text-decoration:none;text-decoration-line:none;text-decoration-style:solid;text-decoration-color:#000000;letter-spacing:normal;word-spacing:normal;text-transform:none;writing-mode:lr-tb;direction:ltr;baseline-shift:baseline;text-anchor:start;white-space:normal;shape-padding:0;clip-rule:nonzero;display:inline;overflow:visible;visibility:visible;opacity:1;isolation:auto;mix-blend-mode:normal;color-interpolation:sRGB;color-interpolation-filters:linearRGB;solid-color:#000000;solid-opacity:1;fill:#e3dfd5;fill-opacity:1;fill-rule:nonzero;stroke:none;stroke-width:4.00000048;stroke-linecap:butt;stroke-linejoin:miter;stroke-miterlimit:4;stroke-dasharray:none;stroke-dashoffset:0;stroke-opacity:1;marker:none;color-rendering:auto;image-rendering:auto;shape-rendering:auto;text-rendering:auto;enable-background:accumulate"
         inkscape:connector-curvature="0" />
    </clipPath>
    <clipPath
       clipPathUnits="userSpaceOnUse"
       id="clipPath1082-3">
      <path
         sodipodi:nodetypes="sssssssss"
         inkscape:connector-curvature="0"
         id="path1084-6"
         d="M 361.9375,-212 C 507.2348,-212 528,-191.28677 528,-46.125 V 70.125 C 528,215.28618 507.2348,236 361.9375,236 H 214.0625 C 68.7652,236 48,215.28618 48,70.125 V -46.125 C 48,-191.28677 68.7652,-212 214.0625,-212 Z"
         style="display:inline;opacity:1;fill:#8c59d9;fill-opacity:1;stroke:none;stroke-width:2;stroke-linecap:round;stroke-linejoin:round;stroke-miterlimit:4;stroke-dasharray:none;stroke-dashoffset:0;stroke-opacity:1;enable-background:new" />
    </clipPath>
    <clipPath
       clipPathUnits="userSpaceOnUse"
       id="clipPath1082-3-5">
      <path
         sodipodi:nodetypes="sssssssss"
         inkscape:connector-curvature="0"
         id="path1084-6-6"
         d="M 361.9375,-212 C 507.2348,-212 528,-191.28677 528,-46.125 V 70.125 C 528,215.28618 507.2348,236 361.9375,236 H 214.0625 C 68.7652,236 48,215.28618 48,70.125 V -46.125 C 48,-191.28677 68.7652,-212 214.0625,-212 Z"
         style="display:inline;opacity:1;fill:#8c59d9;fill-opacity:1;stroke:none;stroke-width:2;stroke-linecap:round;stroke-linejoin:round;stroke-miterlimit:4;stroke-dasharray:none;stroke-dashoffset:0;stroke-opacity:1;enable-background:new" />
    </clipPath>
    <clipPath
       clipPathUnits="userSpaceOnUse"
       id="clipPath1082-3-9">
      <path
         sodipodi:nodetypes="sssssssss"
         inkscape:connector-curvature="0"
         id="path1084-6-3"
         d="M 361.9375,-212 C 507.2348,-212 528,-191.28677 528,-46.125 V 70.125 C 528,215.28618 507.2348,236 361.9375,236 H 214.0625 C 68.7652,236 48,215.28618 48,70.125 V -46.125 C 48,-191.28677 68.7652,-212 214.0625,-212 Z"
         style="display:inline;opacity:1;fill:#8c59d9;fill-opacity:1;stroke:none;stroke-width:2;stroke-linecap:round;stroke-linejoin:round;stroke-miterlimit:4;stroke-dasharray:none;stroke-dashoffset:0;stroke-opacity:1;enable-background:new" />
    </clipPath>
    <clipPath
       clipPathUnits="userSpaceOnUse"
       id="clipPath1082-3-3">
      <path
         sodipodi:nodetypes="sssssssss"
         inkscape:connector-curvature="0"
         id="path1084-6-67"
         d="M 361.9375,-212 C 507.2348,-212 528,-191.28677 528,-46.125 V 70.125 C 528,215.28618 507.2348,236 361.9375,236 H 214.0625 C 68.7652,236 48,215.28618 48,70.125 V -46.125 C 48,-191.28677 68.7652,-212 214.0625,-212 Z"
         style="display:inline;opacity:1;fill:#8c59d9;fill-opacity:1;stroke:none;stroke-width:2;stroke-linecap:round;stroke-linejoin:round;stroke-miterlimit:4;stroke-dasharray:none;stroke-dashoffset:0;stroke-opacity:1;enable-background:new" />
    </clipPath>
    <clipPath
       clipPathUnits="userSpaceOnUse"
       id="clipPath1082-3-53">
      <path
         sodipodi:nodetypes="sssssssss"
         inkscape:connector-curvature="0"
         id="path1084-6-5"
         d="M 361.9375,-212 C 507.2348,-212 528,-191.28677 528,-46.125 V 70.125 C 528,215.28618 507.2348,236 361.9375,236 H 214.0625 C 68.7652,236 48,215.28618 48,70.125 V -46.125 C 48,-191.28677 68.7652,-212 214.0625,-212 Z"
         style="display:inline;opacity:1;fill:#8c59d9;fill-opacity:1;stroke:none;stroke-width:2;stroke-linecap:round;stroke-linejoin:round;stroke-miterlimit:4;stroke-dasharray:none;stroke-dashoffset:0;stroke-opacity:1;enable-background:new" />
    </clipPath>
    <clipPath
       clipPathUnits="userSpaceOnUse"
       id="clipPath1082-3-6">
      <path
         sodipodi:nodetypes="sssssssss"
         inkscape:connector-curvature="0"
         id="path1084-6-2"
         d="M 361.9375,-212 C 507.2348,-212 528,-191.28677 528,-46.125 V 70.125 C 528,215.28618 507.2348,236 361.9375,236 H 214.0625 C 68.7652,236 48,215.28618 48,70.125 V -46.125 C 48,-191.28677 68.7652,-212 214.0625,-212 Z"
         style="display:inline;opacity:1;fill:#8c59d9;fill-opacity:1;stroke:none;stroke-width:2;stroke-linecap:round;stroke-linejoin:round;stroke-miterlimit:4;stroke-dasharray:none;stroke-dashoffset:0;stroke-opacity:1;enable-background:new" />
    </clipPath>
    <clipPath
       clipPathUnits="userSpaceOnUse"
       id="clipPath1082-3-91">
      <path
         sodipodi:nodetypes="sssssssss"
         inkscape:connector-curvature="0"
         id="path1084-6-27"
         d="M 361.9375,-212 C 507.2348,-212 528,-191.28677 528,-46.125 V 70.125 C 528,215.28618 507.2348,236 361.9375,236 H 214.0625 C 68.7652,236 48,215.28618 48,70.125 V -46.125 C 48,-191.28677 68.7652,-212 214.0625,-212 Z"
         style="display:inline;opacity:1;fill:#8c59d9;fill-opacity:1;stroke:none;stroke-width:2;stroke-linecap:round;stroke-linejoin:round;stroke-miterlimit:4;stroke-dasharray:none;stroke-dashoffset:0;stroke-opacity:1;enable-background:new" />
    </clipPath>
    <clipPath
       clipPathUnits="userSpaceOnUse"
       id="clipPath1025-0">
      <path
         style="opacity:1;fill:#8c59d9;fill-opacity:1;stroke:none;stroke-width:2;stroke-linecap:round;stroke-linejoin:round;stroke-miterlimit:4;stroke-dasharray:none;stroke-dashoffset:0;stroke-opacity:1"
         d="M 329.9375,32 C 475.2348,32 496,52.71323 496,197.875 v 116.25 C 496,459.28618 475.2348,480 329.9375,480 H 182.0625 C 36.7652,480 16,459.28618 16,314.125 V 197.875 C 16,52.71323 36.7652,32 182.0625,32 Z"
         id="path1027-9"
         inkscape:connector-curvature="0"
         sodipodi:nodetypes="sssssssss" />
    </clipPath>
    <clipPath
       clipPathUnits="userSpaceOnUse"
       id="clipPath4277-8">
      <rect
         style="color:#000000;display:inline;overflow:visible;visibility:visible;opacity:0.81999972;fill:#88b637;fill-opacity:1;fill-rule:nonzero;stroke:none;stroke-width:2;stroke-linecap:butt;stroke-linejoin:miter;stroke-miterlimit:4;stroke-dasharray:none;stroke-dashoffset:0;stroke-opacity:1;marker:none;enable-background:accumulate"
         id="rect4279-6"
         width="512"
         height="512"
         x="5.5999999e-07"
         y="0"
         ry="1" />
    </clipPath>
    <linearGradient
       id="linearGradient3650-7-9">
      <stop
         style="stop-color:#5884f4;stop-opacity:1"
         offset="0"
         id="stop4366" />
      <stop
         id="stop4368"
         offset="1"
         style="stop-color:#80a3fa;stop-opacity:1" />
    </linearGradient>
    <clipPath
       clipPathUnits="userSpaceOnUse"
       id="clipPath1082-3-36">
      <path
         sodipodi:nodetypes="sssssssss"
         inkscape:connector-curvature="0"
         id="path1084-6-0"
         d="M 361.9375,-212 C 507.2348,-212 528,-191.28677 528,-46.125 V 70.125 C 528,215.28618 507.2348,236 361.9375,236 H 214.0625 C 68.7652,236 48,215.28618 48,70.125 V -46.125 C 48,-191.28677 68.7652,-212 214.0625,-212 Z"
         style="display:inline;opacity:1;fill:#8c59d9;fill-opacity:1;stroke:none;stroke-width:2;stroke-linecap:round;stroke-linejoin:round;stroke-miterlimit:4;stroke-dasharray:none;stroke-dashoffset:0;stroke-opacity:1;enable-background:new" />
    </clipPath>
    <clipPath
       clipPathUnits="userSpaceOnUse"
       id="clipPath983">
      <path
         id="path985"
         d="M 115.03125,44 C 42.3826,44 32,54.356615 32,126.9375 v 58.125 C 32,257.64309 42.3826,268 115.03125,268 H 152 V 44 Z"
         style="opacity:1;fill:#4d4d4d;fill-opacity:1;stroke:none;stroke-width:2;stroke-linecap:round;stroke-linejoin:round;stroke-miterlimit:4;stroke-dasharray:none;stroke-dashoffset:0;stroke-opacity:1"
         inkscape:connector-curvature="0" />
    </clipPath>
    <clipPath
       clipPathUnits="userSpaceOnUse"
       id="clipPath1082-3-62">
      <path
         sodipodi:nodetypes="sssssssss"
         inkscape:connector-curvature="0"
         id="path1084-6-61"
         d="M 361.9375,-212 C 507.2348,-212 528,-191.28677 528,-46.125 V 70.125 C 528,215.28618 507.2348,236 361.9375,236 H 214.0625 C 68.7652,236 48,215.28618 48,70.125 V -46.125 C 48,-191.28677 68.7652,-212 214.0625,-212 Z"
         style="display:inline;opacity:1;fill:#8c59d9;fill-opacity:1;stroke:none;stroke-width:2;stroke-linecap:round;stroke-linejoin:round;stroke-miterlimit:4;stroke-dasharray:none;stroke-dashoffset:0;stroke-opacity:1;enable-background:new" />
    </clipPath>
    <clipPath
       clipPathUnits="userSpaceOnUse"
       id="clipPath949">
      <path
         sodipodi:nodetypes="sssssssss"
         inkscape:connector-curvature="0"
         id="path951"
         d="M 329.9375,32 C 475.2348,32 496,52.71323 496,197.875 v 116.25 C 496,459.28618 475.2348,480 329.9375,480 H 182.0625 C 36.7652,480 16,459.28618 16,314.125 V 197.875 C 16,52.71323 36.7652,32 182.0625,32 Z"
         style="opacity:1;fill:#eab305;fill-opacity:1;stroke:none;stroke-width:4;stroke-linecap:round;stroke-linejoin:round;stroke-miterlimit:4;stroke-dasharray:none;stroke-dashoffset:0;stroke-opacity:1" />
    </clipPath>
    <clipPath
       clipPathUnits="userSpaceOnUse"
       id="clipPath954">
      <path
         sodipodi:nodetypes="sssssssss"
         inkscape:connector-curvature="0"
         id="path952"
         d="M 329.9375,32 C 475.2348,32 496,52.71323 496,197.875 v 116.25 C 496,459.28618 475.2348,480 329.9375,480 H 182.0625 C 36.7652,480 16,459.28618 16,314.125 V 197.875 C 16,52.71323 36.7652,32 182.0625,32 Z"
         style="opacity:1;fill:#eab305;fill-opacity:1;stroke:none;stroke-width:4;stroke-linecap:round;stroke-linejoin:round;stroke-miterlimit:4;stroke-dasharray:none;stroke-dashoffset:0;stroke-opacity:1" />
    </clipPath>
    <clipPath
       clipPathUnits="userSpaceOnUse"
       id="clipPath1082-3-8">
      <path
         sodipodi:nodetypes="sssssssss"
         inkscape:connector-curvature="0"
         id="path1084-6-7"
         d="M 361.9375,-212 C 507.2348,-212 528,-191.28677 528,-46.125 V 70.125 C 528,215.28618 507.2348,236 361.9375,236 H 214.0625 C 68.7652,236 48,215.28618 48,70.125 V -46.125 C 48,-191.28677 68.7652,-212 214.0625,-212 Z"
         style="display:inline;opacity:1;fill:#8c59d9;fill-opacity:1;stroke:none;stroke-width:2;stroke-linecap:round;stroke-linejoin:round;stroke-miterlimit:4;stroke-dasharray:none;stroke-dashoffset:0;stroke-opacity:1;enable-background:new" />
    </clipPath>
    <clipPath
       clipPathUnits="userSpaceOnUse"
       id="clipPath1082-3-92">
      <path
         sodipodi:nodetypes="sssssssss"
         inkscape:connector-curvature="0"
         id="path1084-6-02"
         d="M 361.9375,-212 C 507.2348,-212 528,-191.28677 528,-46.125 V 70.125 C 528,215.28618 507.2348,236 361.9375,236 H 214.0625 C 68.7652,236 48,215.28618 48,70.125 V -46.125 C 48,-191.28677 68.7652,-212 214.0625,-212 Z"
         style="display:inline;opacity:1;fill:#8c59d9;fill-opacity:1;stroke:none;stroke-width:2;stroke-linecap:round;stroke-linejoin:round;stroke-miterlimit:4;stroke-dasharray:none;stroke-dashoffset:0;stroke-opacity:1;enable-background:new" />
    </clipPath>
    <clipPath
       clipPathUnits="userSpaceOnUse"
       id="clipPath1082">
      <path
         sodipodi:nodetypes="sssssssss"
         inkscape:connector-curvature="0"
         id="path1084"
         d="M 361.9375,-212 C 507.2348,-212 528,-191.28677 528,-46.125 V 70.125 C 528,215.28618 507.2348,236 361.9375,236 H 214.0625 C 68.7652,236 48,215.28618 48,70.125 V -46.125 C 48,-191.28677 68.7652,-212 214.0625,-212 Z"
         style="display:inline;opacity:1;fill:#8c59d9;fill-opacity:1;stroke:none;stroke-width:2;stroke-linecap:round;stroke-linejoin:round;stroke-miterlimit:4;stroke-dasharray:none;stroke-dashoffset:0;stroke-opacity:1;enable-background:new" />
    </clipPath>
    <linearGradient
       inkscape:collect="always"
       xlink:href="#linearGradient1013"
       id="linearGradient1108"
       x1="296"
       y1="-212"
       x2="296"
       y2="236"
       gradientUnits="userSpaceOnUse" />
    <linearGradient
       id="linearGradient1013"
       inkscape:collect="always">
      <stop
         id="stop1005"
         offset="0"
         style="stop-color:#ffffff;stop-opacity:1;" />
      <stop
         style="stop-color:#ffffff;stop-opacity:0.09803922"
         offset="0.125"
         id="stop1007" />
      <stop
         style="stop-color:#000000;stop-opacity:0.09803922"
         offset="0.92500001"
         id="stop1009" />
      <stop
         id="stop1011"
         offset="1"
         style="stop-color:#000000;stop-opacity:0.49803922" />
    </linearGradient>
    <clipPath
       clipPathUnits="userSpaceOnUse"
       id="clipPath1082-3-361">
      <path
         sodipodi:nodetypes="sssssssss"
         inkscape:connector-curvature="0"
         id="path1084-6-29"
         d="M 361.9375,-212 C 507.2348,-212 528,-191.28677 528,-46.125 V 70.125 C 528,215.28618 507.2348,236 361.9375,236 H 214.0625 C 68.7652,236 48,215.28618 48,70.125 V -46.125 C 48,-191.28677 68.7652,-212 214.0625,-212 Z"
         style="display:inline;opacity:1;fill:#8c59d9;fill-opacity:1;stroke:none;stroke-width:2;stroke-linecap:round;stroke-linejoin:round;stroke-miterlimit:4;stroke-dasharray:none;stroke-dashoffset:0;stroke-opacity:1;enable-background:new" />
    </clipPath>
    <clipPath
       clipPathUnits="userSpaceOnUse"
       id="clipPath1079">
      <circle
         cx="213.84277"
         cy="146"
         r="55"
         style="color:#000000;display:inline;overflow:visible;visibility:visible;opacity:1;fill:url(#linearGradient1083);fill-opacity:1;fill-rule:nonzero;stroke:none;stroke-width:7.99999952;stroke-linecap:butt;stroke-linejoin:miter;stroke-miterlimit:4;stroke-dasharray:none;stroke-dashoffset:0;stroke-opacity:1;marker:none;enable-background:accumulate"
         id="circle1081"
         transform="scale(-1,1)" />
    </clipPath>
    <clipPath
       clipPathUnits="userSpaceOnUse"
       id="clipPath984">
      <circle
         cx="213.84277"
         cy="146"
         r="55"
         style="color:#000000;display:inline;overflow:visible;visibility:visible;opacity:1;fill:url(#linearGradient1083);fill-opacity:1;fill-rule:nonzero;stroke:none;stroke-width:7.99999952;stroke-linecap:butt;stroke-linejoin:miter;stroke-miterlimit:4;stroke-dasharray:none;stroke-dashoffset:0;stroke-opacity:1;marker:none;enable-background:accumulate"
         id="circle982"
         transform="scale(-1,1)" />
    </clipPath>
    <clipPath
       clipPathUnits="userSpaceOnUse"
       id="clipPath988">
      <circle
         cx="213.84277"
         cy="146"
         r="55"
         style="color:#000000;display:inline;overflow:visible;visibility:visible;opacity:1;fill:url(#linearGradient1083);fill-opacity:1;fill-rule:nonzero;stroke:none;stroke-width:7.99999952;stroke-linecap:butt;stroke-linejoin:miter;stroke-miterlimit:4;stroke-dasharray:none;stroke-dashoffset:0;stroke-opacity:1;marker:none;enable-background:accumulate"
         id="circle986"
         transform="scale(-1,1)" />
    </clipPath>
    <clipPath
       clipPathUnits="userSpaceOnUse"
       id="clipPath992">
      <circle
         cx="213.84277"
         cy="146"
         r="55"
         style="color:#000000;display:inline;overflow:visible;visibility:visible;opacity:1;fill:url(#linearGradient1083);fill-opacity:1;fill-rule:nonzero;stroke:none;stroke-width:7.99999952;stroke-linecap:butt;stroke-linejoin:miter;stroke-miterlimit:4;stroke-dasharray:none;stroke-dashoffset:0;stroke-opacity:1;marker:none;enable-background:accumulate"
         id="circle990"
         transform="scale(-1,1)" />
    </clipPath>
    <filter
       inkscape:collect="always"
       style="color-interpolation-filters:sRGB"
       id="filter4569"
       x="-0.0116"
       width="1.0232"
       y="-0.012428571"
       height="1.024857">
      <feGaussianBlur
         inkscape:collect="always"
         stdDeviation="1.16"
         id="feGaussianBlur4571" />
    </filter>
    <filter
       inkscape:collect="always"
       style="color-interpolation-filters:sRGB"
       id="filter939"
       x="-0.0232"
       width="1.0464"
       y="-0.024857143"
       height="1.0497143">
      <feGaussianBlur
         inkscape:collect="always"
         stdDeviation="2.32"
         id="feGaussianBlur941" />
    </filter>
    <filter
       inkscape:collect="always"
       style="color-interpolation-filters:sRGB"
       id="filter2940"
       x="-0.066536618"
       width="1.1330732"
       y="-0.037541274"
       height="1.0750825">
      <feGaussianBlur
         inkscape:collect="always"
         stdDeviation="0.60735834"
         id="feGaussianBlur2942" />
    </filter>
    <filter
       inkscape:collect="always"
       style="color-interpolation-filters:sRGB"
       id="filter2958"
       x="-0.037856185"
       width="1.0757124"
       y="-0.065569883"
       height="1.1311398">
      <feGaussianBlur
         inkscape:collect="always"
         stdDeviation="1.8653906"
         id="feGaussianBlur2960" />
    </filter>
  </defs>
  <sodipodi:namedview
     id="base"
     pagecolor="#ffffff"
     bordercolor="#666666"
     borderopacity="1.0"
     inkscape:pageopacity="0.0"
     inkscape:pageshadow="2"
     inkscape:zoom="3.2382812"
     inkscape:cx="49.285025"
     inkscape:cy="90.943305"
     inkscape:document-units="px"
     inkscape:current-layer="layer1"
     showgrid="false"
     units="px"
     inkscape:window-width="1600"
     inkscape:window-height="826"
     inkscape:window-x="0"
     inkscape:window-y="0"
     inkscape:window-maximized="1"
     showguides="false">
    <inkscape:grid
       type="xygrid"
       id="grid2168" />
  </sodipodi:namedview>
  <metadata
     id="metadata1485">
    <rdf:RDF>
      <cc:Work
         rdf:about="">
        <dc:format>image/svg+xml</dc:format>
        <dc:type
           rdf:resource="http://purl.org/dc/dcmitype/StillImage" />
        <dc:title />
      </cc:Work>
    </rdf:RDF>
  </metadata>
  <g
     inkscape:label="Livello 1"
     inkscape:groupmode="layer"
     id="layer1"
     transform="translate(0,-229.26666)">
    <path
       style="display:inline;opacity:0.2;fill:#000000;fill-opacity:1;stroke:none;stroke-width:2;stroke-linecap:round;stroke-linejoin:round;stroke-miterlimit:4;stroke-dasharray:none;stroke-dashoffset:0;stroke-opacity:1;filter:url(#filter939);enable-background:new"
       d="m 162.53675,5.5680001 c 72.64865,0 83.03125,10.3566149 83.03125,82.9375049 v 58.125005 c 0,72.58059 -10.3826,82.9375 -83.03125,82.9375 H 88.599254 C 15.9506,229.56801 5.568,219.2111 5.568,146.63051 V 88.505505 c 0,-72.58089 10.3826,-82.9375049 83.031254,-82.9375049 z"
       id="path937"
       inkscape:connector-curvature="0"
       sodipodi:nodetypes="sssssssss"
       transform="matrix(0.26970779,0,0,0.26970779,-1.9098094e-8,231.46531)" />
    <path
       sodipodi:nodetypes="sssssssss"
       inkscape:connector-curvature="0"
       id="path4558"
       d="m 43.837429,232.42763 c 19.593907,0 22.394176,2.79326 22.394176,22.36889 v 15.67677 c 0,19.57555 -2.800269,22.36889 -22.394176,22.36889 H 23.89591 c -19.5939088,0 -22.394177,-2.79334 -22.394177,-22.36889 v -15.67677 c 0,-19.57563 2.8002682,-22.36889 22.394177,-22.36889 z"
       style="display:inline;opacity:0.1;fill:none;fill-opacity:1;stroke:#000000;stroke-width:1.07883108;stroke-linecap:round;stroke-linejoin:round;stroke-miterlimit:4;stroke-dasharray:none;stroke-dashoffset:0;stroke-opacity:1;enable-background:new" />
    <path
       sodipodi:nodetypes="sssssssss"
       inkscape:connector-curvature="0"
       id="path4567"
       d="m 162.53675,3.5680001 c 72.64865,0 83.03125,10.3566149 83.03125,82.9375049 v 58.125005 c 0,72.58059 -10.3826,82.9375 -83.03125,82.9375 H 88.599254 C 15.9506,227.56801 5.568,217.2111 5.568,144.63051 V 86.505505 c 0,-72.58089 10.3826,-82.9375049 83.031254,-82.9375049 z"
       style="display:inline;opacity:0.1;fill:#000000;fill-opacity:1;stroke:none;stroke-width:2;stroke-linecap:round;stroke-linejoin:round;stroke-miterlimit:4;stroke-dasharray:none;stroke-dashoffset:0;stroke-opacity:1;filter:url(#filter4569);enable-background:new"
       transform="matrix(0.26970779,0,0,0.26970779,-1.9098094e-8,231.46531)" />
    <path
       style="display:inline;opacity:1;fill:#508da0;fill-opacity:1;stroke:none;stroke-width:0.53941554;stroke-linecap:round;stroke-linejoin:round;stroke-miterlimit:4;stroke-dasharray:none;stroke-dashoffset:0;stroke-opacity:1;enable-background:new"
       d="m 43.837427,232.42763 c 19.593907,0 22.394175,2.79326 22.394175,22.36889 v 15.67677 c 0,19.57555 -2.800268,22.36889 -22.394175,22.36889 h -19.94152 c -19.5939074,0 -22.3941756,-2.79334 -22.3941756,-22.36889 v -15.67677 c 0,-19.57563 2.8002682,-22.36889 22.3941756,-22.36889 z"
       id="rect877"
       inkscape:connector-curvature="0"
       sodipodi:nodetypes="sssssssss" />
    <path
       style="display:inline;opacity:0.1;fill:#ffffff;fill-opacity:1;stroke:none;stroke-width:0.53941554;stroke-linecap:round;stroke-linejoin:round;stroke-miterlimit:4;stroke-dasharray:none;stroke-dashoffset:0;stroke-opacity:1;enable-background:new"
       d="m 33.866666,232.42763 v 60.41455 h 9.970761 c 19.593907,0 22.394175,-2.79334 22.394175,-22.36889 v -15.67677 c 0,-19.57563 -2.800268,-22.36889 -22.394175,-22.36889 z"
       id="path1099"
       inkscape:connector-curvature="0" />
    <path
       style="display:inline;opacity:0.1;fill:#ffffff;fill-opacity:1;stroke:none;stroke-width:0.53941554;stroke-linecap:round;stroke-linejoin:round;stroke-miterlimit:4;stroke-dasharray:none;stroke-dashoffset:0;stroke-opacity:1;enable-background:new"
       d="m 23.895907,292.84218 c -19.5939074,0 -22.3941756,-2.79326 -22.3941756,-22.36889 v -7.83838 H 66.231602 v 7.83838 c 0,19.57563 -2.800268,22.36889 -22.394175,22.36889 z"
       id="path1107"
       inkscape:connector-curvature="0" />
    <g
       transform="translate(-1.5418442)"
       id="g2914"
       style="opacity:0.3;fill:#000000;fill-opacity:1;filter:url(#filter2940)">
      <rect
         style="opacity:1;fill:#000000;fill-opacity:1;stroke:none;stroke-width:1.50051737;stroke-miterlimit:4;stroke-dasharray:none;stroke-opacity:0.97647059"
         id="rect2886"
         width="6.8553481"
         height="11.185043"
         x="31.710228"
         y="258.67484" />
      <circle
         style="opacity:1;fill:#000000;fill-opacity:1;stroke:none;stroke-width:1.5148741;stroke-miterlimit:4;stroke-dasharray:none;stroke-opacity:0.97647059"
         id="circle2888"
         cx="35.408417"
         cy="279.87228"
         r="10.953724" />
      <path
         inkscape:connector-curvature="0"
         style="fill:#000000;fill-opacity:1;stroke-width:0.29858965"
         d="m 31.336907,290.03219 c 0.01202,0.006 0.02161,0.0132 0.03366,0.0182 0.03112,0.0129 0.06354,0.0159 0.0947,0.0286 a 10.953724,10.953724 0 0 1 -0.128364,-0.0468 z"
         id="path2890" />
      <path
         inkscape:connector-curvature="0"
         style="fill:#000000;fill-opacity:1;stroke-width:0.29858965"
         d="m 24.50281,280.81623 c 0.05025,0.44975 0.101391,0.89556 0.204242,1.33385 a 10.953724,10.953724 0 0 1 -0.09299,-0.4159 10.953724,10.953724 0 0 1 -0.111249,-0.91795 z"
         id="path2892" />
      <path
         inkscape:connector-curvature="0"
         style="fill:#000000;fill-opacity:1;stroke-width:0.29858965"
         d="m 24.843973,277.02636 a 10.953724,10.953724 0 0 0 -0.171152,0.66978 10.953724,10.953724 0 0 0 -0.163165,1.08282 10.953724,10.953724 0 0 0 -0.05477,1.09309 10.953724,10.953724 0 0 0 0.02567,0.73139 c 0.0066,0.0711 0.01433,0.14187 0.02225,0.21279 a 10.953724,10.953724 0 0 0 0.111249,0.91795 10.953724,10.953724 0 0 0 0.09299,0.4159 c 0.801958,3.41737 3.149265,6.41991 6.629855,7.88211 a 10.953724,10.953724 0 0 0 0.128364,0.0468 c 0.541975,0.22 1.093594,0.36616 1.645911,0.49805 a 10.953724,10.953724 0 0 0 0.120947,0.0308 10.953724,10.953724 0 0 0 1.082822,0.16316 10.953724,10.953724 0 0 0 1.09366,0.0548 10.953724,10.953724 0 0 0 0.774748,-0.0274 10.953724,10.953724 0 0 0 1.086815,-0.13179 10.953724,10.953724 0 0 0 1.068558,-0.23961 10.953724,10.953724 0 0 0 1.038892,-0.34516 10.953724,10.953724 0 0 0 0.999527,-0.44728 10.953724,10.953724 0 0 0 0.949323,-0.54483 10.953724,10.953724 0 0 0 0.891131,-0.63725 10.953724,10.953724 0 0 0 0.8221,-0.72227 10.953724,10.953724 0 0 0 0.746793,-0.80156 10.953724,10.953724 0 0 0 0.662358,-0.87116 10.953724,10.953724 0 0 0 0.572218,-0.93393 10.953724,10.953724 0 0 0 0.476373,-0.98582 10.953724,10.953724 0 0 0 0.375393,-1.02863 10.953724,10.953724 0 0 0 0.270991,-1.06057 10.953724,10.953724 0 0 0 0.163735,-1.08282 10.953724,10.953724 0 0 0 0.05477,-1.09366 10.953724,10.953724 0 0 0 -0.02739,-0.77475 10.953724,10.953724 0 0 0 -0.04279,-0.35314 c -2.401137,-2.30178 -7.802203,-3.04266 -10.444833,-0.55396 -1.660827,1.12689 -4.1082,2.49448 -7.257411,1.84616 -2.334286,-0.48057 -3.734793,-1.34986 -3.745945,-3.01001 z"
         id="path2894" />
      <circle
         style="opacity:1;fill:#000000;fill-opacity:1;stroke:none;stroke-width:1.58413386;stroke-miterlimit:4;stroke-dasharray:none;stroke-opacity:0.97647059"
         id="circle2896"
         cx="29.997673"
         cy="275.60971"
         r="1.8986454" />
      <circle
         r="1.1683972"
         cy="274.07571"
         cx="41.832558"
         id="circle2898"
         style="opacity:0.5;fill:#000000;fill-opacity:1;stroke:none;stroke-width:0.97485167;stroke-miterlimit:4;stroke-dasharray:none;stroke-opacity:0.97647059" />
      <circle
         style="opacity:1;fill:#000000;fill-opacity:1;stroke:none;stroke-width:0.60928237;stroke-miterlimit:4;stroke-dasharray:none;stroke-opacity:0.97647059"
         id="circle2900"
         cx="37.216663"
         cy="271.13336"
         r="0.73024821" />
      <circle
         r="2.3367944"
         cy="281.83679"
         cx="41.310722"
         id="circle2902"
         style="opacity:0.5;fill:#000000;fill-opacity:1;stroke:none;stroke-width:1.94970334;stroke-miterlimit:4;stroke-dasharray:none;stroke-opacity:0.97647059" />
      <circle
         style="opacity:0.5;fill:#000000;fill-opacity:1;stroke:none;stroke-width:0.97485173;stroke-miterlimit:4;stroke-dasharray:none;stroke-opacity:0.97647059"
         id="circle2904"
         cx="31.563591"
         cy="286.8959"
         r="1.1683972" />
      <path
         style="fill:#000000;fill-opacity:1;stroke:none;stroke-width:0.2920993px;stroke-linecap:butt;stroke-linejoin:miter;stroke-opacity:1"
         d="m 29.973846,252.02031 10.102619,-0.0225 -1.691287,4.08165 -6.47199,0.0452 z"
         id="path2906"
         inkscape:connector-curvature="0" />
      <rect
         style="opacity:1;fill:#000000;fill-opacity:1;stroke:none;stroke-width:1.46049643;stroke-miterlimit:4;stroke-dasharray:none;stroke-opacity:0.97647059"
         id="rect2908"
         width="10.643831"
         height="3.5178761"
         x="29.815987"
         y="255.60797" />
      <circle
         r="0.73024821"
         cy="262.38376"
         cx="33.518383"
         id="circle2910"
         style="opacity:1;fill:#000000;fill-opacity:1;stroke:none;stroke-width:0.60928237;stroke-miterlimit:4;stroke-dasharray:none;stroke-opacity:0.97647059" />
      <circle
         style="opacity:0.5;fill:#000000;fill-opacity:1;stroke:none;stroke-width:0.97485167;stroke-miterlimit:4;stroke-dasharray:none;stroke-opacity:0.97647059"
         id="circle2912"
         cx="36.691048"
         cy="266.04773"
         r="1.1683972" />
    </g>
    <path
       transform="matrix(0.26458333,0,0,0.26458333,0,229.26666)"
       id="path2944"
       d="m 21.257812,25.625 c -0.326025,0.300016 -0.720108,0.536916 -1.033203,0.849609 -1.48786,1.485954 -2.831475,3.116425 -4.042968,4.904297 -0.786298,1.160386 -1.43248,2.498389 -2.111329,3.794922 3.642872,0.146009 8.159272,0.212891 18.201172,0.212891 26.604771,0 34.549296,0.828248 33.441407,3.482422 -4.794021,11.48485 -3.094415,20.415746 4.578125,24.05664 6.11732,2.902829 14.288875,0.06429 16.720703,-5.80664 1.83448,-4.428851 0.751632,-11.924532 -2.472657,-17.111329 L 81.75,35.521484 85.308594,34.097656 c 1.957107,-0.78308 4.912103,-1.423828 6.566406,-1.423828 h 3.007812 L 93.125,37.875 c -2.330823,6.902816 -2.385041,16.072874 -0.123047,20.689453 4.788049,9.77212 16.986277,9.962069 22.259767,0.345703 2.72317,-4.96577 1.89663,-15.098819 -1.84375,-22.583984 -1.58077,-3.163389 -2.875,-5.889271 -2.875,-6.058594 0,-0.169323 1.24793,-0.308594 2.77344,-0.308594 8.13584,0 8.98828,3.173801 8.98828,33.492188 v 24.410156 h 5.01367 5.01367 l -0.26367,-26.943359 c -0.2636,-26.877052 -0.27057,-26.952497 -2.57617,-31.429688 -3.36401,-6.53246 -8.52952,-9.904297 -15.17969,-9.904297 -3.64525,0 -6.12674,0.567861 -8.43164,1.927735 -2.86113,1.688239 -4.21562,1.867726 -10.923829,1.449219 -8.360606,-0.521575 -14.819039,0.963329 -19.210937,4.417968 -2.281395,1.794633 -2.420717,1.800053 -6.611328,0.214844 -3.693948,-1.397329 -8.103002,-1.665376 -32.189454,-1.949219 -8.389733,-0.0989 -11.479451,-0.0422 -15.6875,-0.01953 z m 82.443358,14.876953 c 0.30789,0.162332 0.65283,0.607491 1.04492,1.322266 1.80452,3.289587 2.54333,9.684103 1.40625,12.179687 -2.29742,5.042306 -5.09546,0.635916 -4.4082,-6.943359 0.45195,-4.984129 1.03337,-7.04559 1.95703,-6.558594 z m -29.400389,4.019531 c 0.52575,-0.538682 1.27558,0.112086 2.181641,2.021485 0.819757,1.727433 1.490234,3.994665 1.490234,5.039062 0,1.42235 -0.567534,1.900391 -2.261718,1.900391 -2.059972,0 -2.26052,-0.343744 -2.248047,-3.845703 0.01027,-2.848252 0.31214,-4.576553 0.83789,-5.115235 z"
       style="opacity:0.3;fill:#000000;fill-opacity:1;stroke-width:0.90472734;filter:url(#filter2958)"
       inkscape:connector-curvature="0" />
    <path
       style="fill:#b4e9ff;fill-opacity:1;stroke-width:0.90472734"
       d="m 21.257812,25.625 c -0.326025,0.300016 -0.720108,0.536916 -1.033203,0.849609 -1.48786,1.485954 -2.831475,3.116425 -4.042968,4.904297 -0.786298,1.160386 -1.43248,2.498389 -2.111329,3.794922 3.642872,0.146009 8.159272,0.212891 18.201172,0.212891 26.604771,0 34.549296,0.828248 33.441407,3.482422 -4.794021,11.48485 -3.094415,20.415746 4.578125,24.05664 6.11732,2.902829 14.288875,0.06429 16.720703,-5.80664 1.83448,-4.428851 0.751632,-11.924532 -2.472657,-17.111329 L 81.75,35.521484 85.308594,34.097656 c 1.957107,-0.78308 4.912103,-1.423828 6.566406,-1.423828 h 3.007812 L 93.125,37.875 c -2.330823,6.902816 -2.385041,16.072874 -0.123047,20.689453 4.788049,9.77212 16.986277,9.962069 22.259767,0.345703 2.72317,-4.96577 1.89663,-15.098819 -1.84375,-22.583984 -1.58077,-3.163389 -2.875,-5.889271 -2.875,-6.058594 0,-0.169323 1.24793,-0.308594 2.77344,-0.308594 8.13584,0 8.98828,3.173801 8.98828,33.492188 v 24.410156 h 5.01367 5.01367 l -0.26367,-26.943359 c -0.2636,-26.877052 -0.27057,-26.952497 -2.57617,-31.429688 -3.36401,-6.53246 -8.52952,-9.904297 -15.17969,-9.904297 -3.64525,0 -6.12674,0.567861 -8.43164,1.927735 -2.86113,1.688239 -4.21562,1.867726 -10.923829,1.449219 -8.360606,-0.521575 -14.819039,0.963329 -19.210937,4.417968 -2.281395,1.794633 -2.420717,1.800053 -6.611328,0.214844 -3.693948,-1.397329 -8.103002,-1.665376 -32.189454,-1.949219 -8.389733,-0.0989 -11.479451,-0.0422 -15.6875,-0.01953 z m 82.443358,14.876953 c 0.30789,0.162332 0.65283,0.607491 1.04492,1.322266 1.80452,3.289587 2.54333,9.684103 1.40625,12.179687 -2.29742,5.042306 -5.09546,0.635916 -4.4082,-6.943359 0.45195,-4.984129 1.03337,-7.04559 1.95703,-6.558594 z m -29.400389,4.019531 c 0.52575,-0.538682 1.27558,0.112086 2.181641,2.021485 0.819757,1.727433 1.490234,3.994665 1.490234,5.039062 0,1.42235 -0.567534,1.900391 -2.261718,1.900391 -2.059972,0 -2.26052,-0.343744 -2.248047,-3.845703 0.01027,-2.848252 0.31214,-4.576553 0.83789,-5.115235 z"
       id="path2848"
       transform="matrix(0.26458333,0,0,0.26458333,0,229.26666)"
       inkscape:connector-curvature="0" />
    <g
       id="g2879"
       transform="translate(-1.5418442)">
      <rect
         y="258.67484"
         x="31.710228"
         height="11.185043"
         width="6.8553481"
         id="rect2225"
         style="opacity:1;fill:#6ab8d9;fill-opacity:1;stroke:none;stroke-width:1.50051737;stroke-miterlimit:4;stroke-dasharray:none;stroke-opacity:0.97647059" />
      <circle
         r="10.953724"
         cy="279.87228"
         cx="35.408417"
         id="path1507"
         style="opacity:1;fill:#b2e2f9;fill-opacity:1;stroke:none;stroke-width:1.5148741;stroke-miterlimit:4;stroke-dasharray:none;stroke-opacity:0.97647059" />
      <path
         id="path2163"
         d="m 31.336907,290.03219 c 0.01202,0.006 0.02161,0.0132 0.03366,0.0182 0.03112,0.0129 0.06354,0.0159 0.0947,0.0286 a 10.953724,10.953724 0 0 1 -0.128364,-0.0468 z"
         style="fill:#922929;fill-opacity:1;stroke-width:0.29858965"
         inkscape:connector-curvature="0" />
      <path
         id="path2161"
         d="m 24.50281,280.81623 c 0.05025,0.44975 0.101391,0.89556 0.204242,1.33385 a 10.953724,10.953724 0 0 1 -0.09299,-0.4159 10.953724,10.953724 0 0 1 -0.111249,-0.91795 z"
         style="fill:#922929;fill-opacity:1;stroke-width:0.29858965"
         inkscape:connector-curvature="0" />
      <path
         id="path1578-3"
         d="m 24.843973,277.02636 a 10.953724,10.953724 0 0 0 -0.171152,0.66978 10.953724,10.953724 0 0 0 -0.163165,1.08282 10.953724,10.953724 0 0 0 -0.05477,1.09309 10.953724,10.953724 0 0 0 0.02567,0.73139 c 0.0066,0.0711 0.01433,0.14187 0.02225,0.21279 a 10.953724,10.953724 0 0 0 0.111249,0.91795 10.953724,10.953724 0 0 0 0.09299,0.4159 c 0.801958,3.41737 3.149265,6.41991 6.629855,7.88211 a 10.953724,10.953724 0 0 0 0.128364,0.0468 c 0.541975,0.22 1.093594,0.36616 1.645911,0.49805 a 10.953724,10.953724 0 0 0 0.120947,0.0308 10.953724,10.953724 0 0 0 1.082822,0.16316 10.953724,10.953724 0 0 0 1.09366,0.0548 10.953724,10.953724 0 0 0 0.774748,-0.0274 10.953724,10.953724 0 0 0 1.086815,-0.13179 10.953724,10.953724 0 0 0 1.068558,-0.23961 10.953724,10.953724 0 0 0 1.038892,-0.34516 10.953724,10.953724 0 0 0 0.999527,-0.44728 10.953724,10.953724 0 0 0 0.949323,-0.54483 10.953724,10.953724 0 0 0 0.891131,-0.63725 10.953724,10.953724 0 0 0 0.8221,-0.72227 10.953724,10.953724 0 0 0 0.746793,-0.80156 10.953724,10.953724 0 0 0 0.662358,-0.87116 10.953724,10.953724 0 0 0 0.572218,-0.93393 10.953724,10.953724 0 0 0 0.476373,-0.98582 10.953724,10.953724 0 0 0 0.375393,-1.02863 10.953724,10.953724 0 0 0 0.270991,-1.06057 10.953724,10.953724 0 0 0 0.163735,-1.08282 10.953724,10.953724 0 0 0 0.05477,-1.09366 10.953724,10.953724 0 0 0 -0.02739,-0.77475 10.953724,10.953724 0 0 0 -0.04279,-0.35314 c -2.401137,-2.30178 -7.802203,-3.04266 -10.444833,-0.55396 -1.660827,1.12689 -4.1082,2.49448 -7.257411,1.84616 -2.334286,-0.48057 -3.734793,-1.34986 -3.745945,-3.01001 z"
         style="fill:#f8703e;fill-opacity:1;stroke-width:0.29858965"
         inkscape:connector-curvature="0" />
      <circle
         r="1.8986454"
         cy="275.60971"
         cx="29.997673"
         id="path2176"
         style="opacity:1;fill:#f8703e;fill-opacity:1;stroke:none;stroke-width:1.58413386;stroke-miterlimit:4;stroke-dasharray:none;stroke-opacity:0.97647059" />
      <circle
         style="opacity:0.5;fill:#ffffff;fill-opacity:1;stroke:none;stroke-width:0.97485167;stroke-miterlimit:4;stroke-dasharray:none;stroke-opacity:0.97647059"
         id="circle2178"
         cx="41.832558"
         cy="274.07571"
         r="1.1683972" />
      <circle
         r="0.73024821"
         cy="271.13336"
         cx="37.216663"
         id="circle2180"
         style="opacity:1;fill:#f8703e;fill-opacity:1;stroke:none;stroke-width:0.60928237;stroke-miterlimit:4;stroke-dasharray:none;stroke-opacity:0.97647059" />
      <circle
         style="opacity:0.5;fill:#ffffff;fill-opacity:1;stroke:none;stroke-width:1.94970334;stroke-miterlimit:4;stroke-dasharray:none;stroke-opacity:0.97647059"
         id="circle2182"
         cx="41.310722"
         cy="281.83679"
         r="2.3367944" />
      <circle
         r="1.1683972"
         cy="286.8959"
         cx="31.563591"
         id="circle2184"
         style="opacity:0.5;fill:#ffffff;fill-opacity:1;stroke:none;stroke-width:0.97485173;stroke-miterlimit:4;stroke-dasharray:none;stroke-opacity:0.97647059" />
      <path
         inkscape:connector-curvature="0"
         id="path2233"
         d="m 29.973846,252.02031 10.102619,-0.0225 -1.691287,4.08165 -6.47199,0.0452 z"
         style="fill:#ad7771;fill-opacity:1;stroke:none;stroke-width:0.2920993px;stroke-linecap:butt;stroke-linejoin:miter;stroke-opacity:1" />
      <rect
         y="255.60797"
         x="29.815987"
         height="3.5178761"
         width="10.643831"
         id="rect2227"
         style="opacity:1;fill:#2e6379;fill-opacity:1;stroke:none;stroke-width:1.46049643;stroke-miterlimit:4;stroke-dasharray:none;stroke-opacity:0.97647059" />
      <circle
         style="opacity:1;fill:#f8703e;fill-opacity:1;stroke:none;stroke-width:0.60928237;stroke-miterlimit:4;stroke-dasharray:none;stroke-opacity:0.97647059"
         id="circle2235"
         cx="33.518383"
         cy="262.38376"
         r="0.73024821" />
      <circle
         r="1.1683972"
         cy="266.04773"
         cx="36.691048"
         id="circle2237"
         style="opacity:0.5;fill:#ffffff;fill-opacity:1;stroke:none;stroke-width:0.97485167;stroke-miterlimit:4;stroke-dasharray:none;stroke-opacity:0.97647059" />
    </g>
    <path
       sodipodi:nodetypes="sssssssss"
       inkscape:connector-curvature="0"
       id="path1068"
       d="M 361.9375,-212 C 507.2348,-212 528,-191.28677 528,-46.125 V 70.125 C 528,215.28618 507.2348,236 361.9375,236 H 214.0625 C 68.7652,236 48,215.28618 48,70.125 V -46.125 C 48,-191.28677 68.7652,-212 214.0625,-212 Z"
       style="display:inline;opacity:0.4;fill:none;fill-opacity:1;stroke:url(#linearGradient1108);stroke-width:8;stroke-linecap:round;stroke-linejoin:round;stroke-miterlimit:4;stroke-dasharray:none;stroke-dashoffset:0;stroke-opacity:1;enable-background:new"
       clip-path="url(#clipPath1082-3-361)"
       transform="matrix(0.1348539,0,0,0.1348539,-4.9712559,261.01666)" />
  </g>
</svg>
