<?xml version="1.0" standalone="no"?><!-- Generator: Gravit.io --><svg xmlns="http://www.w3.org/2000/svg" xmlns:xlink="http://www.w3.org/1999/xlink" style="isolation:isolate" viewBox="0 0 256 256" width="256" height="256"><defs><clipPath id="_clipPath_YkHaA055uv7o8elVQKRG77KF2qwIqAjc"><rect width="256" height="256"/></clipPath></defs><g clip-path="url(#_clipPath_YkHaA055uv7o8elVQKRG77KF2qwIqAjc)"><defs><filter id="4BOCz1nGsO62b6wqtdV4ZD6kAOLnDy0u" x="-200%" y="-200%" width="400%" height="400%"><feGaussianBlur xmlns="http://www.w3.org/2000/svg" stdDeviation="2.32"/></filter></defs><g opacity="0.2" filter="url(#4BOCz1nGsO62b6wqtdV4ZD6kAOLnDy0u)"><path d=" M 165.685 13.986 C 239.74 13.986 250.324 24.543 250.324 98.53 L 250.324 157.78 C 250.324 231.767 239.74 242.324 165.685 242.324 L 90.315 242.324 C 16.26 242.324 5.676 231.767 5.676 157.78 L 5.676 98.53 C 5.676 24.543 16.26 13.986 90.315 13.986 L 165.685 13.986 Z " fill-rule="evenodd" fill="rgb(0,0,0)"/></g><g opacity="0.1"><path d=" M 165.685 11.947 C 239.74 11.947 250.324 22.504 250.324 96.491 L 250.324 155.742 C 250.324 229.728 239.74 240.285 165.685 240.285 L 90.315 240.285 C 16.26 240.285 5.676 229.728 5.676 155.742 L 5.676 96.491 C 5.676 22.504 16.26 11.947 90.315 11.947 L 165.685 11.947 Z " fill-rule="evenodd" fill="none" vector-effect="non-scaling-stroke" stroke-width="4.077" stroke="rgb(0,0,0)" stroke-linejoin="round" stroke-linecap="round" stroke-miterlimit="4"/></g><defs><filter id="Q7FwMX4iXlgVZiA1yUG4Hu5bOALyqMnR" x="-200%" y="-200%" width="400%" height="400%"><feGaussianBlur xmlns="http://www.w3.org/2000/svg" stdDeviation="1.16"/></filter></defs><g opacity="0.1" filter="url(#Q7FwMX4iXlgVZiA1yUG4Hu5bOALyqMnR)"><path d=" M 165.685 11.947 C 239.74 11.947 250.324 22.504 250.324 96.491 L 250.324 155.742 C 250.324 229.728 239.74 240.285 165.685 240.285 L 90.315 240.285 C 16.26 240.285 5.676 229.728 5.676 155.742 L 5.676 96.491 C 5.676 22.504 16.26 11.947 90.315 11.947 L 165.685 11.947 Z " fill-rule="evenodd" fill="rgb(0,0,0)"/></g><path d=" M 165.685 11.947 C 239.74 11.947 250.324 22.504 250.324 96.491 L 250.324 155.742 C 250.324 229.728 239.74 240.285 165.685 240.285 L 90.315 240.285 C 16.26 240.285 5.676 229.728 5.676 155.742 L 5.676 96.491 C 5.676 22.504 16.26 11.947 90.315 11.947 L 165.685 11.947 Z " fill-rule="evenodd" fill="rgb(103,162,180)"/><clipPath id="_clipPath_aIG3NKd7mjdGuKQo5FLOFSgvCY5YirC3"><path d=" M 165.685 11.947 C 239.74 11.947 250.324 22.504 250.324 96.491 L 250.324 155.742 C 250.324 229.728 239.74 240.285 165.685 240.285 L 90.315 240.285 C 16.26 240.285 5.676 229.728 5.676 155.742 L 5.676 96.491 C 5.676 22.504 16.26 11.947 90.315 11.947 L 165.685 11.947 Z " fill-rule="evenodd" fill="rgb(255,255,255)"/></clipPath><g clip-path="url(#_clipPath_aIG3NKd7mjdGuKQo5FLOFSgvCY5YirC3)"><g opacity="0.4"><linearGradient id="_lgradient_0" x1="51.666666666666686%" y1="0%" x2="51.66666666666666%" y2="100.00000000000003%"><stop offset="0%" stop-opacity="1" style="stop-color:rgb(255,255,255)"/><stop offset="12.5%" stop-opacity="0.09803922" style="stop-color:rgb(255,255,255)"/><stop offset="92.500001%" stop-opacity="0.09803922" style="stop-color:rgb(0,0,0)"/><stop offset="100%" stop-opacity="0.49803922" style="stop-color:rgb(0,0,0)"/></linearGradient><path d=" M 165.685 11.947 C 239.74 11.947 250.324 22.504 250.324 96.491 L 250.324 155.742 C 250.324 229.728 239.74 240.285 165.685 240.285 L 90.315 240.285 C 16.26 240.285 5.676 229.728 5.676 155.742 L 5.676 96.491 C 5.676 22.504 16.26 11.947 90.315 11.947 L 165.685 11.947 Z " fill-rule="evenodd" fill="none" vector-effect="non-scaling-stroke" stroke-width="4.077" stroke="url(#_lgradient_0)" stroke-linejoin="round" stroke-linecap="round" stroke-miterlimit="4"/></g></g><path d=" M 116.571 42.116 C 114.515 42.116 112.801 50.06 111.795 61.413 C 106.473 62.865 101.366 65.012 96.605 67.797 C 87.83 60.443 80.976 56.004 79.518 57.462 L 63.346 73.634 C 61.888 75.092 66.327 81.947 73.681 90.721 C 70.915 95.485 68.787 100.592 67.353 105.911 C 55.968 106.916 48 108.627 48 110.688 L 48 133.545 C 48 135.602 55.944 137.315 67.297 138.322 C 68.739 143.653 70.878 148.772 73.658 153.545 C 66.321 162.304 61.889 169.142 63.346 170.598 L 79.518 186.77 C 80.973 188.225 87.803 183.804 96.549 176.48 C 101.333 179.235 106.459 181.348 111.795 182.764 C 112.8 194.148 114.511 202.116 116.571 202.116 L 139.429 202.116 C 141.485 202.116 143.199 194.172 144.205 182.819 C 149.527 181.367 154.634 179.221 159.395 176.435 C 168.17 183.789 175.024 188.229 176.482 186.77 L 192.654 170.598 C 194.112 169.14 189.673 162.286 182.319 153.511 C 185.085 148.747 187.213 143.64 188.647 138.322 C 200.032 137.316 208 135.605 208 133.545 L 208 110.688 C 208 108.631 200.056 106.917 188.703 105.911 C 187.261 100.579 185.122 95.461 182.342 90.688 C 189.679 81.929 194.111 75.091 192.654 73.634 L 176.482 57.462 C 175.027 56.007 168.197 60.428 159.451 67.752 C 154.667 64.998 149.541 62.885 144.205 61.469 C 143.2 50.084 141.489 42.116 139.429 42.116 L 116.571 42.116 Z  M 128 93.545 C 143.78 93.545 156.571 106.337 156.571 122.116 C 156.571 129.694 153.561 136.961 148.203 142.319 C 142.845 147.677 135.578 150.688 128 150.688 C 120.422 150.688 113.155 147.677 107.797 142.319 C 102.439 136.961 99.429 129.694 99.429 122.116 C 99.429 106.337 112.22 93.545 128 93.545 L 128 93.545 Z " fill="rgb(9,1,1)"/><path d=" M 116.571 42.116 C 114.515 42.116 112.801 50.06 111.795 61.413 C 106.473 62.865 101.366 65.012 96.605 67.797 C 87.83 60.443 80.976 56.004 79.518 57.462 L 63.346 73.634 C 61.888 75.092 66.327 81.947 73.681 90.721 C 70.915 95.485 68.787 100.592 67.353 105.911 C 55.968 106.916 48 108.627 48 110.688 L 48 133.545 C 48 135.602 55.944 137.315 67.297 138.322 C 68.739 143.653 70.878 148.772 73.658 153.545 C 66.321 162.304 61.889 169.142 63.346 170.598 L 79.518 186.77 C 80.973 188.225 87.803 183.804 96.549 176.48 C 101.333 179.235 106.459 181.348 111.795 182.764 C 112.8 194.148 114.511 202.116 116.571 202.116 L 139.429 202.116 C 141.485 202.116 143.199 194.172 144.205 182.819 C 149.527 181.367 154.634 179.221 159.395 176.435 C 168.17 183.789 175.024 188.229 176.482 186.77 L 192.654 170.598 C 194.112 169.14 189.673 162.286 182.319 153.511 C 185.085 148.747 187.213 143.64 188.647 138.322 C 200.032 137.316 208 135.605 208 133.545 L 208 110.688 C 208 108.631 200.056 106.917 188.703 105.911 C 187.261 100.579 185.122 95.461 182.342 90.688 C 189.679 81.929 194.111 75.091 192.654 73.634 L 176.482 57.462 C 175.027 56.007 168.197 60.428 159.451 67.752 C 154.667 64.998 149.541 62.885 144.205 61.469 C 143.2 50.084 141.489 42.116 139.429 42.116 L 116.571 42.116 Z  M 128 93.545 C 143.78 93.545 156.571 106.337 156.571 122.116 C 156.571 129.694 153.561 136.961 148.203 142.319 C 142.845 147.677 135.578 150.688 128 150.688 C 120.422 150.688 113.155 147.677 107.797 142.319 C 102.439 136.961 99.429 129.694 99.429 122.116 C 99.429 106.337 112.22 93.545 128 93.545 L 128 93.545 Z " fill="rgb(237,251,255)"/><g opacity="0.1"><path d=" M 91.315 241.285 C 17.26 241.285 6.676 230.333 6.676 153.574 L 6.676 122.839 L 251.324 122.839 L 251.324 153.574 C 251.324 230.333 240.74 241.285 166.685 241.285 L 91.315 241.285 Z " fill-rule="evenodd" fill="rgb(255,255,255)"/></g><g opacity="0.1"><path d=" M 127.013 11.947 L 127.013 240.285 L 165.002 240.285 C 239.655 240.285 250.324 229.728 250.324 155.742 L 250.324 96.491 C 250.324 22.504 239.655 11.947 165.002 11.947 L 127.013 11.947 Z " fill-rule="evenodd" fill="rgb(255,255,255)"/></g></g></svg>