<?xml version="1.0" standalone="no"?><!-- Generator: Gravit.io --><svg xmlns="http://www.w3.org/2000/svg" xmlns:xlink="http://www.w3.org/1999/xlink" style="isolation:isolate" viewBox="0 0 256 256" width="256" height="256"><defs><clipPath id="_clipPath_spiRtiviiPVFPZ8PRJ2dLVg1YkluWzKV"><rect width="256" height="256"/></clipPath></defs><g clip-path="url(#_clipPath_spiRtiviiPVFPZ8PRJ2dLVg1YkluWzKV)"><defs><filter id="PDbdiB7yWFwNIcS4T3adciCqOfTDk8wH" x="-200%" y="-200%" width="400%" height="400%"><feGaussianBlur xmlns="http://www.w3.org/2000/svg" stdDeviation="1.16"/></filter></defs><g opacity="0.1" filter="url(#PDbdiB7yWFwNIcS4T3adciCqOfTDk8wH)"><path d=" M 164.969 15 C 237.617 15 248 25.357 248 97.938 L 248 156.063 C 248 228.643 237.617 239 164.969 239 L 91.031 239 C 18.383 239 8 228.643 8 156.063 L 8 97.938 C 8 25.357 18.383 15 91.031 15 L 164.969 15 Z " fill="rgb(0,0,0)"/></g><defs><filter id="t2IajcEXEIfqUu2LuXuS0ROpHQxOSFf2" x="-200%" y="-200%" width="400%" height="400%"><feGaussianBlur xmlns="http://www.w3.org/2000/svg" stdDeviation="2.32"/></filter></defs><g opacity="0.2" filter="url(#t2IajcEXEIfqUu2LuXuS0ROpHQxOSFf2)"><path d=" M 164.969 17 C 237.617 17 248 27.357 248 99.938 L 248 158.063 C 248 230.643 237.617 241 164.969 241 L 91.031 241 C 18.383 241 8 230.643 8 158.063 L 8 99.938 C 8 27.357 18.383 17 91.031 17 L 164.969 17 Z " fill="rgb(0,0,0)"/></g><linearGradient id="_lgradient_1" x1="49.999997354330695%" y1="-3.5714229262417074%" x2="49.999997354330674%" y2="103.57142684075211%"><stop offset="0%" stop-opacity="1" style="stop-color:rgb(104,143,155)"/><stop offset="97.82608695652173%" stop-opacity="1" style="stop-color:rgb(136,182,196)"/></linearGradient><path d=" M 164.969 15 C 237.617 15 248 25.357 248 97.937 L 248 156.063 C 248 228.643 237.617 239 164.969 239 L 91.031 239 C 18.383 239 8 228.643 8 156.063 L 8 97.937 C 8 25.357 18.383 15 91.031 15 L 164.969 15 Z " fill="url(#_lgradient_1)"/><defs><filter id="8DpV4HvXLKHIcgI8fJ8sIPEkdJa5EW2S" x="-200%" y="-200%" width="400%" height="400%"><feGaussianBlur xmlns="http://www.w3.org/2000/svg" stdDeviation="3.909423"/></filter></defs><g opacity="0.1" filter="url(#8DpV4HvXLKHIcgI8fJ8sIPEkdJa5EW2S)"><path d=" M 128.001 52 L 104.896 68.504 L 76.575 70.711 L 69.485 98.211 L 49.212 118.114 L 61.458 143.739 L 58.724 172 L 84.583 183.758 L 100.638 207.176 L 128.001 199.579 L 155.364 207.176 L 171.419 183.758 L 197.278 172 L 194.544 143.739 L 206.79 118.114 L 186.517 98.211 L 179.427 70.711 L 151.106 68.504 L 128.001 52 Z " fill="rgb(0,0,0)"/></g><path d=" M 128.001 47 L 104.896 63.504 L 76.575 65.711 L 69.485 93.211 L 49.212 113.114 L 61.458 138.739 L 58.724 167 L 84.583 178.758 L 100.638 202.176 L 128.001 194.579 L 155.364 202.176 L 171.419 178.758 L 197.278 167 L 194.544 138.739 L 206.79 113.114 L 186.517 93.211 L 179.427 65.711 L 151.106 63.504 L 128.001 47 Z " fill="rgb(255,255,255)"/><path d=" M 127.376 167 C 113.375 145.939 106.198 123.776 101.497 113.797 L 117.376 113.797 L 117.376 83.797 L 137.376 83.797 L 137.376 113.797 L 153.88 113.797 C 149.181 123.776 141.377 145.939 127.376 167 Z " fill="rgb(103,162,180)"/><clipPath id="_clipPath_2Gvjcdt0bxxxqfc94Wz5xQOfxdkph70h"><path d=" M 164.969 15 C 237.617 15 248 25.357 248 97.938 L 248 156.063 C 248 228.643 237.617 239 164.969 239 L 91.031 239 C 18.383 239 8 228.643 8 156.063 L 8 97.938 C 8 25.357 18.383 15 91.031 15 L 164.969 15 Z " fill="rgb(255,255,255)"/></clipPath><g clip-path="url(#_clipPath_2Gvjcdt0bxxxqfc94Wz5xQOfxdkph70h)"><g opacity="0.4"><linearGradient id="_lgradient_2" x1="51.666666666666686%" y1="0%" x2="51.66666666666666%" y2="100.00000000000003%"><stop offset="0%" stop-opacity="1" style="stop-color:rgb(255,255,255)"/><stop offset="12.5%" stop-opacity="0.09803922" style="stop-color:rgb(255,255,255)"/><stop offset="92.500001%" stop-opacity="0.09803922" style="stop-color:rgb(0,0,0)"/><stop offset="100%" stop-opacity="0.49803922" style="stop-color:rgb(0,0,0)"/></linearGradient><path d=" M 164.969 15 C 237.617 15 248 25.357 248 97.938 L 248 156.063 C 248 228.643 237.617 239 164.969 239 L 91.031 239 C 18.383 239 8 228.643 8 156.063 L 8 97.938 C 8 25.357 18.383 15 91.031 15 L 164.969 15 Z " fill="none" vector-effect="non-scaling-stroke" stroke-width="4" stroke="url(#_lgradient_2)" stroke-linejoin="round" stroke-linecap="round" stroke-miterlimit="4"/></g></g></g></svg>