<?xml version="1.0" standalone="no"?>
<!--Generator: Gravit.io-->
<svg xmlns="http://www.w3.org/2000/svg" xmlns:xlink="http://www.w3.org/1999/xlink" width="256" height="256" style="isolation:isolate" viewBox="0 0 256 256">
    <defs>
        <clipPath id="_clipPath_QngEbBT9oSuXE2PKZZQ93ASiJMaD4FO0">
            <rect width="256" height="256"/>
        </clipPath>
    </defs>
    <g clip-path="url(#_clipPath_QngEbBT9oSuXE2PKZZQ93ASiJMaD4FO0)">
        <rect width="256" height="256" style="fill:rgba(0,0,0,0)"/>
        <g id="icon">
            <path fill="rgb(255,255,255)" d=" M 165.685 13.811 C 239.741 13.811 250.325 24.368 250.325 98.355 L 250.325 157.606 C 250.325 231.593 239.741 242.151 165.685 242.151 L 90.315 242.151 C 16.259 242.151 5.675 231.593 5.675 157.606 L 5.675 98.355 C 5.675 24.368 16.259 13.811 90.315 13.811 L 165.685 13.811 Z "/>
            <clipPath id="_clipPath_eTJzZDUtylZ1pIGl8eUlyuPcaR6aQUCn">
                <path fill="rgb(255,255,255)" d=" M 165.685 13.811 C 239.741 13.811 250.325 24.368 250.325 98.355 L 250.325 157.606 C 250.325 231.593 239.741 242.151 165.685 242.151 L 90.315 242.151 C 16.259 242.151 5.675 231.593 5.675 157.606 L 5.675 98.355 C 5.675 24.368 16.259 13.811 90.315 13.811 L 165.685 13.811 Z "/>
            </clipPath>
            <g clip-path="url(#_clipPath_eTJzZDUtylZ1pIGl8eUlyuPcaR6aQUCn)">
                <path fill="rgb(204,204,204)" d=" M 165.685 13.811 C 239.741 13.811 250.325 24.368 250.325 98.355 L 250.325 157.606 C 250.325 231.593 239.741 242.151 165.685 242.151 L 90.315 242.151 C 16.259 242.151 5.675 231.593 5.675 157.606 L 5.675 98.355 C 5.675 24.368 16.259 13.811 90.315 13.811 L 165.685 13.811 Z "/>
                <g id="holds">
                    <g opacity="0.1">
                        <rect width="81.549" height="228.338" x="88.225" y="12.997" fill="rgb(255,255,255)" transform="matrix(1,0,0,1,0,0)"/>
                    </g>
                    <g opacity="0.1">
                        <path fill="rgb(255,255,255)" d=" M 6.676 127.167 L 6.676 156.792 C 6.676 230.778 17.26 241.336 91.315 241.336 L 166.685 241.336 C 240.74 241.336 251.324 230.778 251.324 156.792 L 251.324 127.167 L 6.676 127.167 Z "/>
                    </g>
                </g>
                <g id="pictogram">
                    <path fill="rgb(128,128,128)" d=" M 122.595 171.88 L 122.595 242.151 L 133.405 242.151 L 133.405 171.88 L 122.595 171.88 Z "/>
                    <path fill="rgb(128,128,128)" fill-rule="evenodd" d=" M 128 42.151 L 57.73 112.421 L 128 182.691 L 198.27 112.421 L 128 42.151 Z  M 128 58.367 L 182.054 112.421 L 128 166.475 L 73.946 112.421 L 128 58.367 Z "/>
                    <rect width="53.508" height="53.508" x="101.242" y="85.667" fill="#67a2b4" transform="matrix(0.707,-0.707,0.707,0.707,-42.004,123.434)"/>
                </g>
            </g>
        </g>
    </g>
</svg>
