<?xml version="1.0" encoding="UTF-8" standalone="no"?>
<!-- Generator: Gravit.io -->

<svg
   xmlns:dc="http://purl.org/dc/elements/1.1/"
   xmlns:cc="http://creativecommons.org/ns#"
   xmlns:rdf="http://www.w3.org/1999/02/22-rdf-syntax-ns#"
   xmlns:svg="http://www.w3.org/2000/svg"
   xmlns="http://www.w3.org/2000/svg"
   xmlns:sodipodi="http://sodipodi.sourceforge.net/DTD/sodipodi-0.dtd"
   xmlns:inkscape="http://www.inkscape.org/namespaces/inkscape"
   style="isolation:isolate"
   viewBox="0 0 256 256"
   width="256"
   height="256"
   version="1.1"
   id="svg32"
   sodipodi:docname="aquemu.svg"
   inkscape:version="0.92.2pre0 (973e216, 2017-07-25)">
  <metadata
     id="metadata36">
    <rdf:RDF>
      <cc:Work
         rdf:about="">
        <dc:format>image/svg+xml</dc:format>
        <dc:type
           rdf:resource="http://purl.org/dc/dcmitype/StillImage" />
      </cc:Work>
    </rdf:RDF>
  </metadata>
  <sodipodi:namedview
     pagecolor="#ffffff"
     bordercolor="#666666"
     borderopacity="1"
     objecttolerance="10"
     gridtolerance="10"
     guidetolerance="10"
     inkscape:pageopacity="0"
     inkscape:pageshadow="2"
     inkscape:window-width="1920"
     inkscape:window-height="960"
     id="namedview34"
     showgrid="false"
     inkscape:zoom="0.921875"
     inkscape:cx="128"
     inkscape:cy="128"
     inkscape:window-x="0"
     inkscape:window-y="27"
     inkscape:window-maximized="1"
     inkscape:current-layer="g30" />
  <defs
     id="defs5">
    <clipPath
       id="_clipPath_JV2RYI4m3HOWK8zmcPoAzKGzbj8hdfxR">
      <rect
         width="256"
         height="256"
         id="rect2" />
    </clipPath>
  </defs>
  <g
     clip-path="url(#_clipPath_JV2RYI4m3HOWK8zmcPoAzKGzbj8hdfxR)"
     id="g30">
    <g
       id="icon">
      <path
         d=" M 165.685 13.811 C 239.741 13.811 250.325 24.368 250.325 98.355 L 250.325 157.606 C 250.325 231.593 239.741 242.151 165.685 242.151 L 90.315 242.151 C 16.259 242.151 5.675 231.593 5.675 157.606 L 5.675 98.355 C 5.675 24.368 16.259 13.811 90.315 13.811 L 165.685 13.811 Z "
         fill="rgb(255,255,255)"
         id="path9" />
      <clipPath
         id="_clipPath_tjGOGozoPdGxwubVUSx980ksOZXZ83Ea">
        <path
           d=" M 165.685 13.811 C 239.741 13.811 250.325 24.368 250.325 98.355 L 250.325 157.606 C 250.325 231.593 239.741 242.151 165.685 242.151 L 90.315 242.151 C 16.259 242.151 5.675 231.593 5.675 157.606 L 5.675 98.355 C 5.675 24.368 16.259 13.811 90.315 13.811 L 165.685 13.811 Z "
           fill="rgb(255,255,255)"
           id="path11" />
      </clipPath>
      <g
         clip-path="url(#_clipPath_tjGOGozoPdGxwubVUSx980ksOZXZ83Ea)"
         id="g27">
        <path
           d=" M 165.685 13.811 C 239.741 13.811 250.325 24.368 250.325 98.355 L 250.325 157.606 C 250.325 231.593 239.741 242.151 165.685 242.151 L 90.315 242.151 C 16.259 242.151 5.675 231.593 5.675 157.606 L 5.675 98.355 C 5.675 24.368 16.259 13.811 90.315 13.811 L 165.685 13.811 Z "
           fill="rgb(204,204,204)"
           id="path14" />
        <g
           id="holds">
          <g
             opacity="0.1"
             id="g18">
            <rect
               x="88.225"
               y="12.997"
               width="81.549"
               height="228.338"
               transform="matrix(1,0,0,1,0,0)"
               fill="rgb(255,255,255)"
               id="rect16" />
          </g>
          <g
             opacity="0.1"
             id="g22">
            <path
               d=" M 6.676 127.167 L 6.676 156.792 C 6.676 230.778 17.26 241.336 91.315 241.336 L 166.685 241.336 C 240.74 241.336 251.324 230.778 251.324 156.792 L 251.324 127.167 L 6.676 127.167 Z "
               fill="rgb(255,255,255)"
               id="path20" />
          </g>
        </g>
        <path
           d=" M 128.003 45.481 C 82.438 45.481 45.503 82.415 45.503 127.981 C 45.503 173.546 82.438 210.481 128.003 210.481 C 148.19 210.481 166.816 203.284 181.152 191.252 L 200.381 210.481 L 210.497 200.365 L 191.268 181.136 C 203.313 166.8 210.497 148.174 210.497 127.987 C 210.497 82.422 173.562 45.487 127.997 45.487 L 128.003 45.481 Z  M 128.003 58.173 C 165.02 58.173 195.253 86.997 197.614 123.418 L 86.157 72.268 C 97.834 63.485 112.265 58.186 128.003 58.186 L 128.003 58.173 Z  M 72.075 86.337 L 123.034 197.592 C 86.804 195.04 58.183 164.864 58.183 127.981 C 58.183 112.35 63.387 97.97 72.068 86.331 L 72.075 86.337 Z  M 90.32 90.5 L 151.998 119.654 L 119.474 151.982 L 90.32 90.5 Z  M 165.877 126.001 L 196.618 141.073 C 194.422 152.667 189.313 163.214 182.142 172.01 L 170.046 159.914 L 159.931 170.03 L 172.026 182.126 C 163.18 189.316 152.544 194.425 140.892 196.602 L 126.017 165.861 L 165.877 126.001 Z "
           fill="rgb(20,99,165)"
           id="path25"
           style="fill:#67a2b4;fill-opacity:1" />
      </g>
    </g>
  </g>
</svg>
