<?xml version="1.0" encoding="UTF-8" standalone="no"?>
<!-- Generator: Gravit.io -->

<svg
   xmlns:dc="http://purl.org/dc/elements/1.1/"
   xmlns:cc="http://creativecommons.org/ns#"
   xmlns:rdf="http://www.w3.org/1999/02/22-rdf-syntax-ns#"
   xmlns:svg="http://www.w3.org/2000/svg"
   xmlns="http://www.w3.org/2000/svg"
   xmlns:sodipodi="http://sodipodi.sourceforge.net/DTD/sodipodi-0.dtd"
   xmlns:inkscape="http://www.inkscape.org/namespaces/inkscape"
   style="isolation:isolate"
   viewBox="0 0 256 256"
   width="256"
   height="256"
   version="1.1"
   id="svg44"
   sodipodi:docname="areca.svg"
   inkscape:version="0.92.2pre0 (973e216, 2017-07-25)">
  <metadata
     id="metadata48">
    <rdf:RDF>
      <cc:Work
         rdf:about="">
        <dc:format>image/svg+xml</dc:format>
        <dc:type
           rdf:resource="http://purl.org/dc/dcmitype/StillImage" />
      </cc:Work>
    </rdf:RDF>
  </metadata>
  <sodipodi:namedview
     pagecolor="#ffffff"
     bordercolor="#666666"
     borderopacity="1"
     objecttolerance="10"
     gridtolerance="10"
     guidetolerance="10"
     inkscape:pageopacity="0"
     inkscape:pageshadow="2"
     inkscape:window-width="1920"
     inkscape:window-height="960"
     id="namedview46"
     showgrid="false"
     inkscape:zoom="0.921875"
     inkscape:cx="128"
     inkscape:cy="128"
     inkscape:window-x="0"
     inkscape:window-y="27"
     inkscape:window-maximized="1"
     inkscape:current-layer="g42" />
  <defs
     id="defs5">
    <clipPath
       id="_clipPath_knJhFa95avx5QTyAgvuQ6ExDvm10NTjC">
      <rect
         width="256"
         height="256"
         id="rect2" />
    </clipPath>
  </defs>
  <g
     clip-path="url(#_clipPath_knJhFa95avx5QTyAgvuQ6ExDvm10NTjC)"
     id="g42">
    <g
       id="icon">
      <path
         d=" M 165.685 13.811 C 239.741 13.811 250.325 24.368 250.325 98.355 L 250.325 157.606 C 250.325 231.593 239.741 242.151 165.685 242.151 L 90.315 242.151 C 16.259 242.151 5.675 231.593 5.675 157.606 L 5.675 98.355 C 5.675 24.368 16.259 13.811 90.315 13.811 L 165.685 13.811 Z "
         fill="rgb(255,255,255)"
         id="path9" />
      <clipPath
         id="_clipPath_63nwJlynZyGiZivirEiEMrhEjt6ctrxR">
        <path
           d=" M 165.685 13.811 C 239.741 13.811 250.325 24.368 250.325 98.355 L 250.325 157.606 C 250.325 231.593 239.741 242.151 165.685 242.151 L 90.315 242.151 C 16.259 242.151 5.675 231.593 5.675 157.606 L 5.675 98.355 C 5.675 24.368 16.259 13.811 90.315 13.811 L 165.685 13.811 Z "
           fill="rgb(255,255,255)"
           id="path11" />
      </clipPath>
      <g
         clip-path="url(#_clipPath_63nwJlynZyGiZivirEiEMrhEjt6ctrxR)"
         id="g24">
        <path
           d=" M 165.685 13.811 C 239.741 13.811 250.325 24.368 250.325 98.355 L 250.325 157.606 C 250.325 231.593 239.741 242.151 165.685 242.151 L 90.315 242.151 C 16.259 242.151 5.675 231.593 5.675 157.606 L 5.675 98.355 C 5.675 24.368 16.259 13.811 90.315 13.811 L 165.685 13.811 Z "
           fill="#467d8e"
           id="path14" />
        <g
           opacity="0.1"
           id="g18">
          <path
             d=" M 91.316 242.316 C 17.26 242.316 6.677 231.759 6.677 157.772 L 6.677 128.147 L 251.325 128.147 L 251.325 157.772 C 251.325 231.759 240.741 242.316 166.686 242.316 L 91.316 242.316 Z "
             fill="rgb(255,255,255)"
             id="path16" />
        </g>
        <g
           opacity="0.1"
           id="g22">
          <path
             d=" M 129.001 13.977 L 129.001 242.316 L 166.686 242.316 C 240.741 242.316 251.325 231.758 251.325 157.772 L 251.325 98.521 C 251.325 24.534 240.741 13.977 166.686 13.977 L 129.001 13.977 Z "
             fill="rgb(255,255,255)"
             id="path20" />
        </g>
      </g>
    </g>
    <g
       id="g39">
      <g
         id="g41">
        <g
           id="g43">
          <path
             d=" M 170.607 130.637 L 122.512 80.705 L 161.005 45.5 L 210.497 95.553 L 210.497 127.986"
             fill="rgb(145,190,239)"
             id="path27"
             style="fill:#9dc3ce;fill-opacity:1" />
          <path
             d=" M 95.016 210.5 L 133.51 177.505 L 77.788 128.014 L 45.503 128.014 L 45.503 160.277"
             fill="rgb(145,190,239)"
             id="path29"
             style="fill:#9dc3ce;fill-opacity:1" />
          <path
             d=" M 45.525 128.014 L 106.015 128.014 L 89.517 111.516 L 161.005 45.527 L 95.016 45.527 L 62.022 84.021 L 45.525 67.524"
             fill="rgb(205,226,249)"
             id="path31"
             style="fill:#c7dde4;fill-opacity:1" />
          <path
             d=" M 95.016 210.5 L 166.505 144.511 L 150.007 128.014 L 210.497 128.014 L 210.497 188.504 L 194 172.006 L 155.506 210.5"
             fill="rgb(205,226,249)"
             id="path33"
             style="fill:#c9dee4;fill-opacity:1" />
          <path
             d=" M 45.525 160.299 L 77.81 128.014 L 45.525 128.014"
             fill="rgb(95,160,231)"
             id="path35"
             style="fill:#5c9bae;fill-opacity:1" />
          <path
             d=" M 122.512 80.711 L 195.804 80.711 L 161.005 45.527"
             fill="rgb(95,160,231)"
             id="path37"
             style="fill:#5c9bae;fill-opacity:1" />
        </g>
      </g>
    </g>
  </g>
</svg>
