<?xml version="1.0" encoding="UTF-8" standalone="no"?>
<!-- Generator: Gravit.io -->

<svg
   xmlns:dc="http://purl.org/dc/elements/1.1/"
   xmlns:cc="http://creativecommons.org/ns#"
   xmlns:rdf="http://www.w3.org/1999/02/22-rdf-syntax-ns#"
   xmlns:svg="http://www.w3.org/2000/svg"
   xmlns="http://www.w3.org/2000/svg"
   xmlns:sodipodi="http://sodipodi.sourceforge.net/DTD/sodipodi-0.dtd"
   xmlns:inkscape="http://www.inkscape.org/namespaces/inkscape"
   style="isolation:isolate"
   viewBox="0 0 256 256"
   width="256"
   height="256"
   version="1.1"
   id="svg74"
   sodipodi:docname="audio-recorder.svg"
   inkscape:version="0.92.2pre0 (973e216, 2017-07-25)">
  <metadata
     id="metadata78">
    <rdf:RDF>
      <cc:Work
         rdf:about="">
        <dc:format>image/svg+xml</dc:format>
        <dc:type
           rdf:resource="http://purl.org/dc/dcmitype/StillImage" />
      </cc:Work>
    </rdf:RDF>
  </metadata>
  <sodipodi:namedview
     pagecolor="#ffffff"
     bordercolor="#666666"
     borderopacity="1"
     objecttolerance="10"
     gridtolerance="10"
     guidetolerance="10"
     inkscape:pageopacity="0"
     inkscape:pageshadow="2"
     inkscape:window-width="1920"
     inkscape:window-height="960"
     id="namedview76"
     showgrid="false"
     inkscape:zoom="0.921875"
     inkscape:cx="128"
     inkscape:cy="128"
     inkscape:window-x="0"
     inkscape:window-y="27"
     inkscape:window-maximized="1"
     inkscape:current-layer="Group" />
  <defs
     id="defs5">
    <clipPath
       id="_clipPath_EUCEtOL6nKw30RGsHibntq6xv3ElGADd">
      <rect
         width="256"
         height="256"
         id="rect2" />
    </clipPath>
  </defs>
  <g
     clip-path="url(#_clipPath_EUCEtOL6nKw30RGsHibntq6xv3ElGADd)"
     id="g72">
    <g
       id="icon">
      <g
         id="drop shadow">
        <defs
           id="defs12">
          <filter
             id="wgtn9RcmqBnSH4Ae2ixXIRCTFpPSb2D8"
             x="-200%"
             y="-200%"
             width="400%"
             height="400%">
            <feGaussianBlur
               stdDeviation="2.32"
               id="feGaussianBlur9" />
          </filter>
        </defs>
        <g
           opacity="0.2"
           filter="url(#wgtn9RcmqBnSH4Ae2ixXIRCTFpPSb2D8)"
           id="g16">
          <path
             d=" M 165.685 15.849 C 239.741 15.849 250.325 26.407 250.325 100.394 L 250.325 159.645 C 250.325 233.632 239.741 244.189 165.685 244.189 L 90.315 244.189 C 16.259 244.189 5.675 233.632 5.675 159.645 L 5.675 100.394 C 5.675 26.407 16.259 15.849 90.315 15.849 L 165.685 15.849 Z "
             fill="rgb(0,0,0)"
             id="path14" />
        </g>
        <defs
           id="defs21">
          <filter
             id="BGqN93MBgr6WJMZRcSwRnaOvbXF2hSEI"
             x="-200%"
             y="-200%"
             width="400%"
             height="400%">
            <feGaussianBlur
               stdDeviation="1.16"
               id="feGaussianBlur18" />
          </filter>
        </defs>
        <g
           opacity="0.1"
           filter="url(#BGqN93MBgr6WJMZRcSwRnaOvbXF2hSEI)"
           id="g25">
          <path
             d=" M 165.685 14.83 C 239.741 14.83 250.325 25.387 250.325 99.374 L 250.325 158.626 C 250.325 232.612 239.741 243.17 165.685 243.17 L 90.315 243.17 C 16.259 243.17 5.675 232.612 5.675 158.626 L 5.675 99.374 C 5.675 25.387 16.259 14.83 90.315 14.83 L 165.685 14.83 Z "
             fill="rgb(0,0,0)"
             id="path23" />
        </g>
      </g>
      <path
         d=" M 165.685 13.811 C 239.741 13.811 250.325 24.368 250.325 98.355 L 250.325 157.606 C 250.325 231.593 239.741 242.151 165.685 242.151 L 90.315 242.151 C 16.259 242.151 5.675 231.593 5.675 157.606 L 5.675 98.355 C 5.675 24.368 16.259 13.811 90.315 13.811 L 165.685 13.811 Z "
         fill="rgb(255,255,255)"
         id="path28" />
      <clipPath
         id="_clipPath_dLdnW9dIMguoLljV4oSTEmWSiZ8JECO0">
        <path
           d=" M 165.685 13.811 C 239.741 13.811 250.325 24.368 250.325 98.355 L 250.325 157.606 C 250.325 231.593 239.741 242.151 165.685 242.151 L 90.315 242.151 C 16.259 242.151 5.675 231.593 5.675 157.606 L 5.675 98.355 C 5.675 24.368 16.259 13.811 90.315 13.811 L 165.685 13.811 Z "
           fill="rgb(255,255,255)"
           id="path30" />
      </clipPath>
      <g
         clip-path="url(#_clipPath_dLdnW9dIMguoLljV4oSTEmWSiZ8JECO0)"
         id="g50">
        <path
           d=" M 165.685 13.811 C 239.741 13.811 250.325 24.368 250.325 98.355 L 250.325 157.606 C 250.325 231.593 239.741 242.151 165.685 242.151 L 90.315 242.151 C 16.259 242.151 5.675 231.593 5.675 157.606 L 5.675 98.355 C 5.675 24.368 16.259 13.811 90.315 13.811 L 165.685 13.811 Z "
           fill="rgb(26,26,26)"
           id="path33" />
        <g
           id="Group">
          <path
             d=" M 45.333 128 C 45.333 82.375 82.375 45.333 128 45.333 C 173.625 45.333 210.667 82.375 210.667 128 C 210.667 173.625 173.625 210.667 128 210.667 C 82.375 210.667 45.333 173.625 45.333 128 Z "
             fill="rgb(229,71,71)"
             id="path35"
             style="fill:#67a2b4;fill-opacity:1" />
          <path
             d=" M 83.911 122.489 C 83.937 144.688 100.464 163.406 122.489 166.181 L 122.489 177.6 L 111.467 177.6 L 111.467 188.622 L 144.533 188.622 L 144.533 177.6 L 133.511 177.6 L 133.511 166.192 C 155.54 163.417 172.069 144.692 172.089 122.489 L 161.067 122.489 C 161.067 140.751 146.262 155.556 128 155.556 C 109.738 155.556 94.933 140.751 94.933 122.489 L 83.911 122.489 Z "
             fill="rgb(249,249,249)"
             id="path37" />
          <path
             d="M 128 72.889 L 128 72.889 C 140.167 72.889 150.044 82.767 150.044 94.933 L 150.044 128 C 150.044 140.167 140.167 150.044 128 150.044 L 128 150.044 C 115.833 150.044 105.956 140.167 105.956 128 L 105.956 94.933 C 105.956 82.767 115.833 72.889 128 72.889 Z"
             style="stroke:none;fill:#F9F9F9;stroke-miterlimit:10;"
             id="path39" />
        </g>
        <g
           opacity="0.1"
           id="g44">
          <path
             d=" M 91.316 242.316 C 17.26 242.316 6.677 231.759 6.677 157.772 L 6.677 128.147 L 251.325 128.147 L 251.325 157.772 C 251.325 231.759 240.741 242.316 166.686 242.316 L 91.316 242.316 Z "
             fill="rgb(255,255,255)"
             id="path42" />
        </g>
        <g
           opacity="0.1"
           id="g48">
          <path
             d=" M 129.001 13.977 L 129.001 242.316 L 166.686 242.316 C 240.741 242.316 251.325 231.758 251.325 157.772 L 251.325 98.521 C 251.325 24.534 240.741 13.977 166.686 13.977 L 129.001 13.977 Z "
             fill="rgb(255,255,255)"
             id="path46" />
        </g>
      </g>
      <g
         id="highlight">
        <clipPath
           id="_clipPath_qTtia4PpuxNgpmvBgPJAliWkeolXhSWP">
          <path
             d=" M 165.685 13.811 C 239.741 13.811 250.325 24.368 250.325 98.355 L 250.325 157.606 C 250.325 231.593 239.741 242.151 165.685 242.151 L 90.315 242.151 C 16.259 242.151 5.675 231.593 5.675 157.606 L 5.675 98.355 C 5.675 24.368 16.259 13.811 90.315 13.811 L 165.685 13.811 Z "
             fill="rgb(255,255,255)"
             id="path52" />
        </clipPath>
        <g
           clip-path="url(#_clipPath_qTtia4PpuxNgpmvBgPJAliWkeolXhSWP)"
           id="g68">
          <g
             opacity="0.4"
             id="g66">
            <linearGradient
               id="_lgradient_5"
               x1="51.666666666666686%"
               y1="0%"
               x2="51.66666666666666%"
               y2="100.00000000000003%">
              <stop
                 offset="0%"
                 stop-opacity="1"
                 style="stop-color:rgb(255,255,255)"
                 id="stop55" />
              <stop
                 offset="12.5%"
                 stop-opacity="0.09803922"
                 style="stop-color:rgb(255,255,255)"
                 id="stop57" />
              <stop
                 offset="92.500001%"
                 stop-opacity="0.09803922"
                 style="stop-color:rgb(0,0,0)"
                 id="stop59" />
              <stop
                 offset="100%"
                 stop-opacity="0.49803922"
                 style="stop-color:rgb(0,0,0)"
                 id="stop61" />
            </linearGradient>
            <path
               d=" M 165.685 13.811 C 239.741 13.811 250.325 24.368 250.325 98.355 L 250.325 157.606 C 250.325 231.593 239.741 242.151 165.685 242.151 L 90.315 242.151 C 16.259 242.151 5.675 231.593 5.675 157.606 L 5.675 98.355 C 5.675 24.368 16.259 13.811 90.315 13.811 L 165.685 13.811 Z "
               fill="none"
               vector-effect="non-scaling-stroke"
               stroke-width="4"
               stroke="url(#_lgradient_5)"
               stroke-linejoin="round"
               stroke-linecap="round"
               stroke-miterlimit="4"
               id="path64" />
          </g>
        </g>
      </g>
    </g>
  </g>
</svg>
