<?xml version="1.0" standalone="no"?><!-- Generator: Gravit.io --><svg xmlns="http://www.w3.org/2000/svg" xmlns:xlink="http://www.w3.org/1999/xlink" style="isolation:isolate" viewBox="0 0 256 256" width="256" height="256"><defs><clipPath id="_clipPath_mI2ZOFSU07IFpHvC3mJ6tlRqN1sLqwVK"><rect width="256" height="256"/></clipPath></defs><g clip-path="url(#_clipPath_mI2ZOFSU07IFpHvC3mJ6tlRqN1sLqwVK)"><defs><filter id="PMRPJmbxDfZGiQXGPyUPP5cMnKDQsdAx" x="-200%" y="-200%" width="400%" height="400%"><feGaussianBlur xmlns="http://www.w3.org/2000/svg" stdDeviation="1.16"/></filter></defs><g opacity="0.1" filter="url(#PMRPJmbxDfZGiQXGPyUPP5cMnKDQsdAx)"><path d=" M 165.685 11.947 C 239.74 11.947 250.324 22.504 250.324 96.491 L 250.324 155.742 C 250.324 229.728 239.74 240.285 165.685 240.285 L 90.315 240.285 C 16.26 240.285 5.676 229.728 5.676 155.742 L 5.676 96.491 C 5.676 22.504 16.26 11.947 90.315 11.947 L 165.685 11.947 Z " fill="rgb(0,0,0)"/></g><defs><filter id="Y6BGLSpX1RXEuGi33ogN2lARoB8bgOk5" x="-200%" y="-200%" width="400%" height="400%"><feGaussianBlur xmlns="http://www.w3.org/2000/svg" stdDeviation="2.32"/></filter></defs><g opacity="0.2" filter="url(#Y6BGLSpX1RXEuGi33ogN2lARoB8bgOk5)"><path d=" M 165.685 13.986 C 239.74 13.986 250.324 24.543 250.324 98.53 L 250.324 157.78 C 250.324 231.767 239.74 242.324 165.685 242.324 L 90.315 242.324 C 16.26 242.324 5.676 231.767 5.676 157.78 L 5.676 98.53 C 5.676 24.543 16.26 13.986 90.315 13.986 L 165.685 13.986 Z " fill="rgb(0,0,0)"/></g><linearGradient id="_lgradient_0" x1="32.89897474813088%" y1="-0.3406901814214436%" x2="67.10098638264215%" y2="100.34064966138116%"><stop offset="0%" stop-opacity="1" style="stop-color:rgb(102,102,102)"/><stop offset="100%" stop-opacity="1" style="stop-color:rgb(102,102,102)"/></linearGradient><path d=" M 165.685 11.947 C 239.741 11.947 250.324 22.504 250.324 96.491 L 250.324 155.742 C 250.324 229.728 239.741 240.285 165.685 240.285 L 90.315 240.285 C 16.26 240.285 5.676 229.728 5.676 155.742 L 5.676 96.491 C 5.676 22.504 16.26 11.947 90.315 11.947 L 165.685 11.947 Z " fill="url(#_lgradient_0)"/><g opacity="0.05"><path d=" M 7.993 55.025 C 6.246 65.953 5.676 79.541 5.676 96.491 L 5.676 155.742 C 5.676 229.728 16.26 240.285 90.315 240.285 L 165.685 240.285 C 220.82 240.285 240.763 234.412 247.36 200.888 L 7.993 55.025 Z " fill="rgb(255,255,255)"/></g><path d=" M 165.685 11.947 C 239.741 11.947 250.324 22.504 250.324 96.491 L 250.324 155.742 C 250.324 229.728 239.741 240.285 165.685 240.285 L 90.315 240.285 C 16.26 240.285 5.676 229.728 5.676 155.742 L 5.676 96.491 C 5.676 22.504 16.26 11.947 90.315 11.947 L 165.685 11.947 Z " fill="none"/><g opacity="0.4"><linearGradient id="_lgradient_1" x1="51.666666666666686%" y1="0%" x2="51.66666666666666%" y2="100.00000000000003%"><stop offset="0%" stop-opacity="1" style="stop-color:rgb(255,255,255)"/><stop offset="12.5%" stop-opacity="0.09803922" style="stop-color:rgb(255,255,255)"/><stop offset="92.500001%" stop-opacity="0.09803922" style="stop-color:rgb(0,0,0)"/><stop offset="100%" stop-opacity="0.49803922" style="stop-color:rgb(0,0,0)"/></linearGradient><path d=" M 165.685 11.947 C 239.741 11.947 250.324 22.504 250.324 96.491 L 250.324 155.742 C 250.324 229.728 239.741 240.285 165.685 240.285 L 90.315 240.285 C 16.26 240.285 5.676 229.728 5.676 155.742 L 5.676 96.491 C 5.676 22.504 16.26 11.947 90.315 11.947 L 165.685 11.947 Z " fill="none" vector-effect="non-scaling-stroke" stroke-width="4.077" stroke="url(#_lgradient_1)" stroke-linejoin="round" stroke-linecap="round" stroke-miterlimit="4"/></g><defs><filter id="VPRcMjjEL9JZCMsk6Kt4t9hwwZl5ZPFp" x="-200%" y="-200%" width="400%" height="400%"><feGaussianBlur xmlns="http://www.w3.org/2000/svg" stdDeviation="0.62413614"/></filter></defs><g opacity="0.3" filter="url(#VPRcMjjEL9JZCMsk6Kt4t9hwwZl5ZPFp)"><linearGradient id="_lgradient_2" x1="55.75512978666687%" y1="100.0479431770593%" x2="55.75512978666687%" y2="17.7823850230304%"><stop offset="0%" stop-opacity="1" style="stop-color:rgb(255,255,255)"/><stop offset="100%" stop-opacity="0" style="stop-color:rgb(255,255,255)"/></linearGradient><path d=" M 167.599 133.47 C 160.881 133.47 155.645 133.46 151.434 133.923 C 147.224 134.385 143.923 135.339 141.473 137.505 C 139.023 139.67 137.7 142.85 136.99 147.09 C 136.28 151.329 136.122 156.756 136.122 163.941 L 136.122 181.687 C 136.122 188.871 136.281 194.301 136.99 198.547 C 137.699 202.794 139.02 205.987 141.468 208.163 C 143.915 210.339 147.217 211.305 151.429 211.776 C 155.641 212.246 160.88 212.239 167.599 212.239 L 194.477 212.239 C 201.196 212.239 206.432 212.239 210.637 211.776 C 214.841 211.305 218.135 210.336 220.573 208.158 C 223.01 205.98 224.319 202.793 225.02 198.547 C 225.721 194.302 225.872 188.87 225.872 181.687 L 225.872 163.941 C 225.872 156.757 225.721 151.333 225.02 147.095 C 224.319 142.857 223.007 139.672 220.567 137.505 C 218.128 135.337 214.835 134.385 210.632 133.923 C 206.428 133.46 201.195 133.47 194.477 133.47 L 167.599 133.47 Z " fill="none" vector-effect="non-scaling-stroke" stroke-width="2" stroke="url(#_lgradient_2)" stroke-linejoin="miter" stroke-linecap="butt" stroke-miterlimit="4"/></g><g opacity="0.8"><path d=" M 167.562 210.338 L 194.437 210.338 C 221.312 210.338 224 210.338 224 181.719 L 224 163.956 C 224 135.338 221.312 135.338 194.437 135.338 L 167.562 135.338 C 140.687 135.338 138 135.338 138 163.956 L 138 181.719 C 138 210.338 140.687 210.338 167.562 210.338 Z " fill="none" vector-effect="non-scaling-stroke" stroke-width="2.61" stroke="rgb(26,26,26)" stroke-linejoin="miter" stroke-linecap="butt" stroke-miterlimit="4"/></g><path d=" M 167.562 135.338 L 194.437 135.338 C 221.312 135.338 224 135.338 224 163.957 L 224 181.72 C 224 210.338 221.312 210.338 194.437 210.338 L 167.562 210.338 C 140.687 210.338 138 210.338 138 181.72 L 138 163.957 C 138 135.338 140.687 135.338 167.562 135.338 Z " fill="rgb(51,113,133)"/><path d=" M 167.562 210.338 L 194.437 210.338 C 221.312 210.338 224 210.338 224 181.719 L 224 163.956 C 224 135.338 221.312 135.338 194.437 135.338 L 167.562 135.338 C 140.687 135.338 138 135.338 138 163.956 L 138 181.719 C 138 210.338 140.687 210.338 167.562 210.338 L 167.562 210.338 Z " fill="none"/><defs><filter id="4ytdjIRe47OlfUbvvTHiplsKUW84r2XZ" x="-200%" y="-200%" width="400%" height="400%"><feGaussianBlur xmlns="http://www.w3.org/2000/svg" stdDeviation="11.85625"/></filter></defs><g opacity="0.1" filter="url(#4ytdjIRe47OlfUbvvTHiplsKUW84r2XZ)"><path d=" M 148.187 195.744 L 132.516 201.51 C 134 208.877 152.655 214.978 160.641 215.791 L 161.031 202.51 L 148.187 195.744 Z  M 215.359 195.744 L 202.516 202.51 L 202.906 215.791 C 210.892 214.978 229.546 208.877 231.031 201.51 L 215.359 195.744 Z " fill="rgb(0,0,0)"/></g><g opacity="0.1"><radialGradient id="_rgradient_0" fx="32.88484217926187%" fy="31.46022246093656%" cx="32.88484217926187%" cy="31.46022246093656%" r="200%"><stop offset="0%" stop-opacity="1" style="stop-color:rgb(255,255,255)"/><stop offset="100%" stop-opacity="0" style="stop-color:rgb(255,255,255)"/></radialGradient><path d=" M 152.016 135.744 C 144.03 136.558 140.516 139.018 139.031 146.385 L 148.187 150.041 L 156.812 143.088 L 152.016 135.744 Z " fill="url(#_rgradient_0)"/></g><g opacity="0.1"><radialGradient id="_rgradient_1" fx="67.11516143195854%" fy="31.460253794858772%" cx="67.11516143195854%" cy="31.460253794858772%" r="38.252766256590505%"><stop offset="0%" stop-opacity="1" style="stop-color:rgb(255,255,255)"/><stop offset="100%" stop-opacity="0" style="stop-color:rgb(255,255,255)"/></radialGradient><path d=" M 209.978 135.744 C 217.964 136.558 221.478 139.018 222.963 146.385 L 213.806 150.041 L 205.181 143.088 L 209.978 135.744 Z " fill="url(#_rgradient_1)"/></g><path d=" M 167.562 210.338 L 194.437 210.338 C 221.312 210.338 224 210.338 224 181.719 L 224 163.956 C 224 135.338 221.312 135.338 194.437 135.338 L 167.562 135.338 C 140.687 135.338 138 135.338 138 163.956 L 138 181.719 C 138 210.338 140.687 210.338 167.562 210.338 Z " fill="none"/><defs><filter id="MW8kai5y0NbHarzMaF0UU2uVmr1hyG5M" x="-200%" y="-200%" width="400%" height="400%"><feGaussianBlur xmlns="http://www.w3.org/2000/svg" stdDeviation="0.15424088"/></filter></defs><g opacity="0.3" filter="url(#MW8kai5y0NbHarzMaF0UU2uVmr1hyG5M)"><path d=" M 167.562 210.338 L 194.437 210.338 C 221.312 210.338 224 210.338 224 181.719 L 224 163.956 C 224 135.338 221.312 135.338 194.437 135.338 L 167.562 135.338 C 140.687 135.338 138 135.338 138 163.956 L 138 181.719 C 138 210.338 140.687 210.338 167.562 210.338 Z " fill="none"/></g><linearGradient id="_lgradient_3" x1="46.08000470126824%" y1="0.10522517080460148%" x2="46.080004701268216%" y2="100.85829030730409%"><stop offset="0.8695652173913043%" stop-opacity="1" style="stop-color:rgb(44,108,128)"/><stop offset="96.52173913043478%" stop-opacity="1" style="stop-color:rgb(103,162,180)"/></linearGradient><path d=" M 168.656 206.838 L 193.344 206.838 C 218.031 206.838 220.5 206.838 220.5 180.891 L 220.5 164.786 C 220.5 138.838 218.031 138.838 193.344 138.838 L 168.656 138.838 C 143.969 138.838 141.5 138.838 141.5 164.786 L 141.5 180.891 C 141.5 206.838 143.969 206.838 168.656 206.838 Z " fill="url(#_lgradient_3)"/><path d=" M 168.656 138.838 L 193.344 138.838 C 218.031 138.838 220.5 138.838 220.5 164.786 L 220.5 180.891 C 220.5 206.838 218.031 206.838 193.344 206.838 L 168.656 206.838 C 143.969 206.838 141.5 206.838 141.5 180.891 L 141.5 164.786 C 141.5 138.838 143.969 138.838 168.656 138.838 Z " fill="none"/><defs><filter id="pQD1PCctI7C7wOpetnPoK9ax29njM9K6" x="-200%" y="-200%" width="400%" height="400%"><feGaussianBlur xmlns="http://www.w3.org/2000/svg" stdDeviation="1.1266305"/></filter></defs><g opacity="0.3" filter="url(#pQD1PCctI7C7wOpetnPoK9ax29njM9K6)"><path d=" M 168.656 138.838 L 193.344 138.838 C 218.031 138.838 220.5 138.838 220.5 164.786 L 220.5 180.891 C 220.5 206.838 218.031 206.838 193.344 206.838 L 168.656 206.838 C 143.969 206.838 141.5 206.838 141.5 180.891 L 141.5 164.786 C 141.5 138.838 143.969 138.838 168.656 138.838 Z " fill="none" vector-effect="non-scaling-stroke" stroke-width="2.61" stroke="rgb(255,255,255)" stroke-linejoin="miter" stroke-linecap="butt" stroke-miterlimit="4"/></g><g opacity="0.22972975"><path d=" M 164.281 138.838 C 143.668 138.933 141.5 140.465 141.5 164.791 L 141.5 180.885 C 141.5 197.102 142.468 203.182 149.219 205.463 C 148.014 205.04 147.031 204.488 146.203 203.76 C 144.466 202.232 143.37 199.87 142.766 196.275 C 142.161 192.681 142.031 187.849 142.031 181.369 L 142.031 165.26 C 142.031 158.78 142.161 153.94 142.766 150.354 C 143.37 146.767 144.466 144.465 146.203 142.947 C 147.94 141.43 150.376 140.655 154.031 140.26 C 157.686 139.865 162.484 139.854 168.656 139.854 L 193.328 139.854 C 199.5 139.854 204.29 139.865 207.953 140.26 C 211.616 140.655 214.128 141.429 215.875 142.947 C 217.622 144.465 218.7 146.767 219.312 150.354 C 219.924 153.94 220.047 158.781 220.047 165.26 L 220.047 181.369 C 220.047 187.848 219.924 192.681 219.312 196.275 C 218.7 199.87 217.622 202.232 215.875 203.76 C 215.263 204.295 214.566 204.74 213.75 205.104 C 219.625 202.561 220.5 196.291 220.5 180.885 L 220.5 164.791 C 220.5 138.843 218.031 138.838 193.344 138.838 L 168.656 138.838 C 167.113 138.838 165.655 138.832 164.281 138.838 Z " fill="rgb(123,174,190)"/></g><g opacity="0.43693698"><path d=" M 164.281 138.838 C 144.892 138.927 141.828 140.309 141.531 160.713 C 141.893 139.333 145.512 139.338 168.656 139.338 L 193.344 139.338 C 216.488 139.338 220.107 139.333 220.469 160.713 C 220.151 138.862 216.657 138.838 193.344 138.838 L 168.656 138.838 C 167.113 138.838 165.655 138.832 164.281 138.838 Z " fill="rgb(168,212,225)"/></g><defs><filter id="BfHghvqpkJbIQlTsXvRXPzQHsPY099n6" x="-200%" y="-200%" width="400%" height="400%"><feGaussianBlur xmlns="http://www.w3.org/2000/svg" stdDeviation="0.62413614"/></filter></defs><g opacity="0.3" filter="url(#BfHghvqpkJbIQlTsXvRXPzQHsPY099n6)"><linearGradient id="_lgradient_4" x1="55.75512978666687%" y1="100.0479431770593%" x2="55.75512978666687%" y2="17.7823850230304%"><stop offset="0%" stop-opacity="1" style="stop-color:rgb(255,255,255)"/><stop offset="100%" stop-opacity="0" style="stop-color:rgb(255,255,255)"/></linearGradient><path d=" M 91.521 2905.155 C 81.808 2905.155 74.238 2905.14 68.15 2905.812 C 62.063 2906.483 57.29 2907.867 53.748 2911.009 C 50.207 2914.151 48.293 2918.765 47.267 2924.916 C 46.241 2931.067 46.012 2938.941 46.012 2949.365 L 46.012 2975.113 C 46.012 2985.537 46.241 2993.415 47.267 2999.577 C 48.293 3005.738 50.202 3010.371 53.741 3013.529 C 57.279 3016.686 62.053 3018.087 68.143 3018.77 C 74.232 3019.452 81.807 3019.441 91.521 3019.441 L 130.38 3019.441 C 140.094 3019.441 147.664 3019.441 153.743 3018.77 C 159.822 3018.087 164.584 3016.681 168.109 3013.521 C 171.633 3010.361 173.525 3005.736 174.538 2999.577 C 175.552 2993.417 175.771 2985.536 175.771 2975.113 L 175.771 2949.365 C 175.771 2938.943 175.552 2931.073 174.538 2924.924 C 173.524 2918.774 171.628 2914.154 168.101 2911.009 C 164.574 2907.864 159.813 2906.483 153.736 2905.812 C 147.659 2905.141 140.093 2905.155 130.38 2905.155 L 91.521 2905.155 Z " fill="none" vector-effect="non-scaling-stroke" stroke-width="2.897" stroke="url(#_lgradient_4)" stroke-linejoin="miter" stroke-linecap="butt" stroke-miterlimit="4"/></g><g opacity="0.8"><path d=" M 91.468 3016.684 L 130.323 3016.684 C 169.178 3016.684 173.064 3016.684 173.064 2975.16 L 173.064 2949.388 C 173.064 2907.865 169.178 2907.865 130.323 2907.865 L 91.468 2907.865 C 52.612 2907.865 48.727 2907.865 48.727 2949.388 L 48.727 2975.16 C 48.727 3016.684 52.612 3016.684 91.468 3016.684 Z " fill="none" vector-effect="non-scaling-stroke" stroke-width="3.78" stroke="rgb(26,26,26)" stroke-linejoin="miter" stroke-linecap="butt" stroke-miterlimit="4"/></g><linearGradient id="_lgradient_5" x1="45.79462443636232%" y1="99.87665319358996%" x2="46.23241300251516%" y2="4.648896915610279%"><stop offset="0%" stop-opacity="1" style="stop-color:rgb(111,111,111)"/><stop offset="9.917424%" stop-opacity="1" style="stop-color:rgb(172,172,172)"/><stop offset="91.744775%" stop-opacity="1" style="stop-color:rgb(186,186,186)"/><stop offset="100%" stop-opacity="1" style="stop-color:rgb(208,208,208)"/></linearGradient><path d=" M 91.468 3016.684 L 130.323 3016.684 C 169.178 3016.684 173.064 3016.684 173.064 2975.16 L 173.064 2949.388 C 173.064 2907.865 169.178 2907.865 130.323 2907.865 L 91.468 2907.865 C 52.612 2907.865 48.727 2907.865 48.727 2949.388 L 48.727 2975.16 C 48.727 3016.684 52.612 3016.684 91.468 3016.684 Z " fill="url(#_lgradient_5)"/><clipPath id="_clipPath_Lw0IF8cj3jqizCc1FoOuqEUDk5ufC9IB"><path d=" M 91.468 3016.684 L 130.323 3016.684 C 169.178 3016.684 173.064 3016.684 173.064 2975.16 L 173.064 2949.388 C 173.064 2907.865 169.178 2907.865 130.323 2907.865 L 91.468 2907.865 C 52.612 2907.865 48.727 2907.865 48.727 2949.388 L 48.727 2975.16 C 48.727 3016.684 52.612 3016.684 91.468 3016.684 L 91.468 3016.684 Z " fill="rgb(255,255,255)"/></clipPath><g clip-path="url(#_clipPath_Lw0IF8cj3jqizCc1FoOuqEUDk5ufC9IB)"><defs><filter id="6FyTg14quJ7Z0Ae49ZRgHaLnAEdzSNbp" x="-200%" y="-200%" width="400%" height="400%"><feGaussianBlur xmlns="http://www.w3.org/2000/svg" stdDeviation="11.85625"/></filter></defs><g opacity="0.2" filter="url(#6FyTg14quJ7Z0Ae49ZRgHaLnAEdzSNbp)"><path d=" M 63.456 2995.509 L 40.798 3003.875 C 42.945 3014.564 69.915 3023.415 81.46 3024.596 L 82.025 3005.326 L 63.456 2995.509 Z  M 160.571 2995.509 L 142.002 3005.326 L 142.567 3024.596 C 154.112 3023.415 181.082 3014.564 183.229 3003.875 L 160.571 2995.509 Z " fill="rgb(0,0,0)"/></g></g><g opacity="0.2"><radialGradient id="_rgradient_2" fx="32.88484217926187%" fy="31.46022246093656%" cx="32.88484217926187%" cy="31.46022246093656%" r="200%"><stop offset="0%" stop-opacity="1" style="stop-color:rgb(255,255,255)"/><stop offset="100%" stop-opacity="0" style="stop-color:rgb(255,255,255)"/></radialGradient><path d=" M 68.991 2908.455 C 57.445 2909.635 52.365 2913.204 50.218 2923.893 L 63.456 2929.198 L 75.926 2919.11 L 68.991 2908.455 Z " fill="url(#_rgradient_2)"/></g><g opacity="0.2"><radialGradient id="_rgradient_3" fx="67.11516143195854%" fy="31.460253794858772%" cx="67.11516143195854%" cy="31.460253794858772%" r="38.252766256590505%"><stop offset="0%" stop-opacity="1" style="stop-color:rgb(255,255,255)"/><stop offset="100%" stop-opacity="0" style="stop-color:rgb(255,255,255)"/></radialGradient><path d=" M 152.792 2908.454 C 164.337 2909.635 169.417 2913.204 171.564 2923.893 L 158.326 2929.198 L 145.856 2919.11 L 152.792 2908.454 Z " fill="url(#_rgradient_3)"/></g><clipPath id="_clipPath_5JeJOayQZZmoYbItqLBdeb3zw72cXUWX"><path d=" M 91.468 3016.684 L 130.323 3016.684 C 169.178 3016.684 173.064 3016.684 173.064 2975.16 L 173.064 2949.388 C 173.064 2907.865 169.178 2907.865 130.323 2907.865 L 91.468 2907.865 C 52.612 2907.865 48.727 2907.865 48.727 2949.388 L 48.727 2975.16 C 48.727 3016.684 52.612 3016.684 91.468 3016.684 Z " fill="rgb(255,255,255)"/></clipPath><g clip-path="url(#_clipPath_5JeJOayQZZmoYbItqLBdeb3zw72cXUWX)"><defs><filter id="RgvME3kg8zM6vfuz9VEjAKA7g4JpP7Q9" x="-200%" y="-200%" width="400%" height="400%"><feGaussianBlur xmlns="http://www.w3.org/2000/svg" stdDeviation="0.15424088"/></filter></defs><g opacity="0.3" filter="url(#RgvME3kg8zM6vfuz9VEjAKA7g4JpP7Q9)"><path d=" M 91.468 3016.684 L 130.323 3016.684 C 169.178 3016.684 173.064 3016.684 173.064 2975.16 L 173.064 2949.388 C 173.064 2907.865 169.178 2907.865 130.323 2907.865 L 91.468 2907.865 C 52.612 2907.865 48.727 2907.865 48.727 2949.388 L 48.727 2975.16 C 48.727 3016.684 52.612 3016.684 91.468 3016.684 Z " fill="none" vector-effect="non-scaling-stroke" stroke-width="2.173" stroke="rgb(0,0,0)" stroke-linejoin="miter" stroke-linecap="butt" stroke-miterlimit="4"/></g></g><linearGradient id="_lgradient_6" x1="46.08000470126824%" y1="99.8946599062613%" x2="46.08000470126824%" y2="-0.8584052302381906%"><stop offset="0%" stop-opacity="1" style="stop-color:rgb(208,208,208)"/><stop offset="100%" stop-opacity="1" style="stop-color:rgb(172,172,172)"/></linearGradient><path d=" M 93.049 2912.943 L 128.742 2912.943 C 164.434 2912.943 168.003 2912.943 168.003 2950.591 L 168.003 2973.958 C 168.003 3011.606 164.434 3011.606 128.742 3011.606 L 93.049 3011.606 C 57.356 3011.606 53.787 3011.606 53.787 2973.958 L 53.787 2950.591 C 53.787 2912.943 57.356 2912.943 93.049 2912.943 Z " fill="url(#_lgradient_6)"/><clipPath id="_clipPath_f7Mx0Ae7vNVsEFTtgTumYjvjmjglgpQb"><path d=" M 93.049 2912.943 L 128.742 2912.943 C 164.434 2912.943 168.003 2912.943 168.003 2950.591 L 168.003 2973.958 C 168.003 3011.606 164.434 3011.606 128.742 3011.606 L 93.049 3011.606 C 57.356 3011.606 53.787 3011.606 53.787 2973.958 L 53.787 2950.591 C 53.787 2912.943 57.356 2912.943 93.049 2912.943 Z " fill="rgb(255,255,255)"/></clipPath><g clip-path="url(#_clipPath_f7Mx0Ae7vNVsEFTtgTumYjvjmjglgpQb)"><defs><filter id="SckIJBLSQTfSKpEdN4UD9BdetHBsLvkW" x="-200%" y="-200%" width="400%" height="400%"><feGaussianBlur xmlns="http://www.w3.org/2000/svg" stdDeviation="1.1266305"/></filter></defs><g opacity="0.3" filter="url(#SckIJBLSQTfSKpEdN4UD9BdetHBsLvkW)"><path d=" M 93.049 2912.943 L 128.742 2912.943 C 164.434 2912.943 168.003 2912.943 168.003 2950.591 L 168.003 2973.958 C 168.003 3011.606 164.434 3011.606 128.742 3011.606 L 93.049 3011.606 C 57.356 3011.606 53.787 3011.606 53.787 2973.958 L 53.787 2950.591 C 53.787 2912.943 57.356 2912.943 93.049 2912.943 Z " fill="none" vector-effect="non-scaling-stroke" stroke-width="3.78" stroke="rgb(255,255,255)" stroke-linejoin="miter" stroke-linecap="butt" stroke-miterlimit="4"/></g></g><g opacity="0.1"><path d=" M 86.724 2912.943 C 56.922 2913.081 53.787 2915.304 53.787 2950.599 L 53.787 2973.95 C 53.787 2997.479 55.187 3006.302 64.947 3009.61 C 63.205 3008.997 61.784 3008.196 60.587 3007.139 C 58.075 3004.923 56.491 3001.496 55.617 2996.28 C 54.743 2991.065 54.555 2984.053 54.555 2974.652 L 54.555 2951.279 C 54.555 2941.878 54.743 2934.856 55.617 2929.651 C 56.491 2924.447 58.076 2921.107 60.587 2918.906 C 63.098 2916.704 66.62 2915.579 71.905 2915.006 C 77.189 2914.433 84.126 2914.417 93.049 2914.417 L 128.719 2914.417 C 137.642 2914.417 144.568 2914.433 149.864 2915.006 C 155.159 2915.579 158.791 2916.703 161.317 2918.906 C 163.842 2921.108 165.402 2924.448 166.287 2929.651 C 167.171 2934.855 167.348 2941.878 167.348 2951.279 L 167.348 2974.652 C 167.348 2984.053 167.171 2991.065 166.287 2996.28 C 165.402 3001.495 163.843 3004.922 161.317 3007.139 C 160.432 3007.915 159.424 3008.562 158.244 3009.089 C 166.738 3005.4 168.003 2996.303 168.003 2973.95 L 168.003 2950.599 C 168.003 2912.951 164.434 2912.943 128.742 2912.943 L 93.049 2912.943 C 90.818 2912.943 88.711 2912.934 86.724 2912.943 Z " fill="rgb(255,255,255)"/></g><g opacity="0.3"><path d=" M 86.724 2912.943 C 58.692 2913.073 54.261 2915.077 53.832 2944.682 C 54.355 2913.661 59.587 2913.669 93.049 2913.669 L 128.742 2913.669 C 162.203 2913.669 167.435 2913.661 167.958 2944.682 C 167.499 2912.979 162.447 2912.943 128.742 2912.943 L 93.049 2912.943 C 90.818 2912.943 88.711 2912.934 86.724 2912.943 Z " fill="rgb(255,255,255)"/></g><defs><filter id="a69IOrOtxKnXCvqYFrXn0yy21vRhgpsm" x="-200%" y="-200%" width="400%" height="400%"><feGaussianBlur xmlns="http://www.w3.org/2000/svg" stdDeviation="0.62413614"/></filter></defs><g opacity="0.3" filter="url(#a69IOrOtxKnXCvqYFrXn0yy21vRhgpsm)"><linearGradient id="_lgradient_7" x1="55.75512978666687%" y1="100.0479431770593%" x2="55.75512978666687%" y2="17.7823850230304%"><stop offset="0%" stop-opacity="1" style="stop-color:rgb(255,255,255)"/><stop offset="100%" stop-opacity="0" style="stop-color:rgb(255,255,255)"/></linearGradient><path d=" M 197.521 2808.155 C 187.808 2808.155 180.238 2808.14 174.15 2808.812 C 168.063 2809.483 163.29 2810.867 159.748 2814.009 C 156.207 2817.151 154.293 2821.765 153.267 2827.916 C 152.241 2834.067 152.012 2841.941 152.012 2852.365 L 152.012 2878.113 C 152.012 2888.537 152.241 2896.415 153.267 2902.577 C 154.293 2908.738 156.202 2913.371 159.741 2916.529 C 163.279 2919.686 168.053 2921.087 174.143 2921.77 C 180.232 2922.452 187.807 2922.441 197.521 2922.441 L 236.38 2922.441 C 246.094 2922.441 253.664 2922.441 259.743 2921.77 C 265.822 2921.087 270.584 2919.681 274.109 2916.521 C 277.633 2913.361 279.525 2908.736 280.538 2902.577 C 281.552 2896.417 281.771 2888.536 281.771 2878.113 L 281.771 2852.365 C 281.771 2841.943 281.552 2834.073 280.538 2827.924 C 279.524 2821.774 277.628 2817.154 274.101 2814.009 C 270.574 2810.864 265.813 2809.483 259.736 2808.812 C 253.659 2808.141 246.093 2808.155 236.38 2808.155 L 197.521 2808.155 Z " fill="none" vector-effect="non-scaling-stroke" stroke-width="2.897" stroke="url(#_lgradient_7)" stroke-linejoin="miter" stroke-linecap="butt" stroke-miterlimit="4"/></g><g opacity="0.8"><path d=" M 197.468 2919.684 L 236.323 2919.684 C 275.178 2919.684 279.064 2919.684 279.064 2878.16 L 279.064 2852.388 C 279.064 2810.865 275.178 2810.865 236.323 2810.865 L 197.468 2810.865 C 158.612 2810.865 154.727 2810.865 154.727 2852.388 L 154.727 2878.16 C 154.727 2919.684 158.612 2919.684 197.468 2919.684 Z " fill="none" vector-effect="non-scaling-stroke" stroke-width="3.78" stroke="rgb(26,26,26)" stroke-linejoin="miter" stroke-linecap="butt" stroke-miterlimit="4"/></g><linearGradient id="_lgradient_8" x1="45.79462443636232%" y1="99.87665319358996%" x2="46.23241300251516%" y2="4.648896915610279%"><stop offset="0%" stop-opacity="1" style="stop-color:rgb(111,111,111)"/><stop offset="9.917424%" stop-opacity="1" style="stop-color:rgb(172,172,172)"/><stop offset="91.744775%" stop-opacity="1" style="stop-color:rgb(186,186,186)"/><stop offset="100%" stop-opacity="1" style="stop-color:rgb(208,208,208)"/></linearGradient><path d=" M 197.468 2919.684 L 236.323 2919.684 C 275.178 2919.684 279.064 2919.684 279.064 2878.16 L 279.064 2852.388 C 279.064 2810.865 275.178 2810.865 236.323 2810.865 L 197.468 2810.865 C 158.612 2810.865 154.727 2810.865 154.727 2852.388 L 154.727 2878.16 C 154.727 2919.684 158.612 2919.684 197.468 2919.684 Z " fill="url(#_lgradient_8)"/><clipPath id="_clipPath_v3vkHOBwzL57w5UuLIngmfjdWAiieJqd"><path d=" M 197.468 2919.684 L 236.323 2919.684 C 275.178 2919.684 279.064 2919.684 279.064 2878.16 L 279.064 2852.388 C 279.064 2810.865 275.178 2810.865 236.323 2810.865 L 197.468 2810.865 C 158.612 2810.865 154.727 2810.865 154.727 2852.388 L 154.727 2878.16 C 154.727 2919.684 158.612 2919.684 197.468 2919.684 L 197.468 2919.684 Z " fill="rgb(255,255,255)"/></clipPath><g clip-path="url(#_clipPath_v3vkHOBwzL57w5UuLIngmfjdWAiieJqd)"><defs><filter id="pFqEGa9CIOzeQPcKJCHaW63UenvrhTDd" x="-200%" y="-200%" width="400%" height="400%"><feGaussianBlur xmlns="http://www.w3.org/2000/svg" stdDeviation="11.85625"/></filter></defs><g opacity="0.2" filter="url(#pFqEGa9CIOzeQPcKJCHaW63UenvrhTDd)"><path d=" M 169.456 2898.509 L 146.798 2906.875 C 148.945 2917.564 175.915 2926.415 187.46 2927.596 L 188.025 2908.326 L 169.456 2898.509 Z  M 266.571 2898.509 L 248.002 2908.326 L 248.567 2927.596 C 260.112 2926.415 287.082 2917.564 289.229 2906.875 L 266.571 2898.509 Z " fill="rgb(0,0,0)"/></g></g><g opacity="0.2"><radialGradient id="_rgradient_4" fx="32.88484217926187%" fy="31.46022246093656%" cx="32.88484217926187%" cy="31.46022246093656%" r="200%"><stop offset="0%" stop-opacity="1" style="stop-color:rgb(255,255,255)"/><stop offset="100%" stop-opacity="0" style="stop-color:rgb(255,255,255)"/></radialGradient><path d=" M 174.991 2811.455 C 163.445 2812.635 158.365 2816.204 156.218 2826.893 L 169.456 2832.198 L 181.926 2822.11 L 174.991 2811.455 Z " fill="url(#_rgradient_4)"/></g><g opacity="0.2"><radialGradient id="_rgradient_5" fx="67.11516143195854%" fy="31.460253794858772%" cx="67.11516143195854%" cy="31.460253794858772%" r="38.252766256590505%"><stop offset="0%" stop-opacity="1" style="stop-color:rgb(255,255,255)"/><stop offset="100%" stop-opacity="0" style="stop-color:rgb(255,255,255)"/></radialGradient><path d=" M 258.792 2811.454 C 270.337 2812.635 275.417 2816.204 277.564 2826.893 L 264.326 2832.198 L 251.856 2822.11 L 258.792 2811.454 Z " fill="url(#_rgradient_5)"/></g><clipPath id="_clipPath_MNCDFVfq3T1rs8Hpinq9y3bwBOmSQ7dT"><path d=" M 197.468 2919.684 L 236.323 2919.684 C 275.178 2919.684 279.064 2919.684 279.064 2878.16 L 279.064 2852.388 C 279.064 2810.865 275.178 2810.865 236.323 2810.865 L 197.468 2810.865 C 158.612 2810.865 154.727 2810.865 154.727 2852.388 L 154.727 2878.16 C 154.727 2919.684 158.612 2919.684 197.468 2919.684 Z " fill="rgb(255,255,255)"/></clipPath><g clip-path="url(#_clipPath_MNCDFVfq3T1rs8Hpinq9y3bwBOmSQ7dT)"><defs><filter id="GxA1E0KRLnpOKX3nIvZFkg2m6ZFK95w6" x="-200%" y="-200%" width="400%" height="400%"><feGaussianBlur xmlns="http://www.w3.org/2000/svg" stdDeviation="0.15424088"/></filter></defs><g opacity="0.3" filter="url(#GxA1E0KRLnpOKX3nIvZFkg2m6ZFK95w6)"><path d=" M 197.468 2919.684 L 236.323 2919.684 C 275.178 2919.684 279.064 2919.684 279.064 2878.16 L 279.064 2852.388 C 279.064 2810.865 275.178 2810.865 236.323 2810.865 L 197.468 2810.865 C 158.612 2810.865 154.727 2810.865 154.727 2852.388 L 154.727 2878.16 C 154.727 2919.684 158.612 2919.684 197.468 2919.684 Z " fill="none" vector-effect="non-scaling-stroke" stroke-width="2.173" stroke="rgb(0,0,0)" stroke-linejoin="miter" stroke-linecap="butt" stroke-miterlimit="4"/></g></g><linearGradient id="_lgradient_9" x1="46.08000470126824%" y1="99.8946599062613%" x2="46.08000470126824%" y2="-0.8584052302381906%"><stop offset="0%" stop-opacity="1" style="stop-color:rgb(208,208,208)"/><stop offset="100%" stop-opacity="1" style="stop-color:rgb(172,172,172)"/></linearGradient><path d=" M 199.049 2815.943 L 234.742 2815.943 C 270.434 2815.943 274.003 2815.943 274.003 2853.591 L 274.003 2876.958 C 274.003 2914.606 270.434 2914.606 234.742 2914.606 L 199.049 2914.606 C 163.356 2914.606 159.787 2914.606 159.787 2876.958 L 159.787 2853.591 C 159.787 2815.943 163.356 2815.943 199.049 2815.943 Z " fill="url(#_lgradient_9)"/><clipPath id="_clipPath_72131lqIFH9qixnyMZLmpCORNr2x9OML"><path d=" M 199.049 2815.943 L 234.742 2815.943 C 270.434 2815.943 274.003 2815.943 274.003 2853.591 L 274.003 2876.958 C 274.003 2914.606 270.434 2914.606 234.742 2914.606 L 199.049 2914.606 C 163.356 2914.606 159.787 2914.606 159.787 2876.958 L 159.787 2853.591 C 159.787 2815.943 163.356 2815.943 199.049 2815.943 Z " fill="rgb(255,255,255)"/></clipPath><g clip-path="url(#_clipPath_72131lqIFH9qixnyMZLmpCORNr2x9OML)"><defs><filter id="JAEZ0v2YsMQMsCko0UInId3Lbeh0fPDq" x="-200%" y="-200%" width="400%" height="400%"><feGaussianBlur xmlns="http://www.w3.org/2000/svg" stdDeviation="1.1266305"/></filter></defs><g opacity="0.3" filter="url(#JAEZ0v2YsMQMsCko0UInId3Lbeh0fPDq)"><path d=" M 199.049 2815.943 L 234.742 2815.943 C 270.434 2815.943 274.003 2815.943 274.003 2853.591 L 274.003 2876.958 C 274.003 2914.606 270.434 2914.606 234.742 2914.606 L 199.049 2914.606 C 163.356 2914.606 159.787 2914.606 159.787 2876.958 L 159.787 2853.591 C 159.787 2815.943 163.356 2815.943 199.049 2815.943 Z " fill="none" vector-effect="non-scaling-stroke" stroke-width="3.78" stroke="rgb(255,255,255)" stroke-linejoin="miter" stroke-linecap="butt" stroke-miterlimit="4"/></g></g><g opacity="0.1"><path d=" M 192.724 2815.943 C 162.922 2816.081 159.787 2818.304 159.787 2853.599 L 159.787 2876.95 C 159.787 2900.479 161.187 2909.302 170.947 2912.61 C 169.205 2911.997 167.784 2911.196 166.587 2910.139 C 164.075 2907.923 162.491 2904.496 161.617 2899.28 C 160.743 2894.065 160.555 2887.053 160.555 2877.652 L 160.555 2854.279 C 160.555 2844.878 160.743 2837.856 161.617 2832.651 C 162.491 2827.447 164.076 2824.107 166.587 2821.906 C 169.098 2819.704 172.62 2818.579 177.905 2818.006 C 183.189 2817.433 190.126 2817.417 199.049 2817.417 L 234.719 2817.417 C 243.642 2817.417 250.568 2817.433 255.864 2818.006 C 261.159 2818.579 264.791 2819.703 267.317 2821.906 C 269.842 2824.108 271.402 2827.448 272.287 2832.651 C 273.171 2837.855 273.348 2844.878 273.348 2854.279 L 273.348 2877.652 C 273.348 2887.053 273.171 2894.065 272.287 2899.28 C 271.402 2904.495 269.843 2907.922 267.317 2910.139 C 266.432 2910.915 265.424 2911.562 264.244 2912.089 C 272.738 2908.4 274.003 2899.303 274.003 2876.95 L 274.003 2853.599 C 274.003 2815.951 270.434 2815.943 234.742 2815.943 L 199.049 2815.943 C 196.818 2815.943 194.711 2815.934 192.724 2815.943 Z " fill="rgb(255,255,255)"/></g><g opacity="0.3"><path d=" M 192.724 2815.943 C 164.692 2816.073 160.261 2818.077 159.832 2847.682 C 160.355 2816.661 165.587 2816.669 199.049 2816.669 L 234.742 2816.669 C 268.203 2816.669 273.435 2816.661 273.958 2847.682 C 273.499 2815.979 268.447 2815.943 234.742 2815.943 L 199.049 2815.943 C 196.818 2815.943 194.711 2815.934 192.724 2815.943 Z " fill="rgb(255,255,255)"/></g><defs><filter id="vtgMwrkBTmZ3OEnbV4T3muaSG98csiv6" x="-200%" y="-200%" width="400%" height="400%"><feGaussianBlur xmlns="http://www.w3.org/2000/svg" stdDeviation="0.62413614"/></filter></defs><g opacity="0.3" filter="url(#vtgMwrkBTmZ3OEnbV4T3muaSG98csiv6)"><linearGradient id="_lgradient_10" x1="55.75512978666687%" y1="100.0479431770593%" x2="55.75512978666687%" y2="17.7823850230304%"><stop offset="0%" stop-opacity="1" style="stop-color:rgb(255,255,255)"/><stop offset="100%" stop-opacity="0" style="stop-color:rgb(255,255,255)"/></linearGradient><path d=" M 197.521 2808.155 C 187.808 2808.155 180.238 2808.14 174.15 2808.812 C 168.063 2809.483 163.29 2810.867 159.748 2814.009 C 156.207 2817.151 154.293 2821.765 153.267 2827.916 C 152.241 2834.067 152.012 2841.941 152.012 2852.365 L 152.012 2878.113 C 152.012 2888.537 152.241 2896.415 153.267 2902.577 C 154.293 2908.738 156.202 2913.371 159.741 2916.529 C 163.279 2919.686 168.053 2921.087 174.143 2921.77 C 180.232 2922.452 187.807 2922.441 197.521 2922.441 L 236.38 2922.441 C 246.094 2922.441 253.664 2922.441 259.743 2921.77 C 265.822 2921.087 270.584 2919.681 274.109 2916.521 C 277.633 2913.361 279.525 2908.736 280.538 2902.577 C 281.552 2896.417 281.771 2888.536 281.771 2878.113 L 281.771 2852.365 C 281.771 2841.943 281.552 2834.073 280.538 2827.924 C 279.524 2821.774 277.628 2817.154 274.101 2814.009 C 270.574 2810.864 265.813 2809.483 259.736 2808.812 C 253.659 2808.141 246.093 2808.155 236.38 2808.155 L 197.521 2808.155 Z " fill="none" vector-effect="non-scaling-stroke" stroke-width="2.897" stroke="url(#_lgradient_10)" stroke-linejoin="miter" stroke-linecap="butt" stroke-miterlimit="4"/></g><g opacity="0.8"><path d=" M 197.468 2919.684 L 236.323 2919.684 C 275.178 2919.684 279.064 2919.684 279.064 2878.16 L 279.064 2852.388 C 279.064 2810.865 275.178 2810.865 236.323 2810.865 L 197.468 2810.865 C 158.612 2810.865 154.727 2810.865 154.727 2852.388 L 154.727 2878.16 C 154.727 2919.684 158.612 2919.684 197.468 2919.684 Z " fill="none" vector-effect="non-scaling-stroke" stroke-width="3.78" stroke="rgb(26,26,26)" stroke-linejoin="miter" stroke-linecap="butt" stroke-miterlimit="4"/></g><linearGradient id="_lgradient_11" x1="45.79462443636232%" y1="99.87665319358996%" x2="46.23241300251516%" y2="4.648896915610279%"><stop offset="0%" stop-opacity="1" style="stop-color:rgb(111,111,111)"/><stop offset="9.917424%" stop-opacity="1" style="stop-color:rgb(172,172,172)"/><stop offset="91.744775%" stop-opacity="1" style="stop-color:rgb(186,186,186)"/><stop offset="100%" stop-opacity="1" style="stop-color:rgb(208,208,208)"/></linearGradient><path d=" M 197.468 2919.684 L 236.323 2919.684 C 275.178 2919.684 279.064 2919.684 279.064 2878.16 L 279.064 2852.388 C 279.064 2810.865 275.178 2810.865 236.323 2810.865 L 197.468 2810.865 C 158.612 2810.865 154.727 2810.865 154.727 2852.388 L 154.727 2878.16 C 154.727 2919.684 158.612 2919.684 197.468 2919.684 Z " fill="url(#_lgradient_11)"/><clipPath id="_clipPath_3znLAxXyBG0An7MNdLbZo9okntsOBRkV"><path d=" M 197.468 2919.684 L 236.323 2919.684 C 275.178 2919.684 279.064 2919.684 279.064 2878.16 L 279.064 2852.388 C 279.064 2810.865 275.178 2810.865 236.323 2810.865 L 197.468 2810.865 C 158.612 2810.865 154.727 2810.865 154.727 2852.388 L 154.727 2878.16 C 154.727 2919.684 158.612 2919.684 197.468 2919.684 L 197.468 2919.684 Z " fill="rgb(255,255,255)"/></clipPath><g clip-path="url(#_clipPath_3znLAxXyBG0An7MNdLbZo9okntsOBRkV)"><defs><filter id="Xddp0JgfxceLzqYoMXrAl8qibrNPM246" x="-200%" y="-200%" width="400%" height="400%"><feGaussianBlur xmlns="http://www.w3.org/2000/svg" stdDeviation="11.85625"/></filter></defs><g opacity="0.2" filter="url(#Xddp0JgfxceLzqYoMXrAl8qibrNPM246)"><path d=" M 169.456 2898.509 L 146.798 2906.875 C 148.945 2917.564 175.915 2926.415 187.46 2927.596 L 188.025 2908.326 L 169.456 2898.509 Z  M 266.571 2898.509 L 248.002 2908.326 L 248.567 2927.596 C 260.112 2926.415 287.082 2917.564 289.229 2906.875 L 266.571 2898.509 Z " fill="rgb(0,0,0)"/></g></g><g opacity="0.2"><radialGradient id="_rgradient_6" fx="32.88484217926187%" fy="31.46022246093656%" cx="32.88484217926187%" cy="31.46022246093656%" r="200%"><stop offset="0%" stop-opacity="1" style="stop-color:rgb(255,255,255)"/><stop offset="100%" stop-opacity="0" style="stop-color:rgb(255,255,255)"/></radialGradient><path d=" M 174.991 2811.455 C 163.445 2812.635 158.365 2816.204 156.218 2826.893 L 169.456 2832.198 L 181.926 2822.11 L 174.991 2811.455 Z " fill="url(#_rgradient_6)"/></g><g opacity="0.2"><radialGradient id="_rgradient_7" fx="67.11516143195854%" fy="31.460253794858772%" cx="67.11516143195854%" cy="31.460253794858772%" r="38.252766256590505%"><stop offset="0%" stop-opacity="1" style="stop-color:rgb(255,255,255)"/><stop offset="100%" stop-opacity="0" style="stop-color:rgb(255,255,255)"/></radialGradient><path d=" M 258.792 2811.454 C 270.337 2812.635 275.417 2816.204 277.564 2826.893 L 264.326 2832.198 L 251.856 2822.11 L 258.792 2811.454 Z " fill="url(#_rgradient_7)"/></g><clipPath id="_clipPath_Qij68XWm3aLJe5hO0JJNenVgA8zmvcfc"><path d=" M 197.468 2919.684 L 236.323 2919.684 C 275.178 2919.684 279.064 2919.684 279.064 2878.16 L 279.064 2852.388 C 279.064 2810.865 275.178 2810.865 236.323 2810.865 L 197.468 2810.865 C 158.612 2810.865 154.727 2810.865 154.727 2852.388 L 154.727 2878.16 C 154.727 2919.684 158.612 2919.684 197.468 2919.684 Z " fill="rgb(255,255,255)"/></clipPath><g clip-path="url(#_clipPath_Qij68XWm3aLJe5hO0JJNenVgA8zmvcfc)"><defs><filter id="xA0QU6QZSjh7SXFB7gNSPufQ5m334AVW" x="-200%" y="-200%" width="400%" height="400%"><feGaussianBlur xmlns="http://www.w3.org/2000/svg" stdDeviation="0.15424088"/></filter></defs><g opacity="0.3" filter="url(#xA0QU6QZSjh7SXFB7gNSPufQ5m334AVW)"><path d=" M 197.468 2919.684 L 236.323 2919.684 C 275.178 2919.684 279.064 2919.684 279.064 2878.16 L 279.064 2852.388 C 279.064 2810.865 275.178 2810.865 236.323 2810.865 L 197.468 2810.865 C 158.612 2810.865 154.727 2810.865 154.727 2852.388 L 154.727 2878.16 C 154.727 2919.684 158.612 2919.684 197.468 2919.684 Z " fill="none" vector-effect="non-scaling-stroke" stroke-width="2.173" stroke="rgb(0,0,0)" stroke-linejoin="miter" stroke-linecap="butt" stroke-miterlimit="4"/></g></g><linearGradient id="_lgradient_12" x1="46.08000470126824%" y1="99.8946599062613%" x2="46.08000470126824%" y2="-0.8584052302381906%"><stop offset="0%" stop-opacity="1" style="stop-color:rgb(208,208,208)"/><stop offset="100%" stop-opacity="1" style="stop-color:rgb(172,172,172)"/></linearGradient><path d=" M 199.049 2815.943 L 234.742 2815.943 C 270.434 2815.943 274.003 2815.943 274.003 2853.591 L 274.003 2876.958 C 274.003 2914.606 270.434 2914.606 234.742 2914.606 L 199.049 2914.606 C 163.356 2914.606 159.787 2914.606 159.787 2876.958 L 159.787 2853.591 C 159.787 2815.943 163.356 2815.943 199.049 2815.943 Z " fill="url(#_lgradient_12)"/><clipPath id="_clipPath_nD0ytd9Syp3vNfOsJbNPQjEOuRdemGVs"><path d=" M 199.049 2815.943 L 234.742 2815.943 C 270.434 2815.943 274.003 2815.943 274.003 2853.591 L 274.003 2876.958 C 274.003 2914.606 270.434 2914.606 234.742 2914.606 L 199.049 2914.606 C 163.356 2914.606 159.787 2914.606 159.787 2876.958 L 159.787 2853.591 C 159.787 2815.943 163.356 2815.943 199.049 2815.943 Z " fill="rgb(255,255,255)"/></clipPath><g clip-path="url(#_clipPath_nD0ytd9Syp3vNfOsJbNPQjEOuRdemGVs)"><defs><filter id="yBGpWcYZGGOrsMOBEaoe6xJTDy6g3bq8" x="-200%" y="-200%" width="400%" height="400%"><feGaussianBlur xmlns="http://www.w3.org/2000/svg" stdDeviation="1.1266305"/></filter></defs><g opacity="0.3" filter="url(#yBGpWcYZGGOrsMOBEaoe6xJTDy6g3bq8)"><path d=" M 199.049 2815.943 L 234.742 2815.943 C 270.434 2815.943 274.003 2815.943 274.003 2853.591 L 274.003 2876.958 C 274.003 2914.606 270.434 2914.606 234.742 2914.606 L 199.049 2914.606 C 163.356 2914.606 159.787 2914.606 159.787 2876.958 L 159.787 2853.591 C 159.787 2815.943 163.356 2815.943 199.049 2815.943 Z " fill="none" vector-effect="non-scaling-stroke" stroke-width="3.78" stroke="rgb(255,255,255)" stroke-linejoin="miter" stroke-linecap="butt" stroke-miterlimit="4"/></g></g><g opacity="0.1"><path d=" M 192.724 2815.943 C 162.922 2816.081 159.787 2818.304 159.787 2853.599 L 159.787 2876.95 C 159.787 2900.479 161.187 2909.302 170.947 2912.61 C 169.205 2911.997 167.784 2911.196 166.587 2910.139 C 164.075 2907.923 162.491 2904.496 161.617 2899.28 C 160.743 2894.065 160.555 2887.053 160.555 2877.652 L 160.555 2854.279 C 160.555 2844.878 160.743 2837.856 161.617 2832.651 C 162.491 2827.447 164.076 2824.107 166.587 2821.906 C 169.098 2819.704 172.62 2818.579 177.905 2818.006 C 183.189 2817.433 190.126 2817.417 199.049 2817.417 L 234.719 2817.417 C 243.642 2817.417 250.568 2817.433 255.864 2818.006 C 261.159 2818.579 264.791 2819.703 267.317 2821.906 C 269.842 2824.108 271.402 2827.448 272.287 2832.651 C 273.171 2837.855 273.348 2844.878 273.348 2854.279 L 273.348 2877.652 C 273.348 2887.053 273.171 2894.065 272.287 2899.28 C 271.402 2904.495 269.843 2907.922 267.317 2910.139 C 266.432 2910.915 265.424 2911.562 264.244 2912.089 C 272.738 2908.4 274.003 2899.303 274.003 2876.95 L 274.003 2853.599 C 274.003 2815.951 270.434 2815.943 234.742 2815.943 L 199.049 2815.943 C 196.818 2815.943 194.711 2815.934 192.724 2815.943 Z " fill="rgb(255,255,255)"/></g><g opacity="0.3"><path d=" M 192.724 2815.943 C 164.692 2816.073 160.261 2818.077 159.832 2847.682 C 160.355 2816.661 165.587 2816.669 199.049 2816.669 L 234.742 2816.669 C 268.203 2816.669 273.435 2816.661 273.958 2847.682 C 273.499 2815.979 268.447 2815.943 234.742 2815.943 L 199.049 2815.943 C 196.818 2815.943 194.711 2815.934 192.724 2815.943 Z " fill="rgb(255,255,255)"/></g><defs><filter id="NRKB4BN2UJViexiUsFDOjd8Oi7aGStJa" x="-200%" y="-200%" width="400%" height="400%"><feGaussianBlur xmlns="http://www.w3.org/2000/svg" stdDeviation="2.5070502"/></filter></defs><g opacity="0.5" filter="url(#NRKB4BN2UJViexiUsFDOjd8Oi7aGStJa)"><path d=" M 83.582 191.338 C 83.121 190.416 82.555 189.39 81.884 188.259 C 81.213 187.127 80.479 185.976 79.683 184.803 C 78.886 183.588 78.069 182.394 77.23 181.221 C 76.391 180.048 75.574 178.937 74.777 177.89 C 73.98 178.938 73.163 180.068 72.324 181.284 C 71.486 182.457 70.668 183.651 69.871 184.866 C 69.117 186.038 68.404 187.19 67.733 188.321 C 67.062 189.453 66.496 190.458 66.035 191.338 L 59.997 191.338 C 61.465 188.489 63.205 185.598 65.217 182.666 C 67.272 179.692 69.305 176.864 71.318 174.183 L 60.5 158.662 L 67.104 158.662 L 74.903 170.098 L 82.765 158.662 L 88.991 158.662 L 78.425 173.806 C 80.438 176.529 82.492 179.419 84.588 182.477 C 86.727 185.494 88.53 188.447 89.997 191.338 L 83.582 191.338 Z " fill="rgb(255,255,255)" vector-effect="non-scaling-stroke" stroke-width="1" stroke="rgb(255,255,255)" stroke-linejoin="miter" stroke-linecap="butt" stroke-miterlimit="4"/></g><path d=" M 83.582 190.338 C 83.121 189.416 82.555 188.39 81.884 187.259 C 81.213 186.127 80.479 184.976 79.683 183.803 C 78.886 182.588 78.068 181.394 77.23 180.221 C 76.391 179.048 75.574 177.937 74.777 176.89 C 73.98 177.938 73.163 179.068 72.324 180.284 C 71.486 181.457 70.668 182.651 69.871 183.866 C 69.117 185.038 68.404 186.19 67.733 187.321 C 67.062 188.453 66.496 189.458 66.035 190.338 L 59.997 190.338 C 61.465 187.489 63.205 184.598 65.217 181.666 C 67.272 178.692 69.305 175.864 71.318 173.183 L 60.5 157.662 L 67.104 157.662 L 74.903 169.098 L 82.765 157.662 L 88.991 157.662 L 78.425 172.806 C 80.437 175.529 82.492 178.42 84.588 181.477 C 86.727 184.494 88.53 187.447 89.997 190.338 L 83.582 190.338" fill="rgb(51,51,51)"/><defs><filter id="kjodvmYXKpekF5UXeG796bBs7U36WjIl" x="-200%" y="-200%" width="400%" height="400%"><feGaussianBlur xmlns="http://www.w3.org/2000/svg" stdDeviation="2.68"/></filter></defs><g opacity="0.6" filter="url(#kjodvmYXKpekF5UXeG796bBs7U36WjIl)"><path d=" M 71.353 57.838 L 71.353 73.695 L 59 73.695 L 59 78.981 L 71.353 78.981 L 71.353 94.838 L 76.647 94.838 L 76.647 78.981 L 89 78.981 L 89 73.695 L 76.647 73.695 L 76.647 57.838 L 71.353 57.838 Z " fill="rgb(255,255,255)" vector-effect="non-scaling-stroke" stroke-width="1" stroke="rgb(255,255,255)" stroke-linejoin="miter" stroke-linecap="butt" stroke-miterlimit="4"/></g><path d=" M 71.353 56.838 L 71.353 72.695 L 59 72.695 L 59 77.981 L 71.353 77.981 L 71.353 93.838 L 76.647 93.838 L 76.647 77.981 L 89 77.981 L 89 72.695 L 76.647 72.695 L 76.647 56.838 L 71.353 56.838 Z " fill="rgb(51,51,51)"/><defs><filter id="ikb4ejGXbUNcwmXsLfPGldwC7UFwWzk1" x="-200%" y="-200%" width="400%" height="400%"><feGaussianBlur xmlns="http://www.w3.org/2000/svg" stdDeviation="2.4"/></filter></defs><g opacity="0.2" filter="url(#ikb4ejGXbUNcwmXsLfPGldwC7UFwWzk1)"><path d=" M 162.5 162.838 L 162.5 168.338 L 199.5 168.338 L 199.5 162.838 L 162.5 162.838 Z  M 162.5 180.338 L 162.5 185.838 L 199.5 185.838 L 199.5 180.338 L 162.5 180.338 Z " fill="rgb(255,255,255)" vector-effect="non-scaling-stroke" stroke-width="1" stroke="rgb(255,255,255)" stroke-linejoin="miter" stroke-linecap="butt" stroke-miterlimit="4"/></g><path d=" M 162.5 161.838 L 162.5 167.338 L 199.5 167.338 L 199.5 161.838 L 162.5 161.838 Z  M 162.5 179.338 L 162.5 184.838 L 199.5 184.838 L 199.5 179.338 L 162.5 179.338 Z " fill="rgb(47,111,131)"/><clipPath id="_clipPath_DA829ihJ07wZTlDbF3qRURg2sFkImbZ2"><path d=" M 71.353 56.838 L 71.353 72.695 L 59 72.695 L 59 77.981 L 71.353 77.981 L 71.353 93.838 L 76.647 93.838 L 76.647 77.981 L 89 77.981 L 89 72.695 L 76.647 72.695 L 76.647 56.838 L 71.353 56.838 Z " fill="rgb(255,255,255)"/></clipPath><g clip-path="url(#_clipPath_DA829ihJ07wZTlDbF3qRURg2sFkImbZ2)"><defs><filter id="weBhhXCkED7Dd8OZK14m9QAJMuNNlBN1" x="-200%" y="-200%" width="400%" height="400%"><feGaussianBlur xmlns="http://www.w3.org/2000/svg" stdDeviation="0.67"/></filter></defs><g opacity="0.6" filter="url(#weBhhXCkED7Dd8OZK14m9QAJMuNNlBN1)"><path d=" M 71.353 57.088 L 71.353 72.945 L 59 72.945 L 59 78.231 L 71.353 78.231 L 71.353 94.088 L 76.647 94.088 L 76.647 78.231 L 89 78.231 L 89 72.945 L 76.647 72.945 L 76.647 57.088 L 71.353 57.088 Z " fill="none" vector-effect="non-scaling-stroke" stroke-width="0.5" stroke="rgb(0,0,0)" stroke-linejoin="miter" stroke-linecap="butt" stroke-miterlimit="4"/></g></g><defs><filter id="JrWxGjvrfMQ0aVdX27qCPNw7g190rlRt" x="-200%" y="-200%" width="400%" height="400%"><feGaussianBlur xmlns="http://www.w3.org/2000/svg" stdDeviation="1.42"/></filter></defs><g opacity="0.5" filter="url(#JrWxGjvrfMQ0aVdX27qCPNw7g190rlRt)"><path d=" M 166 73.338 L 166 78.838 L 196 78.838 L 196 73.338 L 166 73.338 Z " fill="rgb(255,255,255)" vector-effect="non-scaling-stroke" stroke-width="1" stroke="rgb(255,255,255)" stroke-linejoin="miter" stroke-linecap="butt" stroke-miterlimit="4"/></g><path d=" M 166 72.338 L 166 77.838 L 196 77.838 L 196 72.338 L 166 72.338 Z " fill="rgb(51,51,51)"/><clipPath id="_clipPath_ctd9Mt6xSqXks5wNcgwSen6GYzK3TOrt"><path d=" M 83.582 190.338 C 83.121 189.416 82.555 188.39 81.884 187.259 C 81.213 186.127 80.479 184.976 79.683 183.803 C 78.886 182.588 78.069 181.394 77.23 180.221 C 76.391 179.048 75.574 177.937 74.777 176.89 C 73.98 177.938 73.163 179.068 72.324 180.284 C 71.486 181.457 70.668 182.651 69.871 183.866 C 69.117 185.038 68.404 186.19 67.733 187.321 C 67.062 188.453 66.496 189.458 66.035 190.338 L 59.997 190.338 C 61.465 187.489 63.205 184.598 65.217 181.666 C 67.272 178.692 69.305 175.864 71.318 173.183 L 60.5 157.662 L 67.104 157.662 L 74.903 169.098 L 82.765 157.662 L 88.991 157.662 L 78.425 172.806 C 80.438 175.529 82.492 178.419 84.588 181.477 C 86.727 184.494 88.53 187.447 89.997 190.338 L 83.582 190.338 Z " fill="rgb(255,255,255)"/></clipPath><g clip-path="url(#_clipPath_ctd9Mt6xSqXks5wNcgwSen6GYzK3TOrt)"><defs><filter id="Cc9V3MQ2ODufnpXRItSz69LymoAKfWcQ" x="-200%" y="-200%" width="400%" height="400%"><feGaussianBlur xmlns="http://www.w3.org/2000/svg" stdDeviation="0.62676255"/></filter></defs><g filter="url(#Cc9V3MQ2ODufnpXRItSz69LymoAKfWcQ)"><path d=" M 83.582 190.588 C 83.121 189.666 82.555 188.64 81.884 187.509 C 81.213 186.377 80.479 185.226 79.683 184.053 C 78.886 182.838 78.069 181.644 77.23 180.471 C 76.391 179.298 75.574 178.187 74.777 177.14 C 73.98 178.188 73.163 179.318 72.324 180.534 C 71.486 181.707 70.668 182.901 69.871 184.116 C 69.117 185.288 68.404 186.44 67.733 187.571 C 67.062 188.703 66.496 189.708 66.035 190.588 L 59.997 190.588 C 61.465 187.739 63.205 184.848 65.217 181.916 C 67.272 178.942 69.305 176.114 71.318 173.433 L 60.5 157.912 L 67.104 157.912 L 74.903 169.348 L 82.765 157.912 L 88.991 157.912 L 78.425 173.056 C 80.438 175.779 82.492 178.669 84.588 181.727 C 86.727 184.744 88.53 187.697 89.997 190.588 L 83.582 190.588 Z " fill="none" vector-effect="non-scaling-stroke" stroke-width="0.5" stroke="rgb(0,0,0)" stroke-linejoin="miter" stroke-linecap="butt" stroke-miterlimit="4"/></g></g><clipPath id="_clipPath_X2eT63BNUPR2zo7I0GcHNwi45uwLcNHq"><path d=" M 162.5 161.838 L 162.5 167.338 L 199.5 167.338 L 199.5 161.838 L 162.5 161.838 Z  M 162.5 179.338 L 162.5 184.838 L 199.5 184.838 L 199.5 179.338 L 162.5 179.338 Z " fill="rgb(255,255,255)"/></clipPath><g clip-path="url(#_clipPath_X2eT63BNUPR2zo7I0GcHNwi45uwLcNHq)"><defs><filter id="N5tUHjeWMDb3P3dBhub2NzNwiAUGsNyC" x="-200%" y="-200%" width="400%" height="400%"><feGaussianBlur xmlns="http://www.w3.org/2000/svg" stdDeviation="0.6"/></filter></defs><g filter="url(#N5tUHjeWMDb3P3dBhub2NzNwiAUGsNyC)"><path d=" M 162.5 162.088 L 162.5 167.588 L 199.5 167.588 L 199.5 162.088 L 162.5 162.088 Z  M 162.5 179.588 L 162.5 185.088 L 199.5 185.088 L 199.5 179.588 L 162.5 179.588 Z " fill="none" vector-effect="non-scaling-stroke" stroke-width="0.5" stroke="rgb(0,0,0)" stroke-linejoin="miter" stroke-linecap="butt" stroke-miterlimit="4"/></g></g><clipPath id="_clipPath_vK26aQIGZ28Bx9CyRUZRCmpb08o0mUbI"><path d=" M 166 72.338 L 166 77.838 L 196 77.838 L 196 72.338 L 166 72.338 Z " fill="rgb(255,255,255)"/></clipPath><g clip-path="url(#_clipPath_vK26aQIGZ28Bx9CyRUZRCmpb08o0mUbI)"><defs><filter id="8jWbO1hX78L8wB2UL7V0jepJ0kzRsq06" x="-200%" y="-200%" width="400%" height="400%"><feGaussianBlur xmlns="http://www.w3.org/2000/svg" stdDeviation="0.355"/></filter></defs><g filter="url(#8jWbO1hX78L8wB2UL7V0jepJ0kzRsq06)"><path d=" M 166 72.588 L 166 78.088 L 196 78.088 L 196 72.588 L 166 72.588 Z " fill="none" vector-effect="non-scaling-stroke" stroke-width="0.5" stroke="rgb(0,0,0)" stroke-linejoin="miter" stroke-linecap="butt" stroke-miterlimit="4"/></g></g></g></svg>