<?xml version="1.0" encoding="UTF-8" standalone="no"?>
<!-- Generator: Gravit.io -->

<svg
   xmlns:dc="http://purl.org/dc/elements/1.1/"
   xmlns:cc="http://creativecommons.org/ns#"
   xmlns:rdf="http://www.w3.org/1999/02/22-rdf-syntax-ns#"
   xmlns:svg="http://www.w3.org/2000/svg"
   xmlns="http://www.w3.org/2000/svg"
   xmlns:sodipodi="http://sodipodi.sourceforge.net/DTD/sodipodi-0.dtd"
   xmlns:inkscape="http://www.inkscape.org/namespaces/inkscape"
   style="isolation:isolate"
   viewBox="0 0 256 256"
   width="256"
   height="256"
   version="1.1"
   id="svg73"
   sodipodi:docname="cerebro.svg"
   inkscape:version="0.92.2pre0 (973e216, 2017-07-25)">
  <metadata
     id="metadata77">
    <rdf:RDF>
      <cc:Work
         rdf:about="">
        <dc:format>image/svg+xml</dc:format>
        <dc:type
           rdf:resource="http://purl.org/dc/dcmitype/StillImage" />
      </cc:Work>
    </rdf:RDF>
  </metadata>
  <sodipodi:namedview
     pagecolor="#ffffff"
     bordercolor="#666666"
     borderopacity="1"
     objecttolerance="10"
     gridtolerance="10"
     guidetolerance="10"
     inkscape:pageopacity="0"
     inkscape:pageshadow="2"
     inkscape:window-width="1920"
     inkscape:window-height="960"
     id="namedview75"
     showgrid="false"
     inkscape:zoom="0.921875"
     inkscape:cx="128"
     inkscape:cy="128"
     inkscape:window-x="0"
     inkscape:window-y="27"
     inkscape:window-maximized="1"
     inkscape:current-layer="icon" />
  <defs
     id="defs5">
    <clipPath
       id="_clipPath_LSDGeeUnNO9vs76PLX00kbwZUae8wL3v">
      <rect
         width="256"
         height="256"
         id="rect2" />
    </clipPath>
  </defs>
  <g
     clip-path="url(#_clipPath_LSDGeeUnNO9vs76PLX00kbwZUae8wL3v)"
     id="g71">
    <g
       id="icon">
      <g
         id="drop shadow">
        <defs
           id="defs12">
          <filter
             id="c35ujclBmslJk6SL1z2KVlDfwO9lQg46"
             x="-200%"
             y="-200%"
             width="400%"
             height="400%">
            <feGaussianBlur
               stdDeviation="2.32"
               id="feGaussianBlur9" />
          </filter>
        </defs>
        <g
           opacity="0.2"
           filter="url(#c35ujclBmslJk6SL1z2KVlDfwO9lQg46)"
           id="g16">
          <path
             d=" M 165.685 15.849 C 239.741 15.849 250.325 26.407 250.325 100.394 L 250.325 159.645 C 250.325 233.632 239.741 244.189 165.685 244.189 L 90.315 244.189 C 16.259 244.189 5.675 233.632 5.675 159.645 L 5.675 100.394 C 5.675 26.407 16.259 15.849 90.315 15.849 L 165.685 15.849 Z "
             fill="rgb(0,0,0)"
             id="path14" />
        </g>
        <defs
           id="defs21">
          <filter
             id="d0vEQsCpBDmC4nekNYDNjX18lzf9LfEV"
             x="-200%"
             y="-200%"
             width="400%"
             height="400%">
            <feGaussianBlur
               stdDeviation="1.16"
               id="feGaussianBlur18" />
          </filter>
        </defs>
        <g
           opacity="0.1"
           filter="url(#d0vEQsCpBDmC4nekNYDNjX18lzf9LfEV)"
           id="g25">
          <path
             d=" M 165.685 14.83 C 239.741 14.83 250.325 25.387 250.325 99.374 L 250.325 158.626 C 250.325 232.612 239.741 243.17 165.685 243.17 L 90.315 243.17 C 16.259 243.17 5.675 232.612 5.675 158.626 L 5.675 99.374 C 5.675 25.387 16.259 14.83 90.315 14.83 L 165.685 14.83 Z "
             fill="rgb(0,0,0)"
             id="path23" />
        </g>
      </g>
      <path
         d=" M 165.685 13.811 C 239.741 13.811 250.325 24.368 250.325 98.355 L 250.325 157.606 C 250.325 231.593 239.741 242.151 165.685 242.151 L 90.315 242.151 C 16.259 242.151 5.675 231.593 5.675 157.606 L 5.675 98.355 C 5.675 24.368 16.259 13.811 90.315 13.811 L 165.685 13.811 Z "
         fill="rgb(255,255,255)"
         id="path28" />
      <clipPath
         id="_clipPath_ReES6meVIxAFCEVHWbCjoJQxGnaMeACL">
        <path
           d=" M 165.685 13.811 C 239.741 13.811 250.325 24.368 250.325 98.355 L 250.325 157.606 C 250.325 231.593 239.741 242.151 165.685 242.151 L 90.315 242.151 C 16.259 242.151 5.675 231.593 5.675 157.606 L 5.675 98.355 C 5.675 24.368 16.259 13.811 90.315 13.811 L 165.685 13.811 Z "
           fill="rgb(255,255,255)"
           id="path30" />
      </clipPath>
      <g
         clip-path="url(#_clipPath_ReES6meVIxAFCEVHWbCjoJQxGnaMeACL)"
         id="g49">
        <path
           d=" M 165.685 13.811 C 239.741 13.811 250.325 24.368 250.325 98.355 L 250.325 157.606 C 250.325 231.593 239.741 242.151 165.685 242.151 L 90.315 242.151 C 16.259 242.151 5.675 231.593 5.675 157.606 L 5.675 98.355 C 5.675 24.368 16.259 13.811 90.315 13.811 L 165.685 13.811 Z "
           fill="rgb(167,167,241)"
           id="path33"
           style="fill:#abcbd5;fill-opacity:1" />
        <g
           id="holds">
          <g
             opacity="0.1"
             id="g37">
            <rect
               x="88.225"
               y="12.997"
               width="81.549"
               height="228.338"
               transform="matrix(1,0,0,1,0,0)"
               fill="rgb(255,255,255)"
               id="rect35" />
          </g>
          <g
             opacity="0.1"
             id="g41">
            <path
               d=" M 6.676 127.167 L 6.676 156.792 C 6.676 230.778 17.26 241.336 91.315 241.336 L 166.685 241.336 C 240.74 241.336 251.324 230.778 251.324 156.792 L 251.324 127.167 L 6.676 127.167 Z "
               fill="rgb(255,255,255)"
               id="path39" />
          </g>
        </g>
        <g
           id="Group">
          <path
             d=" M 64.342 87.471 L 130.894 46.961 L 191.658 84.577 L 182.977 101.939 L 130.894 70.11 L 81.703 99.045 L 81.703 156.916 L 130.894 185.852 L 182.977 153.444 L 191.658 171.384 L 130.894 209 L 64.342 168.49 L 64.342 87.471 Z "
             fill="rgb(74,74,74)"
             id="path44" />
          <path
             d=" M 93.277 107.726 L 130.894 85.156 L 161.276 103.385 L 151.148 122.194 L 130.894 108.883 L 116.426 117.564 L 116.426 138.397 L 130.894 147.078 L 151.148 133.768 L 161.276 152.576 L 130.894 170.805 L 93.277 147.657 L 93.277 107.726 Z "
             fill="rgb(127,88,201)"
             id="path46"
             style="fill:#457c8c;fill-opacity:1" />
        </g>
      </g>
      <g
         id="highlight">
        <clipPath
           id="_clipPath_6T2oehd3tolMF9ByXR25okvDbqaiiRti">
          <path
             d=" M 165.685 13.811 C 239.741 13.811 250.325 24.368 250.325 98.355 L 250.325 157.606 C 250.325 231.593 239.741 242.151 165.685 242.151 L 90.315 242.151 C 16.259 242.151 5.675 231.593 5.675 157.606 L 5.675 98.355 C 5.675 24.368 16.259 13.811 90.315 13.811 L 165.685 13.811 Z "
             fill="rgb(255,255,255)"
             id="path51" />
        </clipPath>
        <g
           clip-path="url(#_clipPath_6T2oehd3tolMF9ByXR25okvDbqaiiRti)"
           id="g67">
          <g
             opacity="0.4"
             id="g65">
            <linearGradient
               id="_lgradient_19"
               x1="51.666666666666686%"
               y1="0%"
               x2="51.66666666666666%"
               y2="100.00000000000003%">
              <stop
                 offset="0%"
                 stop-opacity="1"
                 style="stop-color:rgb(255,255,255)"
                 id="stop54" />
              <stop
                 offset="12.5%"
                 stop-opacity="0.09803922"
                 style="stop-color:rgb(255,255,255)"
                 id="stop56" />
              <stop
                 offset="92.500001%"
                 stop-opacity="0.09803922"
                 style="stop-color:rgb(0,0,0)"
                 id="stop58" />
              <stop
                 offset="100%"
                 stop-opacity="0.49803922"
                 style="stop-color:rgb(0,0,0)"
                 id="stop60" />
            </linearGradient>
            <path
               d=" M 165.685 13.811 C 239.741 13.811 250.325 24.368 250.325 98.355 L 250.325 157.606 C 250.325 231.593 239.741 242.151 165.685 242.151 L 90.315 242.151 C 16.259 242.151 5.675 231.593 5.675 157.606 L 5.675 98.355 C 5.675 24.368 16.259 13.811 90.315 13.811 L 165.685 13.811 Z "
               fill="none"
               vector-effect="non-scaling-stroke"
               stroke-width="4"
               stroke="url(#_lgradient_19)"
               stroke-linejoin="round"
               stroke-linecap="round"
               stroke-miterlimit="4"
               id="path63" />
          </g>
        </g>
      </g>
    </g>
  </g>
</svg>
