<?xml version="1.0" encoding="UTF-8" standalone="no"?>
<!-- Generator: Gravit.io -->

<svg
   xmlns:dc="http://purl.org/dc/elements/1.1/"
   xmlns:cc="http://creativecommons.org/ns#"
   xmlns:rdf="http://www.w3.org/1999/02/22-rdf-syntax-ns#"
   xmlns:svg="http://www.w3.org/2000/svg"
   xmlns="http://www.w3.org/2000/svg"
   xmlns:sodipodi="http://sodipodi.sourceforge.net/DTD/sodipodi-0.dtd"
   xmlns:inkscape="http://www.inkscape.org/namespaces/inkscape"
   style="isolation:isolate"
   viewBox="0 0 256 256"
   width="256"
   height="256"
   version="1.1"
   id="svg84"
   sodipodi:docname="dde-introduction.svg"
   inkscape:version="0.92.2pre0 (973e216, 2017-07-25)">
  <metadata
     id="metadata88">
    <rdf:RDF>
      <cc:Work
         rdf:about="">
        <dc:format>image/svg+xml</dc:format>
        <dc:type
           rdf:resource="http://purl.org/dc/dcmitype/StillImage" />
      </cc:Work>
    </rdf:RDF>
  </metadata>
  <sodipodi:namedview
     pagecolor="#ffffff"
     bordercolor="#666666"
     borderopacity="1"
     objecttolerance="10"
     gridtolerance="10"
     guidetolerance="10"
     inkscape:pageopacity="0"
     inkscape:pageshadow="2"
     inkscape:window-width="1920"
     inkscape:window-height="960"
     id="namedview86"
     showgrid="false"
     inkscape:zoom="0.921875"
     inkscape:cx="128"
     inkscape:cy="128"
     inkscape:window-x="0"
     inkscape:window-y="27"
     inkscape:window-maximized="1"
     inkscape:current-layer="dde_96" />
  <defs
     id="defs5">
    <clipPath
       id="_clipPath_LwIvYBBizuMYKc8bRUuyjjASpIzegk3x">
      <rect
         width="256"
         height="256"
         id="rect2" />
    </clipPath>
  </defs>
  <g
     clip-path="url(#_clipPath_LwIvYBBizuMYKc8bRUuyjjASpIzegk3x)"
     id="g82">
    <g
       id="icon">
      <g
         id="drop shadow">
        <defs
           id="defs12">
          <filter
             id="sPMUm5CKpSCpZToMmiqm68ua3kAch3Ut"
             x="-200%"
             y="-200%"
             width="400%"
             height="400%">
            <feGaussianBlur
               stdDeviation="2.32"
               id="feGaussianBlur9" />
          </filter>
        </defs>
        <g
           opacity="0.2"
           filter="url(#sPMUm5CKpSCpZToMmiqm68ua3kAch3Ut)"
           id="g16">
          <path
             d=" M 165.352 16.516 C 239.408 16.516 249.992 27.073 249.992 101.06 L 249.992 160.312 C 249.992 234.298 239.408 244.856 165.352 244.856 L 89.982 244.856 C 15.925 244.856 5.342 234.298 5.342 160.312 L 5.342 101.06 C 5.342 27.073 15.925 16.516 89.982 16.516 L 165.352 16.516 Z "
             fill="rgb(0,0,0)"
             id="path14" />
        </g>
        <defs
           id="defs21">
          <filter
             id="hba77iYwkynGH7ORdPRbdXgBuYAvu9CY"
             x="-200%"
             y="-200%"
             width="400%"
             height="400%">
            <feGaussianBlur
               stdDeviation="1.16"
               id="feGaussianBlur18" />
          </filter>
        </defs>
        <g
           opacity="0.1"
           filter="url(#hba77iYwkynGH7ORdPRbdXgBuYAvu9CY)"
           id="g25">
          <path
             d=" M 165.352 15.497 C 239.408 15.497 249.992 26.054 249.992 100.041 L 249.992 159.292 C 249.992 233.279 239.408 243.837 165.352 243.837 L 89.982 243.837 C 15.925 243.837 5.342 233.279 5.342 159.292 L 5.342 100.041 C 5.342 26.054 15.925 15.497 89.982 15.497 L 165.352 15.497 Z "
             fill="rgb(0,0,0)"
             id="path23" />
        </g>
      </g>
      <path
         d=" M 165.352 14.477 C 239.408 14.477 249.992 25.035 249.992 99.022 L 249.992 158.273 C 249.992 232.26 239.408 242.817 165.352 242.817 L 89.982 242.817 C 15.925 242.817 5.342 232.26 5.342 158.273 L 5.342 99.022 C 5.342 25.035 15.925 14.477 89.982 14.477 L 165.352 14.477 Z "
         fill="rgb(255,255,255)"
         id="path28" />
      <clipPath
         id="_clipPath_XfnV22mb4rdDaJCRjBj9Ojgp0oqb2fpS">
        <path
           d=" M 165.352 14.477 C 239.408 14.477 249.992 25.035 249.992 99.022 L 249.992 158.273 C 249.992 232.26 239.408 242.817 165.352 242.817 L 89.982 242.817 C 15.925 242.817 5.342 232.26 5.342 158.273 L 5.342 99.022 C 5.342 25.035 15.925 14.477 89.982 14.477 L 165.352 14.477 Z "
           fill="rgb(255,255,255)"
           id="path30" />
      </clipPath>
      <g
         clip-path="url(#_clipPath_XfnV22mb4rdDaJCRjBj9Ojgp0oqb2fpS)"
         id="g44">
        <path
           d=" M 165.352 14.477 C 239.408 14.477 249.992 25.035 249.992 99.022 L 249.992 158.273 C 249.992 232.26 239.408 242.817 165.352 242.817 L 89.982 242.817 C 15.925 242.817 5.342 232.26 5.342 158.273 L 5.342 99.022 C 5.342 25.035 15.925 14.477 89.982 14.477 L 165.352 14.477 Z "
           fill="rgb(55,166,230)"
           id="path33"
           style="fill:#67a2b4;fill-opacity:1" />
        <g
           id="holds">
          <g
             opacity="0.1"
             id="g37">
            <rect
               x="87.892"
               y="13.664"
               width="81.549"
               height="228.338"
               transform="matrix(1,0,0,1,0,0)"
               fill="rgb(255,255,255)"
               id="rect35" />
          </g>
          <g
             opacity="0.1"
             id="g41">
            <path
               d=" M 6.343 127.833 L 6.343 157.459 C 6.343 231.445 16.926 242.003 90.982 242.003 L 166.351 242.003 C 240.407 242.003 250.991 231.445 250.991 157.459 L 250.991 127.833 L 6.343 127.833 Z "
               fill="rgb(255,255,255)"
               id="path39" />
          </g>
        </g>
      </g>
      <g
         id="highlight">
        <clipPath
           id="_clipPath_vxTlpcBI21BRsawWzBNgezizT74X2mgc">
          <path
             d=" M 165.352 14.477 C 239.408 14.477 249.992 25.035 249.992 99.022 L 249.992 158.273 C 249.992 232.26 239.408 242.817 165.352 242.817 L 89.982 242.817 C 15.925 242.817 5.342 232.26 5.342 158.273 L 5.342 99.022 C 5.342 25.035 15.925 14.477 89.982 14.477 L 165.352 14.477 Z "
             fill="rgb(255,255,255)"
             id="path46" />
        </clipPath>
        <g
           clip-path="url(#_clipPath_vxTlpcBI21BRsawWzBNgezizT74X2mgc)"
           id="g62">
          <g
             opacity="0.4"
             id="g60">
            <linearGradient
               id="_lgradient_31"
               x1="51.666666666666686%"
               y1="0%"
               x2="51.66666666666666%"
               y2="100.00000000000003%">
              <stop
                 offset="0%"
                 stop-opacity="1"
                 style="stop-color:rgb(255,255,255)"
                 id="stop49" />
              <stop
                 offset="12.5%"
                 stop-opacity="0.09803922"
                 style="stop-color:rgb(255,255,255)"
                 id="stop51" />
              <stop
                 offset="92.500001%"
                 stop-opacity="0.09803922"
                 style="stop-color:rgb(0,0,0)"
                 id="stop53" />
              <stop
                 offset="100%"
                 stop-opacity="0.49803922"
                 style="stop-color:rgb(0,0,0)"
                 id="stop55" />
            </linearGradient>
            <path
               d=" M 165.352 14.477 C 239.408 14.477 249.992 25.035 249.992 99.022 L 249.992 158.273 C 249.992 232.26 239.408 242.817 165.352 242.817 L 89.982 242.817 C 15.925 242.817 5.342 232.26 5.342 158.273 L 5.342 99.022 C 5.342 25.035 15.925 14.477 89.982 14.477 L 165.352 14.477 Z "
               fill="none"
               vector-effect="non-scaling-stroke"
               stroke-width="4"
               stroke="url(#_lgradient_31)"
               stroke-linejoin="round"
               stroke-linecap="round"
               stroke-miterlimit="4"
               id="path58" />
          </g>
        </g>
      </g>
    </g>
    <g
       id="deepin-system">
      <g
         id="dde_96">
        <g
           id="Oval">
          <path
             d=" M 45.5 128 C 45.5 82.467 82.467 45.5 128 45.5 C 173.533 45.5 210.5 82.467 210.5 128 C 210.5 173.533 173.533 210.5 128 210.5 C 82.467 210.5 45.5 173.533 45.5 128 Z "
             fill="rgb(0,0,0)"
             id="path66" />
          <path
             d=" M 45.5 128 C 45.5 82.467 82.467 45.5 128 45.5 C 173.533 45.5 210.5 82.467 210.5 128 C 210.5 173.533 173.533 210.5 128 210.5 C 82.467 210.5 45.5 173.533 45.5 128 Z "
             fill="rgb(0,0,0)"
             id="path68" />
        </g>
        <path
           d=" M 45.5 128 C 45.5 82.467 82.467 45.5 128 45.5 C 173.533 45.5 210.5 82.467 210.5 128 C 210.5 173.533 173.533 210.5 128 210.5 C 82.467 210.5 45.5 173.533 45.5 128 Z "
           fill="rgb(255,255,255)"
           id="path71" />
        <linearGradient
           id="_lgradient_32"
           x1="0%"
           y1="50%"
           x2="6.123233995736766e-15%"
           y2="150%">
          <stop
             offset="0%"
             stop-opacity="1"
             style="stop-color:rgb(7,179,255)"
             id="stop73" />
          <stop
             offset="100%"
             stop-opacity="1"
             style="stop-color:rgb(0,125,232)"
             id="stop75" />
        </linearGradient>
        <path
           d=" M 157.629 62.988 C 148.603 58.867 138.57 56.571 128 56.571 C 125.029 56.571 122.1 56.753 119.225 57.105 C 108.596 71.807 103.088 95.681 103.527 110.306 C 103.527 110.306 102.825 132.038 117.721 139.746 C 117.721 139.746 131.109 145.616 140.232 126.635 C 140.232 126.635 146.502 115.924 143.95 91.715 C 143.95 91.715 146.392 92.145 146.668 92.531 C 146.944 92.914 152.061 111.169 148.466 126.542 C 148.466 126.542 145.155 144.607 128.881 148.738 C 112.614 152.87 99.935 142.874 91.327 133.459 C 84.939 126.472 75.466 107.748 70.761 85.266 C 61.849 97.184 56.571 111.977 56.571 128.003 C 56.571 139.125 59.113 149.653 63.648 159.039 C 79.265 163.682 119.699 172.973 145.371 154.158 C 162.274 141.767 160.097 121.925 160.097 121.925 C 159.817 106.832 150.628 91.839 150.628 91.839 C 186.359 124.164 165.24 160.075 165.24 160.075 C 155.435 180.102 135.308 192.93 117.662 198.689 C 121.037 199.179 124.489 199.432 128 199.432 C 167.449 199.432 199.429 167.453 199.429 128.003 C 199.429 111.069 193.536 95.511 183.689 83.268 C 180.183 83.51 176.105 83.653 171.873 83.514 C 171.873 83.514 152.862 84.402 142.202 89.719 C 142.202 89.719 134.253 93.264 126.307 99.274 C 126.307 99.274 124.62 100.117 124.702 103.214 C 124.774 106.302 123.084 114.535 117.454 119.36 C 117.454 119.36 113.435 121.426 115.445 124.383 C 115.445 124.383 118.158 128.324 121.981 124.185 C 121.981 124.185 131.839 114.043 132.442 97.699 C 132.442 97.699 135.561 95.036 140.486 94.251 C 140.486 94.251 141.393 118.769 129.226 131.08 C 129.226 131.08 117.653 143.684 113.934 124.974 C 113.934 124.974 109.407 107.149 132.746 85.98 C 132.746 85.98 148.369 70.377 157.629 62.988 Z  M 128 206.575 C 84.606 206.575 49.429 171.397 49.429 128.003 C 49.429 84.609 84.607 49.429 128 49.429 C 171.394 49.429 206.572 84.609 206.572 128.003 C 206.572 171.397 171.394 206.575 128 206.575 Z "
           fill="url(#_lgradient_32)"
           id="path78"
           style="fill:#67a2b4;fill-opacity:1" />
      </g>
    </g>
  </g>
</svg>
