<?xml version="1.0" encoding="UTF-8" standalone="no"?>
<!-- Generator: Gravit.io -->

<svg
   xmlns:dc="http://purl.org/dc/elements/1.1/"
   xmlns:cc="http://creativecommons.org/ns#"
   xmlns:rdf="http://www.w3.org/1999/02/22-rdf-syntax-ns#"
   xmlns:svg="http://www.w3.org/2000/svg"
   xmlns="http://www.w3.org/2000/svg"
   xmlns:sodipodi="http://sodipodi.sourceforge.net/DTD/sodipodi-0.dtd"
   xmlns:inkscape="http://www.inkscape.org/namespaces/inkscape"
   style="isolation:isolate"
   viewBox="0 0 256 256"
   width="256"
   height="256"
   version="1.1"
   id="svg72"
   sodipodi:docname="deepin-terminal.svg"
   inkscape:version="0.92.2pre0 (973e216, 2017-07-25)">
  <metadata
     id="metadata76">
    <rdf:RDF>
      <cc:Work
         rdf:about="">
        <dc:format>image/svg+xml</dc:format>
        <dc:type
           rdf:resource="http://purl.org/dc/dcmitype/StillImage" />
      </cc:Work>
    </rdf:RDF>
  </metadata>
  <sodipodi:namedview
     pagecolor="#ffffff"
     bordercolor="#666666"
     borderopacity="1"
     objecttolerance="10"
     gridtolerance="10"
     guidetolerance="10"
     inkscape:pageopacity="0"
     inkscape:pageshadow="2"
     inkscape:window-width="1920"
     inkscape:window-height="960"
     id="namedview74"
     showgrid="false"
     inkscape:zoom="2.6074563"
     inkscape:cx="128"
     inkscape:cy="128"
     inkscape:window-x="0"
     inkscape:window-y="27"
     inkscape:window-maximized="1"
     inkscape:current-layer="Group" />
  <defs
     id="defs5">
    <clipPath
       id="_clipPath_ssh4u0vgASR2tN5BDrdWZzoPZg5Bize9">
      <rect
         width="256"
         height="256"
         id="rect2" />
    </clipPath>
  </defs>
  <g
     clip-path="url(#_clipPath_ssh4u0vgASR2tN5BDrdWZzoPZg5Bize9)"
     id="g70">
    <g
       id="icon">
      <g
         id="drop shadow">
        <defs
           id="defs12">
          <filter
             id="ts0oxFBBLkdULrG4js27J8Kl8mcnzuRu"
             x="-200%"
             y="-200%"
             width="400%"
             height="400%">
            <feGaussianBlur
               stdDeviation="2.32"
               id="feGaussianBlur9" />
          </filter>
        </defs>
        <g
           opacity="0.2"
           filter="url(#ts0oxFBBLkdULrG4js27J8Kl8mcnzuRu)"
           id="g16">
          <path
             d=" M 165.352 16.516 C 239.408 16.516 249.992 27.073 249.992 101.06 L 249.992 160.312 C 249.992 234.298 239.408 244.856 165.352 244.856 L 89.982 244.856 C 15.925 244.856 5.342 234.298 5.342 160.312 L 5.342 101.06 C 5.342 27.073 15.925 16.516 89.982 16.516 L 165.352 16.516 Z "
             fill="rgb(0,0,0)"
             id="path14" />
        </g>
        <defs
           id="defs21">
          <filter
             id="lBveKImWoJvBc2AYt8imqNLd77fvLIlX"
             x="-200%"
             y="-200%"
             width="400%"
             height="400%">
            <feGaussianBlur
               stdDeviation="1.16"
               id="feGaussianBlur18" />
          </filter>
        </defs>
        <g
           opacity="0.1"
           filter="url(#lBveKImWoJvBc2AYt8imqNLd77fvLIlX)"
           id="g25">
          <path
             d=" M 165.352 15.497 C 239.408 15.497 249.992 26.054 249.992 100.041 L 249.992 159.292 C 249.992 233.279 239.408 243.837 165.352 243.837 L 89.982 243.837 C 15.925 243.837 5.342 233.279 5.342 159.292 L 5.342 100.041 C 5.342 26.054 15.925 15.497 89.982 15.497 L 165.352 15.497 Z "
             fill="rgb(0,0,0)"
             id="path23" />
        </g>
      </g>
      <path
         d=" M 165.352 14.477 C 239.408 14.477 249.992 25.035 249.992 99.022 L 249.992 158.273 C 249.992 232.26 239.408 242.817 165.352 242.817 L 89.982 242.817 C 15.925 242.817 5.342 232.26 5.342 158.273 L 5.342 99.022 C 5.342 25.035 15.925 14.477 89.982 14.477 L 165.352 14.477 Z "
         fill="rgb(255,255,255)"
         id="path28" />
      <clipPath
         id="_clipPath_V0cKqiZJKWRnJObXfHJAhj5x5VM20Q2K">
        <path
           d=" M 165.352 14.477 C 239.408 14.477 249.992 25.035 249.992 99.022 L 249.992 158.273 C 249.992 232.26 239.408 242.817 165.352 242.817 L 89.982 242.817 C 15.925 242.817 5.342 232.26 5.342 158.273 L 5.342 99.022 C 5.342 25.035 15.925 14.477 89.982 14.477 L 165.352 14.477 Z "
           fill="rgb(255,255,255)"
           id="path30" />
      </clipPath>
      <g
         clip-path="url(#_clipPath_V0cKqiZJKWRnJObXfHJAhj5x5VM20Q2K)"
         id="g35">
        <path
           d=" M 165.352 14.477 C 239.408 14.477 249.992 25.035 249.992 99.022 L 249.992 158.273 C 249.992 232.26 239.408 242.817 165.352 242.817 L 89.982 242.817 C 15.925 242.817 5.342 232.26 5.342 158.273 L 5.342 99.022 C 5.342 25.035 15.925 14.477 89.982 14.477 L 165.352 14.477 Z "
           fill="rgb(237,49,70)"
           id="path33"
           style="fill:#67a2b4;fill-opacity:1" />
      </g>
      <g
         id="highlight">
        <clipPath
           id="_clipPath_AfGhVM8vcZPDYXwYZ63uAVbwXncE4Xxr">
          <path
             d=" M 165.352 14.477 C 239.408 14.477 249.992 25.035 249.992 99.022 L 249.992 158.273 C 249.992 232.26 239.408 242.817 165.352 242.817 L 89.982 242.817 C 15.925 242.817 5.342 232.26 5.342 158.273 L 5.342 99.022 C 5.342 25.035 15.925 14.477 89.982 14.477 L 165.352 14.477 Z "
             fill="rgb(255,255,255)"
             id="path37" />
        </clipPath>
        <g
           clip-path="url(#_clipPath_AfGhVM8vcZPDYXwYZ63uAVbwXncE4Xxr)"
           id="g53">
          <g
             opacity="0.4"
             id="g51">
            <linearGradient
               id="_lgradient_48"
               x1="51.666666666666686%"
               y1="0%"
               x2="51.66666666666666%"
               y2="100.00000000000003%">
              <stop
                 offset="0%"
                 stop-opacity="1"
                 style="stop-color:rgb(255,255,255)"
                 id="stop40" />
              <stop
                 offset="12.5%"
                 stop-opacity="0.09803922"
                 style="stop-color:rgb(255,255,255)"
                 id="stop42" />
              <stop
                 offset="92.500001%"
                 stop-opacity="0.09803922"
                 style="stop-color:rgb(0,0,0)"
                 id="stop44" />
              <stop
                 offset="100%"
                 stop-opacity="0.49803922"
                 style="stop-color:rgb(0,0,0)"
                 id="stop46" />
            </linearGradient>
            <path
               d=" M 165.352 14.477 C 239.408 14.477 249.992 25.035 249.992 99.022 L 249.992 158.273 C 249.992 232.26 239.408 242.817 165.352 242.817 L 89.982 242.817 C 15.925 242.817 5.342 232.26 5.342 158.273 L 5.342 99.022 C 5.342 25.035 15.925 14.477 89.982 14.477 L 165.352 14.477 Z "
               fill="none"
               vector-effect="non-scaling-stroke"
               stroke-width="4"
               stroke="url(#_lgradient_48)"
               stroke-linejoin="round"
               stroke-linecap="round"
               stroke-miterlimit="4"
               id="path49" />
          </g>
        </g>
      </g>
    </g>
    <g
       id="Group">
      <path
         d=" M 76.584 79.952 L 39.436 101.622 C 36.736 103.197 35.824 106.663 37.399 109.363 C 38.974 112.063 42.44 112.975 45.14 111.4 L 90.42 84.986 C 94.164 82.802 94.164 77.393 90.42 75.208 L 45.14 48.795 C 42.44 47.22 38.974 48.132 37.399 50.832 C 35.824 53.532 36.736 56.998 39.436 58.573 L 76.584 79.952 Z "
         fill-rule="evenodd"
         fill="rgb(202,53,63)"
         id="path57"
         style="fill:#5597ab;fill-opacity:1" />
      <path
         d=" M 76.584 76.179 L 39.436 97.849 C 36.736 99.424 35.824 102.889 37.399 105.59 C 38.974 108.29 42.44 109.202 45.14 107.627 L 90.42 81.213 C 94.164 79.029 94.164 73.619 90.42 71.435 L 45.14 45.022 C 42.44 43.446 38.974 44.359 37.399 47.059 C 35.824 49.759 36.736 53.225 39.436 54.8 L 76.584 76.179 Z "
         fill-rule="evenodd"
         fill="rgb(255,240,240)"
         id="path59"
         style="fill:#f6f9fa;fill-opacity:1" />
      <path
         d=" M 73.328 78.078 L 39.436 97.849 C 37.048 99.241 36.059 102.113 36.951 104.626 C 37.381 103.405 38.23 102.325 39.436 101.622 L 76.584 79.952 L 73.328 78.078 L 73.328 78.078 Z  M 92.91 78.211 C 93.752 75.795 92.922 72.895 90.42 71.435 L 45.14 45.022 C 42.44 43.446 38.974 44.359 37.399 47.059 C 36.527 48.553 36.417 50.283 36.951 51.796 C 37.068 51.467 37.216 51.144 37.399 50.832 C 38.974 48.132 42.44 47.22 45.14 48.795 L 90.42 75.208 C 91.662 75.933 92.492 77.012 92.91 78.211 L 92.91 78.211 Z "
         fill-rule="evenodd"
         fill="rgb(255,255,255)"
         id="path61" />
      <path
         d=" M 138.18 131.667 C 141.14 131.667 143.54 128.851 143.54 125.378 C 143.54 121.904 141.14 119.089 138.18 119.089 L 86.01 119.089 C 83.05 119.089 80.65 121.904 80.65 125.378 C 80.65 128.851 83.05 131.667 86.01 131.667 L 138.18 131.667 Z "
         fill-rule="evenodd"
         fill="rgb(202,53,64)"
         id="path63"
         style="fill:#5597ab;fill-opacity:1" />
      <path
         d=" M 137.136 129.151 C 139.978 129.151 143.54 126.335 143.54 122.862 C 143.54 119.389 139.978 116.573 137.136 116.573 L 87.053 116.573 C 84.212 116.573 80.65 119.389 80.65 122.862 C 80.65 126.335 84.212 129.151 87.053 129.151 L 137.136 129.151 Z "
         fill-rule="evenodd"
         fill="rgb(255,240,240)"
         id="path65"
         style="fill:#f6f9fa;fill-opacity:1" />
      <path
         d=" M 143.54 122.862 C 143.54 119.389 140.211 116.573 137.251 116.573 L 86.939 116.573 C 83.979 116.573 80.65 119.389 80.65 122.862 C 80.65 122.862 81.908 119.089 86.939 119.089 L 137.251 119.089 C 142.282 119.089 143.54 122.862 143.54 122.862 Z "
         fill-rule="evenodd"
         fill="rgb(255,255,255)"
         id="path67" />
    </g>
  </g>
</svg>
