<?xml version="1.0" encoding="UTF-8" standalone="no"?>
<!-- Generator: Gravit.io -->

<svg
   xmlns:dc="http://purl.org/dc/elements/1.1/"
   xmlns:cc="http://creativecommons.org/ns#"
   xmlns:rdf="http://www.w3.org/1999/02/22-rdf-syntax-ns#"
   xmlns:svg="http://www.w3.org/2000/svg"
   xmlns="http://www.w3.org/2000/svg"
   xmlns:sodipodi="http://sodipodi.sourceforge.net/DTD/sodipodi-0.dtd"
   xmlns:inkscape="http://www.inkscape.org/namespaces/inkscape"
   style="isolation:isolate"
   viewBox="0 0 256 256"
   width="256"
   height="256"
   version="1.1"
   id="svg100"
   sodipodi:docname="deepin-cloud-print-configurator.svg"
   inkscape:version="0.92.2pre0 (973e216, 2017-07-25)">
  <metadata
     id="metadata104">
    <rdf:RDF>
      <cc:Work
         rdf:about="">
        <dc:format>image/svg+xml</dc:format>
        <dc:type
           rdf:resource="http://purl.org/dc/dcmitype/StillImage" />
      </cc:Work>
    </rdf:RDF>
  </metadata>
  <sodipodi:namedview
     pagecolor="#ffffff"
     bordercolor="#666666"
     borderopacity="1"
     objecttolerance="10"
     gridtolerance="10"
     guidetolerance="10"
     inkscape:pageopacity="0"
     inkscape:pageshadow="2"
     inkscape:window-width="1920"
     inkscape:window-height="960"
     id="namedview102"
     showgrid="false"
     inkscape:zoom="0.921875"
     inkscape:cx="128"
     inkscape:cy="128"
     inkscape:window-x="0"
     inkscape:window-y="27"
     inkscape:window-maximized="1"
     inkscape:current-layer="g44" />
  <defs
     id="defs5">
    <clipPath
       id="_clipPath_tm9Hcr8YVoTS2vqQYE6ZoSjFjrM8WgfF">
      <rect
         width="256"
         height="256"
         id="rect2" />
    </clipPath>
  </defs>
  <g
     clip-path="url(#_clipPath_tm9Hcr8YVoTS2vqQYE6ZoSjFjrM8WgfF)"
     id="g98">
    <g
       id="icon">
      <g
         id="drop shadow">
        <defs
           id="defs12">
          <filter
             id="FbDbU4vaOsTx8rvWb9AehsI0lriCWTIa"
             x="-200%"
             y="-200%"
             width="400%"
             height="400%">
            <feGaussianBlur
               stdDeviation="2.32"
               id="feGaussianBlur9" />
          </filter>
        </defs>
        <g
           opacity="0.2"
           filter="url(#FbDbU4vaOsTx8rvWb9AehsI0lriCWTIa)"
           id="g16">
          <path
             d=" M 165.685 15.849 C 239.741 15.849 250.325 26.407 250.325 100.394 L 250.325 159.645 C 250.325 233.632 239.741 244.189 165.685 244.189 L 90.315 244.189 C 16.259 244.189 5.675 233.632 5.675 159.645 L 5.675 100.394 C 5.675 26.407 16.259 15.849 90.315 15.849 L 165.685 15.849 Z "
             fill="rgb(0,0,0)"
             id="path14" />
        </g>
        <defs
           id="defs21">
          <filter
             id="JleVjzz5TVwJTjxo1hPB2AnFWZhXivXu"
             x="-200%"
             y="-200%"
             width="400%"
             height="400%">
            <feGaussianBlur
               stdDeviation="1.16"
               id="feGaussianBlur18" />
          </filter>
        </defs>
        <g
           opacity="0.1"
           filter="url(#JleVjzz5TVwJTjxo1hPB2AnFWZhXivXu)"
           id="g25">
          <path
             d=" M 165.685 14.83 C 239.741 14.83 250.325 25.387 250.325 99.374 L 250.325 158.626 C 250.325 232.612 239.741 243.17 165.685 243.17 L 90.315 243.17 C 16.259 243.17 5.675 232.612 5.675 158.626 L 5.675 99.374 C 5.675 25.387 16.259 14.83 90.315 14.83 L 165.685 14.83 Z "
             fill="rgb(0,0,0)"
             id="path23" />
        </g>
      </g>
      <path
         d=" M 165.685 13.811 C 239.741 13.811 250.325 24.368 250.325 98.355 L 250.325 157.606 C 250.325 231.593 239.741 242.151 165.685 242.151 L 90.315 242.151 C 16.259 242.151 5.675 231.593 5.675 157.606 L 5.675 98.355 C 5.675 24.368 16.259 13.811 90.315 13.811 L 165.685 13.811 Z "
         fill="rgb(255,255,255)"
         id="path28" />
      <clipPath
         id="_clipPath_0dkwUlfbcUHb9ACGev8N3rkDODqhDzWB">
        <path
           d=" M 165.685 13.811 C 239.741 13.811 250.325 24.368 250.325 98.355 L 250.325 157.606 C 250.325 231.593 239.741 242.151 165.685 242.151 L 90.315 242.151 C 16.259 242.151 5.675 231.593 5.675 157.606 L 5.675 98.355 C 5.675 24.368 16.259 13.811 90.315 13.811 L 165.685 13.811 Z "
           fill="rgb(255,255,255)"
           id="path30" />
      </clipPath>
      <g
         clip-path="url(#_clipPath_0dkwUlfbcUHb9ACGev8N3rkDODqhDzWB)"
         id="g44">
        <path
           d=" M 165.685 13.811 C 239.741 13.811 250.325 24.368 250.325 98.355 L 250.325 157.606 C 250.325 231.593 239.741 242.151 165.685 242.151 L 90.315 242.151 C 16.259 242.151 5.675 231.593 5.675 157.606 L 5.675 98.355 C 5.675 24.368 16.259 13.811 90.315 13.811 L 165.685 13.811 Z "
           fill="rgb(174,227,248)"
           id="path33"
           style="fill:#c4dbe2;fill-opacity:1" />
        <g
           id="holds">
          <g
             opacity="0.1"
             id="g37">
            <rect
               x="88.225"
               y="12.997"
               width="81.549"
               height="228.338"
               transform="matrix(1,0,0,1,0,0)"
               fill="rgb(255,255,255)"
               id="rect35" />
          </g>
          <g
             opacity="0.1"
             id="g41">
            <path
               d=" M 6.676 127.167 L 6.676 156.792 C 6.676 230.778 17.26 241.336 91.315 241.336 L 166.685 241.336 C 240.74 241.336 251.324 230.778 251.324 156.792 L 251.324 127.167 L 6.676 127.167 Z "
               fill="rgb(255,255,255)"
               id="path39" />
          </g>
        </g>
      </g>
      <g
         id="highlight">
        <clipPath
           id="_clipPath_A65X9VGCvswt1FFI3voXLMxqWvnOoYRo">
          <path
             d=" M 165.685 13.811 C 239.741 13.811 250.325 24.368 250.325 98.355 L 250.325 157.606 C 250.325 231.593 239.741 242.151 165.685 242.151 L 90.315 242.151 C 16.259 242.151 5.675 231.593 5.675 157.606 L 5.675 98.355 C 5.675 24.368 16.259 13.811 90.315 13.811 L 165.685 13.811 Z "
             fill="rgb(255,255,255)"
             id="path46" />
        </clipPath>
        <g
           clip-path="url(#_clipPath_A65X9VGCvswt1FFI3voXLMxqWvnOoYRo)"
           id="g62">
          <g
             opacity="0.4"
             id="g60">
            <linearGradient
               id="_lgradient_21"
               x1="51.666666666666686%"
               y1="0%"
               x2="51.66666666666666%"
               y2="100.00000000000003%">
              <stop
                 offset="0%"
                 stop-opacity="1"
                 style="stop-color:rgb(255,255,255)"
                 id="stop49" />
              <stop
                 offset="12.5%"
                 stop-opacity="0.09803922"
                 style="stop-color:rgb(255,255,255)"
                 id="stop51" />
              <stop
                 offset="92.500001%"
                 stop-opacity="0.09803922"
                 style="stop-color:rgb(0,0,0)"
                 id="stop53" />
              <stop
                 offset="100%"
                 stop-opacity="0.49803922"
                 style="stop-color:rgb(0,0,0)"
                 id="stop55" />
            </linearGradient>
            <path
               d=" M 165.685 13.811 C 239.741 13.811 250.325 24.368 250.325 98.355 L 250.325 157.606 C 250.325 231.593 239.741 242.151 165.685 242.151 L 90.315 242.151 C 16.259 242.151 5.675 231.593 5.675 157.606 L 5.675 98.355 C 5.675 24.368 16.259 13.811 90.315 13.811 L 165.685 13.811 Z "
               fill="none"
               vector-effect="non-scaling-stroke"
               stroke-width="4"
               stroke="url(#_lgradient_21)"
               stroke-linejoin="round"
               stroke-linecap="round"
               stroke-miterlimit="4"
               id="path58" />
          </g>
        </g>
      </g>
    </g>
    <g
       id="Group"
       filter="url(#ZEw7338nStsHSwVk1eWcPbr1dhG2MO7F)">
      <path
         d=" M 77.699 138.149 L 76.992 138.119 C 64.928 137.885 55.288 128.004 55.351 115.938 C 55.329 106.858 60.859 98.687 69.296 95.333 L 70.655 94.788 L 70.433 93.341 C 70.257 92.244 70.165 91.135 70.159 90.024 C 70.159 77.774 80.121 67.813 92.37 67.813 C 94.284 67.813 96.239 68.079 98.186 68.608 L 100.052 69.116 L 100.474 67.231 C 103.283 54.552 114.552 45.546 127.538 45.601 C 137.526 45.601 146.788 51.021 151.712 59.742 L 152.327 60.827 L 153.563 60.668 C 154.74 60.512 155.932 60.409 157.154 60.409 C 171.195 60.413 183.022 70.904 184.7 84.845 L 184.807 85.774 L 185.622 86.237 C 194.32 91.169 199.705 100.389 199.726 110.388 C 199.726 125.699 187.273 138.153 171.962 138.153 L 77.699 138.153 L 77.699 138.149 Z "
         fill="rgb(242,242,242)"
         id="path66" />
      <path
         d="M 78.521 114.333 L 175.604 114.333 C 179.686 114.333 183 117.647 183 121.729 L 183 121.729 C 183 125.811 179.686 129.125 175.604 129.125 L 78.521 129.125 C 74.439 129.125 71.125 125.811 71.125 121.729 L 71.125 121.729 C 71.125 117.647 74.439 114.333 78.521 114.333 Z"
         style="stroke:none;fill:#333333;stroke-miterlimit:10;"
         id="path68" />
      <rect
         x="78"
         y="122.875"
         width="97.708"
         height="74.792"
         transform="matrix(1,0,0,1,0,0)"
         fill="rgb(230,230,230)"
         id="rect70" />
      <rect
         x="84.667"
         y="129.958"
         width="84.375"
         height="4.583"
         transform="matrix(1,0,0,1,0,0)"
         fill="rgb(200,196,183)"
         id="rect72" />
      <rect
         x="84.667"
         y="142.458"
         width="84.375"
         height="4.583"
         transform="matrix(1,0,0,1,0,0)"
         fill="rgb(200,196,183)"
         id="rect74" />
      <rect
         x="84.667"
         y="154.958"
         width="84.375"
         height="4.583"
         transform="matrix(1,0,0,1,0,0)"
         fill="rgb(200,196,183)"
         id="rect76" />
      <rect
         x="84.667"
         y="167.458"
         width="84.375"
         height="4.583"
         transform="matrix(1,0,0,1,0,0)"
         fill="rgb(200,196,183)"
         id="rect78" />
      <rect
         x="84.667"
         y="179.958"
         width="84.375"
         height="4.583"
         transform="matrix(1,0,0,1,0,0)"
         fill="rgb(200,196,183)"
         id="rect80" />
      <path
         d=" M 161.375 99.75 C 161.375 96.232 164.232 93.375 167.75 93.375 C 171.268 93.375 174.125 96.232 174.125 99.75 C 174.125 103.268 171.268 106.125 167.75 106.125 C 164.232 106.125 161.375 103.268 161.375 99.75 Z "
         fill="rgb(166,215,79)"
         id="path82" />
    </g>
    <defs
       id="defs96">
      <filter
         id="ZEw7338nStsHSwVk1eWcPbr1dhG2MO7F"
         x="-200%"
         y="-200%"
         width="400%"
         height="400%">
        <feOffset
           in="SourceAlpha"
           result="offOut"
           dx="0"
           dy="4"
           id="feOffset85" />
        <feGaussianBlur
           in="offOut"
           result="blurOut"
           stdDeviation="5"
           id="feGaussianBlur87" />
        <feComponentTransfer
           in="blurOut"
           result="opacOut"
           id="feComponentTransfer91">
          <feFuncA
             type="table"
             tableValues="0 0.5"
             id="feFuncA89" />
        </feComponentTransfer>
        <feBlend
           in="SourceGraphic"
           in2="opacOut"
           mode="normal"
           id="feBlend93" />
      </filter>
    </defs>
  </g>
</svg>
