<?xml version="1.0" encoding="UTF-8" standalone="no"?>
<!--Generator: Gravit.io-->

<svg
   xmlns:dc="http://purl.org/dc/elements/1.1/"
   xmlns:cc="http://creativecommons.org/ns#"
   xmlns:rdf="http://www.w3.org/1999/02/22-rdf-syntax-ns#"
   xmlns:svg="http://www.w3.org/2000/svg"
   xmlns="http://www.w3.org/2000/svg"
   xmlns:sodipodi="http://sodipodi.sourceforge.net/DTD/sodipodi-0.dtd"
   xmlns:inkscape="http://www.inkscape.org/namespaces/inkscape"
   width="256"
   height="256"
   style="isolation:isolate"
   viewBox="0 0 256 256"
   version="1.1"
   id="svg94"
   sodipodi:docname="deepin-multitasking-view.svg"
   inkscape:version="0.92.2pre0 (973e216, 2017-07-25)">
  <metadata
     id="metadata98">
    <rdf:RDF>
      <cc:Work
         rdf:about="">
        <dc:format>image/svg+xml</dc:format>
        <dc:type
           rdf:resource="http://purl.org/dc/dcmitype/StillImage" />
      </cc:Work>
    </rdf:RDF>
  </metadata>
  <sodipodi:namedview
     pagecolor="#ffffff"
     bordercolor="#666666"
     borderopacity="1"
     objecttolerance="10"
     gridtolerance="10"
     guidetolerance="10"
     inkscape:pageopacity="0"
     inkscape:pageshadow="2"
     inkscape:window-width="1920"
     inkscape:window-height="960"
     id="namedview96"
     showgrid="false"
     inkscape:zoom="0.921875"
     inkscape:cx="128"
     inkscape:cy="128"
     inkscape:window-x="0"
     inkscape:window-y="27"
     inkscape:window-maximized="1"
     inkscape:current-layer="g70" />
  <defs
     id="defs5">
    <clipPath
       id="_clipPath_g2Z2HLQJrHHMDiy52l8wmrm1emYf1DSl">
      <rect
         width="256"
         height="256"
         id="rect2" />
    </clipPath>
  </defs>
  <g
     clip-path="url(#_clipPath_g2Z2HLQJrHHMDiy52l8wmrm1emYf1DSl)"
     id="g92">
    <g
       id="icon">
      <g
         id="drop shadow">
        <defs
           id="defs12">
          <filter
             id="oEYgiXsLxUhSfsmDXwmGAD13V6U5mRqZ"
             width="400%"
             height="400%"
             x="-200%"
             y="-200%">
            <feGaussianBlur
               stdDeviation="2.32"
               id="feGaussianBlur9" />
          </filter>
        </defs>
        <g
           filter="url(#oEYgiXsLxUhSfsmDXwmGAD13V6U5mRqZ)"
           opacity="0.2"
           id="g16">
          <path
             fill="rgb(0,0,0)"
             d=" M 165.352 16.516 C 239.408 16.516 249.992 27.073 249.992 101.06 L 249.992 160.312 C 249.992 234.298 239.408 244.856 165.352 244.856 L 89.982 244.856 C 15.925 244.856 5.342 234.298 5.342 160.312 L 5.342 101.06 C 5.342 27.073 15.925 16.516 89.982 16.516 L 165.352 16.516 Z "
             id="path14" />
        </g>
        <defs
           id="defs21">
          <filter
             id="MKHVQbMWUmkSyjKrYBBazqhaIKkvZVO3"
             width="400%"
             height="400%"
             x="-200%"
             y="-200%">
            <feGaussianBlur
               stdDeviation="1.16"
               id="feGaussianBlur18" />
          </filter>
        </defs>
        <g
           filter="url(#MKHVQbMWUmkSyjKrYBBazqhaIKkvZVO3)"
           opacity="0.1"
           id="g25">
          <path
             fill="rgb(0,0,0)"
             d=" M 165.352 15.497 C 239.408 15.497 249.992 26.054 249.992 100.041 L 249.992 159.292 C 249.992 233.279 239.408 243.837 165.352 243.837 L 89.982 243.837 C 15.925 243.837 5.342 233.279 5.342 159.292 L 5.342 100.041 C 5.342 26.054 15.925 15.497 89.982 15.497 L 165.352 15.497 Z "
             id="path23" />
        </g>
      </g>
      <path
         fill="rgb(255,255,255)"
         d=" M 165.352 14.477 C 239.408 14.477 249.992 25.035 249.992 99.022 L 249.992 158.273 C 249.992 232.26 239.408 242.817 165.352 242.817 L 89.982 242.817 C 15.925 242.817 5.342 232.26 5.342 158.273 L 5.342 99.022 C 5.342 25.035 15.925 14.477 89.982 14.477 L 165.352 14.477 Z "
         id="path28" />
      <clipPath
         id="_clipPath_RkhPjkCQ32ZtorrWhbYfv9qkYe6TgXa3">
        <path
           fill="rgb(255,255,255)"
           d=" M 165.352 14.477 C 239.408 14.477 249.992 25.035 249.992 99.022 L 249.992 158.273 C 249.992 232.26 239.408 242.817 165.352 242.817 L 89.982 242.817 C 15.925 242.817 5.342 232.26 5.342 158.273 L 5.342 99.022 C 5.342 25.035 15.925 14.477 89.982 14.477 L 165.352 14.477 Z "
           id="path30" />
      </clipPath>
      <g
         clip-path="url(#_clipPath_RkhPjkCQ32ZtorrWhbYfv9qkYe6TgXa3)"
         id="g70">
        <path
           fill="rgb(20,99,165)"
           d=" M 165.352 14.477 C 239.408 14.477 249.992 25.035 249.992 99.022 L 249.992 158.273 C 249.992 232.26 239.408 242.817 165.352 242.817 L 89.982 242.817 C 15.925 242.817 5.342 232.26 5.342 158.273 L 5.342 99.022 C 5.342 25.035 15.925 14.477 89.982 14.477 L 165.352 14.477 Z "
           id="path33"
           style="fill:#457c8c;fill-opacity:1" />
        <g
           id="holds">
          <g
             opacity="0.1"
             id="g37">
            <rect
               width="81.549"
               height="228.338"
               x="87.892"
               y="13.664"
               fill="rgb(255,255,255)"
               transform="matrix(1,0,0,1,0,0)"
               id="rect35" />
          </g>
          <g
             opacity="0.1"
             id="g41">
            <path
               fill="rgb(255,255,255)"
               d=" M 6.343 127.833 L 6.343 157.459 C 6.343 231.445 16.926 242.003 90.982 242.003 L 166.351 242.003 C 240.407 242.003 250.991 231.445 250.991 157.459 L 250.991 127.833 L 6.343 127.833 Z "
               id="path39" />
          </g>
        </g>
        <g
           id="multitasking viewer"
           filter="url(#aj67o7GqhIRnznxYvSDFbrnXed41sEs6)">
          <path
             fill="rgb(204,204,204)"
             d=" M 128.5 56.75 C 132.551 56.75 134.019 58.218 134.019 62.269 L 134.019 67.788 C 128.5 73.308 62.269 73.308 56.75 67.788 L 56.75 62.269 C 56.75 58.218 58.24 56.75 62.269 56.75"
             id="path44" />
          <path
             fill="rgb(204,204,204)"
             d=" M 194.731 67.788 C 198.743 67.788 200.25 69.257 200.25 73.308 L 200.25 78.827 C 194.731 84.346 150.577 84.346 145.058 78.827 L 145.058 73.308 C 145.058 69.257 146.592 67.788 150.577 67.788"
             id="path46" />
          <path
             fill="rgb(242,242,242)"
             d=" M 134.019 67.788 L 134.019 111.942 C 134.019 115.993 132.551 117.462 128.5 117.462 L 62.269 117.462 C 58.24 117.462 56.75 115.993 56.75 111.942 L 56.75 67.788"
             id="path48" />
          <path
             fill="rgb(242,242,242)"
             d=" M 200.25 78.827 L 200.25 128.5 C 200.25 132.551 198.738 134.019 194.731 134.019 L 150.577 134.019 C 146.564 134.019 145.058 132.551 145.058 128.5 L 145.058 78.827"
             id="path50" />
          <path
             fill="rgb(204,204,204)"
             d=" M 161.615 150.577 C 165.666 150.577 167.135 152.045 167.135 156.096 L 167.135 161.615 C 161.615 167.135 73.308 167.135 67.788 161.615 L 67.788 156.096 C 67.788 152.045 69.279 150.577 73.308 150.577"
             id="path52" />
          <path
             fill="rgb(242,242,242)"
             d=" M 167.135 161.615 L 167.135 194.731 C 167.135 198.782 165.666 200.25 161.615 200.25 L 73.308 200.25 C 69.279 200.25 67.788 198.782 67.788 194.731 L 67.788 161.615"
             id="path54" />
        </g>
        <defs
           id="defs68">
          <filter
             id="aj67o7GqhIRnznxYvSDFbrnXed41sEs6"
             width="400%"
             height="400%"
             x="-200%"
             y="-200%">
            <feOffset
               dx="0"
               dy="4"
               in="SourceAlpha"
               result="offOut"
               id="feOffset57" />
            <feGaussianBlur
               in="offOut"
               result="blurOut"
               stdDeviation="5"
               id="feGaussianBlur59" />
            <feComponentTransfer
               in="blurOut"
               result="opacOut"
               id="feComponentTransfer63">
              <feFuncA
                 tableValues="0 0.5"
                 type="table"
                 id="feFuncA61" />
            </feComponentTransfer>
            <feBlend
               in="SourceGraphic"
               in2="opacOut"
               mode="normal"
               id="feBlend65" />
          </filter>
        </defs>
      </g>
      <g
         id="highlight">
        <clipPath
           id="_clipPath_rpMj1RaNKRdQp6iiUPWJYrRhgPexEpfV">
          <path
             fill="rgb(255,255,255)"
             d=" M 165.352 14.477 C 239.408 14.477 249.992 25.035 249.992 99.022 L 249.992 158.273 C 249.992 232.26 239.408 242.817 165.352 242.817 L 89.982 242.817 C 15.925 242.817 5.342 232.26 5.342 158.273 L 5.342 99.022 C 5.342 25.035 15.925 14.477 89.982 14.477 L 165.352 14.477 Z "
             id="path72" />
        </clipPath>
        <g
           clip-path="url(#_clipPath_rpMj1RaNKRdQp6iiUPWJYrRhgPexEpfV)"
           id="g88">
          <g
             opacity="0.4"
             id="g86">
            <linearGradient
               id="_lgradient_50"
               x1="51.666666666666686%"
               x2="51.66666666666666%"
               y1="0%"
               y2="100.00000000000003%">
              <stop
                 offset="0%"
                 stop-opacity="1"
                 style="stop-color:rgb(255,255,255)"
                 id="stop75" />
              <stop
                 offset="12.5%"
                 stop-opacity="0.09803922"
                 style="stop-color:rgb(255,255,255)"
                 id="stop77" />
              <stop
                 offset="92.500001%"
                 stop-opacity="0.09803922"
                 style="stop-color:rgb(0,0,0)"
                 id="stop79" />
              <stop
                 offset="100%"
                 stop-opacity="0.49803922"
                 style="stop-color:rgb(0,0,0)"
                 id="stop81" />
            </linearGradient>
            <path
               fill="none"
               stroke="url(#_lgradient_50)"
               stroke-linecap="round"
               stroke-linejoin="round"
               stroke-miterlimit="4"
               stroke-width="4"
               d=" M 165.352 14.477 C 239.408 14.477 249.992 25.035 249.992 99.022 L 249.992 158.273 C 249.992 232.26 239.408 242.817 165.352 242.817 L 89.982 242.817 C 15.925 242.817 5.342 232.26 5.342 158.273 L 5.342 99.022 C 5.342 25.035 15.925 14.477 89.982 14.477 L 165.352 14.477 Z "
               vector-effect="non-scaling-stroke"
               id="path84" />
          </g>
        </g>
      </g>
    </g>
  </g>
</svg>
