<?xml version="1.0" encoding="UTF-8" standalone="no"?>
<!-- Generator: Gravit.io -->

<svg
   xmlns:dc="http://purl.org/dc/elements/1.1/"
   xmlns:cc="http://creativecommons.org/ns#"
   xmlns:rdf="http://www.w3.org/1999/02/22-rdf-syntax-ns#"
   xmlns:svg="http://www.w3.org/2000/svg"
   xmlns="http://www.w3.org/2000/svg"
   xmlns:sodipodi="http://sodipodi.sourceforge.net/DTD/sodipodi-0.dtd"
   xmlns:inkscape="http://www.inkscape.org/namespaces/inkscape"
   style="isolation:isolate"
   viewBox="0 0 256 256"
   width="256"
   height="256"
   version="1.1"
   id="svg62"
   sodipodi:docname="EdenMath.svg"
   inkscape:version="0.92.2 2405546, 2018-03-11">
  <metadata
     id="metadata66">
    <rdf:RDF>
      <cc:Work
         rdf:about="">
        <dc:format>image/svg+xml</dc:format>
        <dc:type
           rdf:resource="http://purl.org/dc/dcmitype/StillImage" />
      </cc:Work>
    </rdf:RDF>
  </metadata>
  <sodipodi:namedview
     pagecolor="#ffffff"
     bordercolor="#666666"
     borderopacity="1"
     objecttolerance="10"
     gridtolerance="10"
     guidetolerance="10"
     inkscape:pageopacity="0"
     inkscape:pageshadow="2"
     inkscape:window-width="1600"
     inkscape:window-height="826"
     id="namedview64"
     showgrid="false"
     inkscape:zoom="0.921875"
     inkscape:cx="6.5084746"
     inkscape:cy="128"
     inkscape:window-x="0"
     inkscape:window-y="0"
     inkscape:window-maximized="1"
     inkscape:current-layer="g58" />
  <defs
     id="defs5">
    <clipPath
       id="_clipPath_6n2ELVroAloqONodmIVnEzctvMGlHsU6">
      <rect
         width="256"
         height="256"
         id="rect2" />
    </clipPath>
  </defs>
  <g
     clip-path="url(#_clipPath_6n2ELVroAloqONodmIVnEzctvMGlHsU6)"
     id="g60">
    <clipPath
       id="_clipPath_6CaXMM14G6dgOGMINPANkUwroNA4DgX0">
      <path
         d=" M 162.537 16.432 C 235.185 16.432 245.568 26.789 245.568 99.37 L 245.568 157.495 C 245.568 230.075 235.185 240.432 162.537 240.432 L 88.599 240.432 C 15.951 240.432 5.568 230.075 5.568 157.495 L 5.568 99.37 C 5.568 26.789 15.951 16.432 88.599 16.432 L 162.537 16.432 Z "
         fill="rgb(255,255,255)"
         id="path7" />
    </clipPath>
    <g
       clip-path="url(#_clipPath_6CaXMM14G6dgOGMINPANkUwroNA4DgX0)"
       id="g58">
      <g
         opacity="0.1"
         id="g12">
        <path
           d=" M 162.537 16.432 C 235.185 16.432 245.568 26.789 245.568 99.369 L 245.568 157.494 C 245.568 230.075 235.185 240.432 162.537 240.432 L 88.599 240.432 C 15.951 240.432 5.568 230.075 5.568 157.494 L 5.568 99.369 C 5.568 26.789 15.951 16.432 88.599 16.432 L 162.537 16.432 Z "
           fill="none"
           vector-effect="non-scaling-stroke"
           stroke-width="4"
           stroke="rgb(0,0,0)"
           stroke-linejoin="round"
           stroke-linecap="round"
           stroke-miterlimit="4"
           id="path10" />
      </g>
      <defs
         id="defs17">
        <filter
           id="ENjHNTjzDvNYlDntPXKUe3v7ASbl6mPB"
           x="-200%"
           y="-200%"
           width="400%"
           height="400%">
          <feGaussianBlur
             stdDeviation="1.16"
             id="feGaussianBlur14" />
        </filter>
      </defs>
      <g
         opacity="0.1"
         filter="url(#ENjHNTjzDvNYlDntPXKUe3v7ASbl6mPB)"
         id="g21">
        <path
           d=" M 162.537 16.432 C 235.185 16.432 245.568 26.789 245.568 99.37 L 245.568 157.495 C 245.568 230.075 235.185 240.432 162.537 240.432 L 88.599 240.432 C 15.951 240.432 5.568 230.075 5.568 157.495 L 5.568 99.37 C 5.568 26.789 15.951 16.432 88.599 16.432 L 162.537 16.432 Z "
           fill="rgb(0,0,0)"
           id="path19" />
      </g>
      <defs
         id="defs26">
        <filter
           id="8oikm2pAZoGy5aJ7siDwla3ZIhQr1tI6"
           x="-200%"
           y="-200%"
           width="400%"
           height="400%">
          <feGaussianBlur
             stdDeviation="2.32"
             id="feGaussianBlur23" />
        </filter>
      </defs>
      <g
         opacity="0.2"
         filter="url(#8oikm2pAZoGy5aJ7siDwla3ZIhQr1tI6)"
         id="g30">
        <path
           d=" M 162.537 18.432 C 235.185 18.432 245.568 28.789 245.568 101.37 L 245.568 159.495 C 245.568 232.075 235.185 242.432 162.537 242.432 L 88.599 242.432 C 15.951 242.432 5.568 232.075 5.568 159.495 L 5.568 101.37 C 5.568 28.789 15.951 18.432 88.599 18.432 L 162.537 18.432 Z "
           fill="rgb(0,0,0)"
           id="path28" />
      </g>
      <linearGradient
         id="_lgradient_5"
         x1="-3.3333329986089275%"
         y1="-7.142853624309575%"
         x2="103.33333086667199%"
         y2="107.14286580680754%">
        <stop
           offset="0%"
           stop-opacity="1"
           style="stop-color:rgb(140,89,217)"
           id="stop32" />
        <stop
           offset="100%"
           stop-opacity="1"
           style="stop-color:rgb(103,162,180)"
           id="stop34" />
      </linearGradient>
      <path
         d=" M 162.537 16.432 C 235.185 16.432 245.568 26.789 245.568 99.369 L 245.568 157.494 C 245.568 230.075 235.185 240.432 162.537 240.432 L 88.599 240.432 C 15.951 240.432 5.568 230.075 5.568 157.494 L 5.568 99.369 C 5.568 26.789 15.951 16.432 88.599 16.432 L 162.537 16.432 Z "
         fill="url(#_lgradient_5)"
         id="path37"
         style="fill:#67a2b4;fill-opacity:1" />
      <path
         d=" M 74.435 189.336 L 74.435 175.898 L 86.338 173.594 L 86.338 93.347 L 74.435 91.043 L 74.435 77.528 L 188.701 77.528 L 188.701 91.043 L 176.798 93.347 L 176.798 173.594 L 188.701 175.898 L 188.701 189.336 L 142.472 189.336 L 142.472 175.898 L 154.375 173.594 L 154.375 94.806 L 108.761 94.806 L 108.761 173.594 L 120.74 175.898 L 120.74 189.336 L 74.435 189.336 Z "
         fill="rgb(0,0,0)"
         fill-opacity="0.5"
         id="path39" />
      <path
         d=" M 68.435 184.336 L 68.435 170.898 L 80.338 168.594 L 80.338 88.347 L 68.435 86.043 L 68.435 72.528 L 182.701 72.528 L 182.701 86.043 L 170.798 88.347 L 170.798 168.594 L 182.701 170.898 L 182.701 184.336 L 136.472 184.336 L 136.472 170.898 L 148.375 168.594 L 148.375 89.806 L 102.761 89.806 L 102.761 168.594 L 114.74 170.898 L 114.74 184.336 L 68.435 184.336 Z "
         fill="rgb(236,239,244)"
         id="path41" />
      <path
         d=" M 241.701 50.729 C 244.698 62.569 245.568 78.363 245.568 99.369 L 245.568 157.494 C 245.568 230.075 235.185 240.432 162.537 240.432 L 88.599 240.432 C 45.988 240.432 24.798 236.869 14.56 219.277 C 31.051 206.821 216.385 65.436 241.701 50.729 Z "
         fill="rgb(255,255,255)"
         fill-opacity="0.05"
         id="path43" />
      <g
         opacity="0.5"
         id="g56">
        <linearGradient
           id="_lgradient_6"
           x1="51.666666666666686%"
           y1="0%"
           x2="51.66666666666666%"
           y2="100.00000000000003%">
          <stop
             offset="0%"
             stop-opacity="1"
             style="stop-color:rgb(255,255,255)"
             id="stop45" />
          <stop
             offset="12.5%"
             stop-opacity="0.09803922"
             style="stop-color:rgb(255,255,255)"
             id="stop47" />
          <stop
             offset="92.500001%"
             stop-opacity="0"
             style="stop-color:rgb(0,0,0)"
             id="stop49" />
          <stop
             offset="100%"
             stop-opacity="0"
             style="stop-color:rgb(0,0,0)"
             id="stop51" />
        </linearGradient>
        <path
           d=" M 162.537 16.432 C 235.185 16.432 245.568 26.789 245.568 99.37 L 245.568 157.495 C 245.568 230.075 235.185 240.432 162.537 240.432 L 88.599 240.432 C 15.951 240.432 5.568 230.075 5.568 157.495 L 5.568 99.37 C 5.568 26.789 15.951 16.432 88.599 16.432 L 162.537 16.432 Z "
           fill="none"
           vector-effect="non-scaling-stroke"
           stroke-width="4"
           stroke="url(#_lgradient_6)"
           stroke-linejoin="round"
           stroke-linecap="round"
           stroke-miterlimit="4"
           id="path54" />
      </g>
    </g>
  </g>
</svg>
