<?xml version="1.0" encoding="UTF-8" standalone="no"?>
<!-- Created with Inkscape (http://www.inkscape.org/) -->

<svg
   xmlns:dc="http://purl.org/dc/elements/1.1/"
   xmlns:cc="http://creativecommons.org/ns#"
   xmlns:rdf="http://www.w3.org/1999/02/22-rdf-syntax-ns#"
   xmlns:svg="http://www.w3.org/2000/svg"
   xmlns="http://www.w3.org/2000/svg"
   xmlns:xlink="http://www.w3.org/1999/xlink"
   xmlns:sodipodi="http://sodipodi.sourceforge.net/DTD/sodipodi-0.dtd"
   xmlns:inkscape="http://www.inkscape.org/namespaces/inkscape"
   width="256"
   height="256"
   viewBox="0 0 67.733332 67.733335"
   version="1.1"
   id="svg1488"
   inkscape:version="0.92.3 (unknown)"
   sodipodi:docname="elisa.svg">
  <defs
     id="defs1482">
    <linearGradient
       inkscape:collect="always"
       id="linearGradient1725">
      <stop
         style="stop-color:#532100;stop-opacity:1"
         offset="0"
         id="stop1721" />
      <stop
         style="stop-color:#2c1200;stop-opacity:1"
         offset="1"
         id="stop1723" />
    </linearGradient>
    <linearGradient
       inkscape:collect="always"
       id="linearGradient1664">
      <stop
         style="stop-color:#ffffff;stop-opacity:1"
         offset="0"
         id="stop1660" />
      <stop
         id="stop1668"
         offset="0.17600016"
         style="stop-color:#ffffff;stop-opacity:1" />
      <stop
         style="stop-color:#85dca8;stop-opacity:1"
         offset="0.17600016"
         id="stop1670" />
      <stop
         id="stop1672"
         offset="0.29600021"
         style="stop-color:#8acaa4;stop-opacity:1" />
      <stop
         style="stop-color:#ffffff;stop-opacity:1"
         offset="0.29600021"
         id="stop1674" />
      <stop
         id="stop1676"
         offset="0.42400023"
         style="stop-color:#ffffff;stop-opacity:1" />
      <stop
         style="stop-color:#85dca8;stop-opacity:1"
         offset="0.42400023"
         id="stop1678" />
      <stop
         id="stop1680"
         offset="0.54448599"
         style="stop-color:#87d8a8;stop-opacity:1;" />
      <stop
         style="stop-color:#ecf6f0;stop-opacity:1"
         offset="0.54448599"
         id="stop1682" />
      <stop
         id="stop1684"
         offset="0.64000028"
         style="stop-color:#ecf6f0;stop-opacity:1;" />
      <stop
         style="stop-color:#5ac083;stop-opacity:1"
         offset="0.64000028"
         id="stop1690" />
      <stop
         style="stop-color:#4cb28a;stop-opacity:1"
         offset="0.7107805"
         id="stop1686" />
      <stop
         id="stop1688"
         offset="0.85597628"
         style="stop-color:#41a692;stop-opacity:1" />
      <stop
         style="stop-color:#2d919f;stop-opacity:1"
         offset="1"
         id="stop1662" />
    </linearGradient>
    <linearGradient
       inkscape:collect="always"
       id="linearGradient1654">
      <stop
         style="stop-color:#ffffff;stop-opacity:1;"
         offset="0"
         id="stop1650" />
      <stop
         style="stop-color:#ffffff;stop-opacity:0;"
         offset="1"
         id="stop1652" />
    </linearGradient>
    <clipPath
       clipPathUnits="userSpaceOnUse"
       id="clipPath1025">
      <path
         id="path1027"
         d="M 111.94141,84 C 99.359506,84.145 90.1531,83.713998 82.625,87.867188 c -3.7641,2.0768 -6.751838,5.574737 -8.398438,9.960937 C 72.580062,102.21433 72,107.4241 72,114 v 42 h 160 v -26 c 0,-6.5759 -0.57996,-11.78566 -2.22656,-16.17188 -0.205,-0.5455 -0.47919,-1.03993 -0.74219,-1.54296 -0.1,-0.1848 -0.17844,-0.38051 -0.27344,-0.56641 -1.727,-3.38752 -4.25471,-6.14522 -7.38281,-7.87109 C 213.8463,99.694146 204.64049,100.1454 192.05859,100 H 192 151.66797 L 135.45312,84 h -23.49218 z"
         style="color:#000000;font-style:normal;font-variant:normal;font-weight:normal;font-stretch:normal;font-size:medium;line-height:normal;font-family:sans-serif;font-variant-ligatures:none;font-variant-position:normal;font-variant-caps:normal;font-variant-numeric:normal;font-variant-alternates:normal;font-feature-settings:normal;text-indent:0;text-align:start;text-decoration:none;text-decoration-line:none;text-decoration-style:solid;text-decoration-color:#000000;letter-spacing:normal;word-spacing:normal;text-transform:none;writing-mode:lr-tb;direction:ltr;baseline-shift:baseline;text-anchor:start;white-space:normal;shape-padding:0;clip-rule:nonzero;display:inline;overflow:visible;visibility:visible;opacity:1;isolation:auto;mix-blend-mode:normal;color-interpolation:sRGB;color-interpolation-filters:linearRGB;solid-color:#000000;solid-opacity:1;fill:#e3dfd5;fill-opacity:1;fill-rule:nonzero;stroke:none;stroke-width:4.00000048;stroke-linecap:butt;stroke-linejoin:miter;stroke-miterlimit:4;stroke-dasharray:none;stroke-dashoffset:0;stroke-opacity:1;marker:none;color-rendering:auto;image-rendering:auto;shape-rendering:auto;text-rendering:auto;enable-background:accumulate"
         inkscape:connector-curvature="0" />
    </clipPath>
    <linearGradient
       id="linearGradient1013"
       inkscape:collect="always">
      <stop
         id="stop1005"
         offset="0"
         style="stop-color:#ffffff;stop-opacity:1;" />
      <stop
         style="stop-color:#ffffff;stop-opacity:0.09803922"
         offset="0.125"
         id="stop1007" />
      <stop
         style="stop-color:#000000;stop-opacity:0.09803922"
         offset="0.92500001"
         id="stop1009" />
      <stop
         id="stop1011"
         offset="1"
         style="stop-color:#000000;stop-opacity:0.49803922" />
    </linearGradient>
    <clipPath
       clipPathUnits="userSpaceOnUse"
       id="clipPath1082-3">
      <path
         sodipodi:nodetypes="sssssssss"
         inkscape:connector-curvature="0"
         id="path1084-6"
         d="M 361.9375,-212 C 507.2348,-212 528,-191.28677 528,-46.125 V 70.125 C 528,215.28618 507.2348,236 361.9375,236 H 214.0625 C 68.7652,236 48,215.28618 48,70.125 V -46.125 C 48,-191.28677 68.7652,-212 214.0625,-212 Z"
         style="display:inline;opacity:1;fill:#8c59d9;fill-opacity:1;stroke:none;stroke-width:2;stroke-linecap:round;stroke-linejoin:round;stroke-miterlimit:4;stroke-dasharray:none;stroke-dashoffset:0;stroke-opacity:1;enable-background:new" />
    </clipPath>
    <clipPath
       clipPathUnits="userSpaceOnUse"
       id="clipPath1082-3-5">
      <path
         sodipodi:nodetypes="sssssssss"
         inkscape:connector-curvature="0"
         id="path1084-6-6"
         d="M 361.9375,-212 C 507.2348,-212 528,-191.28677 528,-46.125 V 70.125 C 528,215.28618 507.2348,236 361.9375,236 H 214.0625 C 68.7652,236 48,215.28618 48,70.125 V -46.125 C 48,-191.28677 68.7652,-212 214.0625,-212 Z"
         style="display:inline;opacity:1;fill:#8c59d9;fill-opacity:1;stroke:none;stroke-width:2;stroke-linecap:round;stroke-linejoin:round;stroke-miterlimit:4;stroke-dasharray:none;stroke-dashoffset:0;stroke-opacity:1;enable-background:new" />
    </clipPath>
    <filter
       inkscape:collect="always"
       style="color-interpolation-filters:sRGB"
       id="filter4569-2"
       x="-0.0116"
       width="1.0232"
       y="-0.012428571"
       height="1.024857">
      <feGaussianBlur
         inkscape:collect="always"
         stdDeviation="1.16"
         id="feGaussianBlur4571-9" />
    </filter>
    <filter
       inkscape:collect="always"
       style="color-interpolation-filters:sRGB"
       id="filter913"
       x="-0.0232"
       width="1.0464"
       y="-0.024857143"
       height="1.0497143">
      <feGaussianBlur
         inkscape:collect="always"
         stdDeviation="2.32"
         id="feGaussianBlur915" />
    </filter>
    <linearGradient
       inkscape:collect="always"
       xlink:href="#linearGradient1013"
       id="linearGradient906"
       gradientUnits="userSpaceOnUse"
       x1="296"
       y1="-212"
       x2="296"
       y2="236" />
    <linearGradient
       inkscape:collect="always"
       xlink:href="#linearGradient1654"
       id="linearGradient1656"
       x1="138.05573"
       y1="110.68185"
       x2="139.03131"
       y2="239.19041"
       gradientUnits="userSpaceOnUse" />
    <linearGradient
       inkscape:collect="always"
       xlink:href="#linearGradient1664"
       id="linearGradient1666"
       x1="34.395832"
       y1="242.76041"
       x2="34.395832"
       y2="275.83331"
       gradientUnits="userSpaceOnUse"
       gradientTransform="matrix(3.7795275,0,0,3.7795275,0,-866.51966)" />
    <linearGradient
       inkscape:collect="always"
       xlink:href="#linearGradient1725"
       id="linearGradient1727"
       x1="105.54897"
       y1="259.42352"
       x2="105.56549"
       y2="265.68445"
       gradientUnits="userSpaceOnUse"
       gradientTransform="translate(-76.459756,2.0692299)" />
  </defs>
  <sodipodi:namedview
     id="base"
     pagecolor="#ffffff"
     bordercolor="#666666"
     borderopacity="1.0"
     inkscape:pageopacity="0.0"
     inkscape:pageshadow="2"
     inkscape:zoom="3.2421875"
     inkscape:cx="128"
     inkscape:cy="128"
     inkscape:document-units="px"
     inkscape:current-layer="layer1"
     showgrid="false"
     units="px"
     inkscape:window-width="1920"
     inkscape:window-height="1013"
     inkscape:window-x="0"
     inkscape:window-y="34"
     inkscape:window-maximized="1"
     showguides="false">
    <inkscape:grid
       type="xygrid"
       id="grid2168" />
  </sodipodi:namedview>
  <metadata
     id="metadata1485">
    <rdf:RDF>
      <cc:Work
         rdf:about="">
        <dc:format>image/svg+xml</dc:format>
        <dc:type
           rdf:resource="http://purl.org/dc/dcmitype/StillImage" />
        <dc:title></dc:title>
      </cc:Work>
    </rdf:RDF>
  </metadata>
  <g
     inkscape:label="Livello 1"
     inkscape:groupmode="layer"
     id="layer1"
     transform="translate(0,-229.26666)">
    <path
       style="display:inline;opacity:0.2;fill:#000000;fill-opacity:1;stroke:none;stroke-width:2;stroke-linecap:round;stroke-linejoin:round;stroke-miterlimit:4;stroke-dasharray:none;stroke-dashoffset:0;stroke-opacity:1;filter:url(#filter913);enable-background:new"
       d="m 188.96876,45.999995 c 72.64865,0 83.03125,10.356615 83.03125,82.937505 v 58.125 c 0,72.58059 -10.3826,82.9375 -83.03125,82.9375 h -73.9375 C 42.382606,270 32.000006,259.64309 32.000006,187.0625 v -58.125 c 0,-72.58089 10.3826,-82.937505 83.031254,-82.937505 z"
       id="path899"
       inkscape:connector-curvature="0"
       sodipodi:nodetypes="sssssssss"
       transform="matrix(0.26970778,0,0,0.26970778,-7.1289177,220.56049)" />
    <path
       sodipodi:nodetypes="sssssssss"
       inkscape:connector-curvature="0"
       id="path4567-1"
       d="m 188.96876,43.999995 c 72.64865,0 83.03125,10.356615 83.03125,82.937505 v 58.125 c 0,72.58059 -10.3826,82.9375 -83.03125,82.9375 h -73.9375 C 42.382606,268 32.000006,257.64309 32.000006,185.0625 v -58.125 c 0,-72.58089 10.3826,-82.937505 83.031254,-82.937505 z"
       style="display:inline;opacity:0.1;fill:#000000;fill-opacity:1;stroke:none;stroke-width:2;stroke-linecap:round;stroke-linejoin:round;stroke-miterlimit:4;stroke-dasharray:none;stroke-dashoffset:0;stroke-opacity:1;filter:url(#filter4569-2);enable-background:new"
       transform="matrix(0.26970778,0,0,0.26970778,-7.1289177,220.56049)" />
    <path
       style="display:inline;opacity:1;fill:#4d4d4d;fill-opacity:1;stroke:none;stroke-width:0.5394156;stroke-linecap:round;stroke-linejoin:round;stroke-miterlimit:4;stroke-dasharray:none;stroke-dashoffset:0;stroke-opacity:1;enable-background:new"
       d="m 23.895905,232.42763 c -9.797337,0 -15.3941297,0.69699 -18.5445167,3.84334 -3.150381,3.14634 -3.849657,8.73736 -3.849657,18.52555 v 15.67677 c 0,9.78815 0.699276,15.3792 3.849657,18.52555 3.150387,3.14636 8.7471787,3.84333 18.5445167,3.84333 h 19.94152 c 9.797339,0 15.394134,-0.69697 18.544517,-3.84333 3.150384,-3.14635 3.849659,-8.7374 3.849659,-18.52555 v -15.67677 c 0,-9.78819 -0.699275,-15.37921 -3.849659,-18.52555 -3.150383,-3.14635 -8.74718,-3.84334 -18.544517,-3.84334 z"
       id="rect877-2"
       inkscape:connector-curvature="0" />
    <path
       style="display:inline;opacity:0.2;fill:#131313;fill-opacity:1;stroke:none;stroke-width:0.5394156;stroke-linecap:round;stroke-linejoin:round;stroke-miterlimit:4;stroke-dasharray:none;stroke-dashoffset:0;stroke-opacity:1;enable-background:new"
       d="m 1.5017313,269.93387 v 0.53942 c 0,9.78815 0.699276,15.3792 3.849657,18.52555 3.150387,3.14636 8.7471787,3.84333 18.5445167,3.84333 h 19.94152 c 9.797339,0 15.394134,-0.69697 18.544517,-3.84333 3.150384,-3.14635 3.849659,-8.7374 3.849659,-18.52555 v -0.53942 c 0,9.78815 -0.699275,15.3792 -3.849659,18.52555 -3.150383,3.14636 -8.747178,3.84334 -18.544517,3.84334 h -19.94152 c -9.797338,0 -15.3941297,-0.69698 -18.5445167,-3.84334 -3.150381,-3.14635 -3.849657,-8.7374 -3.849657,-18.52555 z"
       id="path917"
       inkscape:connector-curvature="0" />
    <path
       sodipodi:nodetypes="sssssssss"
       inkscape:connector-curvature="0"
       id="path1068-7"
       d="M 361.9375,-212 C 507.2348,-212 528,-191.28677 528,-46.125 V 70.125 C 528,215.28618 507.2348,236 361.9375,236 H 214.0625 C 68.7652,236 48,215.28618 48,70.125 V -46.125 C 48,-191.28677 68.7652,-212 214.0625,-212 Z"
       style="display:inline;opacity:0.4;fill:none;fill-opacity:1;stroke:url(#linearGradient906);stroke-width:8;stroke-linecap:round;stroke-linejoin:round;stroke-miterlimit:4;stroke-dasharray:none;stroke-dashoffset:0;stroke-opacity:1;enable-background:new"
       clip-path="url(#clipPath1082-3-5)"
       transform="matrix(0.13485389,0,0,0.13485389,-4.9712557,261.01666)" />
    <path
       style="opacity:0.5;fill:url(#linearGradient1656);fill-opacity:1;stroke:none;stroke-width:0.99999994px;stroke-linecap:butt;stroke-linejoin:miter;stroke-opacity:1"
       d="M 32.072266 233.44531 C 33.903493 234.2233 35.786966 234.96229 37.871094 235.58203 C 40.342842 236.31703 42.998274 236.94617 45.849609 237.48242 C 48.700945 238.01868 51.749038 238.46084 55.005859 238.82422 C 58.26268 239.1876 61.727812 239.47112 65.416016 239.6875 C 72.792424 240.12027 81.057126 240.28516 90.314453 240.28516 L 165.68555 240.28516 C 174.94288 240.28516 183.20757 240.12027 190.58398 239.6875 C 194.27219 239.47112 197.73732 239.1876 200.99414 238.82422 C 204.25096 238.46084 207.29905 238.01868 210.15039 237.48242 C 213.00173 236.94617 215.65716 236.31703 218.12891 235.58203 C 220.60065 234.84703 222.8878 234.00649 225.00586 233.04688 C 225.3489 232.89145 225.62092 232.68319 225.95508 232.52148 L 205.97266 197.66602 L 51.761719 197.95508 L 32.072266 233.44531 z M 74.947266 203.85547 A 12.5 12.5 0 0 1 87.447266 216.35547 A 12.5 12.5 0 0 1 74.947266 228.85547 A 12.5 12.5 0 0 1 62.447266 216.35547 A 12.5 12.5 0 0 1 74.947266 203.85547 z M 180.94727 203.85547 A 12.5 12.5 0 0 1 193.44727 216.35547 A 12.5 12.5 0 0 1 180.94727 228.85547 A 12.5 12.5 0 0 1 168.44727 216.35547 A 12.5 12.5 0 0 1 180.94727 203.85547 z "
       id="path1628"
       transform="matrix(0.26458333,0,0,0.26458333,0,229.26666)" />
    <path
       style="opacity:0.8;fill:url(#linearGradient1666);fill-opacity:1;stroke:none;stroke-width:0.09999999;stroke-linecap:square;stroke-linejoin:round;stroke-miterlimit:4;stroke-dasharray:none;stroke-opacity:1"
       d="M 37.214844 51.251953 C 31.674844 51.251953 27.214844 55.711953 27.214844 61.251953 L 27.214844 165.14062 C 27.214844 170.68062 31.674844 175.14062 37.214844 175.14062 L 218.78516 175.14062 C 224.32516 175.14062 228.78516 170.68062 228.78516 165.14062 L 228.78516 61.251953 C 228.78516 55.711953 224.32516 51.251953 218.78516 51.251953 L 37.214844 51.251953 z M 75.5 109 L 180.5 109 C 194.35 109 205.5 120.15 205.5 134 C 205.5 147.85 194.35 159 180.5 159 L 75.5 159 C 61.65 159 50.5 147.85 50.5 134 C 50.5 120.15 61.65 109 75.5 109 z "
       transform="matrix(0.26458333,0,0,0.26458333,0,229.26666)"
       id="rect1658" />
    <g
       id="g1701"
       transform="translate(0.01369221)"
       style="fill:#ffffff;fill-opacity:1">
      <circle
         r="4.6302085"
         cy="264.63568"
         cx="20.094627"
         id="path1695"
         style="opacity:0.99999999;fill:#ffffff;fill-opacity:1;stroke:none;stroke-width:0.03086806;stroke-linecap:square;stroke-linejoin:round;stroke-miterlimit:4;stroke-dasharray:none;stroke-opacity:1" />
      <circle
         style="opacity:0.99999999;fill:#ffffff;fill-opacity:1;stroke:none;stroke-width:0.03086806;stroke-linecap:square;stroke-linejoin:round;stroke-miterlimit:4;stroke-dasharray:none;stroke-opacity:1"
         id="circle1697"
         cx="47.61132"
         cy="264.63568"
         r="4.6302085" />
      <rect
         style="opacity:1;fill:#dbe2e3;fill-opacity:1;stroke:none;stroke-width:0.02995546;stroke-linecap:square;stroke-linejoin:round;stroke-miterlimit:4;stroke-dasharray:none;stroke-opacity:1"
         id="rect1703"
         width="15.875"
         height="6.2177081"
         x="25.915474"
         y="261.4711" />
      <path
         style="opacity:0.12099998;fill:#667c7f;fill-opacity:1;stroke:none;stroke-width:0.11321749;stroke-linecap:square;stroke-linejoin:round;stroke-miterlimit:4;stroke-dasharray:none;stroke-opacity:1"
         d="M 379.57227 137.50586 L 416.77539 137.50586 L 416.77539 114.00586 L 380.02148 114.00586 A 39.999999 39.999999 0 0 1 380.13477 114.3457 A 39.999999 39.999999 0 0 1 381.00977 118.24805 A 39.999999 39.999999 0 0 1 381.49219 122.2168 A 39.999999 39.999999 0 0 1 381.5918 125.04688 A 39.999999 39.999999 0 0 1 381.39258 129.03906 A 39.999999 39.999999 0 0 1 380.79492 132.99219 A 39.999999 39.999999 0 0 1 379.80469 136.86719 A 39.999999 39.999999 0 0 1 379.57227 137.50586 z "
         id="path1719"
         transform="matrix(0.26458333,0,0,0.26458333,-0.01369221,229.26666)" />
      <path
         style="opacity:1;fill:url(#linearGradient1727);fill-opacity:1;stroke:none;stroke-width:0.02995546;stroke-linecap:square;stroke-linejoin:round;stroke-miterlimit:4;stroke-dasharray:none;stroke-opacity:1"
         d="m 31.947114,267.6888 a 10.583333,10.583333 0 0 0 0.0615,-0.16899 10.583333,10.583333 0 0 0 0.262,-1.02526 10.583333,10.583333 0 0 0 0.15813,-1.04593 10.583333,10.583333 0 0 0 0.0527,-1.05626 10.583333,10.583333 0 0 0 -0.0263,-0.74879 10.583333,10.583333 0 0 0 -0.12764,-1.05007 10.583333,10.583333 0 0 0 -0.23151,-1.0325 10.583333,10.583333 0 0 0 -0.03,-0.0899 h -6.15052 v 6.21771 z"
         id="rect1716"
         inkscape:connector-curvature="0" />
      <rect
         y="261.4711"
         x="25.915474"
         height="6.2177081"
         width="15.875"
         id="rect1731"
         style="opacity:0.4;fill:none;fill-opacity:1;stroke:#010101;stroke-width:0.05291667;stroke-linecap:square;stroke-linejoin:round;stroke-miterlimit:4;stroke-dasharray:none;stroke-opacity:1" />
    </g>
  </g>
</svg>
