<?xml version="1.0" encoding="UTF-8" standalone="no"?>
<!-- Generator: Gravit.io -->

<svg
   xmlns:dc="http://purl.org/dc/elements/1.1/"
   xmlns:cc="http://creativecommons.org/ns#"
   xmlns:rdf="http://www.w3.org/1999/02/22-rdf-syntax-ns#"
   xmlns:svg="http://www.w3.org/2000/svg"
   xmlns="http://www.w3.org/2000/svg"
   xmlns:sodipodi="http://sodipodi.sourceforge.net/DTD/sodipodi-0.dtd"
   xmlns:inkscape="http://www.inkscape.org/namespaces/inkscape"
   style="isolation:isolate"
   viewBox="0 0 256 256"
   width="256"
   height="256"
   version="1.1"
   id="svg64"
   sodipodi:docname="ipython.svg"
   inkscape:version="0.92.2 2405546, 2018-03-11">
  <metadata
     id="metadata68">
    <rdf:RDF>
      <cc:Work
         rdf:about="">
        <dc:format>image/svg+xml</dc:format>
        <dc:type
           rdf:resource="http://purl.org/dc/dcmitype/StillImage" />
      </cc:Work>
    </rdf:RDF>
  </metadata>
  <sodipodi:namedview
     pagecolor="#ffffff"
     bordercolor="#666666"
     borderopacity="1"
     objecttolerance="10"
     gridtolerance="10"
     guidetolerance="10"
     inkscape:pageopacity="0"
     inkscape:pageshadow="2"
     inkscape:window-width="1600"
     inkscape:window-height="826"
     id="namedview66"
     showgrid="false"
     inkscape:zoom="0.921875"
     inkscape:cx="6.5084746"
     inkscape:cy="128"
     inkscape:window-x="0"
     inkscape:window-y="0"
     inkscape:window-maximized="1"
     inkscape:current-layer="ipython" />
  <defs
     id="defs5">
    <clipPath
       id="_clipPath_Ppl4FYohok9P2cBL0gILZdxq1OrYhMl6">
      <rect
         width="256"
         height="256"
         id="rect2" />
    </clipPath>
  </defs>
  <g
     clip-path="url(#_clipPath_Ppl4FYohok9P2cBL0gILZdxq1OrYhMl6)"
     id="g62">
    <g
       id="ipython">
      <g
         opacity="0.2"
         id="g9">
        <path
           d=" M 165.685 13.986 C 239.74 13.986 250.324 24.543 250.324 98.53 L 250.324 157.78 C 250.324 231.767 239.74 242.324 165.685 242.324 L 90.315 242.324 C 16.26 242.324 5.676 231.767 5.676 157.78 L 5.676 98.53 C 5.676 24.543 16.26 13.986 90.315 13.986 L 165.685 13.986 Z "
           fill="rgb(0,0,0)"
           id="path7" />
      </g>
      <g
         opacity="0.1"
         id="g13">
        <path
           d=" M 165.685 11.947 C 239.74 11.947 250.324 22.504 250.324 96.491 L 250.324 155.742 C 250.324 229.728 239.74 240.285 165.685 240.285 L 90.315 240.285 C 16.26 240.285 5.676 229.728 5.676 155.742 L 5.676 96.491 C 5.676 22.504 16.26 11.947 90.315 11.947 L 165.685 11.947 Z "
           fill="rgb(0,0,0)"
           id="path11" />
      </g>
      <linearGradient
         id="_lgradient_0"
         x1="25.000005044039124%"
         y1="3.6057839047050955%"
         x2="75.00000234049597%"
         y2="96.39420920953658%">
        <stop
           offset="0%"
           stop-opacity="1"
           style="stop-color:#4f8c9f;stop-opacity:1"
           id="stop15" />
        <stop
           offset="100%"
           stop-opacity="1"
           style="stop-color:#67a2b4;stop-opacity:1"
           id="stop17" />
      </linearGradient>
      <path
         d=" M 165.685 11.947 C 239.74 11.947 250.324 22.504 250.324 96.491 L 250.324 155.742 C 250.324 229.728 239.74 240.285 165.685 240.285 L 90.315 240.285 C 16.26 240.285 5.676 229.728 5.676 155.742 L 5.676 96.491 C 5.676 22.504 16.26 11.947 90.315 11.947 L 165.685 11.947 Z "
         fill="url(#_lgradient_0)"
         id="path20" />
      <g
         id="g4583"
         filter="url(#dEPizWb9paA0U1pxJ8WWU1f7Cnhypia4)">
        <path
           d=" M 32.741 152.234 L 46.418 152.234 L 46.418 102.037 L 32.741 102.037 L 32.741 94.636 L 68.964 94.636 L 68.964 102.037 L 55.288 102.037 L 55.288 152.234 L 68.964 152.234 L 68.964 159.636 L 32.741 159.636 L 32.741 152.234 Z "
           fill="rgb(242,242,242)"
           id="path22" />
        <path
           d=" M 85.306 94.636 L 104.356 94.636 Q 115.192 94.636 120.916 99.555 Q 123.844 102.124 125.198 105.824 Q 126.553 109.481 126.553 114.096 Q 126.553 123.674 120.96 128.594 Q 115.411 133.514 104.356 133.514 L 94.132 133.514 L 94.132 159.636 L 85.306 159.636 L 85.306 94.636 Z  M 104.356 126.287 Q 107.633 126.287 109.993 125.416 Q 112.352 124.545 113.925 123.065 Q 117.334 119.843 117.334 114.053 Q 117.334 108.262 113.925 105.041 Q 110.605 101.863 104.356 101.863 L 94.132 101.863 L 94.132 126.287 L 104.356 126.287 Z "
           fill="rgb(242,242,242)"
           id="path24" />
        <path
           d=" M 139.633 102.492 L 151.119 102.492 L 151.119 106.352 L 144.618 106.352 L 144.618 147.919 L 151.119 147.919 L 151.119 151.779 L 139.633 151.779 L 139.633 102.492 Z "
           fill="rgb(91,219,193)"
           id="path26" />
        <path
           d=" M 174.389 141.528 Q 172.276 146.926 170.271 148.573 Q 168.267 150.219 164.908 150.219 L 160.926 150.219 L 160.926 146.062 L 163.851 146.062 Q 165.91 146.062 167.048 145.091 Q 168.186 144.119 169.567 140.502 L 170.461 138.235 L 158.189 108.49 L 163.472 108.49 L 172.953 132.135 L 182.435 108.49 L 187.717 108.49 L 174.389 141.528 Z "
           fill="rgb(242,242,242)"
           id="path28" />
        <path
           d=" M 206.246 102.492 L 206.246 151.779 L 194.76 151.779 L 194.76 147.919 L 201.235 147.919 L 201.235 106.352 L 194.76 106.352 L 194.76 102.492 L 206.246 102.492 Z "
           fill="rgb(91,219,193)"
           id="path30" />
        <path
           d=" M 217.543 134.572 L 223.259 134.572 L 223.259 141.428 L 217.543 141.428 L 217.543 134.572 Z  M 217.543 112.843 L 223.259 112.843 L 223.259 119.699 L 217.543 119.699 L 217.543 112.843 Z "
           fill="rgb(91,219,193)"
           id="path32" />
      </g>
      <defs
         id="defs46">
        <filter
           id="dEPizWb9paA0U1pxJ8WWU1f7Cnhypia4"
           x="-200%"
           y="-200%"
           width="400%"
           height="400%">
          <feOffset
             in="SourceAlpha"
             result="offOut"
             dx="0"
             dy="0"
             id="feOffset35" />
          <feGaussianBlur
             in="offOut"
             result="blurOut"
             stdDeviation="5"
             id="feGaussianBlur37" />
          <feComponentTransfer
             in="blurOut"
             result="opacOut"
             id="feComponentTransfer41">
            <feFuncA
               type="table"
               tableValues="0 0.5"
               id="feFuncA39" />
          </feComponentTransfer>
          <feBlend
             in="SourceGraphic"
             in2="opacOut"
             mode="normal"
             id="feBlend43" />
        </filter>
      </defs>
      <g
         opacity="0.4"
         id="g59">
        <linearGradient
           id="_lgradient_1"
           x1="51.666666666666686%"
           y1="0%"
           x2="51.66666666666666%"
           y2="100.00000000000003%">
          <stop
             offset="0%"
             stop-opacity="1"
             style="stop-color:rgb(255,255,255)"
             id="stop48" />
          <stop
             offset="12.5%"
             stop-opacity="0.09803922"
             style="stop-color:rgb(255,255,255)"
             id="stop50" />
          <stop
             offset="92.500001%"
             stop-opacity="0.09803922"
             style="stop-color:rgb(0,0,0)"
             id="stop52" />
          <stop
             offset="100%"
             stop-opacity="0.49803922"
             style="stop-color:rgb(0,0,0)"
             id="stop54" />
        </linearGradient>
        <path
           d=" M 165.685 11.947 C 239.74 11.947 250.324 22.504 250.324 96.491 L 250.324 155.742 C 250.324 229.728 239.74 240.285 165.685 240.285 L 90.315 240.285 C 16.26 240.285 5.676 229.728 5.676 155.742 L 5.676 96.491 C 5.676 22.504 16.26 11.947 90.315 11.947 L 165.685 11.947 Z "
           fill="none"
           vector-effect="non-scaling-stroke"
           stroke-width="4.077"
           stroke="url(#_lgradient_1)"
           stroke-linejoin="round"
           stroke-linecap="round"
           stroke-miterlimit="4"
           id="path57" />
      </g>
    </g>
  </g>
</svg>
