<?xml version="1.0" encoding="UTF-8" standalone="no"?>
<!-- Created with Inkscape (http://www.inkscape.org/) -->

<svg
   xmlns:dc="http://purl.org/dc/elements/1.1/"
   xmlns:cc="http://creativecommons.org/ns#"
   xmlns:rdf="http://www.w3.org/1999/02/22-rdf-syntax-ns#"
   xmlns:svg="http://www.w3.org/2000/svg"
   xmlns="http://www.w3.org/2000/svg"
   xmlns:xlink="http://www.w3.org/1999/xlink"
   xmlns:sodipodi="http://sodipodi.sourceforge.net/DTD/sodipodi-0.dtd"
   xmlns:inkscape="http://www.inkscape.org/namespaces/inkscape"
   width="256"
   height="256"
   viewBox="0 0 67.733332 67.733335"
   version="1.1"
   id="svg1488"
   inkscape:version="0.92.2 2405546, 2018-03-11"
   sodipodi:docname="gnome-characters.svg">
  <defs
     id="defs1482">
    <clipPath
       clipPathUnits="userSpaceOnUse"
       id="clipPath1025">
      <path
         id="path1027"
         d="M 111.94141,84 C 99.359506,84.145 90.1531,83.713998 82.625,87.867188 c -3.7641,2.0768 -6.751838,5.574737 -8.398438,9.960937 C 72.580062,102.21433 72,107.4241 72,114 v 42 h 160 v -26 c 0,-6.5759 -0.57996,-11.78566 -2.22656,-16.17188 -0.205,-0.5455 -0.47919,-1.03993 -0.74219,-1.54296 -0.1,-0.1848 -0.17844,-0.38051 -0.27344,-0.56641 -1.727,-3.38752 -4.25471,-6.14522 -7.38281,-7.87109 C 213.8463,99.694146 204.64049,100.1454 192.05859,100 H 192 151.66797 L 135.45312,84 h -23.49218 z"
         style="color:#000000;font-style:normal;font-variant:normal;font-weight:normal;font-stretch:normal;font-size:medium;line-height:normal;font-family:sans-serif;font-variant-ligatures:none;font-variant-position:normal;font-variant-caps:normal;font-variant-numeric:normal;font-variant-alternates:normal;font-feature-settings:normal;text-indent:0;text-align:start;text-decoration:none;text-decoration-line:none;text-decoration-style:solid;text-decoration-color:#000000;letter-spacing:normal;word-spacing:normal;text-transform:none;writing-mode:lr-tb;direction:ltr;baseline-shift:baseline;text-anchor:start;white-space:normal;shape-padding:0;clip-rule:nonzero;display:inline;overflow:visible;visibility:visible;opacity:1;isolation:auto;mix-blend-mode:normal;color-interpolation:sRGB;color-interpolation-filters:linearRGB;solid-color:#000000;solid-opacity:1;fill:#e3dfd5;fill-opacity:1;fill-rule:nonzero;stroke:none;stroke-width:4.00000048;stroke-linecap:butt;stroke-linejoin:miter;stroke-miterlimit:4;stroke-dasharray:none;stroke-dashoffset:0;stroke-opacity:1;marker:none;color-rendering:auto;image-rendering:auto;shape-rendering:auto;text-rendering:auto;enable-background:accumulate"
         inkscape:connector-curvature="0" />
    </clipPath>
    <clipPath
       clipPathUnits="userSpaceOnUse"
       id="clipPath1082-3">
      <path
         sodipodi:nodetypes="sssssssss"
         inkscape:connector-curvature="0"
         id="path1084-6"
         d="M 361.9375,-212 C 507.2348,-212 528,-191.28677 528,-46.125 V 70.125 C 528,215.28618 507.2348,236 361.9375,236 H 214.0625 C 68.7652,236 48,215.28618 48,70.125 V -46.125 C 48,-191.28677 68.7652,-212 214.0625,-212 Z"
         style="display:inline;opacity:1;fill:#8c59d9;fill-opacity:1;stroke:none;stroke-width:2;stroke-linecap:round;stroke-linejoin:round;stroke-miterlimit:4;stroke-dasharray:none;stroke-dashoffset:0;stroke-opacity:1;enable-background:new" />
    </clipPath>
    <clipPath
       clipPathUnits="userSpaceOnUse"
       id="clipPath1082-3-5">
      <path
         sodipodi:nodetypes="sssssssss"
         inkscape:connector-curvature="0"
         id="path1084-6-6"
         d="M 361.9375,-212 C 507.2348,-212 528,-191.28677 528,-46.125 V 70.125 C 528,215.28618 507.2348,236 361.9375,236 H 214.0625 C 68.7652,236 48,215.28618 48,70.125 V -46.125 C 48,-191.28677 68.7652,-212 214.0625,-212 Z"
         style="display:inline;opacity:1;fill:#8c59d9;fill-opacity:1;stroke:none;stroke-width:2;stroke-linecap:round;stroke-linejoin:round;stroke-miterlimit:4;stroke-dasharray:none;stroke-dashoffset:0;stroke-opacity:1;enable-background:new" />
    </clipPath>
    <clipPath
       clipPathUnits="userSpaceOnUse"
       id="clipPath1082-3-9">
      <path
         sodipodi:nodetypes="sssssssss"
         inkscape:connector-curvature="0"
         id="path1084-6-3"
         d="M 361.9375,-212 C 507.2348,-212 528,-191.28677 528,-46.125 V 70.125 C 528,215.28618 507.2348,236 361.9375,236 H 214.0625 C 68.7652,236 48,215.28618 48,70.125 V -46.125 C 48,-191.28677 68.7652,-212 214.0625,-212 Z"
         style="display:inline;opacity:1;fill:#8c59d9;fill-opacity:1;stroke:none;stroke-width:2;stroke-linecap:round;stroke-linejoin:round;stroke-miterlimit:4;stroke-dasharray:none;stroke-dashoffset:0;stroke-opacity:1;enable-background:new" />
    </clipPath>
    <clipPath
       clipPathUnits="userSpaceOnUse"
       id="clipPath1082-3-3">
      <path
         sodipodi:nodetypes="sssssssss"
         inkscape:connector-curvature="0"
         id="path1084-6-67"
         d="M 361.9375,-212 C 507.2348,-212 528,-191.28677 528,-46.125 V 70.125 C 528,215.28618 507.2348,236 361.9375,236 H 214.0625 C 68.7652,236 48,215.28618 48,70.125 V -46.125 C 48,-191.28677 68.7652,-212 214.0625,-212 Z"
         style="display:inline;opacity:1;fill:#8c59d9;fill-opacity:1;stroke:none;stroke-width:2;stroke-linecap:round;stroke-linejoin:round;stroke-miterlimit:4;stroke-dasharray:none;stroke-dashoffset:0;stroke-opacity:1;enable-background:new" />
    </clipPath>
    <clipPath
       clipPathUnits="userSpaceOnUse"
       id="clipPath1082-3-53">
      <path
         sodipodi:nodetypes="sssssssss"
         inkscape:connector-curvature="0"
         id="path1084-6-5"
         d="M 361.9375,-212 C 507.2348,-212 528,-191.28677 528,-46.125 V 70.125 C 528,215.28618 507.2348,236 361.9375,236 H 214.0625 C 68.7652,236 48,215.28618 48,70.125 V -46.125 C 48,-191.28677 68.7652,-212 214.0625,-212 Z"
         style="display:inline;opacity:1;fill:#8c59d9;fill-opacity:1;stroke:none;stroke-width:2;stroke-linecap:round;stroke-linejoin:round;stroke-miterlimit:4;stroke-dasharray:none;stroke-dashoffset:0;stroke-opacity:1;enable-background:new" />
    </clipPath>
    <clipPath
       clipPathUnits="userSpaceOnUse"
       id="clipPath1082-3-6">
      <path
         sodipodi:nodetypes="sssssssss"
         inkscape:connector-curvature="0"
         id="path1084-6-2"
         d="M 361.9375,-212 C 507.2348,-212 528,-191.28677 528,-46.125 V 70.125 C 528,215.28618 507.2348,236 361.9375,236 H 214.0625 C 68.7652,236 48,215.28618 48,70.125 V -46.125 C 48,-191.28677 68.7652,-212 214.0625,-212 Z"
         style="display:inline;opacity:1;fill:#8c59d9;fill-opacity:1;stroke:none;stroke-width:2;stroke-linecap:round;stroke-linejoin:round;stroke-miterlimit:4;stroke-dasharray:none;stroke-dashoffset:0;stroke-opacity:1;enable-background:new" />
    </clipPath>
    <clipPath
       clipPathUnits="userSpaceOnUse"
       id="clipPath1082-3-91">
      <path
         sodipodi:nodetypes="sssssssss"
         inkscape:connector-curvature="0"
         id="path1084-6-27"
         d="M 361.9375,-212 C 507.2348,-212 528,-191.28677 528,-46.125 V 70.125 C 528,215.28618 507.2348,236 361.9375,236 H 214.0625 C 68.7652,236 48,215.28618 48,70.125 V -46.125 C 48,-191.28677 68.7652,-212 214.0625,-212 Z"
         style="display:inline;opacity:1;fill:#8c59d9;fill-opacity:1;stroke:none;stroke-width:2;stroke-linecap:round;stroke-linejoin:round;stroke-miterlimit:4;stroke-dasharray:none;stroke-dashoffset:0;stroke-opacity:1;enable-background:new" />
    </clipPath>
    <clipPath
       clipPathUnits="userSpaceOnUse"
       id="clipPath1025-0">
      <path
         style="opacity:1;fill:#8c59d9;fill-opacity:1;stroke:none;stroke-width:2;stroke-linecap:round;stroke-linejoin:round;stroke-miterlimit:4;stroke-dasharray:none;stroke-dashoffset:0;stroke-opacity:1"
         d="M 329.9375,32 C 475.2348,32 496,52.71323 496,197.875 v 116.25 C 496,459.28618 475.2348,480 329.9375,480 H 182.0625 C 36.7652,480 16,459.28618 16,314.125 V 197.875 C 16,52.71323 36.7652,32 182.0625,32 Z"
         id="path1027-9"
         inkscape:connector-curvature="0"
         sodipodi:nodetypes="sssssssss" />
    </clipPath>
    <clipPath
       clipPathUnits="userSpaceOnUse"
       id="clipPath4277-8">
      <rect
         style="color:#000000;display:inline;overflow:visible;visibility:visible;opacity:0.81999972;fill:#88b637;fill-opacity:1;fill-rule:nonzero;stroke:none;stroke-width:2;stroke-linecap:butt;stroke-linejoin:miter;stroke-miterlimit:4;stroke-dasharray:none;stroke-dashoffset:0;stroke-opacity:1;marker:none;enable-background:accumulate"
         id="rect4279-6"
         width="512"
         height="512"
         x="5.5999999e-07"
         y="0"
         ry="1" />
    </clipPath>
    <linearGradient
       id="linearGradient3650-7-9">
      <stop
         style="stop-color:#5884f4;stop-opacity:1"
         offset="0"
         id="stop4366" />
      <stop
         id="stop4368"
         offset="1"
         style="stop-color:#80a3fa;stop-opacity:1" />
    </linearGradient>
    <clipPath
       clipPathUnits="userSpaceOnUse"
       id="clipPath1082-3-36">
      <path
         sodipodi:nodetypes="sssssssss"
         inkscape:connector-curvature="0"
         id="path1084-6-0"
         d="M 361.9375,-212 C 507.2348,-212 528,-191.28677 528,-46.125 V 70.125 C 528,215.28618 507.2348,236 361.9375,236 H 214.0625 C 68.7652,236 48,215.28618 48,70.125 V -46.125 C 48,-191.28677 68.7652,-212 214.0625,-212 Z"
         style="display:inline;opacity:1;fill:#8c59d9;fill-opacity:1;stroke:none;stroke-width:2;stroke-linecap:round;stroke-linejoin:round;stroke-miterlimit:4;stroke-dasharray:none;stroke-dashoffset:0;stroke-opacity:1;enable-background:new" />
    </clipPath>
    <clipPath
       clipPathUnits="userSpaceOnUse"
       id="clipPath983">
      <path
         id="path985"
         d="M 115.03125,44 C 42.3826,44 32,54.356615 32,126.9375 v 58.125 C 32,257.64309 42.3826,268 115.03125,268 H 152 V 44 Z"
         style="opacity:1;fill:#4d4d4d;fill-opacity:1;stroke:none;stroke-width:2;stroke-linecap:round;stroke-linejoin:round;stroke-miterlimit:4;stroke-dasharray:none;stroke-dashoffset:0;stroke-opacity:1"
         inkscape:connector-curvature="0" />
    </clipPath>
    <clipPath
       clipPathUnits="userSpaceOnUse"
       id="clipPath1082-3-62">
      <path
         sodipodi:nodetypes="sssssssss"
         inkscape:connector-curvature="0"
         id="path1084-6-61"
         d="M 361.9375,-212 C 507.2348,-212 528,-191.28677 528,-46.125 V 70.125 C 528,215.28618 507.2348,236 361.9375,236 H 214.0625 C 68.7652,236 48,215.28618 48,70.125 V -46.125 C 48,-191.28677 68.7652,-212 214.0625,-212 Z"
         style="display:inline;opacity:1;fill:#8c59d9;fill-opacity:1;stroke:none;stroke-width:2;stroke-linecap:round;stroke-linejoin:round;stroke-miterlimit:4;stroke-dasharray:none;stroke-dashoffset:0;stroke-opacity:1;enable-background:new" />
    </clipPath>
    <clipPath
       clipPathUnits="userSpaceOnUse"
       id="clipPath949">
      <path
         sodipodi:nodetypes="sssssssss"
         inkscape:connector-curvature="0"
         id="path951"
         d="M 329.9375,32 C 475.2348,32 496,52.71323 496,197.875 v 116.25 C 496,459.28618 475.2348,480 329.9375,480 H 182.0625 C 36.7652,480 16,459.28618 16,314.125 V 197.875 C 16,52.71323 36.7652,32 182.0625,32 Z"
         style="opacity:1;fill:#eab305;fill-opacity:1;stroke:none;stroke-width:4;stroke-linecap:round;stroke-linejoin:round;stroke-miterlimit:4;stroke-dasharray:none;stroke-dashoffset:0;stroke-opacity:1" />
    </clipPath>
    <clipPath
       clipPathUnits="userSpaceOnUse"
       id="clipPath954">
      <path
         sodipodi:nodetypes="sssssssss"
         inkscape:connector-curvature="0"
         id="path952"
         d="M 329.9375,32 C 475.2348,32 496,52.71323 496,197.875 v 116.25 C 496,459.28618 475.2348,480 329.9375,480 H 182.0625 C 36.7652,480 16,459.28618 16,314.125 V 197.875 C 16,52.71323 36.7652,32 182.0625,32 Z"
         style="opacity:1;fill:#eab305;fill-opacity:1;stroke:none;stroke-width:4;stroke-linecap:round;stroke-linejoin:round;stroke-miterlimit:4;stroke-dasharray:none;stroke-dashoffset:0;stroke-opacity:1" />
    </clipPath>
    <clipPath
       clipPathUnits="userSpaceOnUse"
       id="clipPath1082-3-8">
      <path
         sodipodi:nodetypes="sssssssss"
         inkscape:connector-curvature="0"
         id="path1084-6-7"
         d="M 361.9375,-212 C 507.2348,-212 528,-191.28677 528,-46.125 V 70.125 C 528,215.28618 507.2348,236 361.9375,236 H 214.0625 C 68.7652,236 48,215.28618 48,70.125 V -46.125 C 48,-191.28677 68.7652,-212 214.0625,-212 Z"
         style="display:inline;opacity:1;fill:#8c59d9;fill-opacity:1;stroke:none;stroke-width:2;stroke-linecap:round;stroke-linejoin:round;stroke-miterlimit:4;stroke-dasharray:none;stroke-dashoffset:0;stroke-opacity:1;enable-background:new" />
    </clipPath>
    <clipPath
       clipPathUnits="userSpaceOnUse"
       id="clipPath1082-3-92">
      <path
         sodipodi:nodetypes="sssssssss"
         inkscape:connector-curvature="0"
         id="path1084-6-02"
         d="M 361.9375,-212 C 507.2348,-212 528,-191.28677 528,-46.125 V 70.125 C 528,215.28618 507.2348,236 361.9375,236 H 214.0625 C 68.7652,236 48,215.28618 48,70.125 V -46.125 C 48,-191.28677 68.7652,-212 214.0625,-212 Z"
         style="display:inline;opacity:1;fill:#8c59d9;fill-opacity:1;stroke:none;stroke-width:2;stroke-linecap:round;stroke-linejoin:round;stroke-miterlimit:4;stroke-dasharray:none;stroke-dashoffset:0;stroke-opacity:1;enable-background:new" />
    </clipPath>
    <clipPath
       clipPathUnits="userSpaceOnUse"
       id="clipPath1082">
      <path
         sodipodi:nodetypes="sssssssss"
         inkscape:connector-curvature="0"
         id="path1084"
         d="M 361.9375,-212 C 507.2348,-212 528,-191.28677 528,-46.125 V 70.125 C 528,215.28618 507.2348,236 361.9375,236 H 214.0625 C 68.7652,236 48,215.28618 48,70.125 V -46.125 C 48,-191.28677 68.7652,-212 214.0625,-212 Z"
         style="display:inline;opacity:1;fill:#8c59d9;fill-opacity:1;stroke:none;stroke-width:2;stroke-linecap:round;stroke-linejoin:round;stroke-miterlimit:4;stroke-dasharray:none;stroke-dashoffset:0;stroke-opacity:1;enable-background:new" />
    </clipPath>
    <linearGradient
       inkscape:collect="always"
       xlink:href="#linearGradient1013"
       id="linearGradient1108"
       x1="296"
       y1="-212"
       x2="296"
       y2="236"
       gradientUnits="userSpaceOnUse" />
    <linearGradient
       id="linearGradient1013"
       inkscape:collect="always">
      <stop
         id="stop1005"
         offset="0"
         style="stop-color:#ffffff;stop-opacity:1;" />
      <stop
         style="stop-color:#ffffff;stop-opacity:0.09803922"
         offset="0.125"
         id="stop1007" />
      <stop
         style="stop-color:#000000;stop-opacity:0.09803922"
         offset="0.92500001"
         id="stop1009" />
      <stop
         id="stop1011"
         offset="1"
         style="stop-color:#000000;stop-opacity:0.49803922" />
    </linearGradient>
    <clipPath
       clipPathUnits="userSpaceOnUse"
       id="clipPath1082-3-361">
      <path
         sodipodi:nodetypes="sssssssss"
         inkscape:connector-curvature="0"
         id="path1084-6-29"
         d="M 361.9375,-212 C 507.2348,-212 528,-191.28677 528,-46.125 V 70.125 C 528,215.28618 507.2348,236 361.9375,236 H 214.0625 C 68.7652,236 48,215.28618 48,70.125 V -46.125 C 48,-191.28677 68.7652,-212 214.0625,-212 Z"
         style="display:inline;opacity:1;fill:#8c59d9;fill-opacity:1;stroke:none;stroke-width:2;stroke-linecap:round;stroke-linejoin:round;stroke-miterlimit:4;stroke-dasharray:none;stroke-dashoffset:0;stroke-opacity:1;enable-background:new" />
    </clipPath>
    <linearGradient
       id="linearGradient4245"
       inkscape:collect="always">
      <stop
         id="stop4241"
         offset="0"
         style="stop-color:#c58d67;stop-opacity:0.99607843" />
      <stop
         id="stop4243"
         offset="1"
         style="stop-color:#e6aa81;stop-opacity:0.99607843" />
    </linearGradient>
    <clipPath
       clipPathUnits="userSpaceOnUse"
       id="clipPath1079">
      <circle
         cx="213.84277"
         cy="146"
         r="55"
         style="color:#000000;display:inline;overflow:visible;visibility:visible;opacity:1;fill:url(#linearGradient1083);fill-opacity:1;fill-rule:nonzero;stroke:none;stroke-width:7.99999952;stroke-linecap:butt;stroke-linejoin:miter;stroke-miterlimit:4;stroke-dasharray:none;stroke-dashoffset:0;stroke-opacity:1;marker:none;enable-background:accumulate"
         id="circle1081"
         transform="scale(-1,1)" />
    </clipPath>
    <clipPath
       clipPathUnits="userSpaceOnUse"
       id="clipPath984">
      <circle
         cx="213.84277"
         cy="146"
         r="55"
         style="color:#000000;display:inline;overflow:visible;visibility:visible;opacity:1;fill:url(#linearGradient1083);fill-opacity:1;fill-rule:nonzero;stroke:none;stroke-width:7.99999952;stroke-linecap:butt;stroke-linejoin:miter;stroke-miterlimit:4;stroke-dasharray:none;stroke-dashoffset:0;stroke-opacity:1;marker:none;enable-background:accumulate"
         id="circle982"
         transform="scale(-1,1)" />
    </clipPath>
    <clipPath
       clipPathUnits="userSpaceOnUse"
       id="clipPath988">
      <circle
         cx="213.84277"
         cy="146"
         r="55"
         style="color:#000000;display:inline;overflow:visible;visibility:visible;opacity:1;fill:url(#linearGradient1083);fill-opacity:1;fill-rule:nonzero;stroke:none;stroke-width:7.99999952;stroke-linecap:butt;stroke-linejoin:miter;stroke-miterlimit:4;stroke-dasharray:none;stroke-dashoffset:0;stroke-opacity:1;marker:none;enable-background:accumulate"
         id="circle986"
         transform="scale(-1,1)" />
    </clipPath>
    <clipPath
       clipPathUnits="userSpaceOnUse"
       id="clipPath992">
      <circle
         cx="213.84277"
         cy="146"
         r="55"
         style="color:#000000;display:inline;overflow:visible;visibility:visible;opacity:1;fill:url(#linearGradient1083);fill-opacity:1;fill-rule:nonzero;stroke:none;stroke-width:7.99999952;stroke-linecap:butt;stroke-linejoin:miter;stroke-miterlimit:4;stroke-dasharray:none;stroke-dashoffset:0;stroke-opacity:1;marker:none;enable-background:accumulate"
         id="circle990"
         transform="scale(-1,1)" />
    </clipPath>
    <linearGradient
       gradientTransform="matrix(0.26970781,0,0,0.26970781,-7.1289179,220.5605)"
       inkscape:collect="always"
       xlink:href="#linearGradient4245"
       id="linearGradient1044"
       x1="88"
       y1="28"
       x2="256"
       y2="284"
       gradientUnits="userSpaceOnUse" />
    <filter
       inkscape:collect="always"
       style="color-interpolation-filters:sRGB"
       id="filter4569"
       x="-0.0116"
       width="1.0232"
       y="-0.012428571"
       height="1.024857">
      <feGaussianBlur
         inkscape:collect="always"
         stdDeviation="1.16"
         id="feGaussianBlur4571" />
    </filter>
    <filter
       inkscape:collect="always"
       style="color-interpolation-filters:sRGB"
       id="filter939"
       x="-0.0232"
       width="1.0464"
       y="-0.024857143"
       height="1.0497143">
      <feGaussianBlur
         inkscape:collect="always"
         stdDeviation="2.32"
         id="feGaussianBlur941" />
    </filter>
    <linearGradient
       gradientTransform="matrix(0.06614568,0,0,0.06614568,-0.83421845,227.4913)"
       x1="412.95001"
       y1="648.08002"
       x2="412.85999"
       gradientUnits="userSpaceOnUse"
       y2="376.45001"
       id="k">
      <stop
         id="stop11"
         offset="0"
         stop-color="#096fd2" />
      <stop
         id="stop13"
         offset="1"
         stop-color="#0e8ee9" />
    </linearGradient>
    <linearGradient
       gradientTransform="matrix(0.24245987,0,0,0.24245987,-348.52983,19.133178)"
       x1="511.60999"
       y1="1026.9"
       x2="511.60999"
       gradientUnits="userSpaceOnUse"
       y2="-0.32418999"
       id="l">
      <stop
         id="stop6"
         offset="0"
         stop-color="#096fd2" />
      <stop
         id="stop8"
         offset="1"
         stop-color="#0e8ee9" />
    </linearGradient>
    <linearGradient
       inkscape:collect="always"
       xlink:href="#l"
       id="linearGradient933"
       gradientUnits="userSpaceOnUse"
       gradientTransform="matrix(0.06415084,0,0,0.06415084,-94.500163,232.69685)"
       x1="511.60999"
       y1="1026.9"
       x2="511.60999"
       y2="-0.32418999" />
    <linearGradient
       id="linearGradient3650-7-9-7">
      <stop
         style="stop-color:#1e467f;stop-opacity:1"
         offset="0"
         id="stop4366-5" />
      <stop
         id="stop4368-3"
         offset="1"
         style="stop-color:#6697cc;stop-opacity:1" />
    </linearGradient>
    <clipPath
       clipPathUnits="userSpaceOnUse"
       id="clipPath1082-3-7">
      <path
         sodipodi:nodetypes="sssssssss"
         inkscape:connector-curvature="0"
         id="path1084-6-65"
         d="M 361.9375,-212 C 507.2348,-212 528,-191.28677 528,-46.125 V 70.125 C 528,215.28618 507.2348,236 361.9375,236 H 214.0625 C 68.7652,236 48,215.28618 48,70.125 V -46.125 C 48,-191.28677 68.7652,-212 214.0625,-212 Z"
         style="display:inline;opacity:1;fill:#8c59d9;fill-opacity:1;stroke:none;stroke-width:2;stroke-linecap:round;stroke-linejoin:round;stroke-miterlimit:4;stroke-dasharray:none;stroke-dashoffset:0;stroke-opacity:1;enable-background:new" />
    </clipPath>
    <clipPath
       clipPathUnits="userSpaceOnUse"
       id="clipPath942">
      <path
         sodipodi:nodetypes="sssssssss"
         inkscape:connector-curvature="0"
         id="path944"
         d="M 188.96875,44 C 261.6174,44 272,54.356615 272,126.9375 v 58.125 C 272,257.64309 261.6174,268 188.96875,268 h -73.9375 C 42.3826,268 32,257.64309 32,185.0625 v -58.125 C 32,54.356615 42.3826,44 115.03125,44 Z"
         style="display:inline;opacity:1;fill:#46a926;fill-opacity:1;stroke:none;stroke-width:2;stroke-linecap:round;stroke-linejoin:round;stroke-miterlimit:4;stroke-dasharray:none;stroke-dashoffset:0;stroke-opacity:1;enable-background:new" />
    </clipPath>
    <radialGradient
       cx="99.157013"
       cy="186.17059"
       r="62.769119"
       fx="99.157013"
       fy="186.17059"
       id="radialGradient4115"
       xlink:href="#linearGradient3820-7-2"
       gradientUnits="userSpaceOnUse"
       gradientTransform="matrix(0.10116439,0,0,0.03161388,-33.771025,262.62042)" />
    <linearGradient
       id="linearGradient3820-7-2">
      <stop
         id="stop3822-2-6"
         style="stop-color:#3d3d3d;stop-opacity:1"
         offset="0" />
      <stop
         id="stop3864-8-7"
         style="stop-color:#686868;stop-opacity:0.49803922"
         offset="0.5" />
      <stop
         id="stop3824-1-2"
         style="stop-color:#686868;stop-opacity:0"
         offset="1" />
    </linearGradient>
    <radialGradient
       cx="23.896"
       cy="3.99"
       r="20.396999"
       fx="23.896"
       fy="3.99"
       id="radialGradient3268"
       xlink:href="#radialGradient3093-0-3-6"
       gradientUnits="userSpaceOnUse"
       gradientTransform="matrix(0,1.0997812,-1.4516917,0,-17.94747,227.77615)" />
    <radialGradient
       cx="23.896"
       cy="3.99"
       r="20.396999"
       id="radialGradient3093-0-3-6"
       gradientUnits="userSpaceOnUse"
       gradientTransform="matrix(0,1.2316483,-1.625754,0,18.486966,-28.721977)">
      <stop
         id="stop3244-9-33-7-0"
         style="stop-color:#ffffff;stop-opacity:1"
         offset="0" />
      <stop
         id="stop3246-3-5-0-8"
         style="stop-color:#dddddd;stop-opacity:1"
         offset="0.26238" />
      <stop
         id="stop3248-1-7-8-8"
         style="stop-color:#abacae;stop-opacity:1"
         offset="0.66093999" />
      <stop
         id="stop3250-9-3-0-5"
         style="stop-color:#89898b;stop-opacity:1"
         offset="1" />
    </radialGradient>
    <linearGradient
       x1="71.204407"
       y1="15.369057"
       x2="71.204407"
       y2="40.495617"
       id="linearGradient3264"
       xlink:href="#linearGradient4806"
       gradientUnits="userSpaceOnUse"
       gradientTransform="matrix(0.61565223,0,0,0.61565223,-68.175247,244.86738)" />
    <linearGradient
       id="linearGradient4806">
      <stop
         id="stop4808"
         style="stop-color:#ffffff;stop-opacity:1"
         offset="0" />
      <stop
         id="stop4810"
         style="stop-color:#ffffff;stop-opacity:0.23529412"
         offset="0.42447853" />
      <stop
         id="stop4812"
         style="stop-color:#ffffff;stop-opacity:0.15686275"
         offset="0.82089913" />
      <stop
         id="stop4814"
         style="stop-color:#ffffff;stop-opacity:0.39215687"
         offset="1" />
    </linearGradient>
    <radialGradient
       gradientTransform="matrix(0,1.2316483,-1.625754,0,18.486966,-28.721977)"
       gradientUnits="userSpaceOnUse"
       id="radialGradient1513"
       r="20.396999"
       cy="3.99"
       cx="23.896">
      <stop
         offset="0"
         style="stop-color:#ffffff;stop-opacity:1"
         id="stop1505" />
      <stop
         offset="0.26238"
         style="stop-color:#ededed;stop-opacity:1"
         id="stop1507" />
      <stop
         offset="0.66093999"
         style="stop-color:#c8c8c8;stop-opacity:1"
         id="stop1509" />
      <stop
         offset="1"
         style="stop-color:#89898b;stop-opacity:1"
         id="stop1511" />
    </radialGradient>
    <radialGradient
       gradientTransform="matrix(0,1.2316483,-1.625754,0,18.486966,-28.721977)"
       gradientUnits="userSpaceOnUse"
       id="radialGradient922"
       r="20.396999"
       cy="3.99"
       cx="23.896">
      <stop
         offset="0"
         style="stop-color:#ffffff;stop-opacity:1"
         id="stop914" />
      <stop
         offset="0.26238"
         style="stop-color:#ededed;stop-opacity:1"
         id="stop916" />
      <stop
         offset="0.66093999"
         style="stop-color:#c8c8c8;stop-opacity:1"
         id="stop918" />
      <stop
         offset="1"
         style="stop-color:#89898b;stop-opacity:1"
         id="stop920" />
    </radialGradient>
    <filter
       inkscape:collect="always"
       style="color-interpolation-filters:sRGB"
       id="filter1022"
       x="-0.0464"
       width="1.0928"
       y="-0.049714286"
       height="1.0994286">
      <feGaussianBlur
         inkscape:collect="always"
         stdDeviation="0.84330323"
         id="feGaussianBlur1024" />
    </filter>
  </defs>
  <sodipodi:namedview
     id="base"
     pagecolor="#ffffff"
     bordercolor="#666666"
     borderopacity="1.0"
     inkscape:pageopacity="0.0"
     inkscape:pageshadow="2"
     inkscape:zoom="3.2421875"
     inkscape:cx="71.40241"
     inkscape:cy="128"
     inkscape:document-units="px"
     inkscape:current-layer="layer1"
     showgrid="true"
     units="px"
     inkscape:window-width="1869"
     inkscape:window-height="1023"
     inkscape:window-x="1417"
     inkscape:window-y="31"
     inkscape:window-maximized="1">
    <inkscape:grid
       type="xygrid"
       id="grid2168" />
  </sodipodi:namedview>
  <metadata
     id="metadata1485">
    <rdf:RDF>
      <cc:Work
         rdf:about="">
        <dc:format>image/svg+xml</dc:format>
        <dc:type
           rdf:resource="http://purl.org/dc/dcmitype/StillImage" />
        <dc:title></dc:title>
      </cc:Work>
    </rdf:RDF>
  </metadata>
  <g
     inkscape:label="Livello 1"
     inkscape:groupmode="layer"
     id="layer1"
     transform="translate(0,-229.26666)">
    <path
       style="display:inline;opacity:0.2;fill:#000000;fill-opacity:1;stroke:none;stroke-width:2;stroke-linecap:round;stroke-linejoin:round;stroke-miterlimit:4;stroke-dasharray:none;stroke-dashoffset:0;stroke-opacity:1;filter:url(#filter939);enable-background:new"
       d="m 162.53675,5.5680001 c 72.64865,0 83.03125,10.3566149 83.03125,82.9375049 v 58.125005 c 0,72.58059 -10.3826,82.9375 -83.03125,82.9375 H 88.599254 C 15.9506,229.56801 5.568,219.2111 5.568,146.63051 V 88.505505 c 0,-72.58089 10.3826,-82.9375049 83.031254,-82.9375049 z"
       id="path937"
       inkscape:connector-curvature="0"
       sodipodi:nodetypes="sssssssss"
       transform="matrix(0.26970779,0,0,0.26970779,-1.9098094e-8,231.46531)" />
    <path
       sodipodi:nodetypes="sssssssss"
       inkscape:connector-curvature="0"
       id="path4558"
       d="m 43.837429,232.42763 c 19.593907,0 22.394176,2.79326 22.394176,22.36889 v 15.67677 c 0,19.57555 -2.800269,22.36889 -22.394176,22.36889 H 23.89591 c -19.5939088,0 -22.394177,-2.79334 -22.394177,-22.36889 v -15.67677 c 0,-19.57563 2.8002682,-22.36889 22.394177,-22.36889 z"
       style="display:inline;opacity:0.1;fill:none;fill-opacity:1;stroke:#000000;stroke-width:1.07883108;stroke-linecap:round;stroke-linejoin:round;stroke-miterlimit:4;stroke-dasharray:none;stroke-dashoffset:0;stroke-opacity:1;enable-background:new" />
    <path
       sodipodi:nodetypes="sssssssss"
       inkscape:connector-curvature="0"
       id="path4567"
       d="m 162.53675,3.5680001 c 72.64865,0 83.03125,10.3566149 83.03125,82.9375049 v 58.125005 c 0,72.58059 -10.3826,82.9375 -83.03125,82.9375 H 88.599254 C 15.9506,227.56801 5.568,217.2111 5.568,144.63051 V 86.505505 c 0,-72.58089 10.3826,-82.9375049 83.031254,-82.9375049 z"
       style="display:inline;opacity:0.1;fill:#000000;fill-opacity:1;stroke:none;stroke-width:2;stroke-linecap:round;stroke-linejoin:round;stroke-miterlimit:4;stroke-dasharray:none;stroke-dashoffset:0;stroke-opacity:1;filter:url(#filter4569);enable-background:new"
       transform="matrix(0.26970779,0,0,0.26970779,-1.9098094e-8,231.46531)" />
    <path
       style="display:inline;opacity:1;fill:url(#linearGradient1044);fill-opacity:1;stroke:none;stroke-width:0.53941554;stroke-linecap:round;stroke-linejoin:round;stroke-miterlimit:4;stroke-dasharray:none;stroke-dashoffset:0;stroke-opacity:1;enable-background:new"
       d="m 43.837427,232.42763 c 19.593907,0 22.394175,2.79326 22.394175,22.36889 v 15.67677 c 0,19.57555 -2.800268,22.36889 -22.394175,22.36889 h -19.94152 c -19.5939074,0 -22.3941756,-2.79334 -22.3941756,-22.36889 v -15.67677 c 0,-19.57563 2.8002682,-22.36889 22.3941756,-22.36889 z"
       id="rect877"
       inkscape:connector-curvature="0"
       sodipodi:nodetypes="sssssssss" />
    <path
       sodipodi:nodetypes="sssssssss"
       inkscape:connector-curvature="0"
       id="path1068"
       d="M 361.9375,-212 C 507.2348,-212 528,-191.28677 528,-46.125 V 70.125 C 528,215.28618 507.2348,236 361.9375,236 H 214.0625 C 68.7652,236 48,215.28618 48,70.125 V -46.125 C 48,-191.28677 68.7652,-212 214.0625,-212 Z"
       style="display:inline;opacity:0.4;fill:none;fill-opacity:1;stroke:url(#linearGradient1108);stroke-width:8;stroke-linecap:round;stroke-linejoin:round;stroke-miterlimit:4;stroke-dasharray:none;stroke-dashoffset:0;stroke-opacity:1;enable-background:new"
       clip-path="url(#clipPath1082-3-361)"
       transform="matrix(0.1348539,0,0,0.1348539,-4.9712559,261.01666)" />
    <path
       style="display:inline;opacity:0.2;fill:#ffffff;fill-opacity:1;stroke:none;stroke-width:0.53941554;stroke-linecap:round;stroke-linejoin:round;stroke-miterlimit:4;stroke-dasharray:none;stroke-dashoffset:0;stroke-opacity:1;enable-background:new"
       d="m 33.866666,232.42763 v 60.41455 h 9.970761 c 19.593907,0 22.394175,-2.79334 22.394175,-22.36889 v -15.67677 c 0,-19.57563 -2.800268,-22.36889 -22.394175,-22.36889 z"
       id="path1099"
       inkscape:connector-curvature="0" />
    <path
       style="display:inline;opacity:0.2;fill:#ffffff;fill-opacity:1;stroke:none;stroke-width:0.53941506;stroke-linecap:round;stroke-linejoin:round;stroke-miterlimit:4;stroke-dasharray:none;stroke-dashoffset:0;stroke-opacity:1;enable-background:new"
       d="m 23.895907,292.84218 c -19.5939074,0 -22.3941756,-2.79325 -22.3941756,-22.36884 v -7.83837 H 66.231602 v 7.83837 c 0,19.57559 -2.800268,22.36884 -22.394175,22.36884 z"
       id="path1107"
       inkscape:connector-curvature="0" />
    <g
       id="g1977"
       transform="matrix(1.3287062,0,0,1.3287062,-11.873129,-86.096787)">
      <path
         sodipodi:nodetypes="sssssssss"
         inkscape:connector-curvature="0"
         id="path1004"
         d="m 41.143248,242.104 c 13.203629,0 15.09063,1.88229 15.09063,15.0736 v 10.56399 c 0,13.19128 -1.887001,15.0736 -15.09063,15.0736 H 27.705375 c -13.20363,0 -15.09063,-1.88232 -15.09063,-15.0736 V 257.1776 c 0,-13.19131 1.887,-15.0736 15.09063,-15.0736 z"
         style="display:inline;opacity:0.4;fill:#000000;fill-opacity:1;stroke:none;stroke-width:0.36349273;stroke-linecap:round;stroke-linejoin:round;stroke-miterlimit:4;stroke-dasharray:none;stroke-dashoffset:0;stroke-opacity:1;filter:url(#filter1022);enable-background:new" />
      <path
         style="display:inline;opacity:1;fill:#fcfcfc;fill-opacity:1;stroke:none;stroke-width:0.36349273;stroke-linecap:round;stroke-linejoin:round;stroke-miterlimit:4;stroke-dasharray:none;stroke-dashoffset:0;stroke-opacity:1;enable-background:new"
         d="m 41.143248,242.104 c 13.203629,0 15.09063,1.88229 15.09063,15.0736 v 10.56399 c 0,13.19128 -1.887001,15.0736 -15.09063,15.0736 H 27.705375 c -13.20363,0 -15.09063,-1.88232 -15.09063,-15.0736 V 257.1776 c 0,-13.19131 1.887,-15.0736 15.09063,-15.0736 z"
         id="path1969"
         inkscape:connector-curvature="0"
         sodipodi:nodetypes="sssssssss" />
      <path
         style="fill:none;stroke:#000000;stroke-width:0.19912855px;stroke-linecap:butt;stroke-linejoin:miter;stroke-opacity:1;opacity:0.2"
         d="M 12.918428,254.47132 H 55.731067"
         id="path943"
         inkscape:connector-curvature="0" />
      <path
         style="fill:none;stroke:#000000;stroke-width:0.19912855px;stroke-linecap:butt;stroke-linejoin:miter;stroke-opacity:1;opacity:0.2"
         d="m 12.918428,270.4016 h 42.812639 v 0 0"
         id="path945"
         inkscape:connector-curvature="0" />
      <g
         id="g3147"
         transform="translate(0,-0.14230447)">
        <path
           inkscape:connector-curvature="0"
           id="path1657"
           d="m 16.990533,280.05088 c -0.231677,-0.23167 0.02144,-0.79815 0.358054,-0.8013 0.118587,-10e-4 0.385745,-0.57878 0.895211,-1.93568 l 0.72618,-1.93409 -0.428453,-0.0621 c -0.518435,-0.0752 -0.672423,-0.21146 -0.624194,-0.55233 0.03595,-0.25408 0.05523,-0.25795 1.284482,-0.25795 h 1.247985 l 0.93306,2.32221 c 0.754457,1.8777 0.985246,2.34799 1.205691,2.4569 0.19939,0.0985 0.27263,0.22171 0.27263,0.45862 v 0.32394 l -1.088872,0.0315 c -0.929606,0.0269 -1.109052,0.004 -1.226838,-0.15716 -0.07588,-0.10377 -0.137966,-0.22487 -0.137966,-0.2691 0,-0.17456 0.356938,-0.42315 0.607577,-0.42315 0.310944,0 0.311758,-0.004 0.106827,-0.49424 l -0.158013,-0.37818 h -1.078583 c -1.049975,0 -1.08194,0.007 -1.205139,0.27776 -0.195466,0.429 -0.156943,0.59466 0.138284,0.59466 0.467371,0 0.761201,0.45706 0.476714,0.74155 -0.139506,0.13951 -2.171999,0.1908 -2.304637,0.0582 z m 3.635075,-2.58028 c 0,-0.0613 -0.56241,-1.42591 -0.674535,-1.63666 -0.05858,-0.1101 -0.124241,-0.18244 -0.145922,-0.16076 -0.02168,0.0217 -0.188228,0.44301 -0.370105,0.93629 l -0.330684,0.89686 h 0.760623 c 0.418343,0 0.760623,-0.0161 0.760623,-0.0357 z m -1.413384,-3.99041 c -0.627414,-0.228 -1.188382,-0.49005 -1.246596,-0.58234 -0.119049,-0.18873 0.172896,-0.73508 0.392794,-0.73508 0.09431,0 2.270647,1.20444 2.460594,1.36176 0.01641,0.0136 -0.0011,0.10533 -0.03893,0.20389 -0.09614,0.25053 -0.271907,0.22271 -1.567862,-0.24823 z"
           style="fill:#eb2507;stroke-width:0.10905226;fill-opacity:1" />
        <path
           inkscape:connector-curvature="0"
           id="path2384"
           d="m 18.456137,252.96684 c -0.04214,-0.0422 -0.07662,-0.61345 -0.07662,-1.26958 v -1.19297 l -0.623127,0.6662 c -0.487974,0.52172 -0.653745,0.63629 -0.764294,0.52828 -0.111207,-0.10864 -0.05454,-0.30379 0.266997,-0.91943 0.317256,-0.60745 0.890564,-2.1503 0.890564,-2.39664 0,-0.0217 -0.271037,-0.055 -0.602305,-0.0741 -0.465503,-0.0269 -0.610991,-0.0804 -0.640542,-0.23587 -0.03327,-0.17502 0.05979,-0.20112 0.717236,-0.20112 h 0.755471 v -0.57245 -0.57245 l -0.545917,0.0738 c -0.810536,0.10962 -0.861487,0.10686 -0.916641,-0.0495 -0.02958,-0.0838 0.156658,-0.23358 0.44735,-0.35968 0.970011,-0.42078 1.76758,-0.80738 2.186394,-1.05981 l 0.424142,-0.25564 0.524521,0.3922 c 0.351535,0.26286 0.509004,0.45835 0.477469,0.59278 -0.07086,0.30209 0.832644,0.6614 1.663181,0.6614 0.556899,0 0.697787,-0.0418 0.84423,-0.25096 0.154854,-0.22108 0.208087,-0.23367 0.447188,-0.10571 0.149276,0.0799 0.422209,0.27018 0.606516,0.42287 0.312158,0.25859 0.321333,0.28834 0.13398,0.43443 -0.180755,0.14093 -0.201128,0.41416 -0.201128,2.6973 0,2.39406 -0.01281,2.54734 -0.222304,2.65945 -0.122267,0.0654 -0.377583,0.11897 -0.567368,0.11897 -0.305296,0 -0.349214,-0.043 -0.381078,-0.37352 -0.0353,-0.3661 -0.04729,-0.37352 -0.603358,-0.37352 -0.540876,0 -0.571755,0.017 -0.661915,0.36496 -0.07221,0.27867 -0.188899,0.39609 -0.49351,0.49662 -0.219418,0.0724 -0.45167,0.0991 -0.516117,0.0593 -0.06614,-0.0409 -0.117177,-0.54189 -0.117177,-1.15025 v -1.07782 l -0.405394,0.0658 c -0.388383,0.063 -0.413173,0.046 -0.590821,-0.40627 -0.101985,-0.25963 -0.229869,-0.44459 -0.284186,-0.41102 -0.05432,0.0336 -0.09876,0.70265 -0.09876,1.48683 0,1.29203 -0.02086,1.43697 -0.222304,1.54478 -0.250672,0.13416 -0.734477,0.15824 -0.850375,0.0423 z m 4.83917,-3.62986 0.03126,-2.15494 H 22.691921 22.05727 v 2.10705 c 0,1.15888 0.03686,2.14392 0.08192,2.18896 0.04506,0.045 0.316578,0.0666 0.603382,0.0479 l 0.521464,-0.034 z m -2.387332,-0.37352 v -0.63212 h -0.689579 c -0.658554,0 -0.68958,0.0129 -0.68958,0.28674 0,0.22731 0.107473,0.33726 0.51865,0.53053 0.285257,0.13409 0.546902,0.28951 0.581432,0.34537 0.163186,0.26404 0.279077,0.0438 0.279077,-0.53052 z m -0.983814,-1.46164 c 0.173259,-0.24736 0.188365,-0.24906 0.512702,-0.0574 0.183801,0.10858 0.364992,0.19741 0.402647,0.19741 0.03766,0 0.06846,-0.30428 0.06846,-0.67617 0,-0.6142 -0.02422,-0.68082 -0.264184,-0.72669 -0.145301,-0.0278 -0.442682,0.009 -0.660847,0.0825 -0.383285,0.12858 -0.397825,0.15502 -0.431131,0.78415 -0.03686,0.69631 0.07717,0.81765 0.372348,0.39623 z"
           style="fill:#c221bf;stroke-width:0.11492991;stroke:none;stroke-opacity:1;fill-opacity:1" />
        <path
           inkscape:connector-curvature="0"
           id="path3127"
           d="m 21.501313,265.16912 c -0.994513,-0.2692 -1.807967,-1.45888 -1.807967,-2.64417 0,-0.30501 -0.03252,-0.32793 -0.465391,-0.32793 h -0.46539 v 1.10819 c 0,1.08298 0.0068,1.11076 0.298936,1.22184 0.219374,0.0834 0.289048,0.18327 0.261783,0.37524 -0.0357,0.25132 -0.08289,0.2616 -1.200632,0.2616 -1.112471,0 -1.165083,-0.0113 -1.200117,-0.25767 -0.0277,-0.19481 0.0367,-0.27608 0.263973,-0.33312 l 0.300613,-0.0754 -0.03128,-2.57557 c -0.03124,-2.57163 -0.03168,-2.57563 -0.293059,-2.61276 -0.189474,-0.0269 -0.261783,-0.11528 -0.261783,-0.31995 0,-0.28152 0.0054,-0.28278 1.221651,-0.28278 h 1.221651 v 0.29088 c 0,0.21236 -0.0622,0.29086 -0.230479,0.29086 -0.296468,0 -0.372499,0.31062 -0.328096,1.34043 l 0.03501,0.812 0.436303,0.0361 c 0.362175,0.03 0.436305,-8.4e-4 0.436305,-0.1825 0,-0.12023 0.08433,-0.50257 0.187399,-0.84964 0.325785,-1.09703 1.317473,-1.8532 2.430423,-1.8532 1.020826,0 1.838753,0.55222 2.280226,1.53947 0.230557,0.51558 0.273714,0.80357 0.274735,1.83332 0.001,1.02533 -0.0413,1.31445 -0.263277,1.79914 -0.323861,0.70712 -0.543077,0.95768 -1.070032,1.22299 -0.584606,0.29434 -1.361027,0.36415 -2.031507,0.18266 z m 1.414183,-0.70312 c 0.456799,-0.31995 0.675641,-1.15104 0.674065,-2.55985 -0.0022,-1.9115 -0.361121,-2.61782 -1.330488,-2.61782 -0.859195,0 -1.277532,0.84218 -1.283058,2.58302 -0.0039,1.24547 0.187746,2.04669 0.584661,2.4436 0.371123,0.37112 0.948687,0.43551 1.35482,0.15105 z"
           style="fill:#2c5db8;stroke-width:0.11634769;fill-opacity:1" />
      </g>
    </g>
    <path
       style="font-style:normal;font-weight:normal;font-size:118.51851654px;line-height:1000%;font-family:sans-serif;letter-spacing:0px;word-spacing:0px;display:inline;fill:#5d5d5d;fill-opacity:1;stroke:none;stroke-width:0.80977035px;stroke-linecap:butt;stroke-linejoin:miter;stroke-opacity:1;enable-background:new"
       d="m 33.787579,240.88 c -1.117484,0 -2.078381,0.0779 -2.882969,0.23433 -0.782235,0.15645 -1.363392,0.32403 -1.743336,0.50283 l 0.301587,1.91095 c 0.290544,-0.11175 0.748703,-0.25677 1.374493,-0.43557 0.625792,-0.1788 1.575943,-0.2685 2.849874,-0.2685 0.893984,0 1.608888,0.14556 2.145278,0.43611 0.558741,0.26819 0.983596,0.63719 1.274143,1.10653 0.312896,0.44699 0.513779,0.96101 0.603173,1.5421 0.0894,0.55874 0.133983,1.13937 0.133983,1.74281 v 1.07291 c -0.0894,-0.0447 -0.25698,-0.0893 -0.502822,-0.13399 -0.223497,-0.067 -0.502796,-0.1229 -0.838044,-0.1676 -0.312897,-0.067 -0.648052,-0.11163 -1.00565,-0.13398 -0.335243,-0.0447 -0.659127,-0.0673 -0.972018,-0.0673 -1.050434,0 -2.022609,0.10044 -2.916596,0.30159 -0.893989,0.20115 -1.66528,0.52556 -2.313424,0.97255 -0.648138,0.42465 -1.150874,0.97197 -1.508472,1.64246 -0.3576,0.67049 -0.536459,1.47508 -0.536459,2.41377 0,0.98338 0.156301,1.82182 0.469205,2.51466 0.33524,0.67049 0.782121,1.22908 1.340866,1.67608 0.581091,0.42464 1.251941,0.73725 2.011831,0.93839 0.782238,0.20115 1.631411,0.30212 2.547752,0.30212 0.715187,0 1.408063,-0.0338 2.078552,-0.10088 0.692841,-0.0447 1.31858,-0.11184 1.877319,-0.20124 0.558742,-0.0894 1.0502,-0.16728 1.474846,-0.23433 0.424643,-0.0894 0.749057,-0.16781 0.972555,-0.23487 v -10.92869 c 0,-0.91634 -0.11172,-1.76605 -0.335216,-2.54829 -0.223496,-0.78224 -0.581213,-1.45256 -1.072909,-2.0113 -0.491691,-0.58109 -1.139987,-1.02797 -1.944574,-1.34086 -0.782235,-0.33525 -1.743136,-0.50283 -2.882968,-0.50283 z m 12.420091,8.73912 v 23.71976 h 2.543482 l 0.793201,-1.02379 c 1.58573,0.925 3.171418,1.35421 4.790178,1.35421 4.757179,0 7.564789,-3.53474 7.564789,-8.358 0,-4.82325 -1.948981,-8.22614 -6.838307,-8.22614 -1.883047,0 -3.435704,0.46295 -4.79018,1.15671 v -8.62275 z m -11.749655,0.47987 c 0.93868,0 1.67614,0.0671 2.212532,0.20123 0.536392,0.11175 0.927412,0.22347 1.173258,0.33522 v 6.10169 c -0.446995,0.0894 -0.994312,0.16728 -1.642454,0.23433 -0.625787,0.0447 -1.363247,0.0673 -2.212535,0.0673 -0.692838,0 -1.318577,-0.0559 -1.877316,-0.16761 -0.536395,-0.1341 -1.005831,-0.33552 -1.408123,-0.60371 -0.379946,-0.2682 -0.681803,-0.62538 -0.9053,-1.07237 -0.201143,-0.447 -0.301589,-0.99485 -0.301589,-1.64299 0,-0.73754 0.156305,-1.32998 0.469197,-1.77697 0.312897,-0.44699 0.715194,-0.7929 1.206885,-1.03874 0.491694,-0.2682 1.028269,-0.43631 1.609362,-0.50336 0.581089,-0.0894 1.139691,-0.13398 1.676083,-0.13398 z m 19.611761,10.28976 c 2.841093,0 3.766381,2.0483 3.766381,5.15368 0,3.10538 -1.453502,4.92256 -4.162449,4.92256 -1.321441,0 -2.444832,-0.33016 -3.402875,-1.08999 v -8.09376 c 0.792866,-0.33036 2.345359,-0.89249 3.798943,-0.89249 z m -19.536499,4.51368 c -1.688152,0 -3.241843,0.26449 -4.661002,0.7932 -1.419161,0.52871 -2.64339,1.28944 -3.672976,2.28193 -1.020311,0.99248 -1.818404,2.2075 -2.393488,3.64521 -0.575084,1.43771 -0.862595,3.06098 -0.862595,4.86971 0,1.13162 0.176509,2.16092 0.52898,3.08848 0.352471,0.92755 0.871725,1.72051 1.558116,2.37907 0.686391,0.65857 1.535115,1.16915 2.546153,1.5309 1.011039,0.36174 2.180026,0.54232 3.50643,0.54232 0.621464,0 1.247652,-0.0368 1.878385,-0.11103 0.630741,-0.0649 1.242582,-0.15345 1.836218,-0.26475 0.593632,-0.12059 1.154853,-0.25514 1.683554,-0.40354 0.537986,-0.14841 1.025017,-0.30137 1.460969,-0.45906 l 0.848714,-4.38237 h -0.904227 l -1.001913,2.7965 c -0.287544,0.22261 -0.630822,0.43594 -1.029669,0.64 -0.398848,0.19479 -0.839319,0.37077 -1.321649,0.52845 -0.473052,0.15769 -0.983103,0.28303 -1.530359,0.37579 -0.547259,0.0928 -1.108472,0.13931 -1.683554,0.13931 -0.992487,0 -1.841209,-0.15296 -2.546152,-0.45905 -0.704943,-0.30609 -1.284572,-0.72815 -1.739074,-1.26614 -0.454503,-0.54725 -0.788576,-1.19699 -1.001914,-1.94831 -0.204061,-0.75132 -0.306392,-1.56729 -0.306392,-2.44847 0,-1.63249 0.218469,-3.11201 0.65442,-4.43841 0.435951,-1.32641 1.03859,-2.45804 1.808466,-3.39487 0.779145,-0.93683 1.702051,-1.65561 2.768737,-2.15649 1.06669,-0.51015 2.231076,-0.76544 3.492551,-0.76544 0.890454,0 1.743778,0.11153 2.560028,0.33414 0.81625,0.21334 1.511477,0.51926 2.086562,0.91811 v 2.42125 h 0.904764 l 0.626129,-4.07705 c -0.825524,-0.18551 -1.730016,-0.34767 -2.713226,-0.48681 -0.983205,-0.14841 -2.110237,-0.22258 -3.380986,-0.22258 z"
       id="text899"
       inkscape:connector-curvature="0" />
  </g>
</svg>
