<?xml version="1.0" encoding="UTF-8" standalone="no"?>
<!-- Generator: Gravit.io -->

<svg
   xmlns:dc="http://purl.org/dc/elements/1.1/"
   xmlns:cc="http://creativecommons.org/ns#"
   xmlns:rdf="http://www.w3.org/1999/02/22-rdf-syntax-ns#"
   xmlns:svg="http://www.w3.org/2000/svg"
   xmlns="http://www.w3.org/2000/svg"
   xmlns:sodipodi="http://sodipodi.sourceforge.net/DTD/sodipodi-0.dtd"
   xmlns:inkscape="http://www.inkscape.org/namespaces/inkscape"
   style="isolation:isolate"
   viewBox="0 0 256 256"
   width="256"
   height="256"
   version="1.1"
   id="svg40"
   sodipodi:docname="yaourtgui.svg"
   inkscape:version="0.92.2 2405546, 2018-03-11">
  <metadata
     id="metadata44">
    <rdf:RDF>
      <cc:Work
         rdf:about="">
        <dc:format>image/svg+xml</dc:format>
        <dc:type
           rdf:resource="http://purl.org/dc/dcmitype/StillImage" />
      </cc:Work>
    </rdf:RDF>
  </metadata>
  <sodipodi:namedview
     pagecolor="#ffffff"
     bordercolor="#666666"
     borderopacity="1"
     objecttolerance="10"
     gridtolerance="10"
     guidetolerance="10"
     inkscape:pageopacity="0"
     inkscape:pageshadow="2"
     inkscape:window-width="1600"
     inkscape:window-height="826"
     id="namedview42"
     showgrid="false"
     inkscape:zoom="0.921875"
     inkscape:cx="6.5084746"
     inkscape:cy="128"
     inkscape:window-x="0"
     inkscape:window-y="0"
     inkscape:window-maximized="1"
     inkscape:current-layer="yaourtgui" />
  <defs
     id="defs5">
    <clipPath
       id="_clipPath_zKijUh8ECVeKAUKwJyE77qob4GD63WhR">
      <rect
         width="256"
         height="256"
         id="rect2" />
    </clipPath>
  </defs>
  <g
     clip-path="url(#_clipPath_zKijUh8ECVeKAUKwJyE77qob4GD63WhR)"
     id="g38">
    <g
       id="yaourtgui">
      <g
         opacity="0.2"
         id="g9">
        <path
           d=" M 165.685 13.986 C 239.74 13.986 250.324 24.543 250.324 98.53 L 250.324 157.78 C 250.324 231.767 239.74 242.324 165.685 242.324 L 90.315 242.324 C 16.26 242.324 5.676 231.767 5.676 157.78 L 5.676 98.53 C 5.676 24.543 16.26 13.986 90.315 13.986 L 165.685 13.986 Z "
           fill="rgb(0,0,0)"
           id="path7" />
      </g>
      <g
         opacity="0.1"
         id="g13">
        <path
           d=" M 165.685 11.947 C 239.74 11.947 250.324 22.504 250.324 96.491 L 250.324 155.742 C 250.324 229.728 239.74 240.285 165.685 240.285 L 90.315 240.285 C 16.26 240.285 5.676 229.728 5.676 155.742 L 5.676 96.491 C 5.676 22.504 16.26 11.947 90.315 11.947 L 165.685 11.947 Z "
           fill="rgb(0,0,0)"
           id="path11" />
      </g>
      <linearGradient
         id="_lgradient_23"
         x1="25.000005044039124%"
         y1="3.6057839047050955%"
         x2="75.00000234049597%"
         y2="96.39420920953658%">
        <stop
           offset="0%"
           stop-opacity="1"
           style="stop-color:rgb(26,127,212)"
           id="stop15" />
        <stop
           offset="100%"
           stop-opacity="1"
           style="stop-color:rgb(55,166,230)"
           id="stop17" />
      </linearGradient>
      <path
         d=" M 165.685 11.947 C 239.74 11.947 250.324 22.504 250.324 96.491 L 250.324 155.742 C 250.324 229.728 239.74 240.285 165.685 240.285 L 90.315 240.285 C 16.26 240.285 5.676 229.728 5.676 155.742 L 5.676 96.491 C 5.676 22.504 16.26 11.947 90.315 11.947 L 165.685 11.947 Z "
         fill="url(#_lgradient_23)"
         id="path20"
         style="fill:#67a2b4;fill-opacity:1" />
      <path
         d=" M 111.728 85.759 L 127.677 117.871 L 130.263 117.871 L 146.211 88.56 L 162.375 53 L 188.668 56.879 L 168.841 92.871 L 140.823 147.612 L 143.194 203 L 113.022 203 L 115.177 151.276 L 88.022 96.103 L 67.332 58.388 L 97.72 53 L 111.728 85.759 Z "
         fill="rgb(242,242,242)"
         id="path22" />
      <g
         opacity="0.4"
         id="g35">
        <linearGradient
           id="_lgradient_24"
           x1="51.666666666666686%"
           y1="0%"
           x2="51.66666666666666%"
           y2="100.00000000000003%">
          <stop
             offset="0%"
             stop-opacity="1"
             style="stop-color:rgb(255,255,255)"
             id="stop24" />
          <stop
             offset="12.5%"
             stop-opacity="0.09803922"
             style="stop-color:rgb(255,255,255)"
             id="stop26" />
          <stop
             offset="92.500001%"
             stop-opacity="0.09803922"
             style="stop-color:rgb(0,0,0)"
             id="stop28" />
          <stop
             offset="100%"
             stop-opacity="0.49803922"
             style="stop-color:rgb(0,0,0)"
             id="stop30" />
        </linearGradient>
        <path
           d=" M 165.685 11.947 C 239.74 11.947 250.324 22.504 250.324 96.491 L 250.324 155.742 C 250.324 229.728 239.74 240.285 165.685 240.285 L 90.315 240.285 C 16.26 240.285 5.676 229.728 5.676 155.742 L 5.676 96.491 C 5.676 22.504 16.26 11.947 90.315 11.947 L 165.685 11.947 Z "
           fill="none"
           vector-effect="non-scaling-stroke"
           stroke-width="4.077"
           stroke="url(#_lgradient_24)"
           stroke-linejoin="round"
           stroke-linecap="round"
           stroke-miterlimit="4"
           id="path33" />
      </g>
    </g>
  </g>
</svg>
