<?xml version="1.0" encoding="UTF-8" standalone="no"?>
<!-- Created with Inkscape (http://www.inkscape.org/) -->

<svg
   xmlns:dc="http://purl.org/dc/elements/1.1/"
   xmlns:cc="http://creativecommons.org/ns#"
   xmlns:rdf="http://www.w3.org/1999/02/22-rdf-syntax-ns#"
   xmlns:svg="http://www.w3.org/2000/svg"
   xmlns="http://www.w3.org/2000/svg"
   xmlns:xlink="http://www.w3.org/1999/xlink"
   xmlns:sodipodi="http://sodipodi.sourceforge.net/DTD/sodipodi-0.dtd"
   xmlns:inkscape="http://www.inkscape.org/namespaces/inkscape"
   width="128"
   height="128"
   viewBox="0 0 33.866666 33.866668"
   version="1.1"
   id="svg366"
   inkscape:version="0.92.2 2405546, 2018-03-11"
   sodipodi:docname="insync-folder-linux.svg">
  <defs
     id="defs360">
    <clipPath
       clipPathUnits="userSpaceOnUse"
       id="clipPath977">
      <path
         id="path979"
         d="M 78.994141,52 C 43.625611,52 40,53.999146 40,89.296875 V 140 H 264 V 108.92188 C 264,73.624145 260.37439,68 225.00586,68 H 138 L 122,52 Z"
         style="color:#000000;display:inline;overflow:visible;visibility:visible;fill:#f6531e;fill-opacity:1;fill-rule:nonzero;stroke:none;stroke-width:1;marker:none;enable-background:accumulate"
         inkscape:connector-curvature="0" />
    </clipPath>
    <linearGradient
       inkscape:collect="always"
       id="linearGradient1361">
      <stop
         style="stop-color:#ffffff;stop-opacity:1;"
         offset="0"
         id="stop1357" />
      <stop
         style="stop-color:#ffffff;stop-opacity:0.20392157"
         offset="1"
         id="stop1359" />
    </linearGradient>
    <clipPath
       clipPathUnits="userSpaceOnUse"
       id="clipPath977-3">
      <path
         id="path979-6"
         d="M 78.994141,52 C 43.625611,52 40,53.999146 40,89.296875 V 140 H 264 V 108.92188 C 264,73.624145 260.37439,68 225.00586,68 H 138 L 122,52 Z"
         style="color:#000000;display:inline;overflow:visible;visibility:visible;fill:#f6531e;fill-opacity:1;fill-rule:nonzero;stroke:none;stroke-width:1;marker:none;enable-background:accumulate"
         inkscape:connector-curvature="0" />
    </clipPath>
    <linearGradient
       inkscape:collect="always"
       id="linearGradient1055">
      <stop
         style="stop-color:#000000;stop-opacity:1;"
         offset="0"
         id="stop1051" />
      <stop
         id="stop1059"
         offset="0.1589853"
         style="stop-color:#000000;stop-opacity:0.43290043" />
      <stop
         style="stop-color:#000000;stop-opacity:0.0995671"
         offset="0.19443204"
         id="stop1061" />
      <stop
         style="stop-color:#000000;stop-opacity:0;"
         offset="1"
         id="stop1053" />
    </linearGradient>
    <filter
       inkscape:collect="always"
       style="color-interpolation-filters:sRGB"
       id="filter1344-3"
       x="-0.011357143"
       width="1.0227143"
       y="-0.01272"
       height="1.02544">
      <feGaussianBlur
         inkscape:collect="always"
         stdDeviation="1.06"
         id="feGaussianBlur1346-6" />
    </filter>
    <filter
       inkscape:collect="always"
       style="color-interpolation-filters:sRGB"
       id="filter959-7"
       x="-0.011357143"
       width="1.0227143"
       y="-0.01272"
       height="1.02544">
      <feGaussianBlur
         inkscape:collect="always"
         stdDeviation="1.06"
         id="feGaussianBlur961-5" />
    </filter>
    <filter
       inkscape:collect="always"
       style="color-interpolation-filters:sRGB"
       id="filter1067-9"
       x="-0.056785714"
       width="1.1135714"
       y="-0.063600004"
       height="1.1272">
      <feGaussianBlur
         inkscape:collect="always"
         stdDeviation="5.3"
         id="feGaussianBlur1069-1" />
    </filter>
    <clipPath
       clipPathUnits="userSpaceOnUse"
       id="clipPath977-3-2">
      <path
         id="path979-6-7"
         d="M 78.994141,52 C 43.625611,52 40,53.999146 40,89.296875 V 140 H 264 V 108.92188 C 264,73.624145 260.37439,68 225.00586,68 H 138 L 122,52 Z"
         style="color:#000000;display:inline;overflow:visible;visibility:visible;fill:#f6531e;fill-opacity:1;fill-rule:nonzero;stroke:none;stroke-width:1;marker:none;enable-background:accumulate"
         inkscape:connector-curvature="0" />
    </clipPath>
    <filter
       inkscape:collect="always"
       style="color-interpolation-filters:sRGB"
       id="filter989-0"
       x="-0.053571429"
       width="1.1071429"
       y="-0.06818182"
       height="1.1363636">
      <feGaussianBlur
         inkscape:collect="always"
         stdDeviation="5"
         id="feGaussianBlur991-9" />
    </filter>
    <linearGradient
       gradientUnits="userSpaceOnUse"
       y2="478"
       x2="224"
       y1="86"
       x1="224"
       id="linearGradient4226-3"
       xlink:href="#linearGradient4338-6"
       inkscape:collect="always"
       gradientTransform="matrix(0.06442688,0,0,0.06442688,263.43372,41.900812)" />
    <linearGradient
       inkscape:collect="always"
       id="linearGradient4338-6">
      <stop
         style="stop-color:#548fa2;stop-opacity:1"
         offset="0"
         id="stop4340-0" />
      <stop
         style="stop-color:#87bccd;stop-opacity:1"
         offset="1"
         id="stop4342-6" />
    </linearGradient>
    <radialGradient
       inkscape:collect="always"
       xlink:href="#linearGradient1361"
       id="radialGradient1371-2"
       cx="152"
       cy="-0.12591045"
       fx="152"
       fy="-0.12591045"
       r="112"
       gradientTransform="matrix(0.14218346,0,0,0.03740052,258.31512,44.007171)"
       gradientUnits="userSpaceOnUse" />
    <radialGradient
       inkscape:collect="always"
       xlink:href="#linearGradient1361"
       id="radialGradient1363-8"
       cx="148"
       cy="39.683556"
       fx="148"
       fy="39.683556"
       r="112"
       gradientTransform="matrix(0.14218346,0,0,0.03613103,258.31512,47.687258)"
       gradientUnits="userSpaceOnUse" />
    <linearGradient
       inkscape:collect="always"
       xlink:href="#linearGradient1055"
       id="linearGradient924"
       gradientUnits="userSpaceOnUse"
       gradientTransform="translate(-27.28,-38.771199)"
       x1="264"
       y1="252"
       x2="48"
       y2="52" />
  </defs>
  <sodipodi:namedview
     id="base"
     pagecolor="#ffffff"
     bordercolor="#666666"
     borderopacity="1.0"
     inkscape:pageopacity="0.0"
     inkscape:pageshadow="2"
     inkscape:zoom="3.28"
     inkscape:cx="-5.4423312"
     inkscape:cy="64"
     inkscape:document-units="mm"
     inkscape:current-layer="layer1"
     showgrid="false"
     units="px"
     inkscape:window-width="1600"
     inkscape:window-height="826"
     inkscape:window-x="0"
     inkscape:window-y="0"
     inkscape:window-maximized="1" />
  <metadata
     id="metadata363">
    <rdf:RDF>
      <cc:Work
         rdf:about="">
        <dc:format>image/svg+xml</dc:format>
        <dc:type
           rdf:resource="http://purl.org/dc/dcmitype/StillImage" />
        <dc:title />
      </cc:Work>
    </rdf:RDF>
  </metadata>
  <g
     inkscape:label="Livello 1"
     inkscape:groupmode="layer"
     id="layer1"
     transform="translate(0,-263.13332)">
    <g
       style="color:#000000"
       transform="matrix(0.95489871,0,0,0.95489871,-250.3686,225.89957)"
       id="g902">
      <g
         id="g936">
        <path
           transform="matrix(0.14218346,0,0,0.14218346,262.19388,40.984061)"
           inkscape:connector-curvature="0"
           id="path2049-7"
           d="M 51.714141,15.228801 C 16.345611,15.228801 12.72,17.227947 12.72,52.525676 v 41.625005 9.078119 73.07812 c 0,35.29774 3.625611,38.92188 38.994141,38.92188 H 197.72586 c 35.36853,0 38.99414,-3.62414 38.99414,-38.92188 v -73.07812 -25.078119 -6 c 0,-35.29774 -3.62561,-40.92188 -38.99414,-40.92188 H 110.72 l -16,-16 z"
           style="color:#000000;display:inline;overflow:visible;visibility:visible;opacity:0.1;fill:#000000;fill-opacity:1;fill-rule:nonzero;stroke:none;stroke-width:1;marker:none;filter:url(#filter1344-3);enable-background:accumulate" />
        <path
           transform="matrix(0.14218346,0,0,0.14218346,262.19388,40.984061)"
           sodipodi:nodetypes="ssccssssccssccs"
           inkscape:connector-curvature="0"
           id="path2055-9"
           d="M 51.714141,14.228801 C 16.345611,14.228801 12.72,16.227947 12.72,51.525676 v 41.625005 60.656239 29.5 c 0,35.29774 3.625611,38.92188 38.994141,38.92188 H 197.72586 c 35.36853,0 38.99414,-3.62414 38.99414,-38.92188 v -29.5 -76.656239 -6 c 0,-35.297735 -3.62561,-40.92188 -38.99414,-40.92188 H 110.72 l -16,-16 z"
           style="color:#000000;display:inline;overflow:visible;visibility:visible;opacity:0.1;fill:#000000;fill-opacity:1;fill-rule:nonzero;stroke:none;stroke-width:1;marker:none;filter:url(#filter959-7);enable-background:accumulate" />
        <path
           transform="matrix(0.14218346,0,0,0.14218346,262.19388,40.984061)"
           sodipodi:nodetypes="ssccssssccssccs"
           style="color:#000000;display:inline;overflow:visible;visibility:visible;opacity:0.4;fill:url(#linearGradient924);fill-opacity:1;fill-rule:nonzero;stroke:none;stroke-width:1;marker:none;filter:url(#filter1067-9);enable-background:accumulate"
           d="M 51.714141,13.228801 C 16.345611,13.228801 12.72,15.227947 12.72,50.525676 v 41.625005 9.078119 81.07812 c 0,35.29774 3.625611,38.92188 38.994141,38.92188 H 197.72586 c 35.36853,0 38.99414,-3.62414 38.99414,-38.92188 v -81.07812 -25.078119 -6 c 0,-35.29774 -3.62561,-40.92188 -38.99414,-40.92188 H 110.72 l -16,-16 z"
           id="path2057-2"
           inkscape:connector-curvature="0" />
        <path
           sodipodi:nodetypes="ssccssccs"
           inkscape:connector-curvature="0"
           id="path2059-0"
           d="m 269.54678,42.864976 c -5.02882,0 -5.54432,0.28425 -5.54432,5.303003 v 7.209141 h 31.84909 v -4.418793 c 0,-5.018752 -0.5155,-5.818418 -5.54432,-5.818418 h -12.3708 l -2.27493,-2.274933 z"
           style="color:#000000;display:inline;overflow:visible;visibility:visible;fill:#326677;fill-opacity:1;fill-rule:nonzero;stroke:none;stroke-width:0.14218347;marker:none;enable-background:accumulate" />
        <path
           transform="matrix(0.14218346,0,0,0.14218346,258.31512,36.608905)"
           clip-path="url(#clipPath977-3-2)"
           inkscape:connector-curvature="0"
           id="path2061-2"
           d="M 78.99353,92 C 43.625,92 40,95.625 40,130.92273 v 82.15454 C 40,248.375 43.625,252 78.99353,252 H 225.00647 C 260.375,252 264,248.375 264,213.07727 V 114.92273 C 264,79.625 260.375,76 225.00647,76 H 143.75 l -16.00782,16 z"
           style="color:#000000;display:inline;overflow:visible;visibility:visible;opacity:0.5;fill:#903906;fill-opacity:1;fill-rule:nonzero;stroke:none;stroke-width:1;marker:none;filter:url(#filter989-0);enable-background:accumulate"
           sodipodi:nodetypes="ssssssssccs" />
        <path
           sodipodi:nodetypes="ssssssssccs"
           style="color:#000000;display:inline;overflow:visible;visibility:visible;fill:url(#linearGradient4226-3);fill-opacity:1;fill-rule:nonzero;stroke:none;stroke-width:0.14218347;marker:none;enable-background:accumulate"
           d="m 269.54669,49.689784 c -5.02882,0 -5.54423,0.515416 -5.54423,5.534168 v 11.681019 c 0,5.018754 0.51541,5.53417 5.54423,5.53417 h 20.76063 c 5.02882,0 5.54423,-0.515416 5.54423,-5.53417 V 52.94902 c 0,-5.018752 -0.51541,-5.534168 -5.54423,-5.534168 h -11.55333 l -2.27605,2.274932 z"
           id="path2063-3"
           inkscape:connector-curvature="0" />
        <path
           sodipodi:nodetypes="sscsccscssccs"
           inkscape:connector-curvature="0"
           id="path2065-7"
           d="m 269.54678,42.864976 c -5.02882,0 -5.54432,0.28425 -5.54432,5.303003 v 0.284365 c 0,-5.018752 0.5155,-5.302992 5.54432,-5.302992 h 6.11472 l 2.27493,2.274932 h 12.3708 c 5.02882,0 5.54432,0.799656 5.54432,5.818408 v -0.284365 c 0,-5.018752 -0.5155,-5.818418 -5.54432,-5.818418 h -12.3708 l -2.27493,-2.274933 z"
           style="color:#000000;display:inline;overflow:visible;visibility:visible;opacity:0.4;fill:url(#radialGradient1371-2);fill-opacity:1;fill-rule:nonzero;stroke:none;stroke-width:0.14218347;marker:none;enable-background:accumulate" />
        <path
           sodipodi:nodetypes="ccsscsccscssc"
           inkscape:connector-curvature="0"
           id="path2067-5"
           d="m 278.75399,47.414852 -2.27605,2.274932 h -6.93116 c -5.02882,0 -5.54432,0.51529 -5.54432,5.534042 v 0.284376 c 0,-5.018752 0.5155,-5.534053 5.54432,-5.534053 h 6.93116 l 2.27605,-2.274932 h 11.55324 c 5.02882,0 5.54432,0.51529 5.54432,5.534042 v -0.284365 c 0,-5.018752 -0.5155,-5.534042 -5.54432,-5.534042 z"
           style="color:#000000;display:inline;overflow:visible;visibility:visible;opacity:0.4;fill:url(#radialGradient1363-8);fill-opacity:1;fill-rule:nonzero;stroke:none;stroke-width:0.14218347;marker:none;enable-background:accumulate" />
        <path
           sodipodi:nodetypes="ccssc"
           inkscape:connector-curvature="0"
           id="path2069-9"
           d="m 295.85155,63.055024 -9.09974,9.099749 h 3.55542 c 5.02882,0 5.54432,-0.515299 5.54432,-5.534052 z"
           style="color:#000000;display:inline;overflow:visible;visibility:visible;opacity:0.1;fill:#ffffff;fill-opacity:1;fill-rule:nonzero;stroke:none;stroke-width:0.14218347;marker:none;enable-background:accumulate" />
        <path
           inkscape:connector-curvature="0"
           id="path2089-2"
           d="m 264.00246,66.620721 v 0.284366 c 0,5.018762 0.5155,5.534054 5.54432,5.534054 h 20.76045 c 5.02882,0 5.54432,-0.515292 5.54432,-5.534054 v -0.284366 c 0,5.018753 -0.5155,5.534052 -5.54432,5.534052 h -20.76045 c -5.02882,0 -5.54432,-0.515299 -5.54432,-5.534052 z"
           style="color:#000000;display:inline;overflow:visible;visibility:visible;opacity:0.2;fill:#491706;fill-opacity:1;fill-rule:nonzero;stroke:none;stroke-width:0.14218347;marker:none;enable-background:accumulate" />
      </g>
      <g
         id="g870"
         transform="matrix(0.32043814,0,0,0.32043814,199.6234,40.163757)"
         style="opacity:0.7">
        <path
           id="path955"
           d="m 245.98762,64.446461 a 14.777597,14.777597 0 0 1 14.7776,-14.777619"
           style="fill:none;stroke:#ffffff;stroke-width:3.69439888;stroke-linecap:square"
           inkscape:connector-curvature="0" />
        <path
           id="path957"
           d="m 253.37642,64.446461 a 7.3887981,7.3887981 0 0 1 7.3888,-7.388804"
           style="fill:none;stroke:#ffffff;stroke-width:3.69439888;stroke-linecap:square"
           inkscape:connector-curvature="0" />
        <path
           id="path959"
           d="m 238.59882,64.446461 a 22.166395,22.166395 0 0 1 22.1664,-22.166392"
           style="fill:none;stroke:#ffffff;stroke-width:3.69439888;stroke-linecap:square"
           inkscape:connector-curvature="0" />
        <rect
           id="rect961"
           y="71.835281"
           x="258.91803"
           height="11.083197"
           width="5.5415983"
           style="fill:#ffffff;stroke-width:0.92359972" />
        <circle
           id="circle963"
           r="2.7707992"
           cy="65.37014"
           cx="261.68881"
           style="fill:#ffffff;stroke-width:0.92359972" />
      </g>
    </g>
  </g>
</svg>
