<?xml version="1.0" encoding="UTF-8" standalone="no"?>
<!-- Created with Inkscape (http://www.inkscape.org/) -->

<svg
   xmlns:osb="http://www.openswatchbook.org/uri/2009/osb"
   xmlns:dc="http://purl.org/dc/elements/1.1/"
   xmlns:cc="http://creativecommons.org/ns#"
   xmlns:rdf="http://www.w3.org/1999/02/22-rdf-syntax-ns#"
   xmlns:svg="http://www.w3.org/2000/svg"
   xmlns="http://www.w3.org/2000/svg"
   xmlns:xlink="http://www.w3.org/1999/xlink"
   xmlns:sodipodi="http://sodipodi.sourceforge.net/DTD/sodipodi-0.dtd"
   xmlns:inkscape="http://www.inkscape.org/namespaces/inkscape"
   width="80mm"
   height="100mm"
   viewBox="0 0 80 100"
   version="1.1"
   id="svg8"
   inkscape:version="0.92.3 (2405546, 2018-03-11)"
   sodipodi:docname="Title.svg">
  <defs
     id="defs2">
    <linearGradient
       osb:paint="solid"
       id="linearGradient963">
      <stop
         id="stop961"
         offset="0"
         style="stop-color:#000000;stop-opacity:1;" />
    </linearGradient>
    <clipPath
       id="clipPath1025"
       clipPathUnits="userSpaceOnUse">
      <path
         inkscape:connector-curvature="0"
         style="color:#000000;font-style:normal;font-variant:normal;font-weight:normal;font-stretch:normal;font-size:medium;line-height:normal;font-family:sans-serif;font-variant-ligatures:none;font-variant-position:normal;font-variant-caps:normal;font-variant-numeric:normal;font-variant-alternates:normal;font-feature-settings:normal;text-indent:0;text-align:start;text-decoration:none;text-decoration-line:none;text-decoration-style:solid;text-decoration-color:#000000;letter-spacing:normal;word-spacing:normal;text-transform:none;writing-mode:lr-tb;direction:ltr;baseline-shift:baseline;text-anchor:start;white-space:normal;shape-padding:0;clip-rule:nonzero;display:inline;overflow:visible;visibility:visible;opacity:1;isolation:auto;mix-blend-mode:normal;color-interpolation:sRGB;color-interpolation-filters:linearRGB;solid-color:#000000;solid-opacity:1;fill:#e3dfd5;fill-opacity:1;fill-rule:nonzero;stroke:none;stroke-width:4.00000048;stroke-linecap:butt;stroke-linejoin:miter;stroke-miterlimit:4;stroke-dasharray:none;stroke-dashoffset:0;stroke-opacity:1;marker:none;color-rendering:auto;image-rendering:auto;shape-rendering:auto;text-rendering:auto;enable-background:accumulate"
         d="M 111.94141,84 C 99.359506,84.145 90.1531,83.713998 82.625,87.867188 c -3.7641,2.0768 -6.751838,5.574737 -8.398438,9.960937 C 72.580062,102.21433 72,107.4241 72,114 v 42 h 160 v -26 c 0,-6.5759 -0.57996,-11.78566 -2.22656,-16.17188 -0.205,-0.5455 -0.47919,-1.03993 -0.74219,-1.54296 -0.1,-0.1848 -0.17844,-0.38051 -0.27344,-0.56641 -1.727,-3.38752 -4.25471,-6.14522 -7.38281,-7.87109 C 213.8463,99.694146 204.64049,100.1454 192.05859,100 H 192 151.66797 L 135.45312,84 h -23.49218 z"
         id="path1027" />
    </clipPath>
    <clipPath
       id="clipPath1082-3"
       clipPathUnits="userSpaceOnUse">
      <path
         style="display:inline;opacity:1;fill:#8c59d9;fill-opacity:1;stroke:none;stroke-width:2;stroke-linecap:round;stroke-linejoin:round;stroke-miterlimit:4;stroke-dasharray:none;stroke-dashoffset:0;stroke-opacity:1;enable-background:new"
         d="M 361.9375,-212 C 507.2348,-212 528,-191.28677 528,-46.125 V 70.125 C 528,215.28618 507.2348,236 361.9375,236 H 214.0625 C 68.7652,236 48,215.28618 48,70.125 V -46.125 C 48,-191.28677 68.7652,-212 214.0625,-212 Z"
         id="path1084-6"
         inkscape:connector-curvature="0"
         sodipodi:nodetypes="sssssssss" />
    </clipPath>
    <clipPath
       id="clipPath1082-3-5"
       clipPathUnits="userSpaceOnUse">
      <path
         style="display:inline;opacity:1;fill:#8c59d9;fill-opacity:1;stroke:none;stroke-width:2;stroke-linecap:round;stroke-linejoin:round;stroke-miterlimit:4;stroke-dasharray:none;stroke-dashoffset:0;stroke-opacity:1;enable-background:new"
         d="M 361.9375,-212 C 507.2348,-212 528,-191.28677 528,-46.125 V 70.125 C 528,215.28618 507.2348,236 361.9375,236 H 214.0625 C 68.7652,236 48,215.28618 48,70.125 V -46.125 C 48,-191.28677 68.7652,-212 214.0625,-212 Z"
         id="path1084-6-6"
         inkscape:connector-curvature="0"
         sodipodi:nodetypes="sssssssss" />
    </clipPath>
    <clipPath
       id="clipPath1082-3-9"
       clipPathUnits="userSpaceOnUse">
      <path
         style="display:inline;opacity:1;fill:#8c59d9;fill-opacity:1;stroke:none;stroke-width:2;stroke-linecap:round;stroke-linejoin:round;stroke-miterlimit:4;stroke-dasharray:none;stroke-dashoffset:0;stroke-opacity:1;enable-background:new"
         d="M 361.9375,-212 C 507.2348,-212 528,-191.28677 528,-46.125 V 70.125 C 528,215.28618 507.2348,236 361.9375,236 H 214.0625 C 68.7652,236 48,215.28618 48,70.125 V -46.125 C 48,-191.28677 68.7652,-212 214.0625,-212 Z"
         id="path1084-6-3"
         inkscape:connector-curvature="0"
         sodipodi:nodetypes="sssssssss" />
    </clipPath>
    <clipPath
       id="clipPath1082-3-3"
       clipPathUnits="userSpaceOnUse">
      <path
         style="display:inline;opacity:1;fill:#8c59d9;fill-opacity:1;stroke:none;stroke-width:2;stroke-linecap:round;stroke-linejoin:round;stroke-miterlimit:4;stroke-dasharray:none;stroke-dashoffset:0;stroke-opacity:1;enable-background:new"
         d="M 361.9375,-212 C 507.2348,-212 528,-191.28677 528,-46.125 V 70.125 C 528,215.28618 507.2348,236 361.9375,236 H 214.0625 C 68.7652,236 48,215.28618 48,70.125 V -46.125 C 48,-191.28677 68.7652,-212 214.0625,-212 Z"
         id="path1084-6-67"
         inkscape:connector-curvature="0"
         sodipodi:nodetypes="sssssssss" />
    </clipPath>
    <clipPath
       id="clipPath1082-3-53"
       clipPathUnits="userSpaceOnUse">
      <path
         style="display:inline;opacity:1;fill:#8c59d9;fill-opacity:1;stroke:none;stroke-width:2;stroke-linecap:round;stroke-linejoin:round;stroke-miterlimit:4;stroke-dasharray:none;stroke-dashoffset:0;stroke-opacity:1;enable-background:new"
         d="M 361.9375,-212 C 507.2348,-212 528,-191.28677 528,-46.125 V 70.125 C 528,215.28618 507.2348,236 361.9375,236 H 214.0625 C 68.7652,236 48,215.28618 48,70.125 V -46.125 C 48,-191.28677 68.7652,-212 214.0625,-212 Z"
         id="path1084-6-5"
         inkscape:connector-curvature="0"
         sodipodi:nodetypes="sssssssss" />
    </clipPath>
    <clipPath
       id="clipPath1082-3-6"
       clipPathUnits="userSpaceOnUse">
      <path
         style="display:inline;opacity:1;fill:#8c59d9;fill-opacity:1;stroke:none;stroke-width:2;stroke-linecap:round;stroke-linejoin:round;stroke-miterlimit:4;stroke-dasharray:none;stroke-dashoffset:0;stroke-opacity:1;enable-background:new"
         d="M 361.9375,-212 C 507.2348,-212 528,-191.28677 528,-46.125 V 70.125 C 528,215.28618 507.2348,236 361.9375,236 H 214.0625 C 68.7652,236 48,215.28618 48,70.125 V -46.125 C 48,-191.28677 68.7652,-212 214.0625,-212 Z"
         id="path1084-6-2"
         inkscape:connector-curvature="0"
         sodipodi:nodetypes="sssssssss" />
    </clipPath>
    <clipPath
       id="clipPath1082-3-91"
       clipPathUnits="userSpaceOnUse">
      <path
         style="display:inline;opacity:1;fill:#8c59d9;fill-opacity:1;stroke:none;stroke-width:2;stroke-linecap:round;stroke-linejoin:round;stroke-miterlimit:4;stroke-dasharray:none;stroke-dashoffset:0;stroke-opacity:1;enable-background:new"
         d="M 361.9375,-212 C 507.2348,-212 528,-191.28677 528,-46.125 V 70.125 C 528,215.28618 507.2348,236 361.9375,236 H 214.0625 C 68.7652,236 48,215.28618 48,70.125 V -46.125 C 48,-191.28677 68.7652,-212 214.0625,-212 Z"
         id="path1084-6-27"
         inkscape:connector-curvature="0"
         sodipodi:nodetypes="sssssssss" />
    </clipPath>
    <clipPath
       id="clipPath1025-0"
       clipPathUnits="userSpaceOnUse">
      <path
         sodipodi:nodetypes="sssssssss"
         inkscape:connector-curvature="0"
         id="path1027-9"
         d="M 329.9375,32 C 475.2348,32 496,52.71323 496,197.875 v 116.25 C 496,459.28618 475.2348,480 329.9375,480 H 182.0625 C 36.7652,480 16,459.28618 16,314.125 V 197.875 C 16,52.71323 36.7652,32 182.0625,32 Z"
         style="opacity:1;fill:#8c59d9;fill-opacity:1;stroke:none;stroke-width:2;stroke-linecap:round;stroke-linejoin:round;stroke-miterlimit:4;stroke-dasharray:none;stroke-dashoffset:0;stroke-opacity:1" />
    </clipPath>
    <clipPath
       id="clipPath4277-8"
       clipPathUnits="userSpaceOnUse">
      <rect
         ry="1"
         y="0"
         x="5.5999999e-07"
         height="512"
         width="512"
         id="rect4279-6"
         style="color:#000000;display:inline;overflow:visible;visibility:visible;opacity:0.81999966;fill:#88b637;fill-opacity:1;fill-rule:nonzero;stroke:none;stroke-width:2;stroke-linecap:butt;stroke-linejoin:miter;stroke-miterlimit:4;stroke-dasharray:none;stroke-dashoffset:0;stroke-opacity:1;marker:none;enable-background:accumulate" />
    </clipPath>
    <linearGradient
       id="linearGradient3650-7-9">
      <stop
         id="stop4366"
         offset="0"
         style="stop-color:#5884f4;stop-opacity:1" />
      <stop
         style="stop-color:#80a3fa;stop-opacity:1"
         offset="1"
         id="stop4368" />
    </linearGradient>
    <clipPath
       id="clipPath1082-3-36"
       clipPathUnits="userSpaceOnUse">
      <path
         style="display:inline;opacity:1;fill:#8c59d9;fill-opacity:1;stroke:none;stroke-width:2;stroke-linecap:round;stroke-linejoin:round;stroke-miterlimit:4;stroke-dasharray:none;stroke-dashoffset:0;stroke-opacity:1;enable-background:new"
         d="M 361.9375,-212 C 507.2348,-212 528,-191.28677 528,-46.125 V 70.125 C 528,215.28618 507.2348,236 361.9375,236 H 214.0625 C 68.7652,236 48,215.28618 48,70.125 V -46.125 C 48,-191.28677 68.7652,-212 214.0625,-212 Z"
         id="path1084-6-0"
         inkscape:connector-curvature="0"
         sodipodi:nodetypes="sssssssss" />
    </clipPath>
    <clipPath
       id="clipPath983"
       clipPathUnits="userSpaceOnUse">
      <path
         inkscape:connector-curvature="0"
         style="opacity:1;fill:#4d4d4d;fill-opacity:1;stroke:none;stroke-width:2;stroke-linecap:round;stroke-linejoin:round;stroke-miterlimit:4;stroke-dasharray:none;stroke-dashoffset:0;stroke-opacity:1"
         d="M 115.03125,44 C 42.3826,44 32,54.356615 32,126.9375 v 58.125 C 32,257.64309 42.3826,268 115.03125,268 H 152 V 44 Z"
         id="path985" />
    </clipPath>
    <clipPath
       id="clipPath1082-3-62"
       clipPathUnits="userSpaceOnUse">
      <path
         style="display:inline;opacity:1;fill:#8c59d9;fill-opacity:1;stroke:none;stroke-width:2;stroke-linecap:round;stroke-linejoin:round;stroke-miterlimit:4;stroke-dasharray:none;stroke-dashoffset:0;stroke-opacity:1;enable-background:new"
         d="M 361.9375,-212 C 507.2348,-212 528,-191.28677 528,-46.125 V 70.125 C 528,215.28618 507.2348,236 361.9375,236 H 214.0625 C 68.7652,236 48,215.28618 48,70.125 V -46.125 C 48,-191.28677 68.7652,-212 214.0625,-212 Z"
         id="path1084-6-61"
         inkscape:connector-curvature="0"
         sodipodi:nodetypes="sssssssss" />
    </clipPath>
    <clipPath
       id="clipPath949"
       clipPathUnits="userSpaceOnUse">
      <path
         style="opacity:1;fill:#eab305;fill-opacity:1;stroke:none;stroke-width:4;stroke-linecap:round;stroke-linejoin:round;stroke-miterlimit:4;stroke-dasharray:none;stroke-dashoffset:0;stroke-opacity:1"
         d="M 329.9375,32 C 475.2348,32 496,52.71323 496,197.875 v 116.25 C 496,459.28618 475.2348,480 329.9375,480 H 182.0625 C 36.7652,480 16,459.28618 16,314.125 V 197.875 C 16,52.71323 36.7652,32 182.0625,32 Z"
         id="path951"
         inkscape:connector-curvature="0"
         sodipodi:nodetypes="sssssssss" />
    </clipPath>
    <clipPath
       id="clipPath954"
       clipPathUnits="userSpaceOnUse">
      <path
         style="opacity:1;fill:#eab305;fill-opacity:1;stroke:none;stroke-width:4;stroke-linecap:round;stroke-linejoin:round;stroke-miterlimit:4;stroke-dasharray:none;stroke-dashoffset:0;stroke-opacity:1"
         d="M 329.9375,32 C 475.2348,32 496,52.71323 496,197.875 v 116.25 C 496,459.28618 475.2348,480 329.9375,480 H 182.0625 C 36.7652,480 16,459.28618 16,314.125 V 197.875 C 16,52.71323 36.7652,32 182.0625,32 Z"
         id="path952"
         inkscape:connector-curvature="0"
         sodipodi:nodetypes="sssssssss" />
    </clipPath>
    <clipPath
       id="clipPath1082-3-8"
       clipPathUnits="userSpaceOnUse">
      <path
         style="display:inline;opacity:1;fill:#8c59d9;fill-opacity:1;stroke:none;stroke-width:2;stroke-linecap:round;stroke-linejoin:round;stroke-miterlimit:4;stroke-dasharray:none;stroke-dashoffset:0;stroke-opacity:1;enable-background:new"
         d="M 361.9375,-212 C 507.2348,-212 528,-191.28677 528,-46.125 V 70.125 C 528,215.28618 507.2348,236 361.9375,236 H 214.0625 C 68.7652,236 48,215.28618 48,70.125 V -46.125 C 48,-191.28677 68.7652,-212 214.0625,-212 Z"
         id="path1084-6-7"
         inkscape:connector-curvature="0"
         sodipodi:nodetypes="sssssssss" />
    </clipPath>
    <clipPath
       id="clipPath1082-3-92"
       clipPathUnits="userSpaceOnUse">
      <path
         style="display:inline;opacity:1;fill:#8c59d9;fill-opacity:1;stroke:none;stroke-width:2;stroke-linecap:round;stroke-linejoin:round;stroke-miterlimit:4;stroke-dasharray:none;stroke-dashoffset:0;stroke-opacity:1;enable-background:new"
         d="M 361.9375,-212 C 507.2348,-212 528,-191.28677 528,-46.125 V 70.125 C 528,215.28618 507.2348,236 361.9375,236 H 214.0625 C 68.7652,236 48,215.28618 48,70.125 V -46.125 C 48,-191.28677 68.7652,-212 214.0625,-212 Z"
         id="path1084-6-02"
         inkscape:connector-curvature="0"
         sodipodi:nodetypes="sssssssss" />
    </clipPath>
    <clipPath
       id="clipPath1082"
       clipPathUnits="userSpaceOnUse">
      <path
         style="display:inline;opacity:1;fill:#8c59d9;fill-opacity:1;stroke:none;stroke-width:2;stroke-linecap:round;stroke-linejoin:round;stroke-miterlimit:4;stroke-dasharray:none;stroke-dashoffset:0;stroke-opacity:1;enable-background:new"
         d="M 361.9375,-212 C 507.2348,-212 528,-191.28677 528,-46.125 V 70.125 C 528,215.28618 507.2348,236 361.9375,236 H 214.0625 C 68.7652,236 48,215.28618 48,70.125 V -46.125 C 48,-191.28677 68.7652,-212 214.0625,-212 Z"
         id="path1084"
         inkscape:connector-curvature="0"
         sodipodi:nodetypes="sssssssss" />
    </clipPath>
    <linearGradient
       gradientUnits="userSpaceOnUse"
       y2="236"
       x2="296"
       y1="-212"
       x1="296"
       id="linearGradient1108"
       xlink:href="#linearGradient1013"
       inkscape:collect="always" />
    <linearGradient
       inkscape:collect="always"
       id="linearGradient1013">
      <stop
         style="stop-color:#ffffff;stop-opacity:1;"
         offset="0"
         id="stop1005" />
      <stop
         id="stop1007"
         offset="0.125"
         style="stop-color:#ffffff;stop-opacity:0.09803922" />
      <stop
         id="stop1009"
         offset="0.92500001"
         style="stop-color:#000000;stop-opacity:0.09803922" />
      <stop
         style="stop-color:#000000;stop-opacity:0.49803922"
         offset="1"
         id="stop1011" />
    </linearGradient>
    <clipPath
       id="clipPath1082-3-361"
       clipPathUnits="userSpaceOnUse">
      <path
         style="display:inline;opacity:1;fill:#8c59d9;fill-opacity:1;stroke:none;stroke-width:2;stroke-linecap:round;stroke-linejoin:round;stroke-miterlimit:4;stroke-dasharray:none;stroke-dashoffset:0;stroke-opacity:1;enable-background:new"
         d="M 361.9375,-212 C 507.2348,-212 528,-191.28677 528,-46.125 V 70.125 C 528,215.28618 507.2348,236 361.9375,236 H 214.0625 C 68.7652,236 48,215.28618 48,70.125 V -46.125 C 48,-191.28677 68.7652,-212 214.0625,-212 Z"
         id="path1084-6-29"
         inkscape:connector-curvature="0"
         sodipodi:nodetypes="sssssssss" />
    </clipPath>
    <linearGradient
       inkscape:collect="always"
       id="linearGradient4245">
      <stop
         style="stop-color:#67a2b4;stop-opacity:1"
         offset="0"
         id="stop4241" />
      <stop
         style="stop-color:#87b8c7;stop-opacity:1"
         offset="1"
         id="stop4243" />
    </linearGradient>
    <clipPath
       id="clipPath1079"
       clipPathUnits="userSpaceOnUse">
      <circle
         transform="scale(-1,1)"
         id="circle1081"
         style="color:#000000;display:inline;overflow:visible;visibility:visible;opacity:1;fill:url(#linearGradient1083);fill-opacity:1;fill-rule:nonzero;stroke:none;stroke-width:7.99999952;stroke-linecap:butt;stroke-linejoin:miter;stroke-miterlimit:4;stroke-dasharray:none;stroke-dashoffset:0;stroke-opacity:1;marker:none;enable-background:accumulate"
         r="55"
         cy="146"
         cx="213.84277" />
    </clipPath>
    <clipPath
       id="clipPath984"
       clipPathUnits="userSpaceOnUse">
      <circle
         transform="scale(-1,1)"
         id="circle982"
         style="color:#000000;display:inline;overflow:visible;visibility:visible;opacity:1;fill:url(#linearGradient1083);fill-opacity:1;fill-rule:nonzero;stroke:none;stroke-width:7.99999952;stroke-linecap:butt;stroke-linejoin:miter;stroke-miterlimit:4;stroke-dasharray:none;stroke-dashoffset:0;stroke-opacity:1;marker:none;enable-background:accumulate"
         r="55"
         cy="146"
         cx="213.84277" />
    </clipPath>
    <clipPath
       id="clipPath988"
       clipPathUnits="userSpaceOnUse">
      <circle
         transform="scale(-1,1)"
         id="circle986"
         style="color:#000000;display:inline;overflow:visible;visibility:visible;opacity:1;fill:url(#linearGradient1083);fill-opacity:1;fill-rule:nonzero;stroke:none;stroke-width:7.99999952;stroke-linecap:butt;stroke-linejoin:miter;stroke-miterlimit:4;stroke-dasharray:none;stroke-dashoffset:0;stroke-opacity:1;marker:none;enable-background:accumulate"
         r="55"
         cy="146"
         cx="213.84277" />
    </clipPath>
    <clipPath
       id="clipPath992"
       clipPathUnits="userSpaceOnUse">
      <circle
         transform="scale(-1,1)"
         id="circle990"
         style="color:#000000;display:inline;overflow:visible;visibility:visible;opacity:1;fill:url(#linearGradient1083);fill-opacity:1;fill-rule:nonzero;stroke:none;stroke-width:7.99999952;stroke-linecap:butt;stroke-linejoin:miter;stroke-miterlimit:4;stroke-dasharray:none;stroke-dashoffset:0;stroke-opacity:1;marker:none;enable-background:accumulate"
         r="55"
         cy="146"
         cx="213.84277" />
    </clipPath>
    <linearGradient
       gradientUnits="userSpaceOnUse"
       y2="284"
       x2="256"
       y1="28"
       x1="88"
       id="linearGradient1044"
       xlink:href="#linearGradient4245"
       inkscape:collect="always"
       gradientTransform="matrix(0.26970781,0,0,0.26970781,-364.69439,87.512881)" />
    <filter
       height="1.024857"
       y="-0.012428571"
       width="1.0232"
       x="-0.0116"
       id="filter4569"
       style="color-interpolation-filters:sRGB"
       inkscape:collect="always">
      <feGaussianBlur
         id="feGaussianBlur4571"
         stdDeviation="1.16"
         inkscape:collect="always" />
    </filter>
    <filter
       height="1.0497143"
       y="-0.024857143"
       width="1.0464"
       x="-0.0232"
       id="filter939"
       style="color-interpolation-filters:sRGB"
       inkscape:collect="always">
      <feGaussianBlur
         id="feGaussianBlur941"
         stdDeviation="2.32"
         inkscape:collect="always" />
    </filter>
    <linearGradient
       id="k"
       y2="376.45001"
       gradientUnits="userSpaceOnUse"
       x2="412.85999"
       y1="648.08002"
       x1="412.95001"
       gradientTransform="matrix(0.06614568,0,0,0.06614568,-0.83421845,227.4913)">
      <stop
         stop-color="#096fd2"
         offset="0"
         id="stop11" />
      <stop
         stop-color="#0e8ee9"
         offset="1"
         id="stop13" />
    </linearGradient>
    <linearGradient
       id="l"
       y2="-0.32418999"
       gradientUnits="userSpaceOnUse"
       x2="511.60999"
       y1="1026.9"
       x1="511.60999"
       gradientTransform="matrix(0.24245987,0,0,0.24245987,-348.52983,19.133178)">
      <stop
         stop-color="#096fd2"
         offset="0"
         id="stop6" />
      <stop
         stop-color="#0e8ee9"
         offset="1"
         id="stop8" />
    </linearGradient>
    <linearGradient
       y2="-0.32418999"
       x2="511.60999"
       y1="1026.9"
       x1="511.60999"
       gradientTransform="matrix(0.06415084,0,0,0.06415084,-94.500163,232.69685)"
       gradientUnits="userSpaceOnUse"
       id="linearGradient933"
       xlink:href="#l"
       inkscape:collect="always" />
    <linearGradient
       id="linearGradient3650-7-9-7">
      <stop
         id="stop4366-5"
         offset="0"
         style="stop-color:#1e467f;stop-opacity:1" />
      <stop
         style="stop-color:#6697cc;stop-opacity:1"
         offset="1"
         id="stop4368-3" />
    </linearGradient>
    <clipPath
       id="clipPath1082-3-7"
       clipPathUnits="userSpaceOnUse">
      <path
         style="display:inline;opacity:1;fill:#8c59d9;fill-opacity:1;stroke:none;stroke-width:2;stroke-linecap:round;stroke-linejoin:round;stroke-miterlimit:4;stroke-dasharray:none;stroke-dashoffset:0;stroke-opacity:1;enable-background:new"
         d="M 361.9375,-212 C 507.2348,-212 528,-191.28677 528,-46.125 V 70.125 C 528,215.28618 507.2348,236 361.9375,236 H 214.0625 C 68.7652,236 48,215.28618 48,70.125 V -46.125 C 48,-191.28677 68.7652,-212 214.0625,-212 Z"
         id="path1084-6-65"
         inkscape:connector-curvature="0"
         sodipodi:nodetypes="sssssssss" />
    </clipPath>
    <clipPath
       id="clipPath942"
       clipPathUnits="userSpaceOnUse">
      <path
         style="display:inline;opacity:1;fill:#46a926;fill-opacity:1;stroke:none;stroke-width:2;stroke-linecap:round;stroke-linejoin:round;stroke-miterlimit:4;stroke-dasharray:none;stroke-dashoffset:0;stroke-opacity:1;enable-background:new"
         d="M 188.96875,44 C 261.6174,44 272,54.356615 272,126.9375 v 58.125 C 272,257.64309 261.6174,268 188.96875,268 h -73.9375 C 42.3826,268 32,257.64309 32,185.0625 v -58.125 C 32,54.356615 42.3826,44 115.03125,44 Z"
         id="path944"
         inkscape:connector-curvature="0"
         sodipodi:nodetypes="sssssssss" />
    </clipPath>
    <radialGradient
       gradientTransform="matrix(0.10116439,0,0,0.03161388,-33.771025,262.62042)"
       gradientUnits="userSpaceOnUse"
       xlink:href="#linearGradient3820-7-2"
       id="radialGradient4115"
       fy="186.17059"
       fx="99.157013"
       r="62.769119"
       cy="186.17059"
       cx="99.157013" />
    <linearGradient
       id="linearGradient3820-7-2">
      <stop
         offset="0"
         style="stop-color:#3d3d3d;stop-opacity:1"
         id="stop3822-2-6" />
      <stop
         offset="0.5"
         style="stop-color:#686868;stop-opacity:0.49803922"
         id="stop3864-8-7" />
      <stop
         offset="1"
         style="stop-color:#686868;stop-opacity:0"
         id="stop3824-1-2" />
    </linearGradient>
    <radialGradient
       gradientTransform="matrix(0,1.0997812,-1.4516917,0,-17.94747,227.77615)"
       gradientUnits="userSpaceOnUse"
       xlink:href="#radialGradient3093-0-3-6"
       id="radialGradient3268"
       fy="3.99"
       fx="23.896"
       r="20.396999"
       cy="3.99"
       cx="23.896" />
    <radialGradient
       gradientTransform="matrix(0,1.2316483,-1.625754,0,18.486966,-28.721977)"
       gradientUnits="userSpaceOnUse"
       id="radialGradient3093-0-3-6"
       r="20.396999"
       cy="3.99"
       cx="23.896">
      <stop
         offset="0"
         style="stop-color:#ffffff;stop-opacity:1"
         id="stop3244-9-33-7-0" />
      <stop
         offset="0.26238"
         style="stop-color:#dddddd;stop-opacity:1"
         id="stop3246-3-5-0-8" />
      <stop
         offset="0.66093999"
         style="stop-color:#abacae;stop-opacity:1"
         id="stop3248-1-7-8-8" />
      <stop
         offset="1"
         style="stop-color:#89898b;stop-opacity:1"
         id="stop3250-9-3-0-5" />
    </radialGradient>
    <linearGradient
       gradientTransform="matrix(0.61565223,0,0,0.61565223,-68.175247,244.86738)"
       gradientUnits="userSpaceOnUse"
       xlink:href="#linearGradient4806"
       id="linearGradient3264"
       y2="40.495617"
       x2="71.204407"
       y1="15.369057"
       x1="71.204407" />
    <linearGradient
       id="linearGradient4806">
      <stop
         offset="0"
         style="stop-color:#ffffff;stop-opacity:1"
         id="stop4808" />
      <stop
         offset="0.42447853"
         style="stop-color:#ffffff;stop-opacity:0.23529412"
         id="stop4810" />
      <stop
         offset="0.82089913"
         style="stop-color:#ffffff;stop-opacity:0.15686275"
         id="stop4812" />
      <stop
         offset="1"
         style="stop-color:#ffffff;stop-opacity:0.39215687"
         id="stop4814" />
    </linearGradient>
    <radialGradient
       cx="23.896"
       cy="3.99"
       r="20.396999"
       id="radialGradient1513"
       gradientUnits="userSpaceOnUse"
       gradientTransform="matrix(0,1.2316483,-1.625754,0,18.486966,-28.721977)">
      <stop
         id="stop1505"
         style="stop-color:#ffffff;stop-opacity:1"
         offset="0" />
      <stop
         id="stop1507"
         style="stop-color:#ededed;stop-opacity:1"
         offset="0.26238" />
      <stop
         id="stop1509"
         style="stop-color:#c8c8c8;stop-opacity:1"
         offset="0.66093999" />
      <stop
         id="stop1511"
         style="stop-color:#89898b;stop-opacity:1"
         offset="1" />
    </radialGradient>
    <radialGradient
       cx="23.896"
       cy="3.99"
       r="20.396999"
       id="radialGradient922"
       gradientUnits="userSpaceOnUse"
       gradientTransform="matrix(0,1.2316483,-1.625754,0,18.486966,-28.721977)">
      <stop
         id="stop914"
         style="stop-color:#ffffff;stop-opacity:1"
         offset="0" />
      <stop
         id="stop916"
         style="stop-color:#ededed;stop-opacity:1"
         offset="0.26238" />
      <stop
         id="stop918"
         style="stop-color:#c8c8c8;stop-opacity:1"
         offset="0.66093999" />
      <stop
         id="stop920"
         style="stop-color:#89898b;stop-opacity:1"
         offset="1" />
    </radialGradient>
    <filter
       height="1.0994287"
       y="-0.049714286"
       width="1.0928"
       x="-0.046399999"
       id="filter1022"
       style="color-interpolation-filters:sRGB"
       inkscape:collect="always">
      <feGaussianBlur
         id="feGaussianBlur1024"
         stdDeviation="0.84330323"
         inkscape:collect="always" />
    </filter>
  </defs>
  <sodipodi:namedview
     id="base"
     pagecolor="#ffffff"
     bordercolor="#666666"
     borderopacity="1.0"
     inkscape:pageopacity="0.0"
     inkscape:pageshadow="2"
     inkscape:zoom="0.98994949"
     inkscape:cx="131.1496"
     inkscape:cy="128.29821"
     inkscape:document-units="mm"
     inkscape:current-layer="layer1-6"
     showgrid="false"
     fit-margin-top="0"
     fit-margin-left="0"
     fit-margin-right="0"
     fit-margin-bottom="0"
     inkscape:window-width="1920"
     inkscape:window-height="998"
     inkscape:window-x="0"
     inkscape:window-y="0"
     inkscape:window-maximized="1" />
  <metadata
     id="metadata5">
    <rdf:RDF>
      <cc:Work
         rdf:about="">
        <dc:format>image/svg+xml</dc:format>
        <dc:type
           rdf:resource="http://purl.org/dc/dcmitype/StillImage" />
        <dc:title></dc:title>
      </cc:Work>
    </rdf:RDF>
  </metadata>
  <g
     inkscape:label="Layer 1"
     inkscape:groupmode="layer"
     id="layer1"
     transform="translate(-71.133334,2.7473463)">
    <g
       transform="translate(426.17155,-89.280203)"
       id="layer1-6"
       inkscape:label="Livello 1">
      <g
         id="g346"
         transform="translate(0,-5.9424159)">
        <g
           transform="translate(8.6605978)"
           id="g313">
          <path
             transform="matrix(0.26970779,0,0,0.26970779,-357.56548,98.417691)"
             sodipodi:nodetypes="sssssssss"
             inkscape:connector-curvature="0"
             id="path937"
             d="m 162.53675,5.5680001 c 72.64865,0 83.03125,10.3566149 83.03125,82.9375049 v 58.125005 c 0,72.58059 -10.3826,82.9375 -83.03125,82.9375 H 88.599254 C 15.9506,229.56801 5.568,219.2111 5.568,146.63051 V 88.505505 c 0,-72.58089 10.3826,-82.9375049 83.031254,-82.9375049 z"
             style="display:inline;opacity:0.2;fill:#000000;fill-opacity:1;stroke:none;stroke-width:2;stroke-linecap:round;stroke-linejoin:round;stroke-miterlimit:4;stroke-dasharray:none;stroke-dashoffset:0;stroke-opacity:1;filter:url(#filter939);enable-background:new" />
          <path
             style="display:inline;opacity:0.1;fill:none;fill-opacity:1;stroke:#000000;stroke-width:1.07883108;stroke-linecap:round;stroke-linejoin:round;stroke-miterlimit:4;stroke-dasharray:none;stroke-dashoffset:0;stroke-opacity:1;enable-background:new"
             d="m -313.72805,99.380011 c 19.59391,0 22.39418,2.793259 22.39418,22.368889 v 15.67677 c 0,19.57555 -2.80027,22.36889 -22.39418,22.36889 h -19.94152 c -19.5939,0 -22.39417,-2.79334 -22.39417,-22.36889 V 121.7489 c 0,-19.57563 2.80027,-22.368889 22.39417,-22.368889 z"
             id="path4558"
             inkscape:connector-curvature="0"
             sodipodi:nodetypes="sssssssss" />
          <path
             transform="matrix(0.26970779,0,0,0.26970779,-357.56548,98.417691)"
             style="display:inline;opacity:0.1;fill:#000000;fill-opacity:1;stroke:none;stroke-width:2;stroke-linecap:round;stroke-linejoin:round;stroke-miterlimit:4;stroke-dasharray:none;stroke-dashoffset:0;stroke-opacity:1;filter:url(#filter4569);enable-background:new"
             d="m 162.53675,3.5680001 c 72.64865,0 83.03125,10.3566149 83.03125,82.9375049 v 58.125005 c 0,72.58059 -10.3826,82.9375 -83.03125,82.9375 H 88.599254 C 15.9506,227.56801 5.568,217.2111 5.568,144.63051 V 86.505505 c 0,-72.58089 10.3826,-82.9375049 83.031254,-82.9375049 z"
             id="path4567"
             inkscape:connector-curvature="0"
             sodipodi:nodetypes="sssssssss" />
          <path
             sodipodi:nodetypes="sssssssss"
             inkscape:connector-curvature="0"
             id="rect877"
             d="m -313.72805,99.380011 c 19.59391,0 22.39418,2.793259 22.39418,22.368889 v 15.67677 c 0,19.57555 -2.80027,22.36889 -22.39418,22.36889 h -19.94152 c -19.59391,0 -22.39417,-2.79334 -22.39417,-22.36889 V 121.7489 c 0,-19.57563 2.80026,-22.368889 22.39417,-22.368889 z"
             style="display:inline;opacity:1;fill:url(#linearGradient1044);fill-opacity:1;stroke:none;stroke-width:0.53941554;stroke-linecap:round;stroke-linejoin:round;stroke-miterlimit:4;stroke-dasharray:none;stroke-dashoffset:0;stroke-opacity:1;enable-background:new" />
          <path
             transform="matrix(0.1348539,0,0,0.1348539,-362.53673,127.96904)"
             clip-path="url(#clipPath1082-3-361)"
             style="display:inline;opacity:0.4;fill:none;fill-opacity:1;stroke:url(#linearGradient1108);stroke-width:8;stroke-linecap:round;stroke-linejoin:round;stroke-miterlimit:4;stroke-dasharray:none;stroke-dashoffset:0;stroke-opacity:1;enable-background:new"
             d="M 361.9375,-212 C 507.2348,-212 528,-191.28677 528,-46.125 V 70.125 C 528,215.28618 507.2348,236 361.9375,236 H 214.0625 C 68.7652,236 48,215.28618 48,70.125 V -46.125 C 48,-191.28677 68.7652,-212 214.0625,-212 Z"
             id="path1068"
             inkscape:connector-curvature="0"
             sodipodi:nodetypes="sssssssss" />
          <path
             inkscape:connector-curvature="0"
             id="path1099"
             d="m -323.69881,99.380011 v 60.414549 h 9.97076 c 19.59391,0 22.39418,-2.79334 22.39418,-22.36889 V 121.7489 c 0,-19.57563 -2.80027,-22.368889 -22.39418,-22.368889 z"
             style="display:inline;opacity:0.1;fill:#ffffff;fill-opacity:1;stroke:none;stroke-width:0.53941554;stroke-linecap:round;stroke-linejoin:round;stroke-miterlimit:4;stroke-dasharray:none;stroke-dashoffset:0;stroke-opacity:1;enable-background:new" />
          <path
             inkscape:connector-curvature="0"
             id="path1107"
             d="m -333.66957,159.79456 c -19.59391,0 -22.39417,-2.79325 -22.39417,-22.36884 v -7.83837 h 64.72987 v 7.83837 c 0,19.57559 -2.80027,22.36884 -22.39418,22.36884 z"
             style="display:inline;opacity:0.1;fill:#ffffff;fill-opacity:1;stroke:none;stroke-width:0.53941506;stroke-linecap:round;stroke-linejoin:round;stroke-miterlimit:4;stroke-dasharray:none;stroke-dashoffset:0;stroke-opacity:1;enable-background:new" />
          <g
             transform="translate(-358.12312,-132.87229)"
             id="g1977">
            <path
               style="display:inline;opacity:0.4;fill:#000000;fill-opacity:1;stroke:none;stroke-width:0.36349273;stroke-linecap:round;stroke-linejoin:round;stroke-miterlimit:4;stroke-dasharray:none;stroke-dashoffset:0;stroke-opacity:1;filter:url(#filter1022);enable-background:new"
               d="m 41.143248,242.104 c 13.203629,0 15.09063,1.88229 15.09063,15.0736 v 10.56399 c 0,13.19128 -1.887001,15.0736 -15.09063,15.0736 H 27.705375 c -13.20363,0 -15.09063,-1.88232 -15.09063,-15.0736 V 257.1776 c 0,-13.19131 1.887,-15.0736 15.09063,-15.0736 z"
               id="path1004"
               inkscape:connector-curvature="0"
               sodipodi:nodetypes="sssssssss" />
            <path
               sodipodi:nodetypes="sssssssss"
               inkscape:connector-curvature="0"
               id="path1969"
               d="m 41.143248,242.104 c 13.203629,0 15.09063,1.88229 15.09063,15.0736 v 10.56399 c 0,13.19128 -1.887001,15.0736 -15.09063,15.0736 H 27.705375 c -13.20363,0 -15.09063,-1.88232 -15.09063,-15.0736 V 257.1776 c 0,-13.19131 1.887,-15.0736 15.09063,-15.0736 z"
               style="display:inline;opacity:1;fill:#d8d8d8;fill-opacity:1;stroke:none;stroke-width:0.36349273;stroke-linecap:round;stroke-linejoin:round;stroke-miterlimit:4;stroke-dasharray:none;stroke-dashoffset:0;stroke-opacity:1;enable-background:new" />
          </g>
          <path
             sodipodi:nodetypes="ccccccccc"
             inkscape:connector-curvature="0"
             id="path958-8"
             style="font-style:normal;font-variant:normal;font-weight:800;font-stretch:normal;font-size:35.27777863px;line-height:1.25;font-family:Overpass;-inkscape-font-specification:'Overpass Ultra-Bold';letter-spacing:0px;word-spacing:0px;fill:#67a2b4;fill-opacity:1;stroke:#67a2b4;stroke-width:1.32291663;stroke-linecap:round;stroke-linejoin:round;stroke-miterlimit:4;stroke-dasharray:none;stroke-opacity:1"
             d="m -328.4066,125.80327 0.0486,-3.0266 -7.52205,0.10677 v 1.45991 1.45992 h 4.31081 v 12.80235 h 3.16267 z" />
          <g
             id="text956"
             style="font-style:normal;font-weight:normal;font-size:10.58333302px;line-height:1.25;font-family:sans-serif;letter-spacing:0px;word-spacing:0px;fill:#000000;fill-opacity:1;stroke:none;stroke-width:0.26458332"
             aria-label="T"
             transform="translate(-357.56548,-133.04762)">
            <path
               sodipodi:nodetypes="ccccccccc"
               inkscape:connector-curvature="0"
               id="path958"
               style="font-style:normal;font-variant:normal;font-weight:800;font-stretch:normal;font-size:35.27777863px;font-family:Overpass;-inkscape-font-specification:'Overpass Ultra-Bold';stroke:#000000;stroke-width:1.32291663;stroke-linecap:round;stroke-linejoin:round;stroke-miterlimit:4;stroke-dasharray:none;stroke-opacity:1"
               d="m 36.964496,253.90396 h 11.074812 v -5.47884 H 19.670954 v 5.47884 h 11.603979 v 24.0226 h 5.689563 z" />
          </g>
        </g>
        <g
           inkscape:label="Layer 1"
           id="layer1-62"
           transform="matrix(0.57955262,0,0,0.57955262,-377.4604,154.92169)">
          <g
             aria-label="Suru++ Telinkrin"
             style="font-style:normal;font-weight:normal;font-size:10.58333302px;line-height:1.25;font-family:sans-serif;letter-spacing:0px;word-spacing:0px;fill:#000000;fill-opacity:1;stroke:#000000;stroke-width:0.26458332;stroke-miterlimit:4;stroke-dasharray:none;stroke-opacity:1"
             id="text817"
             transform="translate(4.1172835,-3.154508)">
            <path
               d="m 77.985602,36.39963 q -1.405467,0 -2.4892,-0.778933 -1.083734,-0.795867 -1.524,-2.048933 l 1.608666,-0.592667 q 0.3556,0.8128 1.016,1.303867 0.677334,0.491066 1.507067,0.491066 0.8636,0 1.354666,-0.4572 0.508,-0.4572 0.508,-1.3208 0,-0.762 -0.643466,-1.303866 -0.643467,-0.5588 -1.761067,-1.049867 -0.7112,-0.3048 -1.151466,-0.5588 -0.440267,-0.254 -0.982134,-0.677333 -0.541866,-0.423333 -0.8128,-0.982133 -0.254,-0.5588 -0.254,-1.27 0,-1.27 0.948267,-2.1336 0.9652,-0.880533 2.54,-0.880533 1.253066,0 2.150533,0.643466 0.9144,0.643467 1.202267,1.659467 l -1.5748,0.524933 q -0.237067,-0.524933 -0.728134,-0.8636 -0.474133,-0.3556 -1.134533,-0.3556 -0.728133,0 -1.185333,0.389467 -0.4572,0.372533 -0.4572,1.016 0,0.338666 0.1524,0.6096 0.169333,0.270933 0.524933,0.524933 0.3556,0.237067 0.643467,0.389467 0.287867,0.135466 0.846666,0.389466 0.03387,0.01693 0.0508,0.03387 0.01693,0 0.0508,0.01693 0.03387,0 0.0508,0.01693 0.677334,0.321733 1.151467,0.6096 0.474133,0.270933 1.016,0.728133 0.541867,0.4572 0.829733,1.083733 0.287867,0.626533 0.287867,1.388533 0,1.591734 -1.0668,2.523067 -1.0668,0.931333 -2.675466,0.931333 z"
               style="font-style:normal;font-variant:normal;font-weight:600;font-stretch:normal;font-size:16.93333244px;font-family:'Overpass Mono';-inkscape-font-specification:'Overpass Mono Semi-Bold';text-align:center;text-anchor:middle;stroke:#000000;stroke-width:0.26458332;stroke-miterlimit:4;stroke-dasharray:none;stroke-opacity:1"
               id="path821"
               inkscape:connector-curvature="0" />
            <path
               d="m 87.911709,36.39963 q -3.251199,0 -3.251199,-3.793066 v -5.063067 h 1.710266 v 4.944533 q 0,1.202267 0.508,1.761067 0.524933,0.541867 1.3716,0.541867 2.015067,0 2.015067,-2.269067 v -4.9784 h 1.710266 v 8.652933 h -1.710266 v -0.846666 q -0.8128,1.049866 -2.353734,1.049866 z"
               style="font-style:normal;font-variant:normal;font-weight:600;font-stretch:normal;font-size:16.93333244px;font-family:'Overpass Mono';-inkscape-font-specification:'Overpass Mono Semi-Bold';text-align:center;text-anchor:middle;stroke:#000000;stroke-width:0.26458332;stroke-miterlimit:4;stroke-dasharray:none;stroke-opacity:1"
               id="path823"
               inkscape:connector-curvature="0" />
            <path
               d="m 100.92048,27.340297 q 1.20226,0 1.96426,0.440267 v 3.0988 h -1.65946 v -1.913467 q -0.11854,-0.01693 -0.3556,-0.01693 -1.30387,0 -2.133603,0.643467 -0.8128,0.643466 -0.8128,1.845733 v 3.2512 h 2.472263 v 1.507066 h -6.011329 v -1.507066 h 1.811866 V 29.033634 H 94.384211 V 27.5435 h 3.420533 v 1.4224 q 0.4064,-0.745066 1.27,-1.185333 0.880533,-0.440267 1.845736,-0.440267 z"
               style="font-style:normal;font-variant:normal;font-weight:600;font-stretch:normal;font-size:16.93333244px;font-family:'Overpass Mono';-inkscape-font-specification:'Overpass Mono Semi-Bold';text-align:center;text-anchor:middle;stroke:#000000;stroke-width:0.26458332;stroke-miterlimit:4;stroke-dasharray:none;stroke-opacity:1"
               id="path825"
               inkscape:connector-curvature="0" />
            <path
               d="m 108.74764,36.39963 q -3.2512,0 -3.2512,-3.793066 v -5.063067 h 1.71027 v 4.944533 q 0,1.202267 0.508,1.761067 0.52493,0.541867 1.3716,0.541867 2.01507,0 2.01507,-2.269067 v -4.9784 h 1.71026 v 8.652933 h -1.71026 v -0.846666 q -0.8128,1.049866 -2.35374,1.049866 z"
               style="font-style:normal;font-variant:normal;font-weight:600;font-stretch:normal;font-size:16.93333244px;font-family:'Overpass Mono';-inkscape-font-specification:'Overpass Mono Semi-Bold';text-align:center;text-anchor:middle;stroke:#000000;stroke-width:0.26458332;stroke-miterlimit:4;stroke-dasharray:none;stroke-opacity:1"
               id="path827"
               inkscape:connector-curvature="0" />
            <path
               d="m 120.41868,31.21803 v 3.1496 h -1.71027 v -3.1496 h -3.11573 v -1.642533 h 3.11573 v -3.166533 h 1.71027 v 3.166533 h 3.13267 v 1.642533 z"
               style="font-style:normal;font-variant:normal;font-weight:600;font-stretch:normal;font-size:16.93333244px;font-family:'Overpass Mono';-inkscape-font-specification:'Overpass Mono Semi-Bold';text-align:center;text-anchor:middle;stroke:#000000;stroke-width:0.26458332;stroke-miterlimit:4;stroke-dasharray:none;stroke-opacity:1"
               id="path829"
               inkscape:connector-curvature="0" />
            <path
               d="m 130.83665,31.21803 v 3.1496 h -1.71027 v -3.1496 h -3.11573 v -1.642533 h 3.11573 v -3.166533 h 1.71027 v 3.166533 h 3.13266 v 1.642533 z"
               style="font-style:normal;font-variant:normal;font-weight:600;font-stretch:normal;font-size:16.93333244px;font-family:'Overpass Mono';-inkscape-font-specification:'Overpass Mono Semi-Bold';text-align:center;text-anchor:middle;stroke:#000000;stroke-width:0.26458332;stroke-miterlimit:4;stroke-dasharray:none;stroke-opacity:1"
               id="path831"
               inkscape:connector-curvature="0" />
            <path
               d="M 61.277297,57.363096 V 47.16923 h -3.437466 v -1.659467 h 8.602133 v 1.659467 h -3.437467 v 10.193866 z"
               style="font-style:normal;font-variant:normal;font-weight:600;font-stretch:normal;font-size:16.93333244px;font-family:'Overpass Mono';-inkscape-font-specification:'Overpass Mono Semi-Bold';text-align:center;text-anchor:middle;stroke:#000000;stroke-width:0.26458332;stroke-miterlimit:4;stroke-dasharray:none;stroke-opacity:1"
               id="path833"
               inkscape:connector-curvature="0" />
            <path
               d="m 76.452738,52.638696 q 0,0.643467 -0.0508,1.0668 h -5.960533 q 0.186267,1.083733 0.778933,1.710267 0.6096,0.626533 1.5748,0.626533 1.134534,0 1.964267,-0.778933 l 0.999067,1.083733 q -1.2192,1.2192 -2.980267,1.2192 -1.8796,0 -2.963333,-1.253067 -1.083733,-1.27 -1.083733,-3.285066 0,-2.116667 1.083733,-3.318934 1.100666,-1.202266 2.963333,-1.202266 1.608667,0 2.6416,1.049867 1.032933,1.049866 1.032933,3.081866 z m -6.0452,-0.4064 h 4.3688 q -0.0508,-1.151467 -0.626533,-1.693333 -0.575733,-0.541867 -1.3716,-0.541867 -1.049867,0 -1.642533,0.592667 -0.592667,0.575733 -0.728134,1.642533 z"
               style="font-style:normal;font-variant:normal;font-weight:600;font-stretch:normal;font-size:16.93333244px;font-family:'Overpass Mono';-inkscape-font-specification:'Overpass Mono Semi-Bold';text-align:center;text-anchor:middle;stroke:#000000;stroke-width:0.26458332;stroke-miterlimit:4;stroke-dasharray:none;stroke-opacity:1"
               id="path835"
               inkscape:connector-curvature="0" />
            <path
               d="m 83.889646,55.856029 h 2.472267 v 1.507067 h -6.6548 v -1.507067 h 2.4892 V 46.627363 H 80.14738 L 79.368446,45.13723 h 4.5212 z"
               style="font-style:normal;font-variant:normal;font-weight:600;font-stretch:normal;font-size:16.93333244px;font-family:'Overpass Mono';-inkscape-font-specification:'Overpass Mono Semi-Bold';text-align:center;text-anchor:middle;stroke:#000000;stroke-width:0.26458332;stroke-miterlimit:4;stroke-dasharray:none;stroke-opacity:1"
               id="path837"
               inkscape:connector-curvature="0" />
            <path
               d="m 94.324546,47.01683 q -0.287866,0.287866 -0.728133,0.287866 -0.440267,0 -0.745067,-0.3048 -0.287866,-0.3048 -0.287866,-0.728133 0,-0.423333 0.287866,-0.728133 0.3048,-0.3048 0.745067,-0.3048 0.440267,0 0.728133,0.3048 0.3048,0.287866 0.3048,0.728133 0,0.440267 -0.3048,0.745067 z m 0.118534,8.839199 h 2.3876 v 1.507067 h -6.468533 v -1.507067 h 2.387599 v -5.655733 h -2.387599 v -1.490133 h 4.080933 z"
               style="font-style:normal;font-variant:normal;font-weight:600;font-stretch:normal;font-size:16.93333244px;font-family:'Overpass Mono';-inkscape-font-specification:'Overpass Mono Semi-Bold';text-align:center;text-anchor:middle;stroke:#000000;stroke-width:0.26458332;stroke-miterlimit:4;stroke-dasharray:none;stroke-opacity:1"
               id="path839"
               inkscape:connector-curvature="0" />
            <path
               d="m 104.36919,48.506963 q 3.2004,0 3.2004,3.725333 v 5.1308 h -1.69333 v -5.012267 q 0,-2.252133 -1.89654,-2.252133 -2.01506,0 -2.01506,2.218267 v 5.046133 h -1.69334 v -8.652933 h 1.5748 v 1.049866 q 0.32174,-0.558799 0.99907,-0.897466 0.67733,-0.3556 1.524,-0.3556 z"
               style="font-style:normal;font-variant:normal;font-weight:600;font-stretch:normal;font-size:16.93333244px;font-family:'Overpass Mono';-inkscape-font-specification:'Overpass Mono Semi-Bold';text-align:center;text-anchor:middle;stroke:#000000;stroke-width:0.26458332;stroke-miterlimit:4;stroke-dasharray:none;stroke-opacity:1"
               id="path841"
               inkscape:connector-curvature="0" />
            <path
               d="m 116.44583,57.363096 -2.55693,-5.012267 -1.43934,1.4224 v 3.589867 h -1.69333 v -11.43 l 1.69333,-0.795866 v 6.722533 l 3.0988,-3.1496 h 1.99814 l -2.4384,2.421466 3.2004,6.231467 z"
               style="font-style:normal;font-variant:normal;font-weight:600;font-stretch:normal;font-size:16.93333244px;font-family:'Overpass Mono';-inkscape-font-specification:'Overpass Mono Semi-Bold';text-align:center;text-anchor:middle;stroke:#000000;stroke-width:0.26458332;stroke-miterlimit:4;stroke-dasharray:none;stroke-opacity:1"
               id="path843"
               inkscape:connector-curvature="0" />
            <path
               d="m 126.99847,48.506963 q 1.20227,0 1.96427,0.440267 v 3.098799 h -1.65947 v -1.913466 q -0.11853,-0.01693 -0.3556,-0.01693 -1.30387,0 -2.1336,0.643467 -0.8128,0.643467 -0.8128,1.845733 v 3.2512 h 2.47227 V 57.3631 h -6.01134 v -1.507067 h 1.81187 V 50.2003 h -1.81187 v -1.490133 h 3.42054 v 1.4224 q 0.4064,-0.745067 1.27,-1.185333 0.88053,-0.440267 1.84573,-0.440267 z"
               style="font-style:normal;font-variant:normal;font-weight:600;font-stretch:normal;font-size:16.93333244px;font-family:'Overpass Mono';-inkscape-font-specification:'Overpass Mono Semi-Bold';text-align:center;text-anchor:middle;stroke:#000000;stroke-width:0.26458332;stroke-miterlimit:4;stroke-dasharray:none;stroke-opacity:1"
               id="path845"
               inkscape:connector-curvature="0" />
            <path
               d="m 136.09564,47.01683 q -0.28787,0.287866 -0.72814,0.287866 -0.44026,0 -0.74506,-0.3048 -0.28787,-0.3048 -0.28787,-0.728133 0,-0.423333 0.28787,-0.728133 0.3048,-0.3048 0.74506,-0.3048 0.44027,0 0.72814,0.3048 0.3048,0.287866 0.3048,0.728133 0,0.440267 -0.3048,0.745067 z m 0.11853,8.839199 h 2.3876 v 1.507067 h -6.46853 v -1.507067 h 2.3876 v -5.655733 h -2.3876 v -1.490133 h 4.08093 z"
               style="font-style:normal;font-variant:normal;font-weight:600;font-stretch:normal;font-size:16.93333244px;font-family:'Overpass Mono';-inkscape-font-specification:'Overpass Mono Semi-Bold';text-align:center;text-anchor:middle;stroke:#000000;stroke-width:0.26458332;stroke-miterlimit:4;stroke-dasharray:none;stroke-opacity:1"
               id="path847"
               inkscape:connector-curvature="0" />
            <path
               d="m 146.14028,48.506963 q 3.2004,0 3.2004,3.725333 v 5.1308 h -1.69333 v -5.012267 q 0,-2.252133 -1.89654,-2.252133 -2.01506,0 -2.01506,2.218267 v 5.046133 h -1.69334 v -8.652933 h 1.5748 v 1.049866 q 0.32174,-0.558799 0.99907,-0.897466 0.67733,-0.3556 1.524,-0.3556 z"
               style="font-style:normal;font-variant:normal;font-weight:600;font-stretch:normal;font-size:16.93333244px;font-family:'Overpass Mono';-inkscape-font-specification:'Overpass Mono Semi-Bold';text-align:center;text-anchor:middle;stroke:#000000;stroke-width:0.26458332;stroke-miterlimit:4;stroke-dasharray:none;stroke-opacity:1"
               id="path849"
               inkscape:connector-curvature="0" />
          </g>
        </g>
      </g>
    </g>
  </g>
</svg>
