<?xml version="1.0" encoding="UTF-8" standalone="no"?>
<svg
   xmlns:dc="http://purl.org/dc/elements/1.1/"
   xmlns:cc="http://creativecommons.org/ns#"
   xmlns:rdf="http://www.w3.org/1999/02/22-rdf-syntax-ns#"
   xmlns:svg="http://www.w3.org/2000/svg"
   xmlns="http://www.w3.org/2000/svg"
   xmlns:sodipodi="http://sodipodi.sourceforge.net/DTD/sodipodi-0.dtd"
   xmlns:inkscape="http://www.inkscape.org/namespaces/inkscape"
   viewBox="0 0 16 16"
   version="1.1"
   id="svg8"
   sodipodi:docname="dialog-tile-clones.svg"
   inkscape:version="0.92.3 (2405546, 2018-03-11)">
  <metadata
     id="metadata12">
    <rdf:RDF>
      <cc:Work
         rdf:about="">
        <dc:format>image/svg+xml</dc:format>
        <dc:type
           rdf:resource="http://purl.org/dc/dcmitype/StillImage" />
      </cc:Work>
    </rdf:RDF>
  </metadata>
  <sodipodi:namedview
     pagecolor="#ffffff"
     bordercolor="#666666"
     borderopacity="1"
     objecttolerance="10"
     gridtolerance="10"
     guidetolerance="10"
     inkscape:pageopacity="0"
     inkscape:pageshadow="2"
     inkscape:window-width="1920"
     inkscape:window-height="998"
     id="namedview10"
     showgrid="false"
     inkscape:zoom="14.75"
     inkscape:cx="8"
     inkscape:cy="8"
     inkscape:window-x="0"
     inkscape:window-y="0"
     inkscape:window-maximized="1"
     inkscape:current-layer="svg8" />
  <defs
     id="defs3051">
    <style
       type="text/css"
       id="current-color-scheme">
      .ColorScheme-Text {
        color:#4d4d4d;
      }
      .ColorScheme-Highlight {
        color:#67A2B4;
      }
      </style>
  </defs>
  <path
     style="fill:currentColor;fill-opacity:1;stroke:none"
     d="M 2,2 2,7 7,7 7,2 2,2 Z M 9,2 9,7 14,7 14,2 9,2 Z M 3,3 6,3 6,6 3,6 3,3 Z m 7,0 3,0 0,3 -3,0 0,-3 z M 2,9 2,14 7,14 7,9 2,9 Z m 1,1 3,0 0,3 -3,0 0,-3 z"
     class="ColorScheme-Text"
     id="path4" />
  <path
     style="fill:#67a2b4;fill-opacity:1;stroke:none"
     d="M 11.5,8 A 1.5,1.5 0 0 0 10,9.5 l 0,1.5 -1,0 0,3 5,0 0,-3 -1,0 0,-1.5 A 1.5,1.5 0 0 0 11.5,8 m 0,1 A 0.5,0.5 0 0 1 12,9.5 l 0,1.5 -1,0 0,-1.5 A 0.5,0.5 0 0 1 11.5,9"
     class="ColorScheme-Highlight"
     id="path6" />
</svg>
