<?xml version="1.0" encoding="UTF-8" standalone="no"?>
<svg
   xmlns:dc="http://purl.org/dc/elements/1.1/"
   xmlns:cc="http://creativecommons.org/ns#"
   xmlns:rdf="http://www.w3.org/1999/02/22-rdf-syntax-ns#"
   xmlns:svg="http://www.w3.org/2000/svg"
   xmlns="http://www.w3.org/2000/svg"
   xmlns:sodipodi="http://sodipodi.sourceforge.net/DTD/sodipodi-0.dtd"
   xmlns:inkscape="http://www.inkscape.org/namespaces/inkscape"
   viewBox="0 0 16 16"
   version="1.1"
   id="svg8"
   sodipodi:docname="edit-select-original.svg"
   inkscape:version="0.92.3 (2405546, 2018-03-11)">
  <metadata
     id="metadata12">
    <rdf:RDF>
      <cc:Work
         rdf:about="">
        <dc:format>image/svg+xml</dc:format>
        <dc:type
           rdf:resource="http://purl.org/dc/dcmitype/StillImage" />
      </cc:Work>
    </rdf:RDF>
  </metadata>
  <sodipodi:namedview
     pagecolor="#ffffff"
     bordercolor="#666666"
     borderopacity="1"
     objecttolerance="10"
     gridtolerance="10"
     guidetolerance="10"
     inkscape:pageopacity="0"
     inkscape:pageshadow="2"
     inkscape:window-width="737"
     inkscape:window-height="480"
     id="namedview10"
     showgrid="false"
     inkscape:zoom="14.75"
     inkscape:cx="8"
     inkscape:cy="8"
     inkscape:window-x="0"
     inkscape:window-y="0"
     inkscape:window-maximized="0"
     inkscape:current-layer="svg8" />
  <defs
     id="defs3051">
    <style
       type="text/css"
       id="current-color-scheme">
      .ColorScheme-Text {
        color:#4d4d4d;
      }
      .ColorScheme-Highlight {
        color:#67A2B4;
      }
      </style>
  </defs>
  <path
     style="fill:currentColor;fill-opacity:1;stroke:none"
     d="M 5 4 L 5 14 L 7 14 L 7 13 L 6 13 L 6 5 L 12 5 L 12 6 L 13 6 L 13 4 L 11 4 L 5 4 z M 11.003906 7 A 2 2 0 0 0 9.0039062 9 L 9.0039062 11 L 8.0039062 11 L 8.0039062 14 L 14.003906 14 L 14.003906 11 L 13.003906 11 L 13.003906 9 A 2 2 0 0 0 11.003906 7 z M 11.003906 8 A 1 1 0 0 1 12.003906 9 L 12.003906 11 L 10.003906 11 L 10.003906 9 A 1 1 0 0 1 11.003906 8 z "
     class="ColorScheme-Text"
     id="path4" />
  <path
     style="fill:#67a2b4;fill-opacity:1;stroke:none"
     d="m 2,2 0,11 3,0 0,-1 -2,0 0,-9 8,0 0,1 1,0 0,-2 z"
     class="ColorScheme-Highlight"
     id="path6" />
</svg>
